<?xml version="1.0" encoding="UTF-8"?>
<svg viewBox="0 0 582.62 362.95" xmlns="http://www.w3.org/2000/svg">
 <g stroke="#000">
  <g fill-rule="evenodd">
   <g fill="none" stroke-linecap="round">
    <path d="m214.69 101.91c47.936 2.8315 68.796-1.6542 133.04 2.5054 24.846 1.6085 47.053 40.751 51.234 65.294 2.8682 16.838 10.18 33.238 15.288 51.643 1.353 4.8737-5.2784 11.641-9.9192 13.652-3.6681 1.5894-9.5048-0.27043-13.243-1.6871-10.716-4.0616-17.809-19.718-21.885-23.93-3.3628-3.4753 3.0549 12.058 0.40912 16.107-8.8637 13.568-23.29 27.163-35.536 37.172-3.1805 2.5995-9.9663-0.58621-13.652 1.2273-4.093 2.0133-13.982 14.913-18.101 16.873-9.4778 1.8162-5.9536-1.2849-14.112 7.516-5.5933 4.1741-14.929 8.4572-21.884 7.8745-13.881-1.1637-36.238-25.056-40.496-22.754-19.621 8.5104-44.391 8.8227-60.784 15.152l-62.944 34.602c-7.765 3.6237-40.53-16.865-58.659-41.812-18.129-24.948-4.8734-59.492 0.89885-62.862 16.253-9.4883 75.267-48.423 90.167-59.92 9.2737-7.1557 20.426-18.295 30.168-24.798 16.872-11.263 32.259-32.912 50.006-31.855zm59.875 122.77l-12.373 18.56 22.293-4.1409 3.7318-6.1874-13.652-8.2321z" stroke-linejoin="round" stroke-width="4.751"/>
    <g stroke-width="3.751">
     <path d="m298.72 212.89l-14.876 26.445-26.032 3.7187-11.982 7.0248-4.5457 11.57 0.8261 12.396c1.1026 3.7196 2.2044 7.4384 3.3061 11.157l55.298-4.5492" stroke-linejoin="round"/>
     <path d="m349.02 210.64s-11.396-2.749-18.098 5.165c-3.5801 4.2272-11.4 7.1177-14.049 11.983-2.691 4.9425-3.0888 13-2.4792 18.594 0.58524 5.3712 6.169 16.921 6.169 16.921"/>
    </g>
   </g>
   <path d="m553.68 141.54l-31.088-118.62-219.25 55.631 35.178 119.44 215.16-56.449z" fill="#fff" stroke-linejoin="round" stroke-width="10"/>
  </g>
  <g stroke-width="3.751">
   <path d="m198.48 272.87c9.9018-7.1129 32.508-25.791 42.399-32.918 8.8212-6.3562 21.942-12.804 31.817-17.354 19.278-8.8832 47.413-15.162 66.112-25.205 9.9402-5.3388 24.356-12.486 30.577-21.9 3.1505-4.7673 4.801-12.919 4.132-18.594-0.62955-5.3407-3.9978-12.364-7.8509-16.115-3.2195-3.1346-9.2065-5.4409-13.636-6.198-8.3411-1.4259-17.93 2.5139-26.032 4.9584-7.7002 2.3235-18.115 7.4338-25.619 10.33-4.4036 1.6997-10.826 2.1816-15.288 3.7189-5.4028 1.861-12.083 5.645-17.355 7.8508-13.358 5.5896-30.705 15.301-45.039 17.354-11.821 1.6938-39.668-3.3056-39.668-3.3056" fill="#fff" fill-rule="evenodd" stroke-linecap="round"/>
   <g fill="none">
    <g fill-rule="evenodd">
     <g stroke-linecap="round">
      <path d="m293.69 160.13c7.3629 11.044 13.09 23.725 13.09 23.725l2.4543 9.4081"/>
      <path d="m284.34 238.69l9.8173-2.4543 8.181 4.9086-9.4081-2.4543h-8.5901z"/>
     </g>
     <path d="m367.72 207.13l-2.8924-13.222"/>
     <path d="m255.7 244.01l-13.908-4.9086"/>
     <path d="m227.87 271.59l-12.272-7.3629" stroke-linecap="round"/>
     <path d="m335.56 211.52l-1.4462-7.9542"/>
    </g>
    <g stroke-linecap="round">
     <path d="m224.91 145.66c0.49847 1.4954 1.3936 3.784 2.9908 7.2278 1.8759 4.0446 4.1186 8.1665 5.7324 11.963 1.3579 3.1948 2.1182 5.9684 2.2431 7.7263 0.053009 0.74583 0 1.2462 0 1.4954v0.24922"/>
     <path d="m245.09 151.89c0.49847 0.74771 1.7122 3.8807 2.4924 5.7324 0.70445 1.6721 1.6814 4.2772 2.4924 5.4832 0.69536 1.0342 0.99693 1.7447 1.4954 2.4924v0.24924-0.24924"/>
    </g>
   </g>
  </g>
  <ellipse cx="-175.62" cy="-117.95" ry="1" fill="#db9977" stroke-width="5"/>
 </g>
</svg>
