<?xml version="1.0" encoding="UTF-8"?>
<svg version="1.1" viewBox="0 0 744.09 1052.4" xmlns="http://www.w3.org/2000/svg">
 <path d="m300 292.38l-20.656 8.25c12.982-0.14329 25.974-0.12891 38.969-0.09375-6.162-2.3881-12.213-5.0706-18.062-8.1562h-0.25zm64.688 0c1.7613 0.9588 3.5253 1.9221 5.2812 2.875-0.73246-0.96175-1.4814-1.9184-2.2188-2.875h-3.0625zm114 0c-3.6471 3.035-7.5842 5.7543-11.688 8.1875h52.531c8.637 1.4561 18.696-3.0909 26.156 3v202.56l34.312-13.75v-200h-101.31zm-252.22 29.406l-26.469 10.594v200h113.69v-168.91c1.0714-10.922-1.6676-22.117 0.96875-32.844 4.0253-5.457 12.122-4.7669 17.656-8.1562-35.279-0.18505-70.589 0.92156-105.84-0.6875zm182.19 0.78125c-14.917 2.5327-28.496 10.427-42.781 15.312v194.5h114.12v0.09375l34.406-13.781v-196.12h-105.75z"/>
 <path d="m329.88 216.88c-3.9016-0.01106-8.5803 0.19116-14.531 0.34375-11.426 0.29297-24.094 6.4062-35.344 25.156-20.748 34.58 39.795 54.811 79.125 64h-99.375l-23.75 10h127.91l-43.031 16.906h-0.875v201.94h40.188v-201.84h0.4375l43.281-17h116.97l-0.15625 0.0625v201.81l19.281-8.0312v-201.81l-0.15625 0.0625v-2.0938h-102.12c4.2229-1.1124 8.375-2.4375 12.281-4 63.438-27.188 54.838-83.066 6.3125-82.188-5.0198 0.0909-10.474 0.78721-16.312 2.1875-40.818 16.327-48.28 65.94-49.656 83.625l-0.96875 0.375h-0.875l-8.5-34c-7.6673-30.679-13.837-39.205-30-50-6.6768-4.4594-11.542-5.4757-20.125-5.5zm-30.375 8.5938c25.082-1.3755 72.096 61.209 86.25 80.906h-7.75c-30.317-15.563-106.5-57.565-86.625-77.312 2.3113-2.2966 5.0484-3.425 8.125-3.5938zm176.31 2.875c2.3766-0.12588 4.5411 0.33073 6.4375 1.4688 16.464 9.8796-31.804 44.286-64.594 65.438l-21.312 8.375c15.757-21.263 57.078-74.095 79.469-75.281z" fill="#1a1a1a"/>
</svg>
