<?xml version="1.0" encoding="UTF-8"?>
<svg viewBox="0 0 128 128" xmlns="http://www.w3.org/2000/svg" xmlns:xlink="http://www.w3.org/1999/xlink">
 <defs>
  <filter id="dc">
   <feGaussianBlur stdDeviation="1.40272"/>
  </filter>
  <filter id="db">
   <feGaussianBlur stdDeviation=".6192"/>
  </filter>
  <filter id="da">
   <feGaussianBlur stdDeviation=".23208"/>
  </filter>
  <filter id="cy">
   <feGaussianBlur stdDeviation=".12567"/>
  </filter>
  <filter id="cx">
   <feGaussianBlur stdDeviation=".12476"/>
  </filter>
  <filter id="cw">
   <feGaussianBlur stdDeviation=".22566"/>
  </filter>
  <filter id="cv">
   <feGaussianBlur stdDeviation=".30547"/>
  </filter>
  <filter id="cz"/>
  <linearGradient id="b">
   <stop stop-color="#6a3c1d" offset="0"/>
   <stop stop-color="#8f5127" offset="1"/>
  </linearGradient>
  <linearGradient id="a">
   <stop stop-color="#b1b1b1" offset="0"/>
   <stop stop-color="#e4e4e4" offset="1"/>
  </linearGradient>
  <linearGradient id="c">
   <stop stop-color="#4a585b" offset="0"/>
   <stop stop-color="#5e7074" offset="1"/>
  </linearGradient>
  <linearGradient id="e">
   <stop stop-color="#9e2612" offset="0"/>
   <stop stop-color="#bd5032" offset="1"/>
  </linearGradient>
  <linearGradient id="ax" x1="49.457" x2="90.625" y1="97.753" y2="46.034" gradientUnits="userSpaceOnUse">
   <stop stop-color="#4f3e2a" offset="0"/>
   <stop stop-color="#72593c" offset="1"/>
  </linearGradient>
  <linearGradient id="d">
   <stop stop-color="#bb8f56" offset="0"/>
   <stop stop-color="#d1af63" offset="1"/>
  </linearGradient>
  <linearGradient id="cu" x1="27.749" x2="47.9" y1="86.855" y2="109.56" gradientUnits="userSpaceOnUse" xlink:href="#a"/>
  <linearGradient id="ct" x1="59.879" x2="85.652" y1="113.88" y2="96.498" gradientUnits="userSpaceOnUse" xlink:href="#a"/>
  <linearGradient id="cs" x1="101.26" x2="118.26" y1="104.15" y2="79.028" gradientUnits="userSpaceOnUse" xlink:href="#a"/>
  <linearGradient id="cr" x1="115.62" x2="117.26" gradientUnits="userSpaceOnUse" xlink:href="#a"/>
  <linearGradient id="cq" x1="107.62" x2="113.37" y1="101.17" y2="90.444" gradientUnits="userSpaceOnUse" xlink:href="#b"/>
  <linearGradient id="cp" x1="89.457" x2="115.23" y1="34.358" y2="62.38" gradientUnits="userSpaceOnUse" xlink:href="#a"/>
  <linearGradient id="co" x1="47.641" x2="78.344" y1="47.331" y2="30.553" gradientUnits="userSpaceOnUse" xlink:href="#a"/>
  <linearGradient id="cn" x1="25.889" x2="37.003" y1="66.877" y2="40.931" gradientUnits="userSpaceOnUse" xlink:href="#a"/>
  <linearGradient id="cm" x1="16.506" x2="17.717" y1="62.877" y2="87.958" gradientUnits="userSpaceOnUse" xlink:href="#a"/>
  <linearGradient id="cl" x1="34.266" x2="34.619" y1="85.272" y2="84.609" gradientUnits="userSpaceOnUse" xlink:href="#a"/>
  <linearGradient id="ck" x2="0" y1="94.066" y2="92.785" gradientUnits="userSpaceOnUse" xlink:href="#a"/>
  <linearGradient id="cj" x1="108.69" x2="108.38" y1="82.797" y2="82.399" gradientUnits="userSpaceOnUse" xlink:href="#a"/>
  <linearGradient id="ci" x1="121.33" x2="119.91" y1="60.567" y2="60.744" gradientUnits="userSpaceOnUse" xlink:href="#a"/>
  <linearGradient id="ch" x1="111.67" x2="111.36" y1="40.996" y2="41.715" gradientUnits="userSpaceOnUse" xlink:href="#a"/>
  <linearGradient id="cg" x1="68.233" x2="68.389" y1="29.246" y2="30.121" gradientUnits="userSpaceOnUse" xlink:href="#a"/>
  <linearGradient id="cf" x1="27.451" x2="28.014" y1="42.152" y2="43.027" gradientUnits="userSpaceOnUse" xlink:href="#a"/>
  <linearGradient id="ce" x1="18.108" x2="19.076" y1="64.715" y2="64.621" gradientUnits="userSpaceOnUse" xlink:href="#a"/>
  <linearGradient id="cd" x1="95.795" x2="100.17" y1="39.402" y2="62.84" gradientUnits="userSpaceOnUse" xlink:href="#a"/>
  <linearGradient id="cc" x1="104.48" x2="101.36" y1="38.277" y2="61.465" gradientUnits="userSpaceOnUse" xlink:href="#a"/>
  <linearGradient id="cb" x1="114.98" x2="120.8" y1="66.652" y2="65.465" gradientUnits="userSpaceOnUse" xlink:href="#a"/>
  <linearGradient id="ca" x1="76.733" x2="86.545" y1="51.215" y2="58.715" gradientUnits="userSpaceOnUse" xlink:href="#a"/>
  <linearGradient id="bz" x1="89.733" x2="92.983" y1="58.34" y2="51.152" gradientUnits="userSpaceOnUse" xlink:href="#a"/>
  <linearGradient id="by" x1="77.17" x2="88.358" y1="45.09" y2="53.715" gradientUnits="userSpaceOnUse" xlink:href="#b"/>
  <linearGradient id="bx" x1="89.983" x2="92.92" y1="53.277" y2="44.902" gradientUnits="userSpaceOnUse" xlink:href="#b"/>
  <linearGradient id="bw" x1="87.545" x2="93.17" y1="61.058" y2="47.308" gradientUnits="userSpaceOnUse" xlink:href="#a"/>
  <linearGradient id="bv" x1="53.92" x2="59.733" y1="32.152" y2="55.715" gradientUnits="userSpaceOnUse" xlink:href="#a"/>
  <linearGradient id="bu" x1="60.733" x2="63.92" y1="52.59" y2="30.027" gradientUnits="userSpaceOnUse" xlink:href="#a"/>
  <linearGradient id="bt" x1="60.295" x2="74.295" y1="53.465" y2="49.652" gradientUnits="userSpaceOnUse" xlink:href="#a"/>
  <linearGradient id="bs" x1="42.545" x2="68.42" y1="51.59" y2="50.777" gradientUnits="userSpaceOnUse" xlink:href="#a"/>
  <linearGradient id="br" x1="44.358" x2="52.795" y1="60.715" y2="68.09" gradientUnits="userSpaceOnUse" xlink:href="#b"/>
  <linearGradient id="bq" x1="55.42" x2="59.233" y1="66.965" y2="57.59" gradientUnits="userSpaceOnUse" xlink:href="#b"/>
  <linearGradient id="bp" x1="43.983" x2="54.358" y1="66.465" y2="73.902" gradientUnits="userSpaceOnUse" xlink:href="#a"/>
  <linearGradient id="bo" x1="55.733" x2="58.983" y1="72.527" y2="65.652" gradientUnits="userSpaceOnUse" xlink:href="#a"/>
  <linearGradient id="bn" x1="32.983" x2="37.233" y1="60.84" y2="79.152" gradientUnits="userSpaceOnUse" xlink:href="#a"/>
  <linearGradient id="bm" x1="39.483" x2="41.858" y1="75.652" y2="56.465" gradientUnits="userSpaceOnUse" xlink:href="#a"/>
  <linearGradient id="bl" x1="53.17" x2="66.67" y1="74.84" y2="76.652" gradientUnits="userSpaceOnUse" xlink:href="#a"/>
  <linearGradient id="bk" x1="28.483" x2="39.545" y1="67.465" y2="69.777" gradientUnits="userSpaceOnUse" xlink:href="#a"/>
  <linearGradient id="bj" x1="25.108" x2="28.545" y1="75.402" y2="81.59" gradientUnits="userSpaceOnUse" xlink:href="#a"/>
  <linearGradient id="bi" x1="34.17" x2="36.295" y1="82.777" y2="77.027" gradientUnits="userSpaceOnUse" xlink:href="#a"/>
  <linearGradient id="bh" x1="38.17" x2="39.045" y1="86.34" y2="87.777" gradientUnits="userSpaceOnUse" xlink:href="#a"/>
  <linearGradient id="bg" x1="49.983" x2="52.608" y1="90.965" y2="84.402" gradientUnits="userSpaceOnUse" xlink:href="#a"/>
  <linearGradient id="bf" x1="60.92" x2="63.733" y1="89.027" y2="93.59" gradientUnits="userSpaceOnUse" xlink:href="#a"/>
  <linearGradient id="be" x1="75.045" x2="77.358" y1="93.027" y2="88.465" gradientUnits="userSpaceOnUse" xlink:href="#a"/>
  <linearGradient id="bd" x1="65.42" x2="72.233" y1="62.215" y2="68.59" gradientUnits="userSpaceOnUse" xlink:href="#a"/>
  <linearGradient id="bc" x1="71.545" x2="79.108" y1="72.965" y2="79.652" gradientUnits="userSpaceOnUse" xlink:href="#a"/>
  <linearGradient id="bb" x1="82.17" x2="90.733" y1="78.84" y2="65.902" gradientUnits="userSpaceOnUse" xlink:href="#a"/>
  <linearGradient id="ba" x1="90.108" x2="120.11" y1="77.527" y2="65.715" gradientUnits="userSpaceOnUse" xlink:href="#a"/>
  <linearGradient id="az" x1="90.233" x2="97.608" y1="77.59" y2="85.402" gradientUnits="userSpaceOnUse" xlink:href="#b"/>
  <linearGradient id="ay" x1="100.36" x2="110.11" y1="84.277" y2="70.652" gradientUnits="userSpaceOnUse" xlink:href="#b"/>
  <linearGradient id="aw" x1="84.339" x2="96.386" y1="89.453" y2="88.597" gradientUnits="userSpaceOnUse" xlink:href="#a"/>
  <linearGradient id="av" x1="97.304" x2="97.915" y1="67.56" y2="69.088" gradientUnits="userSpaceOnUse" xlink:href="#c"/>
  <linearGradient id="au" x1="99.138" x2="104.4" y1="77.406" y2="64.93" gradientUnits="userSpaceOnUse" xlink:href="#c"/>
  <linearGradient id="at" x1="64.891" x2="71.068" y1="84.744" y2="89.881" gradientUnits="userSpaceOnUse" xlink:href="#c"/>
  <linearGradient id="as" x1="67.154" x2="71.557" y1="82.726" y2="83.338" gradientUnits="userSpaceOnUse" xlink:href="#c"/>
  <linearGradient id="ar" x1="41.958" x2="54.495" y1="84.133" y2="80.647" gradientUnits="userSpaceOnUse" xlink:href="#e"/>
  <linearGradient id="aq" x1="41.163" x2="42.631" y1="79.362" y2="82.726" gradientUnits="userSpaceOnUse" xlink:href="#e"/>
  <linearGradient id="ap" x1="79.997" x2="84.131" y1="73.797" y2="62.912" gradientUnits="userSpaceOnUse" xlink:href="#c"/>
  <linearGradient id="ao" x1="76.327" x2="76.572" y1="65.358" y2="70.006" gradientUnits="userSpaceOnUse" xlink:href="#c"/>
  <linearGradient id="an" x1="66.237" x2="77.612" y1="56.613" y2="64.135" gradientUnits="userSpaceOnUse" xlink:href="#c"/>
  <linearGradient id="am" x1="76.205" x2="77.612" y1="58.692" y2="58.57" gradientUnits="userSpaceOnUse" xlink:href="#c"/>
  <linearGradient id="al" x1="32.724" x2="31.715" y1="77.528" y2="71.107" gradientUnits="userSpaceOnUse" xlink:href="#c"/>
  <linearGradient id="ak" x1="24.896" x2="26.027" y1="71.045" y2="73.43" gradientUnits="userSpaceOnUse" xlink:href="#c"/>
  <linearGradient id="aj" x1="34.803" x2="37.188" y1="47.256" y2="53.433" gradientUnits="userSpaceOnUse" xlink:href="#e"/>
  <linearGradient id="ai" x1="38.656" x2="41.775" y1="52.271" y2="47.378" gradientUnits="userSpaceOnUse" xlink:href="#e"/>
  <linearGradient id="ah" x1="96.386" x2="99.994" y1="33.313" y2="36.003" gradientUnits="userSpaceOnUse" xlink:href="#e"/>
  <linearGradient id="ag" x1="101.77" x2="104.89" y1="35.514" y2="30.194" gradientUnits="userSpaceOnUse" xlink:href="#e"/>
  <linearGradient id="af" x1="78.529" x2="88.497" y1="38.633" y2="47.134" gradientUnits="userSpaceOnUse" xlink:href="#c"/>
  <linearGradient id="ae" x1="81.526" x2="88.008" y1="38.266" y2="39.673" gradientUnits="userSpaceOnUse" xlink:href="#c"/>
  <linearGradient id="ad" x1="56.452" x2="58.592" y1="24.139" y2="31.295" gradientUnits="userSpaceOnUse" xlink:href="#c"/>
  <linearGradient id="ac" x1="61.222" x2="64.28" y1="28.42" y2="23.1" gradientUnits="userSpaceOnUse" xlink:href="#c"/>
  <linearGradient id="ab" x1="52.721" x2="55.29" y1="54.839" y2="54.717" gradientUnits="userSpaceOnUse" xlink:href="#c"/>
  <linearGradient id="aa" x1="44.527" x2="53.822" y1="54.717" y2="61.383" gradientUnits="userSpaceOnUse" xlink:href="#c"/>
  <linearGradient id="z" x1="32.807" x2="34.442" y1="56.722" y2="60.346" gradientUnits="userSpaceOnUse" xlink:href="#b"/>
  <linearGradient id="y" x1="32.807" x2="34.442" y1="64.943" y2="68.566" gradientUnits="userSpaceOnUse" xlink:href="#b"/>
  <linearGradient id="x" x1="39.171" x2="40.806" y1="65.694" y2="61.451" gradientUnits="userSpaceOnUse" xlink:href="#b"/>
  <linearGradient id="w" x1="38.951" x2="40.295" y1="79.48" y2="76.512" gradientUnits="userSpaceOnUse" xlink:href="#b"/>
  <linearGradient id="v" x1="25.284" x2="26.995" y1="77.242" y2="79.789" gradientUnits="userSpaceOnUse" xlink:href="#d"/>
  <linearGradient id="u" x1="56.667" x2="58.01" y1="72.067" y2="69.099" gradientUnits="userSpaceOnUse" xlink:href="#b"/>
  <linearGradient id="t" x1="55.506" x2="57.217" y1="50.669" y2="53.216" gradientUnits="userSpaceOnUse" xlink:href="#d"/>
  <linearGradient id="s" x1="55.773" x2="57.483" y1="43.294" y2="45.841" gradientUnits="userSpaceOnUse" xlink:href="#d"/>
  <linearGradient id="r" x1="55.735" x2="57.445" y1="36.185" y2="38.732" gradientUnits="userSpaceOnUse" xlink:href="#d"/>
  <linearGradient id="q" x1="61.817" x2="63.072" y1="49.034" y2="45.233" gradientUnits="userSpaceOnUse" xlink:href="#d"/>
  <linearGradient id="p" x1="61.665" x2="62.919" y1="40.329" y2="36.527" gradientUnits="userSpaceOnUse" xlink:href="#d"/>
  <linearGradient id="o" x1="73.089" x2="75.003" y1="77.199" y2="79.515" gradientUnits="userSpaceOnUse" xlink:href="#b"/>
  <linearGradient id="n" x1="75.731" x2="76.833" y1="90.129" y2="87.202" gradientUnits="userSpaceOnUse" xlink:href="#b"/>
  <linearGradient id="m" x1="92.876" x2="91.963" y1="84.237" y2="82.911" gradientUnits="userSpaceOnUse" xlink:href="#b"/>
  <linearGradient id="l" x1="96.355" x2="98.269" y1="59.864" y2="62.18" gradientUnits="userSpaceOnUse" xlink:href="#b"/>
  <linearGradient id="k" x1="79.742" x2="81.656" y1="54.466" y2="56.782" gradientUnits="userSpaceOnUse" xlink:href="#b"/>
  <linearGradient id="j" x1="76.377" x2="78.088" y1="46.716" y2="49.263" gradientUnits="userSpaceOnUse" xlink:href="#d"/>
  <linearGradient id="i" x1="85.196" x2="86.907" y1="50.403" y2="52.95" gradientUnits="userSpaceOnUse" xlink:href="#d"/>
  <linearGradient id="h" x1="97.247" x2="98.92" y1="45.157" y2="51.848" gradientUnits="userSpaceOnUse" xlink:href="#b"/>
  <linearGradient id="g" x1="102.65" x2="104.05" y1="53.406" y2="44.435" gradientUnits="userSpaceOnUse" xlink:href="#b"/>
  <linearGradient id="f" x1="118.86" x2="119.99" y1="58.79" y2="70.639" gradientUnits="userSpaceOnUse" xlink:href="#a"/>
 </defs>
 <path transform="matrix(1 0 0 .89898 -.69189 9.7983)" d="m20.506 98.302-8.1317-17.324-8.8388-24.042 20.506-15.203-4.9498-10.253 2.1213-10.253 6.0104 4.5962 4.2426 9.5459 12.374-3.5355 67.529 35.709-66.822 32.88-24.042-2.1213z" fill-opacity=".66667" fill-rule="evenodd" filter="url(#dc)"/>
 <path d="m18.841 70.077 24.735-24.389 42.032-2.2486 32 17.297 3.6324 21.449-25.773 26.811-43.416 0.69189-30.27-18.854-2.9405-20.757z" fill="url(#ax)" fill-rule="evenodd"/>
 <path d="m20.052 78.293 3.7189 2.1622-0.04324 1.0811 3.1135 1.5568 0.08649-1.1676 2.854 1.3405-0.04324 1.3838 2.6811 1.8162 0.12973-1.6432 3.0703 1.6-0.08649 1.1676 3.1135 1.6865 0.12973-1.1243 2.854 1.427 0.08649 1.5135 2.9838 1.2108 0.04324-1.0811 2.8973 1.3838-0.04324 1.4703 3.546 1.5135v-1.3405l2.1622 1.0378 0.04324 19.762-33.47-16.822 0.17297-19.935z" fill="url(#cu)" fill-rule="evenodd"/>
 <path d="m53.349 95.158 3.4595-0.04324v1.4703l4.4973-0.3027v-1.427l3.7189-0.04324 0.04324 1.7297 3.9351-0.47568v-1.3405l3.6324-0.34595 0.21622 1.3405 3.5892-0.21622-0.21622-1.3405 3.8919-0.08649 0.17297 1.3838 3.1135-0.34595 0.12973-1.4703 3.5027-0.21622 0.25946 1.6 3.8919-0.51892-0.17297-1.4703 5.146-0.25946 0.04324 19.805-42.897 2.5081 0.04324-19.935z" fill="url(#ct)" fill-rule="evenodd"/>
 <path d="m115.62 85.774 1.6-1.3405 0.04324 12.065-1.4703-0.43243-0.17297-10.292z" fill="url(#cr)" fill-rule="evenodd"/>
 <path d="m106.32 93.212 9.3838-7.4811 0.17298 10.422-9.5568 7.654v-10.595z" fill="url(#cq)" fill-rule="evenodd"/>
 <path d="m85.57648,28.96471-3.46875.21875-.34375,1.46875-4.28125.34375 .09375-1.34375-3.875.375-.03125,1.6875-4.03125.0625 .15625-1.34375-3.59375.21875-.3125,1.375-1.46875.03125 .03125,16.90625 9.53125-.6875v-5.4375l3.09375-5.8125 3.03125-.625 5.28125,2.03125 .1875-9.46875zm-32.5,2.53125-1.46875.09375-.25,1.59375h-3.875l.1875-1.34375-3.96875-.21875-.21875.53125 .0625,17.9375 9.40625-.5625 .125-18.03125z" fill="url(#co)" fill-rule="evenodd"/>
 <path d="m43.619 31.763-2.3351 1.1676 0.17297 1.2973-2.4649 2.3784-0.3027-1.7297-1.8595 1.6 0.12973 1.6-2.6811 2.1622-0.21622-1.5135-2.3351 1.6 0.12973 1.3405-2.2919 1.8595-0.21622-1.2108-2.2919 1.9027 0.08649 1.5568-2.4649 2.3784-0.21622-1.5135-2.5946 1.7297 0.25946 1.5135-2.8108 2.4216-0.04324-1.427-1.3405 0.95135 0.38919 3.2-0.17297 1.0378 1.1676 5.1027-0.08649 2.0757 0.69189 2.2054 0.34595 4.8432 0.51892 0.3027 0.25946 1.6 9.9027-9.6432v-9.6432l5.2757-12.195 0.56216 0.47568 5.7946 10.119 1.2108-1.2108-0.17297-18.335z" fill="url(#cn)" fill-rule="evenodd"/>
 <path d="m15.468 52.044 0.60541 2.8973-0.08649 1.8595 0.43243 3.027 0.3027-0.12973 0.38919 1.8162 0.04324 2.0757 0.38919 2.3784 0.25946-0.08649 0.43243 1.3838-0.34595 1.7297 0.17297 2.1189 0.34595-0.25946 0.56216 1.773-0.25946 1.5568 0.38919 2.2919 0.43243-0.38919 0.43243 2.5081-0.04324 19.33-4.454-25.989v-19.892z" fill="url(#cm)" fill-rule="evenodd"/>
 <path d="m19.461 75.947 1.7678-0.22097 0.61872 2.0329 3.1378 1.9004 0.08839 1.1932 2.0771 0.7513 0.70711-0.66291 3.1378 1.6352v1.4142l1.812 0.57452 1.3258-0.66291 2.961 1.812-0.04419 1.4142 1.7236 0.70711 1.2816-0.92808 3.1378 1.812-0.13258 1.5026 1.5468 0.61872 1.5026-1.0607 2.9168 1.591-0.13258 1.591 1.9445 0.97227 0.26516 1.591-3.403-1.5468-0.04419-1.4142-2.9168-1.4142-0.0442 1.1932-2.961-1.4142-0.04419-1.2816-2.8726-1.591-0.13258 1.2816-3.2262-1.6794 0.13258-1.3258-3.0494-1.5026-0.17678 1.6794-2.6516-1.7678v-1.5026l-2.74-1.2816-0.08839 1.1932-3.0494-1.7678-0.17678-1.0165-3.6239-1.9445-0.57452-2.4749z" fill="url(#cl)" fill-rule="evenodd"/>
 <path d="m50.839 93.801 0.88388-1.3258 2.2981 1.3258 3.8449-0.13258 0.13258 1.37 3.403-0.48614 0.7513-1.37 3.8007 0.13258 0.39775 1.4584 2.5633-0.26517 0.7955-1.591 3.8007 0.04419 0.30936 1.3258 2.6075-0.30936 0.57452-1.4584 3.9775-0.08839 0.30936 1.2816 2.3423-0.30936 0.92808-1.3258 3.5355-0.17678 0.48614 1.2816 2.2981-0.04419 0.17678 1.3258-3.7565 0.39775-0.26517-1.3258-3.5355 0.17678-0.08839 1.37-3.182 0.22097-0.13258-1.2374-3.8007 0.13258-0.04419 1.2374-3.4472 0.22097-0.26517-1.37-3.2704 0.30936-0.13258 1.4584-3.9775 0.22097-0.04419-1.4584-3.9333 0.13258v1.149l-4.1542 0.39775-0.13258-1.4142-3.5355 0.08839-2.4749-1.0165-0.04419-0.35355z" fill="url(#ck)" fill-rule="evenodd"/>
 <path d="m120.97467,72.23456 .83969-.92808-.53033-2.20971-.44194.39775-.35356-2.51907 .22097-1.67938-.44194-1.5468-.35355.22097-.30936-2.16551 .35355-1.67938-.30936-1.01647-.44194-.26517-.39774-2.2539 .04419-2.07713-.35355-1.98874-.30936.13258-.53033-2.47487-.0442-2.38649h2.34229l-.22097,1.01647 1.10486,4.24264c0,0 .26516.97227.26516,1.14905s-.17677,1.94454-.17677,1.94454l.7071,2.2539 .30936,4.72878 .57453.39775 .26516,2.2981-.08839,1.14905 1.19325,4.81717-.13259.39775-2.38648,1.94454-.39775-1.90035z" fill="url(#ci)" fill-rule="evenodd"/>
 <path d="m89.858 30.027-1.3438 0.625 0.125 1.2188 2.8438 1.625 0.1875-1.2188 2.75 1.2188 0.15625 1.3125 0.96875-2.125c-0.125 0-2.875-1.5312-2.875-1.5312l-0.75 0.84375-2.1562-0.875 0.09375-1.0938zm15.531 7.5-0.03125 1.75 1 0.53125 0.15625 1.4688 2.9375 1.375 0.03125-1.2188 2.9375 1.4688-0.09375 1.25 3.3438 1.625 0.15625-1.2188 1.5 0.84375 0.34375 2.4375 2.2188-0.40625-0.34375-2.7188-3.125-1.8438-0.8125 1.3438-1.9062-1 0.0625-1.5312-3.0625-1.5625-1.125 1-1.7188-0.75 0.03125-1.3125-2.5-1.5312z" fill="url(#ch)" fill-rule="evenodd"/>
 <path d="m86.07648,27.33971-5.09375.71875c0,0-.25,1.0625-.25,1.1875s-1.46875.34375-1.71875.1875-1.71875-.03125-1.71875-.03125l-.53125-1.28125-4.09375.6875-.1875,1.375h-2.1875l-.59375-.0625-.59375-1.25-3.8125.34375-.28125,1.4375h-.65625l.03125,1.375 1.40625-.03125 .40625-1.4375 3.53125-.15625v1.375l3.84375-.09375 .09375-1.6875c0,0 3.6875-.40625 3.8125-.40625s.09375,1.21875.09375,1.21875l4.09375-.25 .3125-1.34375 3.4375-.3125 2.90625,1.84375 1.53125-.84375-3.78125-2.5625zm-33.0625,2.65625-2.34375.15625-.40625,1.25-2.53125.21875-.03125,1.59375 3.6875.09375 .40625-1.65625 1.1875-.09375 .03125-1.5625z" fill="url(#cg)" fill-rule="evenodd"/>
 <path d="m47.139 30.215-3.8438 0.09375-2.9375 1.0938 0.375 1.3438-2.0625 1.75-0.375-1.2188-1.625 1.25-0.03125 1.2812-2.5 2.1875s-0.15625-1.375-0.375-1.1875-2.0625 1.7188-2.0625 1.7188l-0.03125 1.3438-2.2812 1.9375-0.1875-1.1875-2.4062 1.8125 0.125 1.4062-2.3438 1.7812-0.28125-0.96875-2.875 2.2812 0.0625 0.9375-1.875 1.9688s-0.53125 2.5-0.21875 2.1875 2.7188-2.1562 2.7188-2.1562l-0.0625-1.375 2.4375-2 0.0625 1.8438 2.6562-2.6875-0.125-1.4688 2.4062-1.8438s-0.21875 1.3438 0.09375 1.2188 2.4062-1.9062 2.4062-1.9062l-0.0625-1.375 2.125-1.5938 0.3125 1.5625 2.5938-2.125-0.15625-1.6875 1.9375-1.5938 0.34375 1.5625 2.4688-2.1875-0.375-1.2188 2.6875-1.3438 3.875 0.1875-0.59375-1.625z" fill="url(#cf)" fill-rule="evenodd"/>
 <path d="m19.20148,48.99596-3.71875,2.78125 .5625,3.25 .03125,1.78125 .34375,3 .34375-.28125 .34375,2.125 .0625,2.125 .375,2.25 .40625-.03125 .15625,1-.15625,1.8125 .0625,2.21875 .5-.21875 .375,1.8125-.15625,1.65625 .375,1.96875 .65625-.3125 1.65625-.28125-.4375-1.75c0,0 .03125-.5625.125-1.1875s-.34375-2.1875-.34375-2.1875l-.375-.40625-.1875-1.5-.46875-4.0625-.59375-1.4375 .15625-2.03125-1.28125-5.1875-.15625-4 1.40625-1.15625-.0625-1.75z" fill="url(#ce)" fill-rule="evenodd"/>
 <path d="m73.983 49.84-4.5 5.25 23 9.5-0.0625 6.1875 6.0625-5.5625 2.4375-0.5 0.125-0.8125-7.125-2.875 0.0625-7.125-4.625 6.4375-15.312-6-0.0625-4.5z" fill="url(#bw)" fill-rule="evenodd"/>
 <path d="m89.045 55.34 4.75-6.25 0.1875 5.0625-4.8125 6.1875-0.125-5z" fill="url(#bz)" fill-rule="evenodd"/>
 <path d="m89.233 48.84 3.0625-5.875 1.5625-0.4375-0.0625 6.75-4.625 5.875 0.0625-6.3125z" fill="url(#bx)" fill-rule="evenodd"/>
 <path d="m93.36978,44.51065-.41817-.11405-.60825.64626-.4942,1.25451 .03802.87435 .22809.30412 .83634-.34214 .53222-.9884 .11405-1.36855-.22809-.26611z" fill="#d59163" fill-rule="evenodd"/>
 <path d="m73.881 42.608 3.3024-5.6874 15.228 5.9932-3.1189 5.9932-15.411-6.299z" fill="url(#af)" fill-rule="evenodd"/>
 <path d="m77.122 36.921 3.2412-0.48924 13.576 5.0759 0.06115 1.1008-1.59 0.30578-12.904-5.0759-2.385-0.91733z" fill="url(#ae)" fill-rule="evenodd"/>
 <path d="m93.854 60.75-2.6908-3.4247 0.12231-12.598-3.9139-2.3239-1.2231-1.957 4.2809 0.61155 2.9354 1.59 0.73386 12.109 2.6908 2.6908-2.9354 3.3024z" fill-opacity=".66667" fill-rule="evenodd" filter="url(#da)"/>
 <path d="m93.858 36.465 0.0625 24.562 6.875 3.0625 0.125-24.562-7.0625-3.0625z" fill="url(#cd)" fill-rule="evenodd"/>
 <path d="m100.86 39.715 4.4375-4.6875-0.125 24.75-4.0625 4.0625-0.3125-0.0625 0.0625-24.062z" fill="url(#cc)" fill-rule="evenodd"/>
 <path d="m109.86 60.527-2.375 3.0625 6.9375 3.9375 1.625 5.25-1.5 5.6875 2.125-1.875 0.0625-1.25 1.5625-1 0.25 1.1875 1.9375-1.625-3.1875-9.6875-7.4375-3.6875z" fill="url(#cb)" fill-rule="evenodd"/>
 <path d="m105.6 58.182 8.3171 7.3386-0.12231 12.598 1.957 3.9139 6.7271-4.0362-3.1801-15.166-13.699-4.6478z" fill-opacity=".66667" fill-rule="evenodd" filter="url(#cv)"/>
 <path d="m117.04624,64.10931 .17298-18.55135 .51892,2.20541-.12973,2.16216 .51891,2.76757 .38919-.25946 .30271,1.94595 .04324,2.07567 .25946,2.37838h.47567l.34595,1.2973-.25946,1.42703 .08649,2.50811 .34594-.17297 .47568,1.55676-.17297,1.51351 .38919,2.55135 .43243-.56216 .56216,2.42162-.73513.77838 .12972,1.42703-.73513.38919-3.41622-9.85946z" fill="url(#f)" fill-rule="evenodd"/>
 <path d="m85.514 29.09-0.125 9.3438 8.4375 3.0312-0.03125-4.9375 0.625-1.4062 0.09375-1.5938-2.8438-1.4062v1.25l-3.2188-1.75-0.0625-0.9375-2.875-1.5938zm19.844 10.375-0.15625 18.75 11.969 6.0312 0.125-19-1.4688-0.625 0.0625 1.1875-3.6562-1.4688 0.15625-1.5-2.9688-1.375v1.125l-2.8438-1.3125-0.09375-1.4375-1.125-0.375z" fill="url(#cp)" fill-rule="evenodd"/>
 <path d="m74.108 49.34-0.0625 5.0625 15.125 5.9375v-5.25l-15.062-5.75z" fill="url(#ca)" fill-rule="evenodd"/>
 <path d="m73.92 42.777 0.125 6.5 15.188 5.875v-6.4375l-15.312-5.9375z" fill="url(#by)" fill-rule="evenodd"/>
 <path d="m52.92 49.527-9.125 0.5-1.25 1.25 2.8125-0.4375 7.8125 2.8125-0.25-4.125z" fill="url(#bs)" fill-rule="evenodd"/>
 <path d="m30.983 62.715-0.1875 5.9375-5.8125 1.875-3.8125 4.375-0.3125-0.625 0.1875-2 9.9375-9.5625z" fill="url(#bk)" fill-rule="evenodd"/>
 <path d="m53.125 46.929-2.3239-1.4677-2.8131-12.598-0.12231-0.97848h-4.1586l-0.12231 4.6478 5.3817 13.21 1.957 2.2016-3.9139-0.12231-9.6625 12.231-7.4609-0.97848-1.3454-9.4179-2.3239-7.2163-1.59 9.2956 3.0578 9.6625 1.2231 2.4462-5.0147 3.0578-1.59 4.7701 10.029 5.8709 3.1801-9.2956 8.8064-5.2594 8.0725-8.684 2.8131-4.1586-2.0793-7.2163z" fill-opacity=".66667" fill-rule="evenodd" filter="url(#db)"/>
 <path d="m53.17 29.652v24.312l7.125 2.375-0.25-23.938-6.875-2.75z" fill="url(#bv)" fill-rule="evenodd"/>
 <path d="m59.92 32.777 4.5-4.6875-0.125 24.625-3.9375 3.4375-0.1875-0.3125-0.25-23.062z" fill="url(#bu)" fill-rule="evenodd"/>
 <path d="m70.42 48.402-9.875 10.125v-1.4375l0.5-0.4375-0.75-0.5 4.1875-3.625v-3.6875l5.9375-0.4375z" fill="url(#bt)" fill-rule="evenodd"/>
 <path d="m42.483 58.465-0.125 6.375 12.312 4.6875-0.0625-6.3125-12.125-4.75z" fill="url(#br)" fill-rule="evenodd"/>
 <path d="m54.483 63.277 2.9375-5.8125 3-0.5 0.3125 5.875-5.9375 6.6875-0.3125-6.25z" fill="url(#bq)" fill-rule="evenodd"/>
 <path d="m42.483 64.902 12.25 4.625-0.0625 5.25-12.25-4.8125 0.0625-5.0625z" fill="url(#bp)" fill-rule="evenodd"/>
 <path d="m54.608 69.402 5.75-5.9375 0.1875 4.6875-5.6875 6.4375-0.25-5.1875z" fill="url(#bo)" fill-rule="evenodd"/>
 <path d="m30.85773,52.77721 .0625,16 6.4375,6.25-.125,5 .8125.4375-.375-24.375-6.8125-3.3125z" fill="url(#bn)" fill-rule="evenodd"/>
 <path d="m37.67 56.465 4.8125-4.75-0.0625 24.438-4.375 4.5625-0.375-24.25z" fill="url(#bm)" fill-rule="evenodd"/>
 <path d="m54.17 78.902 9.5-11.188-3.25-1.25 0.125 1.75-5.875 6.4375-12.438-4.75 0.125 6.125-4.3125 4.375-0.75-0.25v2.0625l5.5-5.5 6.4375-2.6875 4.9375 4.875z" fill="url(#bl)" fill-rule="evenodd"/>
 <path d="m21.17023,75.40221 4.875-1.375 6,6 .0625,4.25-1.125-.3125 .125-1.375-3.1875-1.6875-.625.875-2.25-.9375 .0625-1.1875-3.4375-2.0625-.5-2.1875z" fill="url(#bj)" fill-rule="evenodd"/>
 <path d="m32.10773,80.08971 5.25-5.0625-.25,7-2.1875,2.375-.875-.5-1.25.75-.6875-.4375v-4.125z" fill="url(#bi)" fill-rule="evenodd"/>
 <path d="m36.48273,85.27721 1.25-.25 2.25,2.1875-1.0625.5625-2-.6875 .25-1.4375-.6875-.375z" fill="url(#bh)" fill-rule="evenodd"/>
 <path d="m45.795 89.715 9.8125-8.875 0.0625 6.625-6.125 5.75-0.625-0.4375 0.125-1.5-3.25-1.5625z" fill="url(#bg)" fill-rule="evenodd"/>
 <path d="m56.06 93.652-3.3024-2.8131 0.36693-3.3024 2.9354-1.59 5.6263 1.7124-5.6263 5.9932z" fill-opacity=".66667" fill-rule="evenodd" filter="url(#cx)"/>
 <path d="m56.17023,86.27721 .1875,7.4375 1.5.0625 .1875,1.125 3.0625-.1875 .75-1.375h4.125c0,0 .125,1.375.375,1.375s2.6875-.25 2.6875-.25l.5625-1.4375 2.4375-.125 .0625-1.875-15.9375-4.75z" fill="url(#bf)" fill-rule="evenodd"/>
 <path d="m72.04523,90.96471 2.9375-5.0625 5.6875.5 .1875,5.9375-3.8125.25-.5625,1.375-2.75.1875c0,0 .0625-1.25-.1875-1.3125s-1.375.125-1.375.125l-.125-2z" fill="url(#be)" fill-rule="evenodd"/>
 <path d="m62.665 65.153-1.7123-3.3024 0.48924-3.3024 4.0362-0.24462 1.957 3.3024-4.7701 3.547z" fill-opacity=".66667" fill-rule="evenodd" filter="url(#cz)"/>
 <path d="m62.795 59.84 13.312 5-4.125 4.1875-9.5625-3.6875 0.375-5.5z" fill="url(#bd)" fill-rule="evenodd"/>
 <path d="m69.045 67.902-8.5625 10 37.812 11.5 1 0.75 1.9375-2.3125-0.25-0.75 2.9375-2.125 0.25 1.125 2.25-1.75-0.0625-1.375 8.25-9.0625-3.375-1 0.1875 2.8125-12.062 10.812-12.75-3.375 0.3125-7.125s0-0.25-0.3125-0.0625-5.9375 5.5-5.9375 5.5l-12-3.4375 0.25-5.1875h-1.0625l4.25-3.8125-3.0625-1.125z" fill="url(#ba)" fill-rule="evenodd"/>
 <path d="m69.045 67.902-8.5625 10 37.812 11.5 1 0.75 1.9375-2.3125-0.25-0.75 2.9375-2.125 0.25 1.125 2.25-1.75-0.0625-1.375 8.25-9.0625-3.375-1 0.1875 2.8125-12.062 10.812-12.75-3.375 0.3125-7.125s0-0.25-0.3125-0.0625-5.9375 5.5-5.9375 5.5l-12-3.4375 0.25-5.1875h-1.0625l4.25-3.8125-3.0625-1.125z" fill-opacity=".15686" fill-rule="evenodd"/>
 <path d="m68.903 77.996-3.0578-2.5685 5.2594-5.504 3.4247 1.957-5.6263 6.1155z" fill-opacity=".66667" fill-rule="evenodd" filter="url(#cy)"/>
 <path d="m68.733 72.652 7.1875-1.8125 4.5 5.375 0.0625 5.375-11.688-3.5625-0.0625-5.375z" fill="url(#bc)" fill-rule="evenodd"/>
 <path d="m80.295 76.027 12-10.938 0.125 5.6875-11.75 10.812-0.375-5.5625z" fill="url(#bb)" fill-rule="evenodd"/>
 <path d="m86.76 82.888-2.6908-2.4462-0.48924-5.9932 8.4394-6.9717 6.2378 3.1801-11.497 12.231z" fill-opacity=".66667" fill-rule="evenodd" filter="url(#cw)"/>
 <path d="m86.983 76.09-0.1875 7.0625 12.312 3.3125s0.9375-6.25 0.3125-6.4375-6.0625-6-6.0625-6l-6.375 2.0625z" fill="url(#az)" fill-rule="evenodd"/>
 <path d="m99.233 80.027 12.188-10.812v6.5625l-11.875 10.812-0.3125-6.5625z" fill="url(#ay)" fill-rule="evenodd"/>
 <path d="m80.853 87.19 10.274 2.5685-2.6297 3.4858-0.42809-1.2843-3.4247 0.12231-0.91733 1.3454-2.6297 0.24462-0.18347-1.2843-0.06115-5.1982z" fill="url(#aw)" fill-rule="evenodd"/>
 <path d="m87.152 75.815 11.253-10.641 5.932-1.957-11.253 10.641-5.932 1.957z" fill="url(#av)" fill-rule="evenodd"/>
 <path d="m93.084 73.797s11.191-11.314 11.619-10.886 6.8494 6.0544 6.8494 6.0544l-12.231 11.069-6.2378-6.2378z" fill="url(#au)" fill-rule="evenodd"/>
 <path d="m56.391 85.906 3.9139-4.8924 14.861 4.9536-3.0578 4.8924-15.717-4.9536z" fill="url(#at)" fill-rule="evenodd"/>
 <path d="m60.121 80.953 14.922 4.8924 5.0759 0.12231-14.616-5.2593-5.3817 0.24462z" fill="url(#as)" fill-rule="evenodd"/>
 <path d="m37.738 84.928 11.681-10.886 6.4213 6.5436-11.069 10.029-1.7123-0.36693 0.12231-1.5289-3.2412-1.7735-0.36693 0.06115-1.8347-2.0793z" fill="url(#ar)" fill-rule="evenodd"/>
 <path d="m36.699 85.233 1.2843-0.36693 11.436-10.702-6.8494 2.8131-7.889 7.3386 2.0181 0.91733z" fill="url(#aq)" fill-rule="evenodd"/>
 <path d="m75.716 70.678 7.3998-8.3171s9.846 2.0181 9.4179 2.385-12.048 11.253-12.048 11.253l-4.7701-5.3205z" fill="url(#ap)" fill-rule="evenodd"/>
 <path d="m68.071 72.819 8.1336-7.889 6.6659-2.385-7.2163 8.1948-7.2775 2.1404-0.30578-0.06116z" fill="url(#ao)" fill-rule="evenodd"/>
 <path d="m64.952 54.472-2.6297 5.1982 14.005 5.1982s7.2163-2.2627 6.6659-2.5074-17.98-7.6444-18.041-7.889z" fill="url(#an)" fill-rule="evenodd"/>
 <path d="m65.075 54.472 2.9354-0.18346 24.279 10.091-8.9898-2.0793-18.224-7.8279z" fill="url(#am)" fill-rule="evenodd"/>
 <path d="m26.058 74.042 4.709-5.504 6.6048 6.5436-5.4428 5.2594-5.8709-6.299z" fill="url(#al)" fill-rule="evenodd"/>
 <path d="m21.165 74.776 4.0362-4.5255 5.6874-1.7735-4.8313 5.5651-4.7701 1.4677-0.12231-0.73386z" fill="url(#ak)" fill-rule="evenodd"/>
 <path d="m30.95 52.821 5.3205-11.986 1.7124 15.35-2.6297-1.2843-4.4032-2.0793z" fill="url(#aj)" fill-rule="evenodd"/>
 <path d="m36.393 40.774 6.4824 10.824-4.8924 4.709-1.6512-14.677 0.06115-0.85617z" fill="url(#ai)" fill-rule="evenodd"/>
 <path d="m93.94 36.309 5.8097-11.864 1.0396 15.289-6.8494-3.4247z" fill="url(#ah)" fill-rule="evenodd"/>
 <path d="m101.03 39.367-1.2843-14.8 5.6263 10.091-4.342 4.709z" fill="url(#ag)" fill-rule="evenodd"/>
 <path d="m58.103 18.085-5.2594 11.436 7.1552 3.1189-1.8958-14.555z" fill="url(#ad)" fill-rule="evenodd"/>
 <path d="m60.121 32.64c0-0.85617-1.8346-14.922-1.8346-14.922l0.30578 0.12231 5.6874 10.152-4.1586 4.6478z" fill="url(#ac)" fill-rule="evenodd"/>
 <path d="m42.814 51.476 14.677 5.9932 3.6082-0.61155-15.656-5.9932-2.6297 0.61155z" fill="url(#ab)" fill-rule="evenodd"/>
 <path d="m42.692 51.537c0.79502 0.36693 14.922 5.9932 14.922 5.9932l-3.0578 5.8097-12.17-4.9536v-6.7271l0.30578-0.12231z" fill="url(#aa)" fill-rule="evenodd"/>
 <path d="m32.18857,60.43471 .17678-2.2981 .66291-.83969 .53033-.44194 .83969-.13258 .70711.48614 .35355.48614 .30936.88388v.7513l.17678,1.23744 .04419,1.10485-3.8007-1.23744z" fill="url(#z)" fill-rule="evenodd"/>
 <path d="m32.18857,68.65483 .17678-2.2981 .66291-.83969 .53033-.44194 .83969-.13258 .70711.48614 .35355.48614 .30936.88388v.7513l.17678,1.23744 .04419,1.10485-3.8007-1.23744z" fill="url(#y)" fill-rule="evenodd"/>
 <path d="m39.21545,65.69382-.04419-2.2981 .35355-1.19324 .35355-1.28163 .53033-.7513 .35355-.17678 .26517.44194 .13258,1.72357 .0442,1.59099-1.98874,1.94454z" fill="url(#x)" fill-rule="evenodd"/>
 <path d="m39.264 79.246 0.03125-3.125 2.0312-2.3438v3.5312l-2.0625 1.9375z" fill="url(#w)" fill-rule="evenodd"/>
 <path d="m24.201 75.496 3.1875 1.0938-0.0625 3.4375-3.125-1.0938v-3.4375z" fill="url(#v)" fill-rule="evenodd"/>
 <path d="m46.44 61.506 3.1495 1.2838 0.05155 3.3995-3.201-1.2458v-3.4375z" fill="#d59163" fill-rule="evenodd"/>
 <path d="m56.979 71.833 0.03125-3.125 2.0312-2.3438v3.5312l-2.0625 1.9375z" fill="url(#u)" fill-rule="evenodd"/>
 <path d="m54.424 48.733 3.1875 1.2838-0.0625 3.4375-3.049-1.2458-0.07603-3.4755z" fill="url(#t)" fill-rule="evenodd"/>
 <path d="m54.69 41.358 3.1875 1.2838-0.0625 3.4375-3.049-1.2458-0.07603-3.4755z" fill="url(#s)" fill-rule="evenodd"/>
 <path d="m54.652 34.249 3.1875 1.2838-0.0625 3.4375-3.049-1.2458-0.07603-3.4755z" fill="url(#r)" fill-rule="evenodd"/>
 <path d="m61.209 46.716 2.1289-2.3189 0.03802 3.5354-2.0908 2.2429-0.07603-3.4594z" fill="url(#q)" fill-rule="evenodd"/>
 <path d="m61.057 38.01 2.1289-2.3189 0.03802 3.5354-2.0908 2.2429-0.07603-3.4594z" fill="url(#p)" fill-rule="evenodd"/>
 <path d="m65.372 61.582 3.1495 1.2838 0.05155 3.3995-3.201-1.2458v-3.4375z" fill="#d59163" fill-rule="evenodd"/>
 <path d="m72.489 79.474 0.06927-3.6572 3.0577 1.1537-0.07603 3.0751-3.0509-0.57151z" fill="url(#o)" fill-rule="evenodd"/>
 <path d="m74.66621,71.91974-.15206.64626 .07603.41817 .41817.4942 .76031.34214 .30412-.4942-.07603-.79832-.45618-.45619-.4942-.19008-.38015.03802z" fill="#d59163" fill-rule="evenodd"/>
 <path d="m58.8138,58.42428-.57023-.03802-.53222.60825-.41817,1.21649-.03802.76031 .26611.57023 .53222-.15206 .64626-.91237 .26611-1.33054-.15206-.72229z" fill="#d59163" fill-rule="evenodd"/>
 <path d="m50.488 86.974 2.0908-2.395 0.03802 3.5354-2.0908 2.2429-0.03802-3.3834z" fill="#d59163" fill-rule="evenodd"/>
 <path d="m76.41492,87.50604-.87435.57023-.45619,1.44458v.68428l.19008.53222h.45619l.60825-.45618 .26611-.72229 .22809-1.14046-.41817-.91237z" fill="url(#n)" fill-rule="evenodd"/>
 <path d="m101.31 79.599 1.9768-2.3189 0.03802 3.5354-2.0908 2.2429 0.07603-3.4594z" fill="#d59163" fill-rule="evenodd"/>
 <path d="m108.35 73.326 2.0908-2.395-0.03801 3.5354-2.0148 2.2429-0.03801-3.3834z" fill="#d59163" fill-rule="evenodd"/>
 <path d="m90.623 84.454 0.06927-3.6572 3.0577 1.1537-0.07603 3.0751-3.0509-0.57152z" fill="url(#m)" fill-rule="evenodd"/>
 <path d="m95.831 61.911-0.00677-3.4291 3.0577 1.1537-0.07603 3.0751-2.9749-0.79961z" fill="url(#l)" fill-rule="evenodd"/>
 <path d="m79.218 56.513-0.00677-3.4291 3.0577 1.1537-0.07603 3.3792-2.9749-1.1037z" fill="url(#k)" fill-rule="evenodd"/>
 <path d="m75.294 44.78 3.1875 1.2838-0.0625 3.4375-3.049-1.2458-0.07603-3.4755z" fill="url(#j)" fill-rule="evenodd"/>
 <path d="m84.114 48.467 3.1875 1.2838-0.0625 3.4375-3.049-1.2458-0.07603-3.4755z" fill="url(#i)" fill-rule="evenodd"/>
 <path d="m103.63393,38.92239-.41817-.11405-.60824.64626-.4942,1.25451 .03801.87435 .22809.30412 .83634-.34214 .53222-.9884 .11404-1.36855-.22809-.26611z" fill="#d59163" fill-rule="evenodd"/>
 <path d="m95.803 40.899 3.1173 1.1024v12.963l-3.1553-1.0644 0.03802-13.001z" fill="url(#h)" fill-rule="evenodd"/>
 <path d="m102.08 43.826 1.9768-2.1289-0.03802 11.139-1.9768 2.2809 0.03802-11.291z" fill="url(#g)" fill-rule="evenodd"/>
 <path d="m120.97467,72.23456 .83969-.92808-.53033-2.20971-.44194.39775-.35356-2.51907 .22097-1.67938-.44194-1.5468-.35355.22097-.30936-2.16551 .35355-1.67938-.30936-1.01647-.44194-.26517-.39774-2.2539 .04419-2.07713-.35355-1.98874-.30936.13258-.53033-2.47487-.0442-2.38649h2.34229l-.22097,1.01647 1.10486,4.24264c0,0 .26516.97227.26516,1.14905s-.17677,1.94454-.17677,1.94454l.7071,2.2539 .30936,4.72878 .57453.39775 .26516,2.2981-.08839,1.14905 1.19325,4.81717-.13259.39775-2.38648,1.94454-.39775-1.90035z" fill-opacity=".15686" fill-rule="evenodd"/>
 <path d="m93.858 36.465 0.0625 24.562 6.875 3.0625 0.125-24.562-7.0625-3.0625z" fill-opacity=".15686" fill-rule="evenodd"/>
 <path d="m109.86 60.527-2.375 3.0625 6.9375 3.9375 1.625 5.25-1.5 5.6875 2.125-1.875 0.0625-1.25 1.5625-1 0.25 1.1875 1.9375-1.625-3.1875-9.6875-7.4375-3.6875z" fill-opacity=".15686" fill-rule="evenodd"/>
 <path d="m53.17 29.652v24.312l7.125 2.375-0.25-23.938-6.875-2.75z" fill-opacity=".15686" fill-rule="evenodd"/>
 <path d="m70.42 48.402-9.875 10.125v-1.4375l0.5-0.4375-0.75-0.5 4.1875-3.625v-3.6875l5.9375-0.4375z" fill-opacity=".15686" fill-rule="evenodd"/>
 <path d="m42.483 58.465-0.125 6.375 12.312 4.6875-0.0625-6.3125-12.125-4.75z" fill-opacity=".15686" fill-rule="evenodd"/>
 <path d="m42.483 64.902 12.25 4.625-0.0625 5.25-12.25-4.8125 0.0625-5.0625z" fill-opacity=".15686" fill-rule="evenodd"/>
 <path d="m30.85773,52.77721 .0625,16 6.4375,6.25-.125,5 .8125.4375-.375-24.375-6.8125-3.3125z" fill-opacity=".15686" fill-rule="evenodd"/>
 <path d="m54.17 78.902 9.5-11.188-3.25-1.25 0.125 1.75-5.875 6.4375-12.438-4.75 0.125 6.125-4.3125 4.375-0.75-0.25v2.0625l5.5-5.5 6.4375-2.6875 4.9375 4.875z" fill-opacity=".15686" fill-rule="evenodd"/>
 <path d="m21.17023,75.40221 4.875-1.375 6,6 .0625,4.25-1.125-.3125 .125-1.375-3.1875-1.6875-.625.875-2.25-.9375 .0625-1.1875-3.4375-2.0625-.5-2.1875z" fill-opacity=".15686" fill-rule="evenodd"/>
 <path d="m56.17023,86.27721 .1875,7.4375 1.5.0625 .1875,1.125 3.0625-.1875 .75-1.375h4.125c0,0 .125,1.375.375,1.375s2.6875-.25 2.6875-.25l.5625-1.4375 2.4375-.125 .0625-1.875-15.9375-4.75z" fill-opacity=".15686" fill-rule="evenodd"/>
 <path d="m68.733 72.652 7.1875-1.8125 4.5 5.375 0.0625 5.375-11.688-3.5625-0.0625-5.375z" fill-opacity=".15686" fill-rule="evenodd"/>
 <path d="m86.983 76.09-0.1875 7.0625 12.312 3.3125s0.9375-6.25 0.3125-6.4375-6.0625-6-6.0625-6l-6.375 2.0625z" fill-opacity=".15686" fill-rule="evenodd"/>
 <path d="m80.853 87.19 10.274 2.5685-2.6297 3.4858-0.42809-1.2843-3.4247 0.12231-0.91733 1.3454-2.6297 0.24462-0.18347-1.2843-0.06115-5.1982z" fill-opacity=".15686" fill-rule="evenodd"/>
 <path d="m56.391 85.906 3.9139-4.8924 14.861 4.9536-3.0578 4.8924-15.717-4.9536z" fill-opacity=".15686" fill-rule="evenodd"/>
 <path d="m68.071 72.819 8.1336-7.889 6.6659-2.385-7.2163 8.1948-7.2775 2.1404-0.30578-0.06116z" fill-opacity=".15686" fill-rule="evenodd"/>
 <path d="m64.952 54.472-2.6297 5.1982 14.005 5.1982s7.2163-2.2627 6.6659-2.5074-17.98-7.6444-18.041-7.889z" fill-opacity=".15686" fill-rule="evenodd"/>
 <path d="m21.165 74.776 4.0362-4.5255 5.6874-1.7735-4.8313 5.5651-4.7701 1.4677-0.12231-0.73386z" fill-opacity=".15686" fill-rule="evenodd"/>
 <path d="m30.95 52.821 5.3205-11.986 1.7124 15.35-2.6297-1.2843-4.4032-2.0793z" fill-opacity=".15686" fill-rule="evenodd"/>
 <path d="m93.94 36.309 5.8097-11.864 1.0396 15.289-6.8494-3.4247z" fill-opacity=".15686" fill-rule="evenodd"/>
 <path d="m58.103 18.085-5.2594 11.436 7.1552 3.1189-1.8958-14.555z" fill-opacity=".15686" fill-rule="evenodd"/>
 <path d="m42.692 51.537c0.79502 0.36693 14.922 5.9932 14.922 5.9932l-3.0578 5.8097-12.17-4.9536v-6.7271l0.30578-0.12231z" fill-opacity=".15686" fill-rule="evenodd"/>
 <path d="m20.052 78.293 3.7189 2.1622-0.04324 1.0811 3.1135 1.5568 0.08649-1.1676 2.854 1.3405-0.04324 1.3838 2.6811 1.8162 0.12973-1.6432 3.0703 1.6-0.08649 1.1676 3.1135 1.6865 0.12973-1.1243 2.854 1.427 0.08649 1.5135 2.9838 1.2108 0.04324-1.0811 2.8973 1.3838-0.04324 1.4703 3.546 1.5135v-1.3405l2.1622 1.0378 0.04324 19.762-33.47-16.822 0.17297-19.935z" fill-opacity=".15686" fill-rule="evenodd"/>
 <path d="m115.62 85.774 1.6-1.3405 0.04324 12.065-1.4703-0.43243-0.17297-10.292z" fill-opacity=".15686" fill-rule="evenodd"/>
 <path d="m15.468 52.044 0.60541 2.8973-0.08649 1.8595 0.43243 3.027 0.3027-0.12973 0.38919 1.8162 0.04324 2.0757 0.38919 2.3784 0.25946-0.08649 0.43243 1.3838-0.34595 1.7297 0.17297 2.1189 0.34595-0.25946 0.56216 1.773-0.25946 1.5568 0.38919 2.2919 0.43243-0.38919 0.43243 2.5081-0.04324 19.33-4.454-25.989v-19.892z" fill-opacity=".15686" fill-rule="evenodd"/>
 <path d="m74.108 49.34-0.0625 5.0625 15.125 5.9375v-5.25l-15.062-5.75z" fill-opacity=".15686" fill-rule="evenodd"/>
 <path d="m73.92 42.777 0.125 6.5 15.188 5.875v-6.4375l-15.312-5.9375z" fill-opacity=".15686" fill-rule="evenodd"/>
 <path d="m52.92 49.527-9.125 0.5-1.25 1.25 2.8125-0.4375 7.8125 2.8125-0.25-4.125z" fill-opacity=".15686" fill-rule="evenodd"/>
 <path d="m73.983 49.84-4.5 5.25 23 9.5-0.0625 6.1875 6.0625-5.5625 2.4375-0.5 0.125-0.8125-7.125-2.875 0.0625-7.125-4.625 6.4375-15.312-6-0.0625-4.5z" fill-opacity=".15686" fill-rule="evenodd"/>
 <path d="m73.881 42.608 3.3024-5.6874 15.228 5.9932-3.1189 5.9932-15.411-6.299z" fill-opacity=".15686" fill-rule="evenodd"/>
 <path d="m96.203 112.5-0.25946-19.849 2.9838-2.2486-0.04324 1.9892 2.6811-2.2486-0.04324-1.5568 2.4649-1.6865 0.25946 1.6432 2.6378-2.3351-0.04324-1.427 2.2486-1.8162 0.21621 0.99459 2.5514-1.6432-0.12973-1.3405 2.2054-1.4703 0.21622 1.6 2.854-2.1622-0.17297-1.5568 1.9027-1.4703 0.3027 1.5135 2.5946-2.1189-0.17298-1.427 2.1189-1.6 0.12973 19.157-6.4 5.1892-0.12973-12.151-10.768 8.7784-0.08649 11.892-10.119 7.3514z" fill="url(#cs)" fill-rule="evenodd"/>
 <path d="m91.011 92.917 0.61872-1.4584 3.9775-0.22097 2.9168-2.1213 0.48614 0.88388 2.1655-1.812-0.17678-1.0165 2.961-2.2539 0.17678 1.1048 2.4749-1.7678-0.08838-1.2816 2.5633-1.9445 0.13258 1.1932 2.3865-1.812v-1.1932l2.0329-1.5468 0.08839 1.1048 2.7842-2.1213 0.26516-1.3258 1.6794-1.0165 0.17678 1.0607 2.4749-1.812 0.48614 1.6794-2.4307 2.2539-0.57453-1.6794-1.7236 1.4142 0.0442 1.6794-2.6075 2.1213-0.39775-1.591-2.2539 1.5026v1.37l-2.4307 1.7236-0.04419-1.1048-2.4307 1.812 0.04419 1.4584-2.6074 2.2981-0.30936-1.5026-2.4307 1.7236 0.17677 1.5468-2.74 2.0771v-1.812l-3.0936 2.1213-4.773 0.48614v-0.22097z" fill="url(#cj)" fill-rule="evenodd"/>
 <path d="m85.514 29.09-0.125 9.3438 8.4375 3.0312-0.03125-4.9375 0.625-1.4062 0.09375-1.5938-2.8438-1.4062v1.25l-3.2188-1.75-0.0625-0.9375-2.875-1.5938zm19.844 10.375-0.15625 18.75 11.969 6.0312 0.125-19-1.4688-0.625 0.0625 1.1875-3.6562-1.4688 0.15625-1.5-2.9688-1.375v1.125l-2.8438-1.3125-0.09375-1.4375-1.125-0.375z" fill-opacity=".15686" fill-rule="evenodd"/>
 <path d="m117.04624,64.10931 .17298-18.55135 .51892,2.20541-.12973,2.16216 .51891,2.76757 .38919-.25946 .30271,1.94595 .04324,2.07567 .25946,2.37838h.47567l.34595,1.2973-.25946,1.42703 .08649,2.50811 .34594-.17297 .47568,1.55676-.17297,1.51351 .38919,2.55135 .43243-.56216 .56216,2.42162-.73513.77838 .12972,1.42703-.73513.38919-3.41622-9.85946z" fill-opacity=".15686" fill-rule="evenodd"/>
 <path d="m58.29523,17.21471-5.625,12.1875 .0625.5-2.21875.1875-.3125,1.21875-2.3125.15625-.65625-1.375-3.96875.09375-3.15625,1.0625 .40625,1.5-1.8125,1.5625-.34375-1.1875-1.96875,1.40625 .125,1.09375-2.0625,1.9375-.5625-1.03125-2.40625,1.96875 .03125,1.28125-1.9375,1.6875-.28125-1.1875-2.8125,2.1875 .125,1.3125-1.84375,1.59375-.5-.96875-3.03125,2.40625 .15625,1.03125-1.625,1.65625-.65625-.75-3.78125,2.96875-.03125,20.125 4.3125,26.59375 33.59375,17.03125 43.25-2.6875 10-7.625 .09375-1.34375 2.71875-2.21875 3.46875-2.78125 3.1875-2.5625 1.34375.53125 .0625.03125h.03125l6.53125-4.96875 .09375-20.125-.6875-2.75-.125-.5625-.3125-1.34375 .125-1.375-.375-2.3125-.34375-.21875-.25-1.6875-.09375-1.59375-.09375-1.4375-.6875-2.5625 .1875-1.375-.46875-2.46875-.84375-3.125 .15625-1.1875-.5625-3.15625-3.21875-1.84375-1.09375,1.3125-1.46875-.96875 .15625-1.40625-3.34375-1.71875-1.25.90625-1.40625-.46875 .125-1.4375-2.53125-1.4375 .0625-2.8125-5.8125-10.59375-4.375,8.5-2.84375-1.5-.78125.71875-1.90625-.78125 .09375-1.1875-3.90625-2.625-5.4375.65625-.125,1.21875-2.8125.25-.75-1.375-4.46875.59375-.125,1.28125-2.5.28125-.59375-1.40625-4.28125.375-.1875,1.46875h-.09375l-.25-2.96875-6.1875-10.375zm.125.6875 5.46875,10.125-3.46875,3.90625-2-14.03125zm-.34375.6875 1.375,13.59375-6.1875-2.78125 4.8125-10.8125zm1.40625,2-.1875.09375 1.09375,1.8125-.46875.375 .09375.09375 .4375-.34375 .46875.78125-.03125-.125-.375-.6875 .21875-.15625-.0625-.15625-.21875.15625-.96875-1.84375zm-1.625.4375-1.40625,3.65625-.375-.125v.09375l.34375.125 .15625.0625 1.46875.5625-.03125-.15625-1.40625-.5 1.40625-3.65625-.15625-.0625zm1.71875,3.375 .78125,5.375-.125.15625 .125.03125 1.53125-1.65625 .125.25 .09375-.0625-.125-.28125 .625-.6875-.1875-.09375-.53125.59375-.59375-1.21875c.2043-.22209.375-.4375.375-.4375l-.0625-.0625c0,0-.20784.20123-.375.375l-.25-.53125-.0625.09375 .25.53125c-.3031.31312-.66607.66256-.96875.9375l-.5-3.3125h-.125zm40.375.5625 5.03125,9.8125-3.71875,4.03125-1.3125-13.84375zm-.375.125 1,14.1875-6.1875-2.90625 5.1875-11.28125zm-44.15625.21875-.9375,2.1875 1.125.4375 .03125-.09375-.96875-.34375 .90625-2.03125-.15625-.15625zm2.5.59375 .1875,4.25-2.90625-1.21875 .375-.875-.125-.125-.4375.90625-1.125-.46875v.09375l1.09375.46875-.46875.9375 .1875.125 .4375-1 2.96875,1.28125 .03125.6875 .125-.03125-.03125-.59375 .3125.125v-.125l-.3125-.125-.1875-4.3125h-.125zm3.3125.96875 .59375,1.25-1.34375,1.53125-.25-1.8125c.32066-.28503.70879-.65531 1-.96875zm37.75.0625-4.125,9.34375 4.25,1.96875 .09375-.15625-1.03125-.46875 .9375-3.25 .71875.25 .03125-.125-.6875-.28125 .25-.875-.21875.03125-.21875.78125-1.53125-.59375 1.25-3.09375-.125-.0625-1.28125,3.09375-.9375-.34375 2.6875-6.15625-.0625-.0625zm-13.03125.5625 3.71875,2.4375-1.0625.5625-3.1875-1.78125-3.5625.28125-.65625-.90625 4.75-.59375zm14.84375.875-.09375.03125c.01606.17828.01581.35365.03125.53125l-.15625.09375 .0625.125 .125-.0625c.19093,2.21639.31549,4.39875.53125,6.625l.21875-.03125c-.09696-1.07491-.2257-2.16589-.34375-3.25l.09375.03125 1.40625-.875 1.125,2.3125-2.40625,2.25 .15625.0625 2.3125-2.1875 .3125.65625 .1875-.03125-.375-.71875 .15625-.15625-.125-.0625-.09375.09375-1.21875-2.25 .34375-.21875-.125-.125-1.75,1.15625c-.12138-1.11491-.21505-2.23442-.3125-3.34375l.84375-.4375-.03125-.125-.8125.4375c-.01524-.17658-.04859-.35505-.0625-.53125zm-24.25.03125 .625,1.03125-3.4375.3125-.65625-.84375 3.46875-.5zm4.5625.125 .46875.75-.125.6875-.46875-.625 .125-.8125zm-16.9375.09375-.125,23.90625-3.625,3.21875-.0625-22.8125 3.8125-4.3125zm4.78125.4375 .59375,1.28125-3.1875.09375-.875-1.09375 3.46875-.28125zm3.84375.09375 .625.78125-.03125,1.15625-.6875-.875 .09375-1.0625zm12.5,0-.125,8.96875-5.0625-1.90625-3.15625.4375-3.3125,6.21875 .1875,5.28125-9.1875.53125 .0625-16.40625 1.5-.09375 .21875-1.40625 3.03125-.21875-.03125,1.53125 4.46875-.21875-.03125-1.59375 3.34375-.25-.125,1.1875 4.96875-.3125 .15625-1.5 3.09375-.25zm-4.5625.3125 .65625,1-3.53125.21875-.0625-1.125 2.9375-.09375zm4.9375,0 2.59375,1.4375-.0625,1.03125 3.5625,1.78125 .0625-1.21875 2.53125,1.21875-.125,1.25-.75,1.5 .125,4.8125-7.9375-2.96875v-8.84375zm-20.3125.15625 .4375.8125-.03125.84375-.5625-.71875 .15625-.9375zm-11.9375.4375 6.1875,2.75 .3125,23.25-6.4375-2.375-.0625-23.625zm-.6875.15625v1.09375l-.90625.0625-.84375-1.03125 1.75-.125zm37,.09375-.0625.59375-.78125.4375-.0625-.5625 .90625-.46875zm-19.8125.09375h2.625l.75,1.03125-3.3125.21875-.0625-1.25zm-26.5625.0625h3.34375l.5625,1.21875-3.46875-.21875-.3125.15625-.125.03125v.03125l-2.03125,1-.75-1.3125 2.78125-.90625zm7.40625.0625 .65625.9375-.21875,1.15625-.71875-1.0625 .28125-1.03125zm13.96875.25h.25l.59375.90625-.875.09375 .03125-1zm25.0625.46875 1.6875.875v.96875l-2.5625-1.3125 .875-.53125zm2.84375.125 2.71875,1.4375-.09375.15625-.78125.40625-2.53125-1.1875 .6875-.8125zm-42.46875.25 .875,1.375h-3.09375v-1.125l2.21875-.25zm2.5625.0625 .09375,17.625-8.96875.53125-.0625-18.03125 .09375-.0625 3.5625.1875-.21875,1.53125 4.4375-.0625 .1875-1.65625 .875-.0625zm-9.375.34375 .0625,18.09375-.84375.8125-6-10.5-.4375.125-5.5625,12.34375 .15625,9.59375-9.59375,9.375-.21875-1.40625-.34375-.25-.25-1.6875-.09375-1.59375-.09375-1.4375-.6875-2.5625 .1875-1.375-.46875-2.46875-.84375-3.125 .15625-1.1875-.40625-2.6875 1.03125-1.03125 .125,1.53125 3.125-2.6875-.0625-1.53125 1.90625-1.4375 .28125,1.65625 2.875-2.8125-.03125-1.53125 1.96875-1.53125 .0625,1.1875 2.75-2.125-.15625-1.34375 1.9375-1.53125 .34375,1.84375 2.96875-2.625-.1875-1.59375 1.5625-1.34375 .375,1.78125 2.78125-2.59375-.25-1.28125 1.875-1.0625zm-2.4375.75 .3125,1.4375-2.125,2-.3125-1.65625 2.125-1.78125zm55.375.5 .9375.375-.34375.8125 .1875.0625 .3125-.8125 1.5625.59375-.90625,3.25-3.03125-1.34375 1.28125-2.9375zm-1.3125.21875-.34375.75v-.6875l.34375-.0625zm-56.8125.15625 .21875,1.25-1.40625,1.21875-.0625-1.59375 1.25-.875zm16.46875.5v3.59375l3.25,1.34375v-3.59375l-3.25-1.34375zm.15625.21875 2.9375,1.25-.03125,3.25-2.9375-1.25 .03125-3.25zm.0625.09375v3.15625l2.8125,1.15625v-3.125l-2.8125-1.1875zm.125.1875 2.59375,1.09375-.0625,2.84375-2.53125-1.09375v-2.84375zm8.25.90625-2.125,2.40625v3.59375l2.125-2.40625v-3.59375zm41.84375.125-.1875,23.84375-3.875,4.09375 .0625-23.65625 4-4.28125zm-41.9375.1875-.03125,3.28125-1.90625,2.15625v-3.3125l1.875-2.03125 .0625-.09375zm-.0625.09375-1.8125,2.0625v3.15625l1.8125-2.09375v-3.125zm-26.53125.03125 .28125,2.09375-2.28125,1.84375-.46875-1.5 .25-.40625 2.21875-2.03125zm26.46875.1875-.03125,2.90625-1.65625,1.84375v-2.84375l1.6875-1.90625zm17.0625.46875 10.5625,3.875 2.96875,1.0625v.875l-1.125.25c-4.68811-1.74623-9.81709-3.67571-14.65625-5.78125l2.25-.28125zm10.5625,3.875-.53125.25-1.03125-.40625v.0625l.9375.40625-.5625.25 .09375.09375 .59375-.28125 2.71875,1.125 .09375-.09375-2.71875-1.09375 .46875-.21875-.0625-.09375zm3.5-3.8125 6.375,3.15625 .0625,23.65625-1.5625-.6875-.0625-3.1875-3.25-1.28125 .0625,3.0625-1.5625-.65625-.0625-24.0625zm-14.6875.15625-.09375.125 4.9375,2.03125-.59375.21875 .125.0625 .625-.21875 3.53125,1.46875 .125-.09375-3.46875-1.4375 .8125-.28125-.0625-.09375-.90625.3125-5.03125-2.09375zm-2.09375.15625c4.91312,1.94919 9.63123,4.3057 14.65625,5.9375l-2.78125,5.53125-14.96875-5.875 3.09375-5.59375zm-43.8125.21875 .25,1.40625-1.75,1.375-.125-.40625-.03125-1 1.65625-1.375zm72.03125.53125 2.125,1.3125-1.09375.625-1.0625-.5 .03125-1.4375zm-27.34375.4375-.65625,1.25-.34375-.15625-.0625.0625 .34375.15625-1.34375,2.5-.5-.21875-.03125.125 .46875.1875-.21875.4375 .03125.09375 .28125-.5 9.4375,4 .09375-.125-9.46875-3.96875 1.375-2.46875 1.6875.78125-.53125,1.0625 .125.09375 .53125-1.09375 1.125.53125 .03125-.125-1.09375-.5 .5-1.03125 7.0625,3.0625-1.53125,2.71875 2.28125.78125-.59375,1.09375 .09375.03125 .625-1.09375 1.125.375 .125-.09375-1.1875-.40625 .875-1.59375-.09375-.09375-.90625,1.65625-2.125-.71875 1.375-2.59375 1.125.46875 .03125-.09375-1.09375-.46875 .3125-.59375-.0625-.0625-.34375.59375-7.0625-3.0625 .15625-.28125-.09375-.0625-.15625.3125-.40625-.1875-.0625.09375 .40625.1875-.5,1-1.71875-.78125 .6875-1.21875-.125-.0625zm25.28125.3125c-.15567.01123-.32944.12078-.53125.21875-.77446.66899-.93104,1.49076-1.09375,2.4375 .21008,1.21813.64293.96229 1.09375.71875 .74625-.65305.90046-1.48853 1.0625-2.40625-.07786-.77153-.27179-.98747-.53125-.96875zm-.1875.34375c.25966.06153.33282.6262.34375.90625-.08134.67492-.28072,1.28422-.6875,1.71875-.81063.71616-.7325-.17402-.6875-.65625-.05091-.72227.35548-1.36789.71875-1.8125 .13475-.12283.22595-.17676.3125-.15625zm2.21875.71875 .71875.375v1.4375l3.28125,1.5 .03125-1.1875 2.625,1.25-.125,1.5 4,1.71875v-1.25l.90625.375-.0625,18.71875-11.46875-6 .09375-18.4375zm2.125,0-.0625.6875-.90625.5v-.75l.03125.03125 .9375-.46875zm-76,.46875-.0625,1.6875-1.90625,1.40625-.1875-1.25 2.15625-1.84375zm79.09375.21875 2.8125,1.46875-1,1-3.03125-1.40625 1.21875-1.0625zm-3.03125.375 1.59375.78125-.03125.75-2.59375-1.0625 1.03125-.46875zm-12,.15625v13.125l3.25,1.1875v-13.15625l-3.25-1.15625zm-66.6875.09375 .21875,1.25-2,1.84375-.21875-.6875 .03125-.8125 1.96875-1.59375zm66.84375.125 2.9375,1.0625-.03125,12.8125-2.9375-1.09375 .03125-12.78125zm.0625.0625v12.71875l2.8125,1v-12.65625l-2.8125-1.0625zm-59.75.15625 1.59375,14.59375-6.59375-3.34375 5-11.25zm18.4375,0v3.59375l3.25,1.34375v-3.59375l-3.25-1.34375zm-18.125.03125 5.9375,10.125-4.28125,4.4375-1.65625-14.5625zm59.5625,0 2.59375.96875-.0625,12.375-2.53125-.9375v-12.40625zm8.03125.15625-2.125,2.40625v11.3125l2.125-2.40625v-11.3125zm-49.3125.03125 2.9375,1.25-.03125,3.25-2.9375-1.25 .03125-3.25zm.0625.09375v3.15625l2.8125,1.15625v-3.125l-2.8125-1.1875zm.125.1875 2.59375,1.09375-.0625,2.84375-2.53125-1.09375v-2.84375zm49.03125,0-.03125,10.9375v.0625l-1.90625,2.15625 .03125-11.03125 1.90625-2.125zm-.03125,10.9375v-10.84375l-1.84375,2.0625v10.875l1.84375-2.09375zm-.0625-10.65625-.03125,10.65625-1.65625,1.84375v-10.59375l1.6875-1.90625zm9.625.25-.1875.84375-.6875.90625 .0625-1.03125 .8125-.71875zm-19.9375.4375v1.625c-.19471-.31964-.50502-.17962-.875,0-.77446.66899-.93104,1.52201-1.09375,2.46875 .21008,1.21813.64293.93104 1.09375.6875 .51433-.4501.75799-.97386.90625-1.5625v3.0625l-4.25,5.65625v-5.5l.0625.03125 2.9375-5.96875 1.21875-.5zm22.8125.375 2.8125,1.65625 .46875,2.65625-1.90625.28125-.28125-2.40625-1.8125-.90625 .71875-1.28125zm-42.15625.03125 14.625,5.84375 .03125,6.03125-14.8125-6.03125 .15625-5.84375zm39.53125.25 1.75,1.09375 .03125,1.0625-2.75-1.125 .96875-1.03125zm-76.25.53125 1.8125,4.75-1.46875.96875v.125l1.5-1 .53125,1.34375-.96875.8125 .0625.03125 .9375-.75 .5625,1.46875-1.6875,1.59375v.09375l1.75-1.5625 .21875.59375 .125-.03125-.25-.65625 1.0625-.96875-.125-.09375-1,.9375-.53125-1.4375 .375-.3125-.09375-.09375-.34375.28125-.5-1.3125 .25-.1875-.03125-.0625-.25.15625-1.8125-4.6875h-.125zm-10.71875.0625 .09375,1.75-2.125,2-.125-1.46875 .125-.125-.03125-.375 2.0625-1.78125zm9.59375.1875-.125.09375-.03125,3.09375 .15625.0625v-3.25zm26.9375.15625-2.125,2.40625v3.59375l2.125-2.40625v-3.59375zm29.71875.15625c.25966.06153.33282.65745.34375.9375-.08134.67492-.28072,1.25297-.6875,1.6875-.81063.71617-.7325-.14277-.6875-.625-.05091-.72228.35548-1.39914.71875-1.84375 .13474-.12283.22595-.17676.3125-.15625zm-29.8125.15625-.03125,3.28125-1.90625,2.15625v-3.3125l1.875-2.03125 .0625-.09375zm-.0625.09375-1.8125,2.0625v3.15625l1.8125-2.09375v-3.125zm12.03125-.03125v3.59375l3.25,1.34375v-3.59375l-3.25-1.34375zm-51.09375.1875 .21875,1.25-2.4375,1.96875-.21875-.8125 .03125-.4375 2.40625-1.96875zm51.25.03125 2.9375,1.25-.03125,3.25-2.9375-1.25 .03125-3.25zm-12.25.03125-.03125,2.90625-1.65625,1.84375v-2.84375l1.6875-1.90625zm12.3125.0625v3.15625l2.8125,1.15625v-3.125l-2.8125-1.1875zm.125.1875 2.59375,1.09375-.0625,2.84375-2.53125-1.09375v-2.84375zm-39.71875.34375-1.5,3.90625 .15625-.03125 1.4375-3.875h-.09375zm81.5,1.40625 .125.84375v2.5l.59375,2.78125 .25-.25 .21875,1.8125 .0625,1.78125 .0625.40625 .40625,2.21875 .28125.03125 .1875.96875-.125,1.75 .28125,2.46875 .3125-.3125 .375,1.5-.15625,1.4375v.03125l.4375,3.125 .3125-.59375 .40625,1.5 .125.5625-.875.6875 .21875,1.375-.28125.21875-3.125-9.46875-.03125-.03125-.0625-17.34375zm-83.09375.34375-1,2.34375-.34375-.125v.125l.3125.125-.625,1.5-.28125-.125-.03125.09375 .25.125-.3125.78125 .09375.15625 .375-.875 3.875,1.90625 .0625.75 .21875.0625-.0625-.6875 .46875.21875 .0625-.09375-.53125-.25-.1875-2.1875h.03125l.0625-.15625-.09375-.03125-.0625-.625-.21875.0625 .03125.46875-2.9375-1.15625 .96875-2.34375-.125-.0625zm85.3125.53125-.0625.9375 .09375.53125-1.75.375-.0625-1.59375 1.78125-.25zm-98.0625.25 .3125,1.6875-2.1875,1.9375v-1.53125l1.875-2.09375zm62.53125.28125v3.59375l3.25,1.34375v-3.59375l-3.25-1.34375zm-10.1875.125v.875 .3125l-4.375,5.15625-1.5625-.625-2.8125-.03125 5.4375-5.5 3.3125-.1875zm10.34375.09375 2.9375,1.25-.03125,3.25-2.9375-1.25 .03125-3.25zm.0625.09375v3.15625l2.8125,1.15625v-3.125l-2.8125-1.1875zm-29.8125.03125v3.59375l3.25,1.34375v-3.59375l-3.25-1.34375zm15.65625,0-8.125,8.125-1.34375,1.34375-.03125-1.0625 1.375-.28125-1.28125-.46875 3.90625-3.65625 .03125-3.6875 5.46875-.3125zm14.28125.15625 2.59375,1.09375-.0625,2.84375-2.53125-1.09375v-2.84375zm-29.78125.0625 2.9375,1.25-.03125,3.25-2.9375-1.25 .03125-3.25zm.0625.09375v3.15625l2.8125,1.15625v-3.125l-2.8125-1.1875zm.125.1875 2.59375,1.09375-.0625,2.84375-2.53125-1.09375v-2.84375zm-35.84375.25 .1875,1.0625-1.5625,1.3125 .03125.1875 .25,2.46875-1.75.28125-.46875-2.875 3.3125-2.4375zm55.3125.0625 14.65625,5.84375 .03125,4.78125-6.59375-2.65625v-3.34375l-3.25-1.09375v3.15625l-4.875-1.96875 .03125-4.71875zm19.375,0 .03125,4.5-4.28125,5.84375v-4.4375l4.25-5.90625zm26.03125.15625 .71875,2.21875-2.15625.40625-.34375-2.0625v-.28125l1.78125-.28125zm-66.84375.0625 .03125,3.71875-7.375-2.71875-2.46875.3125 .78125-.75 9.03125-.5625zm-19.46875.09375 3.03125,1.21875 .1875,2.15625-3.84375-1.875 .625-1.5zm40.5.375v4.28125l5.25,2.09375v.0625l1.09375.375 9.125,3.625 4.34375-6.03125 .03125,6.53125 6.96875,3.09375-2.375.8125-5.65625,5.25-.03125-5.1875 .59375-.53125-23.40625-9.625 4.0625-4.75zm-28.3125.96875 14.96875,5.59375-3.09375.5c-4.61305-1.77446-9.44225-3.76818-14.09375-5.71875l2.21875-.375zm-.1875.1875-.15625.125 3.0625,1.21875-.9375.28125 .09375.09375 1.03125-.28125 7.65625,3.0625-.53125.0625 .09375.0625 .59375-.0625 1.40625.5625 .03125-.15625-1.09375-.4375 .875-.09375-.0625-.09375-.96875.125-7.75-3.125 .21875-.0625-.03125-.09375-.34375.09375-3.1875-1.28125zm-2.71875.46875c4.82702,1.90172 9.5581,4.01365 14.46875,5.6875l-2.5625,5.5v.03125l-11.9375-5.03125 .03125-6.1875zm-.375.4375-.1875,23.75-.71875.8125v-3.125l-2.125,2.40625v3.09375l-.84375.9375-.375-23.59375 4.25-4.28125zm78.09375.0625 .4375,1.6875-1.8125.34375-.34375-1.78125 1.71875-.25zm-89.21875.8125 6.3125,3.15625 .375,23.84375-.34375-.15625-.03125-4.71875 .25-.25-6.46875-6.28125-.09375-15.59375zm12.09375,0 .03125.0625 1.53125.65625-.53125,2.625-1-.40625-.03125.125 1,.375-.21875,1.0625 .0625.03125 .21875-1.0625 1.5625.625-.28125.9375 .09375.09375 .3125-.96875 .5625.21875 .09375-.0625-.625-.25 .8125-2.46875 6.625,2.8125-.96875,2.0625c-.89019-.38436-1.80434-.7406-2.71875-1.0625v.125c.86655.30356 1.76875.66406 2.65625,1.03125l-.53125,1.15625 .09375.03125 .53125-1.15625c.51349.21343.99972.43294 1.5.65625l-.625,1.34375 .125.03125 .59375-1.3125c.3413.15303.70219.28327 1.03125.4375l.0625-.0625-1.0625-.46875 .96875-2.0625 1,.40625 .0625-.125-1-.40625 .09375-.21875-.09375-.09375-.125.25-1.46875-.625 .34375-.71875-.09375-.03125-.34375.71875-6.625-2.78125 .15625-.53125-.125-.09375-.1875.5625-1.8125-.78125 .09375-.46875-.09375-.0625-.09375.5-1.5625-.65625zm-27.65625.125 .28125,1.96875 .03125,1.5 .5,3.40625 .25-.25 .21875,1.8125 .0625,1.78125 .0625.40625 .40625,2.21875 .28125.03125 .1875.96875-.125,1.75 .28125,2.46875 .3125-.3125 .375,1.5-.15625,1.4375v.03125l.4375,3.125 .3125-.59375 .40625,2 .09375,18.59375-4.0625-25.21875-.1875-16.1875 .03125-2.4375zm63.6875,0 2.9375,1.03125-.03125,3.125h-.03125v-3.09375l-2.8125-.96875v2.90625l-.09375-.03125 .03125-2.96875zm.1875.25 2.59375.90625-.0625,2.84375-1.8125-.65625-.71875-.28125v-2.8125zm-34.59375.375 1.84375.78125-.8125,2.46875-1.5625-.625 .53125-2.625zm75.84375.40625-.0625,1.84375-1.59375.375-.0625-1.90625 1.71875-.3125zm-55.90625.21875-2.71875,5.375 .21875.09375v5.46875l6.46875,2.5625-8.5625,9.96875 37.46875,11.5-2.1875,1.625-3.96875.25-.65625,1.46875-1.875.125 2.4375-3.25-10.40625-2.53125v-.9375l-9.625-3.5625-5.9375-2.1875-5.28125.03125-4.15625,5.375 .0625,7.71875-1.875.03125-2.5625-1.21875-1.09375,1.3125-.875-.5625 6.125-5.6875 .03125-6.625 .375-.34375-1.71875-1.71875 9.375-11.09375-3.25-1.375-.125-3.03125 .3125-.3125-.125-4.3125 4.125-4.15625zm.84375.0625 2.03125.15625 20.15625,8.28125h.03125l3.03125,1.25-7.375-2.125-17.875-7.5625zm22.1875,8.4375-2.40625-.625-15.3125-6.3125 .40625.0625 .0625-.09375-.78125-.09375-2.25-.9375-.09375.03125 2.09375.875-.6875-.09375 .09375.0625 .875.15625 15.03125,6.1875-2.34375-.59375 .09375.09375 5.125,1.34375 .09375-.0625zm-69.9375-8.125-.0625.9375 .09375.53125-1.75.375-.0625-1.59375 1.78125-.25zm47.0625,0 17.625,7.53125-6.28125,2.1875-13.625-5.03125 2.28125-4.6875zm1.15625,1.125-.21875.46875-.71875-.3125-.125.0625 .8125.34375-1.40625,3.15625 .09375.03125 1.46875-3.09375 4.75,2.0625-.65625,1.40625-3.25-1.375-.125.09375 3.3125,1.40625-.59375,1.25 .09375.125 .65625-1.3125 5.71875,2.375-.5,1.03125 .125-.03125 .46875-.9375 .625.25-.03125-.125-.53125-.21875 .65625-1.34375 1.1875.53125-.03125-.15625-1.09375-.46875 .4375-.90625-.09375-.03125-.4375.875-5.71875-2.46875 .3125-.625-.1875-.0625-.28125.625-4.75-2.09375 .21875-.46875-.1875-.0625zm54.625.53125 .34375,1.625-1.5625.34375-.125.28125-.3125-2.03125 1.65625-.21875zm-86.3125.09375c-.14243.00467-.2865.00819-.40625.03125-.83828.1614-1.16901.74936-1.71875,1.40625-.21298.97242-.16666,1.64748-.25,2.46875l3.9375,1.15625c.08219-1.18003-.00845-2.31623-.25-3.46875-.26029-.90474-.76826-1.28798-1.3125-1.59375zm-16.4375.09375 .71875,2.21875-2.15625.40625-.34375-2.0625v-.28125l1.78125-.28125zm16,.09375c.10031-.00996.20439-.00127.3125.03125 .28977-.13371 1.15156.66077 1.25,1.40625 .05676.42982.31802,2.53507.34375,3.25l-3.5625-1.0625c.03983-.60943.08904-2.12472.1875-2.25 .25452-.32386.76656-1.30525 1.46875-1.375zm.0625.09375c-.69295.13342-.95181.64449-1.40625,1.1875-.17605.80384-.11861,1.60236-.1875,2.28125l3.25.96875c.06794-.97545-.01907-2.20353-.21875-3.15625-.21516-.74789-.67511-1.02849-1.125-1.28125-.11774.00386-.21351-.01906-.3125,0zm0,.15625c.08292-.00824.16063.00437.25.03125 .23954-.11053.94988.54001 1.03125,1.15625 .04692.3553.25998,2.34651.28125,2.9375l-2.96875-.90625c.03293-.50378.07486-1.95894.15625-2.0625 .2104-.26771.66954-1.0986 1.25-1.15625zm26.21875.0625 .25,5.8125-5.5625,5.96875-.0625-5.40625 2.84375-5.78125 2.53125-.59375zm-11.90625.125-.625,1.65625 .15625.0625 .625-1.6875-.15625-.03125zm5.15625.34375 1.46875.625-.9375,2.09375-1.5-.65625 .96875-2.0625zm5.15625.5625c-.15567.01123-.32944.08953-.53125.1875-.77446.66899-.93104,1.52201-1.09375,2.46875 .21008,1.21813.64293.93104 1.09375.6875 .74625-.65305.90046-1.45728 1.0625-2.375-.07786-.77153-.2718-.98747-.53125-.96875zm46.78125.25 4.125,2.1875-2.28125,3.09375 7.15625,4.125 1.375,5.03125-1.375,5.40625-.0625.0625-.53125-1.0625-2.46875,1.875-.03125,1.28125-2,1.625-.21875-1.21875-2.90625,2.09375 .09375,1.3125-1.90625,1.53125-.46875-1-3.125,2.28125 .125,1.0625-1.78125,1.75-.71875-.9375-.53125.375-37.15625-11.375 8.34375-9.78125 2.4375.96875-4.3125,4.21875 1.21875-.3125v5.1875l12.21875,3.8125 6-5.71875-.1875,7.0625 12.875,3.6875 12.375-11.09375 .03125-6.78125 .1875-.15625-7.0625-6.21875-3.375,1.15625 3.9375-4.1875v-1.34375zm-46.96875.0625c.27062.04217.33259.65161.34375.9375-.08134.67492-.28072,1.25297-.6875,1.6875-.81063.71617-.7325-.14277-.6875-.625-.05091-.72228.35548-1.39914.71875-1.84375 .06737-.06142.13282-.10314.1875-.125s.08634-.03727.125-.03125zm62.90625.0625 .15625,1.09375-1.4375.34375-.375-1.25 1.65625-.1875zm-25.53125.0625 2.9375,1.1875 .03125,3-.03125-.03125-.0625-2.9375-2.8125-1.125 .0625,2.875-.09375-.0625-.03125-2.90625zm-24.90625.1875 5.6875,2.5-.65625,1.3125-5.71875-2.40625 .6875-1.40625zm-28.34375.03125 11.59375,4.65625 .1875,5.6875-11.8125-4.5625 .03125-5.78125zm53.4375.0625 2.59375,1.03125v2.78125l-2.53125-1.09375-.0625-2.71875zm-77.375.5 .4375,1.6875-1.8125.34375-.34375-1.78125 1.71875-.25zm21.90625.59375c-.07175.01206-.14264.05886-.21875.09375-.07968.12121-.15176.2227-.21875.34375-.46894.84731-.66122,1.70579-.96875,2.8125-.11914,1.14669-.07838,1.79804-.125,2.6875l2.21875-2.0625c.04598-1.24728-.02112-2.32638-.15625-3.28125-.10921-.51883-.31599-.62994-.53125-.59375zm81,.0625 .09375,1.3125-1.84375.3125 .25-1.4375 1.5-.1875zm-80.9375.125c.15969.03661.31277.25097.34375.625 .0147.17749.05439.81624.09375,1.375 .04566.64814.11727,1.22112.125,1.59375l-2,1.84375c.02228-.64203.06992-2.20042.125-2.40625 .01256-.04695.04779-.15919.0625-.21875-.09849.94789-.08646,1.70224-.125,2.4375l1.84375-1.6875c.019-.51552-.00674-1.05261-.03125-1.5625s-.06915-1.01158-.125-1.40625c-.12036-.57184-.34208-.49036-.59375-.375-.06586.10019-.13212.18119-.1875.28125-.19382.35021-.32242.68628-.4375,1.0625 .11998-.42039.23618-.84605.40625-1.125 .05612-.09205.09577-.1628.15625-.21875 .04052-.0927.11937-.15549.1875-.1875 .0511-.02401.10302-.04345.15625-.03125zm22.28125.03125 12.90625,4.71875-3.875,3.78125-9.1875-3.375 .15625-5.125zm-22.34375.25c.13894.023.28689.19082.3125.5 .02624.31692.14435,2.14517.15625,2.71875l-1.65625,1.5c.01842-.53072.04822-2.01735.09375-2.1875 .1177-.43987.36278-1.65489.6875-2.1875 .04639-.07609.075-.11.125-.15625 .0335-.07663.09962-.1273.15625-.15625 .04247-.02171.07869-.03892.125-.03125zm69.25.28125 7.125,3.78125 3.1875,9.5625 .125-.03125-1.5,1.1875-.3125-1.1875-2,1.3125 .0625,1.09375-1.59375,1.40625 1.34375-5.03125-1.5-5.34375-7.0625-3.875 2.125-2.875zm-90.8125.625-.0625,1.84375-1.59375.375-.0625-1.90625 1.71875-.3125zm27.4375.03125v3.59375l3.25,1.34375v-3.59375l-3.25-1.34375zm18.90625.09375v3.59375l3.25,1.34375v-3.59375l-3.25-1.34375zm-18.75.125 2.9375,1.25-.03125,3.25-2.9375-1.25 .03125-3.25zm74.96875.0625 .21875,1.6875-1.5.25-.40625.03125-.125-1.65625 1.8125-.3125zm-74.90625.03125v3.15625l2.8125,1.15625v-3.125l-2.8125-1.1875zm18.84375,0 2.9375,1.25-.03125,3.25-2.9375-1.25 .03125-3.25zm.0625.09375v3.15625l2.8125,1.15625v-3.125l-2.8125-1.1875zm-18.78125.09375 2.59375,1.09375-.0625,2.84375-2.53125-1.09375v-2.84375zm18.90625.09375 2.59375,1.09375-.0625,2.84375-2.53125-1.09375v-2.84375zm17.875.59375 8.3125,2.21875-11.5,11.03125-4.34375-5.125 7.53125-8.125zm-1.15625.28125-6.9375,7.78125-6.75,1.90625 7.75-7.5 5.9375-2.1875zm-51.6875.21875v5.1875l-5.8125,2.03125-3.65625,4.21875-.09375-.375 .125-1.375-.0625-.40625 9.5-9.28125zm53.34375.1875-.09375.09375 1.21875.375c-.59552.48442-1.09513,1.02376-1.59375,1.59375l-.625-.4375-.125.09375 .65625.4375c-.46455.53357-.92686,1.09048-1.4375,1.59375l-.625-.625-.125.09375 .65625.625c-.16921.16291-.34789.31649-.53125.46875l.09375.09375c.18322-.14555.35888-.30567.53125-.46875l1.1875,1.15625-3.4375,3.125-1.34375-1.59375-.25.0625 1.46875,1.65625-.9375.84375 .03125.03125 .9375-.84375 1.25,1.4375 .15625-.03125-1.28125-1.53125 3.46875-3.09375 1.21875,1.15625 .03125-.125-1.15625-1.125 1.90625-1.6875 1.90625,1.3125-.875.84375h.0625l.9375-.84375 .125-.03125-.0625-.03125 2.78125-2.53125 .09375.03125 .1875-.0625-.1875-.0625 .125-.125-.1875-.0625-.125.125-2.34375-.75 .21875-.1875-.125-.0625-.21875.21875-2.25-.75c.10254-.0846.20584-.17191.3125-.25l-.0625-.03125c-.12191.08506-.22876.19035-.34375.28125l-1.21875-.40625zm20.59375,0 6.5,5.8125-11.84375,10.53125-.03125.03125-5.78125-5.90625 11.15625-10.46875zm-85.625.34375 .34375,1.625-1.5625.34375-.125.28125-.3125-2.03125 1.65625-.21875zm103.1875.03125 .21875,1.40625-1.625.34375-.4375-1.46875 1.84375-.28125zm-62.0625.125 .03125,4.46875-1.09375,1.21875v-3.25l-2.125,2.40625v3.21875l-2,2.21875-.03125-4.3125 5.21875-5.96875zm25.09375,0 2.25.75-2.1875,1.96875-1.59375-1.09375c.49403-.57372.97584-1.14761 1.53125-1.625zm18.25.09375-10.625,9.75-5.40625,2.09375 11.09375-10.125 4.9375-1.71875zm-23.9375.34375-2,2.25-1.8125.21875-3.21875,3.21875-1.125.28125v.09375l.96875-.25-.84375.84375 .15625.09375 .96875-1 2.5625-.625 2.4375-2.8125 1.46875-.1875-.03125-.0625-1.34375.15625 1.90625-2.1875-.09375-.03125zm25.1875.21875-.5625.5625-.28125-.25 .03125.21875 .125.125-2.875,2.78125-.1875-.1875-.09375.03125 .21875.21875-1.4375,1.375 .15625.09375 1.40625-1.34375 1,1-3.15625,3.03125 .15625.125 3.125-3.03125 2.25,2.25 .03125-.09375-2.21875-2.21875 1.75-1.71875-.0625-.15625-1.8125,1.75-1-1 2.90625-2.78125 2.71875,2.46875-1.4375,1.4375 .15625.09375 1.40625-1.40625 2.09375,1.90625-2.90625,2.78125 .125.0625 3-2.8125-2.21875-2.03125 .90625-.875-.09375-.1875-.9375.9375-2.71875-2.46875 .625-.59375-.1875-.09375zm-17.09375.125 2.34375.75-2.65625,2.53125-1.9375-1.28125 2.25-2zm-53.25.34375c-.14243.00467-.2865.00819-.40625.03125-.83828.1614-1.16901.74936-1.71875,1.40625-.21298.97242-.16666,1.64748-.25,2.46875l3.9375,1.15625c.08219-1.18002-.00845-2.31623-.25-3.46875-.26029-.90474-.76826-1.28799-1.3125-1.59375zm-.4375.1875c.10031-.00996.20439-.00127.3125.03125 .28977-.13371 1.15156.66077 1.25,1.40625 .05676.42982.31802,2.53507.34375,3.25l-3.5625-1.0625c.03983-.60943.08904-2.12472.1875-2.25 .25452-.32386.76656-1.30525 1.46875-1.375zm.0625.09375c-.69295.13343-.95181.64449-1.40625,1.1875-.17605.80384-.11861,1.60236-.1875,2.28125l3.25.96875c.06794-.97545-.01907-2.20353-.21875-3.15625-.21516-.74789-.67511-1.02849-1.125-1.28125-.11774.00386-.21351-.01906-.3125,0zm8.53125.03125 11.8125,4.6875 .15625,4.4375-12-4.5 .03125-4.625zm-8.53125.125c.08292-.00823.16063.00437.25.03125 .23954-.11053.94988.54001 1.03125,1.15625 .04692.3553.25998,2.34651.28125,2.9375l-2.96875-.90625c.03293-.50378.07486-1.95894.15625-2.0625 .2104-.26771.66954-1.0986 1.25-1.15625zm88.46875.125 .03125.1875-.09375,1.03125-1.84375.4375 .21875-1.40625 1.6875-.25zm-38.90625.0625 1.625,1.0625-1.875,1.6875-1.15625-1.15625c.49652-.48453.94322-1.05407 1.40625-1.59375zm8.5625,0 .09375,5.03125-11.375,10.40625-.25-4.875 11.53125-10.5625zm-72.46875.09375 .15625,1.09375-1.4375.34375-.375-1.25 1.65625-.1875zm80.84375.15625-2.28125,2.25-1.53125.1875 .59375-.5625-.15625-.09375-.71875.6875-.65625.09375 .625-.0625-1.46875,1.4375-1.125.34375-.03125.0625 1-.25-2.9375,2.875-1.21875.4375-.03125.125 1.125-.40625-.75.71875 .03125.0625 .90625-.84375 1.5625-.59375v-.0625l-1.4375.5 3.03125-2.875 1.25-.3125-.0625-.15625-1.03125.3125 1.46875-1.40625 1.4375-.125-.40625.40625 .15625.09375 .5625-.53125 .4375-.03125v-.125l-.3125.03125 2.125-2.03125-.15625-.15625zm-41.53125.75-.03125,3.0625-.03125.0625v-3.03125l-1.8125,2.0625v2.96875l-.0625.0625v-3.0625l1.875-2.03125 .0625-.09375zm18.46875.03125-2.375,2.65625-2.28125.59375 3-3.03125 1.65625-.21875zm-16.84375.03125 2.75,1.1875-9.125,10.8125-4.8125-4.84375-6.75,2.84375-5.21875,5.125v-1.21875l.65625.375 1.09375-1.15625 .125-.125 3.15625-3.375 .03125-5.90625 12.15625,4.84375 6-6.75-.0625-1.8125zm-1.75.25-.03125,2.90625-1.65625,1.84375v-2.84375l1.6875-1.90625zm-39,.28125 .09375,1.3125-1.84375.3125 .25-1.4375 1.5-.1875zm102.5625,0 .25,1.3125-1.71875.3125-.375-1.375 1.84375-.25zm-102.5625,1.625 .21875,1.6875-1.5.25-.40625.03125-.125-1.65625 1.8125-.3125zm10.3125.09375-4.0625,4.75-4.5625,1.59375-.1875-.15625 3.625-4.25 5.1875-1.9375zm.5625,0 6.09375,6.21875-4.625,4.6875-5.75-5.90625 4.28125-5zm92,.09375 .90625,2.9375-2.21875,1.84375-.34375-1.40625 .96875-.9375-.71875-2.25 1.40625-.1875zm-11.6875.875 .03125,5.90625-11.40625,10.21875-.15625-5.75 11.53125-10.375zm-83.5.0625-.71875.96875-1.15625.4375 .1875-.25-.1875-.03125-.28125.375-1.1875.46875-.03125.125 1.09375-.375-1.375,1.90625-1.0625.25 .0625.1875 .84375-.21875-.21875.3125h.09375l.28125-.34375 1.125-.3125-.03125-.15625-.9375.21875 1.46875-1.9375 1.1875-.4375-1.40625,1.90625 .21875.0625 1.4375-2.0625 1.25-.46875-.09375-.125-1.03125.375 .59375-.84375-.125-.03125zm3.84375.125-.6875.6875-.59375-.59375-.09375.09375 .59375.625-1.1875,1.21875 .15625.125 1.125-1.25 2.21875,2.28125 .15625-.125-2.25-2.25 .625-.71875-.0625-.09375zm-10.875.71875 .21875,1.40625-1.625.34375-.4375-1.46875 1.84375-.28125zm89.9375.125-2.125,2.40625v3.59375l2.125-2.40625v-3.59375zm-7.34375.09375-3.9375,3.71875-1.59375-1.46875-.15625.0625 1.625,1.53125-.5.46875 .09375.125 .53125-.5 1.1875,1.125-2,1.875 .15625.0625 1.96875-1.8125 .9375.875 .15625-.09375-.96875-.90625 2.46875-2.3125-.09375-.125-2.5,2.34375-1.21875-1.125 3.96875-3.71875-.125-.125zm-27.53125.15625 4.5625,5.3125 .15625,4.875-4.65625-1.40625v-3.03125l-3.25-1.09375v3.125l-3.40625-1.03125 .1875-5.03125 6.40625-1.71875zm34.78125.0625-.03125,3.28125-1.90625,2.15625v-3.3125l1.875-2.03125 .0625-.09375zm-.0625.09375-1.8125,2.0625v3.15625l1.8125-2.09375v-3.125zm-.0625.21875-.03125,2.90625-1.65625,1.84375v-2.84375l1.6875-1.90625zm-35.34375.3125c-.47055.00204-.4911.39044-.53125.84375 .35686.98602.73893,1.13432 1.15625,1.3125 .66033.12548.70124-.31359.75-.8125-.27407-.93196-.62325-1.07983-1.125-1.3125-.08579-.01702-.18278-.03154-.25-.03125zm.3125.21875c.47452.07729.69001.76694.75,1.03125 .00166.39573-.14964.64013-.5.625-.71647-.13171-.73582-.64477-.75-.9375-.13855-.52855.19401-.69391.5-.71875zm-54.40625.53125 .03125.1875-.09375,1.03125-1.84375.4375 .21875-1.40625 1.6875-.25zm102.34375.21875 .15625,18.875-6,4.59375v-12l-11.21875,9.03125 .03125,11.625-9.78125,7.34375-.0625-19.5625 2.46875-1.84375-.15625,1.96875 3.21875-2.5625v-1.53125l1.96875-1.375 .21875,1.65625 2.96875-2.6875 .03125-1.53125 2.03125-1.46875 .03125,1.1875 2.8125-2-.09375-1.34375 1.96875-1.46875 .28125,1.84375 3.0625-2.5-.125-1.59375 1.625-1.28125 .3125,1.78125 2.875-2.46875-.21875-1.3125 1.59375-1.375zm-91.46875.375-.03125.09375 1.65625,1.625-1.375,1.3125-2.78125-3-.125.0625 2.875,3.03125 1.46875-1.34375 1.09375,1.0625-2.28125,2.28125-4.53125-4.625-.15625.09375 4.6875,4.65625 2.34375-2.34375 .5625.53125 .09375-.0625-.5625-.5625 .75-.75-.09375-.0625-.75.75-1.0625-1.03125 .3125-.3125-.09375-.0625-.3125.28125-1.6875-1.625zm89.34375.6875 .25,1.40625-2.1875,1.9375-.25-1.65625 2.1875-1.6875zm-79.78125.21875-.03125,2.9375-.03125.03125v-2.875l-1.8125,2.0625v2.84375l-.0625.0625v-2.9375l1.875-2.03125 .0625-.09375zm-20.5.15625 .25,1.3125-1.71875.3125-.375-1.375 1.84375-.25zm72.21875,0 5.84375,5.90625 .0625,6.34375-5.03125-1.46875v-3.125l-3.25-1.09375v3.25l-3.625-1.0625 .125-6.53125 5.875-2.21875zm-51.84375.15625-.03125,2.78125-1.65625,1.84375v-2.71875l1.6875-1.90625zm-15.15625.03125 5.65625,5.71875 .0625,4.03125-.59375-.25 .03125-1.34375-3.28125-1.71875-.78125.71875-1.90625-.78125 .09375-1.1875-.6875-.40625 2.84375.96875v-3.59375l-3.25-1.09375v3.5l-2.25-1.28125-.375-2.125 4.4375-1.15625zm23.5.1875 5.90625,5.9375c-3.25295,2.94356-6.49705,6.09127-9.75,8.84375l-1.15625,1.03125-.5625-.0625-.65625-.1875c-.00391-.00805.00349-.0229 0-.03125-.00797-.01909-.02533-.04196-.03125-.0625l.125-1.375-.1875-.09375-3.21875-1.8125-.03125.03125h-.03125l-1.75-1.8125 11.34375-10.40625zm68.78125,0 .15625,1.28125-1.4375,1.15625v-1.59375l1.28125-.84375zm-69.8125.25-10.71875,9.71875-1.28125.5625-1.1875-.6875 7.75-7.40625 5.4375-2.1875zm.875.59375-4.75,4.3125-.21875-.21875-.125.03125 .25.28125-.9375.84375 .125.0625 .90625-.84375 2.5625,2.65625-2.375,2.125-1.875-1.90625-.125.03125 1.90625,1.96875-2.125,1.9375-2.65625-2.59375-.09375.09375 2.65625,2.59375-.5.4375 .0625.15625 .53125-.5 1.75,1.6875 8.9375-7.9375-.09375-.0625-8.84375,7.8125-1.625-1.59375 2.09375-1.9375 1.1875,1.21875 .125-.0625-1.21875-1.25 2.34375-2.15625 1,1.03125 4.875-4.34375 .375.40625 .125-.0625-.40625-.40625 .15625-.15625-.0625-.09375-.1875.15625-3.75-3.71875zm0,.125 3.65625,3.6875-4.75,4.15625-.90625-.90625 1.375-1.28125-.03125-.0625-1.40625,1.28125-2.59375-2.59375 4.65625-4.28125zm-25,.125 2.9375,1.03125-.03125,3.25-2.9375-1.03125 .03125-3.25zm.0625.09375v3.15625l2.8125.9375v-3.125l-2.8125-.96875zm12.5.125 .09375,5.875-2.3125,2.40625-.59375-.34375-1.28125.78125-.46875-.1875 .0625-3.875 4.5-4.65625zm-12.375.03125 2.59375.90625-.0625,2.84375-2.53125-.90625v-2.84375zm48.0625.0625 2.9375,1.03125-.03125,2.8125h-.03125v-2.78125l-2.8125-.96875v2.875l-.09375-.03125 .03125-2.9375zm-51.5.03125 .59375,1.8125 3.25,1.84375-1.0625.5625-3.75-1.96875-.4375-2.0625 1.40625-.1875zm51.6875.21875 2.59375.90625-.0625,2.625-2.53125-.78125v-2.75zm-27.46875.4375-.625.59375-1.625.40625 .1875-.15625-.0625-.125-.375.375-.53125.125-.15625.09375 .59375-.125-3.71875,3.5625h-.25l-.125.15625h.21875l-2.40625,2.34375 .1875.0625 2.46875-2.40625 1.65625.03125v-.125l-1.53125-.0625 3.75-3.625 1.5625-.34375-1.5625,1.53125 .125.09375 1.71875-1.6875 .40625-.09375 .03125-.15625-.25.0625 .5-.5-.1875-.03125zm71.25.1875 .1875,2.125-2.34375,1.75-.375-1.53125 .28125-.375 2.25-1.96875zm-13.1875.375-2.125,2.40625v3.59375l2.125-2.40625v-3.59375zm-.09375.3125-.03125,3.28125-1.90625,2.15625v-3.3125l1.875-2.03125 .0625-.09375zm-.0625.09375-1.8125,2.0625v3.15625l1.8125-2.09375v-3.125zm-.0625.21875-.03125,2.90625-1.65625,1.84375v-2.84375l1.6875-1.90625zm10.375.15625 .1875,1.40625-1.8125,1.3125-.09375-.40625v-1l1.71875-1.3125zm-93.28125.8125 3.28125,1.8125-.0625,1.03125 3.5625,1.78125 .0625-1.21875 2.53125,1.21875-.125,1.4375 2.96875,1.9375 .15625-1.75 2.8125,1.4375-.1875,1.21875 3.5625,1.84375 .125-1.25 2.59375,1.375v1.4375l3.28125,1.5 .03125-1.1875 2.625,1.25-.125,1.5 4,1.71875v-1.25l1.8125.78125v19.34375l-32.9375-16.4375 .03125-19.53125zm4.75,1.21875-.0625.59375-.78125.4375-.0625-.5625 .90625-.46875zm86.53125.6875-.125,1.6875-1.96875,1.34375-.125-1.28125 2.21875-1.75zm-86.46875.25 1.6875.875v.96875l-2.5625-1.3125 .875-.53125zm65.71875,0 2.9375,1.03125-.03125,2.90625h-.03125v-2.875l-2.8125-.96875v3l-.09375-.03125 .03125-3.0625zm-25.40625.0625 13.6875,4.78125c-.28105.04481-2.90318-.18815-3.65625-.125l-13.875-4.5 3.84375-.15625zm-37.46875.0625 2.8125,1.5-.96875.5-2.53125-1.1875 .6875-.8125zm32.6875.125 14.09375,4.96875c-.83203,1.23869-1.952,2.88504-2.9375,4.40625l-14.71875-4.625 3.5625-4.75zm30.375,0 2.59375.90625-.0625,2.71875-1.875-.5625-.65625-.21875v-2.84375zm-35.71875.21875 .1875,5.65625-6,5.90625-.34375-.21875 .15625-1.40625-3.125-1.625 9.125-8.3125zm9.03125.03125-.125.09375 2.5625,1.0625 1.03125-.5625-.125-.125-.9375.5625-2.40625-1.03125zm44.59375,0 .1875,1.25-2.09375,1.78125-.1875-.6875 .0625-.8125 2.03125-1.53125zm-47.8125.34375-1.5,2.15625-.5-.1875-.0625.0625 .5.21875-.9375,1.34375-.4375-.15625-.09375.03125 .5.1875-.15625.21875 .15625.0625 .15625-.21875 1.25.46875-.1875.28125 .125.03125 .1875-.28125 3.40625,1.25 .0625-.0625-3.4375-1.25 .875-1.3125 .6875.28125-.59375.84375h.1875l.5625-.78125 5.34375,2.15625-.96875,1.375 .09375.0625 1-1.375 .96875.375 .0625-.125-.9375-.375 1.3125-1.8125 2.625.875-.71875,1.1875-.84375-.25v.15625l.75.21875-.71875,1.15625 .125.09375 .75-1.21875 .96875.28125-1.09375,1.6875 .125.09375 1.09375-1.71875 1.3125.375 .125-.125-1.34375-.40625 .78125-1.21875-1.09375-.34375 .09375-.1875-.125-.0625-.125.1875-2.8125-.90625-1.3125,1.875-5.375-2.125 1.1875-1.65625-.125-.09375-1.21875,1.6875-.6875-.28125 1.3125-1.96875-.125-.0625-1.3125,2-1.21875-.5 1.46875-2.125-.09375-.09375zm7.46875.59375-.8125.53125v.125l.8125-.4375 1.1875.53125 .59375-.34375-.09375-.0625-.5625.28125-1.125-.625zm-37.75.53125 .0625.90625-.9375.5-.03125-.96875 .03125.03125 .875-.46875zm39.84375.78125-.03125.125 4.8125,1.625 .125-.0625-4.90625-1.6875zm-36.53125.34375 2.8125,1.5625-1.09375.625-3.03125-1.46875 1.3125-.71875zm25.5625.03125 1.1875.5-.875,1.34375-1.25-.46875 .9375-1.375zm-28.59375.03125 1.34375.59375-.125,1.4375-2.28125-1.46875 1.0625-.5625zm75.46875.3125 .03125,1.75-2.1875,1.9375-.0625-1.46875 .125-.125-.03125-.375 2.125-1.71875zm-53.90625.15625-2.125,2.40625v3.59375l2.125-2.40625v-3.59375zm64.46875.15625v11.65625l-.03125.03125-1.125-.4375v-10.28125l1.15625-.96875zm-64.5625.15625-.03125,3.28125-1.90625,2.15625v-3.3125l1.875-2.03125 .0625-.09375zm-.0625.09375-1.8125,2.0625v3.15625l1.8125-2.09375v-3.125zm-.0625.21875-.03125,2.90625-1.65625,1.84375v-2.84375l1.6875-1.90625zm51.40625.03125 .1875,1.25-2.5,1.875-.1875-.8125 .03125-.4375 2.46875-1.875zm-66.1875.09375 1.75,1.90625-.53125.46875-1.65625-.53125 .15625-1.5-.21875-.125 .5-.21875zm37.53125.65625c1.56807.32941 3.72269.28908 5.34375.6875l-.03125,5.53125-3.625.34375-.53125,1.28125-2.375.3125-.1875-1.4375-1.28125.0625-.125-1.46875c.90245-1.81902 2.01722-4.10786 2.8125-5.3125zm40.40625,0 .03125.8125-1.125.90625v-.8125l1.09375-.90625zm-78.65625.09375-.15625.9375-.96875.5h-.03125l.0625-1.03125 .09375.09375 1-.5zm34.5625.09375 1,.34375-.75,1.125-1-.28125 .75-1.1875zm-14.9375.25 15.25,4.9375v1.4375l-2.3125.09375-.59375,1.46875-2.5.0625-.125-1.28125h-4.46875l-.75,1.46875-2.8125.125-.125-1.1875-1.375.03125-.1875-7.15625zm59.0625.53125 .03125,2.3125-1.15625.96875v-2.34375l1.125-.9375zm-1.25.03125v.84375l-1.59375,1.3125v-.84375l1.59375-1.3125zm-74.125.125 2.75,1.6875-1.09375.625-2.9375-1.40625 1.28125-.90625zm-3.1875.1875 1.625.75-.0625.90625-2.4375-1.21875 .875-.4375zm44,.0625 9.84375,2.40625-2.3125,3.21875-.3125-1.1875-3.96875.15625-.9375,1.46875-2.0625.09375-.0625-1.375h-.125l-.0625-4.78125zm-4.5.03125c-.15567.01123-.3607.12078-.5625.21875-.77446.66899-.93104,1.49076-1.09375,2.4375 .21009,1.21813.64293.96229 1.09375.71875 .74625-.65306.90046-1.48853 1.0625-2.40625-.07786-.77153-.24055-.98747-.5-.96875zm-.1875.34375c.25966.06153.30157.65745.3125.9375-.08133.67492-.28072,1.25297-.6875,1.6875-.81063.71616-.7325-.14277-.6875-.625-.0509-.72227.35548-1.39914.71875-1.84375 .13475-.12283.2572-.17676.34375-.15625zm38,.25v2.34375l-1.59375,1.34375v-2.34375l1.59375-1.34375zm-13.25.34375 .25,1.6875-2.28125,1.84375 .09375-1.40625 1.9375-2.125zm11.53125.0625v.84375l-1.5,1.25v-.84375l1.5-1.25zm-69.6875.90625-.0625.6875-.90625.5v-.75l.03125.03125 .9375-.46875zm69.6875.125v2.34375l-1.5,1.25v-2.34375l1.5-1.25zm3,0 .03125,2.03125-1.1875,1v-2.09375l1.15625-.9375zm-17.15625.1875 .46875.5625-3.125,2.34375-4.3125.46875 .5625-1.3125 3.53125-.25 2.875-1.8125zm12.5625.09375v.875l-1.71875,1.4375v-.875l1.71875-1.4375zm-65,.28125 2.8125,1.46875-1,1-3.03125-1.40625 .0625-.0625 1.15625-1zm-3.0625.40625 .25.09375 1.375.65625-.03125.75-2.59375-1.0625 1-.4375zm71.375.09375v2.0625l-1.59375,1.34375v-2.09375l1.59375-1.3125zm-3.3125.25v2.375l-1.71875,1.40625v-2.34375l1.71875-1.4375zm-1.84375.5v.875l-1.59375,1.3125v-.875l1.59375-1.3125zm6.46875.375 .03125,2.0625-1.21875,1v-2.09375l1.1875-.96875zm-3.03125.28125v2.09375l-1.5,1.25v-2.09375l1.5-1.25zm-63.8125.09375-.1875.84375-.6875.90625 .0625-1.03125 .8125-.71875zm38.96875.125-.84375,1.15625-2.9375.21875 .71875-1.1875 3.0625-.1875zm.21875.15625 .28125,1-.71875,1.15625-.21875-1.125 .65625-1.03125zm21.1875,0v2.375l-1.59375,1.3125v-2.34375l1.59375-1.34375zm-28.375.28125-.8125,1.3125-3.4375.1875 .625-1.3125 3.625-.1875zm26.65625.09375v.90625l-.875.71875v-.90625l.875-.71875zm6.875.0625v2.09375l-1.59375,1.3125v-2.09375l1.59375-1.3125zm-62.65625.09375 2.3125,1.15625 3.5625-.125-.65625,1-3.53125.25-2.40625-1 .71875-1.28125zm21.59375.21875-.875,1.25-3.1875.28125 .59375-1.34375 3.46875-.1875zm22.59375.03125 .09375,19.40625 .03125.03125-42.40625,2.4375-.0625-19.5 3.03125-.15625 .15625,1.46875 4.96875-.3125-.125-1.1875 3.34375-.1875-.03125,1.59375 4.46875-.375-.03125-1.5 3.03125-.1875 .21875,1.375 4.25-.28125-.1875-1.34375 3.21875-.125 .125,1.5 3.6875-.40625 .03125-1.5 3.21875-.15625 .1875,1.625 4.4375-.53125-.21875-1.5 4.5625-.1875zm-46.8125.03125 1.75,1.09375 .03125,1.0625-2.75-1.125 .96875-1.03125zm31.8125,0 .25.8125-.625.84375-.0625-.96875 .4375-.6875zm9.9375.15625v1.125l-3.09375.40625 .875-1.46875 2.21875-.0625zm20.21875,0v2.09375l-1.71875,1.40625v-2.0625l1.71875-1.4375zm-37.625.03125 .15625.9375-.5625.78125-.03125-.84375 .4375-.875zm-11.1875.25 3.46875.0625-.65625.9375-3.4375.125 .625-1.125zm21.03125.1875-.03125,1.25-2.59375.21875 .65625-1.3125 1.96875-.15625zm24.21875,0v2.34375l-.90625.78125 .03125-2.375 .875-.75zm-41.5.09375 .09375,1.03125-.6875.96875-.03125-1.15625 .625-.84375zm49.71875.03125 .03125,2.21875-1.25,1v-2.1875l1.21875-1.03125zm-3.0625.28125v2.09375l-1.5,1.25v-2.09375l1.5-1.25zm-36.5625.0625 .09375,1.125-2.90625.21875 .53125-1.125 2.28125-.21875zm-18.40625.09375 .125.78125-.46875.6875-.125-.6875 .46875-.78125zm11.1875.40625-.0625,1.25-3.34375.21875 .78125-1.125 2.625-.34375zm40.34375.09375v2.09375l-1.59375,1.3125v-2.09375l1.59375-1.3125zm-48.21875.09375-.0625,1.125-3.53125.25 .65625-1.09375 2.9375-.28125zm53.375.09375v2.21875l-1.59375,1.28125v-2.15625l1.59375-1.34375zm-3.3125.5v2.09375l-1.71875,1.4375v-2.09375l1.71875-1.4375zm-3.5625.75v2.0625l-.9375.8125v-2.125l.9375-.75zm5.15625.1875v2.15625l-1.5,1.1875v-2.09375l1.5-1.25zm-3.4375.59375v2.09375l-1.59375,1.34375v-2.09375l1.59375-1.34375zm1.84375.75-.03125,2.125-1.71875,1.375 .03125-2.09375 1.71875-1.40625zm-3.5625.6875v2.09375l-.96875.8125v-2.125l.96875-.78125zm1.71875.84375-.03125,2.0625-1.59375,1.28125v-2.03125l1.625-1.3125zm-1.75,1.40625v2.03125l-1,.8125 .03125-2.03125 .96875-.8125z"/>
</svg>
