<?xml version="1.0" encoding="UTF-8"?>
<svg enable-background="new 0 0 95 79" version="1.1" viewBox="0 0 95 79" xmlns="http://www.w3.org/2000/svg">
 <style type="text/css">.st0{fill:#FFFFFF;} .st1{fill:#111111;} .st2{fill:#FFFFFF;stroke:#000000;stroke-width:2;stroke-miterlimit:10;} .st3{fill:#FFFFFF;stroke:#000000;stroke-miterlimit:10;} .st4{fill:none;stroke:#000000;stroke-miterlimit:10;} .st5{fill:none;stroke:#000000;stroke-width:3;stroke-linecap:round;stroke-miterlimit:10;} .st6{fill:#FFFFFF;stroke:#000000;stroke-linejoin:round;stroke-miterlimit:10;}</style>
 <rect class="st1" x="21" y="53" width="54" height="22"/>
 <path d="m29.8 50.5c-4.5 0-7.3-1.7-7.4-1.7l-0.2-0.1v-19l-1.6-1v-4.5h3.4v1.3h1.5v-1.3h3.5v1.3h1.5v-1.3h3.5v1.3h1.5v-1.3h3.5v4.5l-1.6 1v18.9l-0.2 0.1c-0.1 0.1-2.9 1.8-7.4 1.8z"/>
 <path class="st0" d="m38.5 24.7v3.8l-1.6 1v18.9s-2.8 1.7-7.2 1.7-7.2-1.7-7.2-1.7v-18.9l-1.6-1v-3.8h2.5v1.3h2.6v-1.3h2.5v1.3h2.5v-1.3h2.5v1.3h2.5v-1.3h2.5m1-1h-4.5v1.3h-0.5v-1.3h-4.5v1.3h-0.6v-1.3h-4.4v1.3h-0.5v-1.3h-4.5v5.3l0.4 0.3 1.1 0.7v18.9l0.5 0.3c0.1 0.1 3.1 1.8 7.7 1.8s7.6-1.7 7.7-1.8l0.5-0.3v-18.9l1.1-0.7 0.4-0.3v-5.3h0.1z"/>
 <path d="m27.9 78.5s-4.5-1-11.4-1c-7.1 0-11.6-2.6-11.8-2.7l-0.2-0.1v-30.3l-2.5-1.6v-6.8h5v2h3v-2h5v2h3v-2h5v2h3v-2h5v6.8l-2.5 1.7v34.2l-0.6-0.2z"/>
 <path class="st0" d="m30.5 36.5v6l-2.5 1.7v33.8s-4.4-1-11.5-1-11.5-2.7-11.5-2.7v-30.1l-2.5-1.7v-6h4v2h4v-2h4v2h4v-2h4v2h4v-2h4m1-1h-6v2h-2v-2h-6v2h-2v-2h-6v2h-2v-2h-6v7.5l0.4 0.3 2.1 1.4v30.2l0.5 0.3c0.2 0.1 4.7 2.8 12 2.8 6.9 0 11.2 1 11.3 1l1.2 0.3v-34.6l2.1-1.4 0.4-0.3v-7.5z"/>
 <polygon points="40.5 33.5 40.5 22.9 46.5 9.1 46.5 2.5 51.5 2.5 51.5 3.5 53.5 3.5 53.5 7.5 48.5 7.5 48.5 9.1 54.5 22.9 54.5 33.5"/>
 <path class="st0" d="m51 3v1h2v3h-4v-1h-1v3.2l6 13.8v10h-13v-10l6-13.8v-6.2h4m1-1h-6v6.9l-5.9 13.7-0.1 0.2v11.2h15v-11.2l-0.1-0.2-5.9-13.7v-0.9h5v-5h-2v-1z"/>
 <path d="m65.8 50.5c-4.5 0-7.3-1.7-7.4-1.7l-0.2-0.1v-19l-1.6-1v-4.5h3.4v1.3h1.5v-1.3h3.5v1.3h1.5v-1.3h3.5v1.3h1.5v-1.3h3.5v4.5l-1.6 1v18.9l-0.2 0.1c-0.1 0.1-2.9 1.8-7.4 1.8z"/>
 <path class="st0" d="m74.5 24.7v3.8l-1.6 1v18.9s-2.8 1.7-7.2 1.7-7.2-1.7-7.2-1.7v-18.9l-1.6-1v-3.8h2.5v1.3h2.6v-1.3h2.5v1.3h2.5v-1.3h2.5v1.3h2.5v-1.3h2.5m1-1h-4.5v1.3h-0.5v-1.3h-4.5v1.3h-0.6v-1.3h-4.4v1.3h-0.5v-1.3h-4.5v5.3l0.4 0.3 1.1 0.7v18.9l0.5 0.3c0.1 0.1 3.1 1.8 7.7 1.8s7.6-1.7 7.7-1.8l0.5-0.3v-18.9l1.1-0.7 0.4-0.3v-5.3h0.1z"/>
 <polygon points="35.5 60.5 35.5 28.9 39.8 28.9 39.8 30.6 42.1 30.6 42.1 28.9 46.4 28.9 46.4 30.6 48.6 30.6 48.6 28.9 52.9 28.9 52.9 30.6 55.2 30.6 55.2 28.9 59.5 28.9 59.5 60.5"/>
 <path class="st0" d="m59 29.4v30.6h-23v-30.6h3.3v1.6h3.3v-1.6h3.3v1.6h3.2v-1.6h3.3v1.6h3.3v-1.6h3.3m1-1h-5.3v1.6h-1.3v-1.6h-5.3v1.6h-1.2v-1.6h-5.3v1.6h-1.3v-1.6h-5.3v32.6h25v-32.6z"/>
 <path d="m67.5 44.4l-2.5-1.6v-6.8h5v2h3v-2h5v2h3v-2h5v2h3v-2h5v6.8l-2.5 1.7v30.2l-0.2 0.1c-0.2 0.1-4.6 2.7-11.8 2.7-6.9 0-12.4 1-12.4 1l-0.6 0.1 1-34.2z"/>
 <path class="st0" d="m93.5 36.5v6l-2.5 1.7v30.2s-4.4 2.7-11.5 2.7-12.5 0.9-12.5 0.9l1-33.8-2.5-1.7v-6h4v2h4v-2h4v2h4v-2h4v2h4v-2h4m1-1h-6v2h-2v-2h-6v2h-2v-2h-6v2h-2v-2h-6v7.5l0.4 0.3 2 1.4-0.9 33.3v1.2l1.2-0.2c0.1 0 5.4-1 12.3-1 7.3 0 11.8-2.7 12-2.8l0.5-0.3v-30.2l2.1-1.4 0.4-0.3v-7.5z"/>
 <path d="m55.5 78.5v-10.5c0-4.1-3.4-7.5-7.5-7.5s-7.5 3.4-7.5 7.5v10.5h-12v-24.2l-3-2v-6.8h5v2h3v-2h5v2h3v-2h5v2h3v-2h5v2h3v-2h5v2h3v-2h5v6.8l-3 2v24.2h-12z"/>
 <path class="st0" d="m70 46v6l-3 2v24h-11v-10c0-4.4-3.6-8-8-8s-8 3.6-8 8v10h-11v-24l-3-2v-6h4v2h4v-2h4v2h4v-2h4v2h4v-2h4v2h4v-2h4v2h4v-2h4m1-1h-6v2h-2v-2h-6v2h-2v-2h-6v2h-2v-2h-6v2h-2v-2h-6v2h-2v-2h-6v7.5l0.4 0.3 2.6 1.7v24.5h13v-11c0-3.9 3.1-7 7-7s7 3.1 7 7v11h13v-24.5l2.6-1.7 0.4-0.3v-7.5z"/>
 <path class="st0" d="m48 60c-4.4 0-8 0.6-8 5v13h16v-13c0-4.4-3.6-5-8-5z"/>
 <path class="st0" d="m41.3 35c-1 0-1.8 1.4-1.8 3.1v3.9h3.5v-3.9c0-1.7-0.8-3.1-1.7-3.1z"/>
 <path class="st0" d="m53.3 35c-1 0-1.8 1.4-1.8 3.1v3.9h3.5v-3.9c0-1.7-0.8-3.1-1.7-3.1z"/>
</svg>
