<?xml version='1.0' encoding='utf-8'?>
<svg xmlns="http://www.w3.org/2000/svg" enable-background="new 0 0 595.28 574.8" version="1.1" viewBox="0 0 595.28 574.8">
	<path d="m414.14 66.449c6.12-0.288 15.269 0.304 19.949 3.185l-4.541 5.24c-14.544 15.768-28.558 35.314-34.965 54.538-1.224 4.391-0.125 7.958 4.968 9.648 11.088 2.664 23.604 2.911 32.95 14.87 11.664 14.616-11.376 26.28 0 39.96 5.544 8.208 1.728 19.584-2.376 27.144-3.456 4.104-9.576 5.832-11.664 10.512 8.784 19.224-18.364 19.345-14.878 44.255 49.32 38.16 88.102 91.609 84.934 153.74-5.544 41.76-51.048 60.408-85.464 67.968-43.2 8.208-95.975 14.328-132.41-13.104-34.128-23.904-55.44-63-44.64-105.05 5.832-19.512 14.904-37.872 29.16-53.928-6.408-3.24-13.968 0-20.952 0-4.392 5.832-2.952 13.68-2.664 20.952-6.984 3.816-17.208 0.648-23.904 5.544-0.864 10.512 2.016 16.056 0 25.128-18.36 1.152-34.127 3.743-52.488 2.88 0.288-46.656-2.248-93.732-21.024-133.49-9.043-19.149-17.668-36.899-28.008-56.88-0.576-4.104 3.537-4.55 6.408-5.544 32.688-2.376 63.576-0.648 96.552-4.104l10.512-3.529c14.616-18.071 26.856-36.719 41.4-54.863 9.936-7.849 23.328-2.017 35.641-4.608 4.247-2.664 2.231-7.344 0.575-10.512l-20.159-28.008c-3.881-8.976 7.411-9.309 12.527-11.376 19.384-7.829 25.758 31.442 42.716-1.85 13.392-8.712 21.893 10.487 34.708 6.958 10.78-15.48 34.52-18.573 47.12-5.685z"/>
	<path d="m352.58 132.04c8.712 14.615 19.224 28.008 25.056 43.488 0 1.44-3.479 4.316-4.631 4.604-17.856 2.304-25.23-14.701-38.333-22.333-13.752 4.392-18.594 16.865-27.594 26.801-1.801 11.952-5.833 27.072 0.575 37.872-2.952 12.888-2.952 27.144-1.224 40.608-8.64 16.272-21.815 30.6-34.92 44.856l-40.359-0.907-0.123-1.441c-3.24-35.784-5.599-80.452-3.871-116.67 13.176-19.224 28.036-39.949 43.516-57.517 26.55-0.28 56.18-1.09 81.89 0.64z" fill="#fff"/>
	<path d="m419.68 158.03c2.88 3.527 4.012 10.665 2.86 14.767-8.784 4.969-17.764 2.729-27.412 1.289-5.256-4.968-9-11.664-10.512-18.72 12.24-0.29 24.84-3.46 35.06 2.66z" fill="#fff"/>
	<path d="m423.14 202.1c0.288 6.12-3.599 12.071-10.007 12.935l-85.104 5.425c-4.888 0-7.959-2.564-10.512-6.984-2.593-5.544-0.327-10.68 3.527-14.04 15.48-7.848 32.898-6.267 53.064-7.848 20.89-0.14 45.64-8.35 49.03 10.51z" fill="#fff"/>
	<path d="m216.06 211.38c0.576 38.808 4.68 77.328 3.528 116.06-3.528 0.864-8.496 1.44-11.088 0-2.952-43.416-3.528-86.256-4.968-129.46 1.44-3.528 7.272-2.016 10.512-1.44l2.02 14.84z" fill="#fff"/>
	<path d="m406.5 238.53c0 6.984-4.68 11.952-11.376 12.528-20.376 0.936-45.345 1.512-65.721 2.376-5.544-0.864-8.943-3.24-9.807-9.36 0-3.53 0.959-9.31 7.695-10.909 22.752 0 43.353-2.085 66.681-3.237 4.98 0.09 11.97 2.19 12.54 8.6z" fill="#fff"/>
	<path d="m384.02 267.72c5.104 1.491 6.232 8.558 4.572 12.432-1.343 3.135-2.342 4.481-8.684 4.986l-51.562 2.501c-4.543 0-8.743-2.736-9.318-7.057-0.865-7.632 5.604-12.14 12.3-12.715 18.93-0.29 34.33-3.6 52.69-0.14z" fill="#fff"/>
</svg>