<?xml version="1.0" encoding="UTF-8"?>
<svg viewBox="0 0 337.03256 428.14285" xmlns="http://www.w3.org/2000/svg">
 <g transform="translate(-212.08 -353.29)" stroke="#000">
  <path d="m541.43 780.93-324.29-2.8571s16.869-84.486 14.286-122.86-16.461-85.958-18.571-128.57 8.5714-150 8.5714-150l312.86-22.857-307 30.861s-5.793 97.55-3.897 139.4 14.287 97.942 16.019 135.36-14.142 110.11-14.142 110.11l305.49 1.448s9.2211-54.79 9.5863-94.272-13.901-120.19-13.94-167.89 12.132-149.05 12.132-149.05-6.02 101.42-4.6811 149.04 14.355 126.9 14.744 167.85-7.1705 104.29-7.1705 104.29z" fill-rule="evenodd"/>
  <path d="m303.57 425.93 5.7143-22.143 4.2857 19.286 13.571-21.429 11.429 17.857 13.571-9.2857 16.429 3.5714 17.857-12.857 16.429 0.71429 6.4286 7.1428 17.857-10 38.571 2.1429h-37.857l-20 11.429-7.1428-7.1429-13.571-1.4286-16.429 13.571-17.857-3.5714-15.714 11.429-10-15.714-12.857 18.571-5.7143-12.143-5 10z" fill-rule="evenodd"/>
  <path d="m261.95 464.08-0.1067 6.4277 236.66-11.788-236.55 5.3602z" fill-rule="evenodd"/>
  <path d="m250.5 529.62-0.1067 6.4277 236.66-11.788-236.55 5.3602z" fill-rule="evenodd"/>
  <path d="m256.19 617.58-0.1067 6.4277 236.66-11.788-236.55 5.3602z" fill-rule="evenodd"/>
  <path d="m260.54 699.81-0.1067 6.4277 236.66-11.788-236.55 5.3602z" fill-rule="evenodd"/>
  <path d="m250.39 493.18-0.1067 6.4277 236.66-11.788-236.55 5.3602z" fill-rule="evenodd"/>
  <path d="m246.25 570.27-0.10671 6.4277 236.66-11.788-236.55 5.3602z" fill-rule="evenodd"/>
  <path d="m253.33 660.39-0.10671 6.4277 236.66-11.788-236.55 5.3602z" fill-rule="evenodd"/>
  <path d="m432.4643,727.38484c-.84208,1.33916-1.22924,2.89746-1.52268,4.43522-.04914.60904-.06195,1.52957.6335,1.82804 .46657.20024.74097.0526 1.21655-.04958 1.86123-.86389 3.4017-2.31003 4.86949-3.71812 1.64775-1.67319 3.24536-3.39476 4.87262-5.08782 1.38142-1.45593 2.37902-3.21384 3.20003-5.032 .17718-.61793.63918-1.95707-.24179-2.33992-.32674-.14199-.65903.05231-.94699.1555-1.27808.89742-1.76807,2.3858-2.26715,3.79412-.77037,2.4489-.92544,5.02261-1.04756,7.56952-.04644,1.05379-.07587,2.11321.04282,3.16388 .05489.48594.10133,1.0367.42673,1.4425 .1361.16972.34984.25869.52475.38804 .25795.00342.51978.05487.77386.01024 1.81334-.31847 3.36035-2.02396 4.57456-3.27673 .41801-.44802 1.31926-1.68348 2.13006-1.48614 .51387.12506.9307,1.71464 1.05275,2.10588 .2761.83622.53326,1.80121 1.47704,2.12245 1.06652.36301 2.21926-.14756 3.20746-.4835l1.01534-.31805c.97433-.30555 1.1499-.31975 2.09496-.79843 1.01791-.51558 1.95092-1.18378 2.90781-1.80037 1.07485-.73064 2.34436-.95722 3.54602-1.37884 1.54329-.5415.19022-.14895 1.65228-.542 .23047.00293.46561-.03744.69142.00878 .68586.14039 1.18629.73422 1.85091.94458 .85065.26926 1.41349.21772 2.31577.2479 1.78807-.21149 3.58986-.18309 5.38507-.25346 1.1647-.04566 1.61788-.10443 2.78599-.21394 1.11217-.16433 2.234-.4613 3.36437-.26043 .69361.12326.7782.30844 1.44896.43954 .25173.04919.51066.0489.766.07336 .29446-.05761.5935-.09541.8834-.17279 .35259-.09412.70012-.20896 1.04043-.34074 1.00353-.38862 2.05295-1.14175 3.18938-1.03476 .31394.02955.59931.19634.89897.29451 1.05503.40692 1.42368,1.72512 2.48129,2.09897 .63533.22457.9318.06754 1.57541-.06035 1.15222-.36086 2.14003-1.13146 3.32912-1.38676 .5621-.1207.98594-.09338 1.55238-.09499 1.04362.10435 2.07126.12544 3.11468.02615 .03096-.00296-.18989.16077-.22085.16363-1.04384.09622-2.07228.07273-3.1162-.02807-.57006.00334-.98128-.02321-1.54668.10094-1.18747.26076-2.17527,1.03151-3.3309,1.38429-.65444.12375-.94586.2777-1.58832.04463-1.05214-.38169-1.42231-1.68779-2.4758-2.09491-.2972-.09509-.58077-.25809-.89164-.28529-1.13318-.09915-2.18276.65276-3.1854,1.03847-.34152.13137-.69006.24647-1.04404.33919-.29172.07642-.59275.11148-.88911.16721-.25654-.02586-.51668-.02746-.76961-.07757-.65014-.1288-.77274-.31868-1.44365-.4358-1.12805-.19693-2.24769.10093-3.35778.2613-1.18149.1103-1.61004.16672-2.78767.2127-1.79569.07011-3.59757.04575-5.38642.25267-.91552-.03207-1.46487.01986-2.32628-.2544-.6593-.20989-1.16182-.80026-1.8449-.93397-.22439-.04393-.45728-.00235-.68593-.00353-1.46692.39844-.09716-.0012-1.65066.54234-1.02924.36011-2.11974.56995-3.07734,1.11304-1.10528.71189-2.19629,1.47402-3.37261,2.06681-.94111.47427-1.12853.49276-2.09783.7968l-1.01401.3178c-.99676.33547-2.15231.8405-3.22437.46537-.94544-.33083-1.20833-1.296-1.48598-2.13915-.22928-.73427-.39427-1.56899-1.03663-2.07271-.07497-.0588-.17996-.13856-.26745-.10085-.46577.20077-1.10815,1.00806-1.38976,1.3187-.9807,1.01393-1.84262,1.86018-3.04131,2.63371-.60063.38759-1.28044.78995-2.0053.9078-.2582.04198-.52294-.01579-.78441-.02368-.17707-.13332-.39315-.22653-.53119-.39993-.32797-.41193-.37433-.95909-.42979-1.4522-.11835-1.05233-.08766-2.11332-.0408-3.16868 .12201-2.54852.27581-5.12377 1.04182-7.57551 .38662-1.09724.75279-2.27676 1.52974-3.17755 .35568-.41235.74372-.60637 1.20238-.90202 .30874-.10386.62491-.28797.96485-.1312 .88401.4077.43775,1.72883.25405,2.37218-.82028,1.82065-1.81721,3.5821-3.19797,5.04126-1.6279,1.6931-3.22666,3.41412-4.87316,5.0892-1.59946,1.53876-3.29164,3.07595-5.3393,3.98771-.49017.09853-.75693.24215-1.23259.0305-.7-.31146-.69515-1.23214-.64545-1.85515 .29326-1.54012.68152-3.09896 1.51415-4.44571 .01658-.02681.27287-.13652.25609-.10983z" fill="none" stroke-linecap="round" stroke-linejoin="round"/>
  <path d="m428.86 737.58 75.634-1.6092" fill="none" stroke-dasharray="2.12409206, 2.12409206" stroke-width=".53102"/>
  <path d="m282.46697,724.23719c-1.71116,2.35612-2.92944,5.00753-3.90803,7.73649-.48211,1.80695-1.35115,4.47323-.16354,6.2013 .17013.24754.41988.42963.62982.64446 .28252.15193.54453.35059.84758.45578 2.34042.81248 5.25407-.71567 7.27153-1.75505 2.93576-1.7764 4.10623-3.8311 5.07816-7.01531 .28256-1.09577.6703-2.912-.65097-3.56842-.55653-.27648-.9276-.0618-1.48014.07994-.25563.14583-.53438.25709-.7669.43751-.17363.13472-.29087.32951-.43521.49524-1.02361,1.17521-1.83894,2.40964-2.54796,3.79655-.69581,2.06204-1.26501,4.30796-1.12772,6.50799 .02402.38501.10487.76436.1573,1.14654 .22451.75521.30248,1.29826.80282,1.9292 .73659.92884 1.99302,1.42795 3.16006,1.40947 .64654-.01025 1.28052-.18097 1.92078-.27146 3.41726-.7952 6.53387-2.3839 9.09538-4.79899 1.72875-1.62994 2.13983-2.42399 3.49209-4.35222 1.39988-2.23695 2.76751-4.53263 3.79052-6.97354 .20577-.49097.87458-2.04393.67867-2.81649-.04151-.16371-.26793-.20571-.4019-.30857-.2545.13701-.53763.23068-.76351.41103-.42348.33812-1.80115,2.14509-1.8808,2.25861-1.44268,2.05605-2.31826,4.15426-3.22761,6.47547-.483,1.84502-1.31093,4.13248-1.18824,6.08329 .02943.46794.05345.98945.33152,1.36696 .75175,1.02058 2.2343.48022 3.13352.38471 3.15701-.96056 6.02156-2.61784 8.80051-4.35927 .46622-.29216 4.04752-2.67883 4.82462-3.10527 .52612-.28871 1.09635-.4885 1.64453-.73275 .22411.08916.53597.06853.67233.26747 .45189.65933-.21579,2.17852-.23561,2.91205-.00401.14825-.00875.3778.13187.42493 .17863.05985.35134-.1361.527-.20414 .89291-.70121 1.62413-1.89827 2.83379-2.09187 .03847-.00615.7705.27623.79151.28418 .21068-.0452.43094-.05825.63204-.13562 .42161-.16219 1.45592-.78902 1.82495-.97598 .81599-.41337 1.59146-.68061 2.48606-.83862l.61559-.03348c.04247-.00231-.26046.2202-.30292.22273l-.61185.03635c-.89055.16268-1.66219.43303-2.47484.84545-.39793.20196-1.38488.80555-1.83639.97025-.20589.0751-.43096.08004-.64643.12007-.09201-.0345-.90301-.34899-.9796-.30455-.97846.56766-1.55755,1.68242-2.62929,2.13198-.18703.0516-.38188.22913-.56109.15478-.14276-.05922-.13907-.28908-.13504-.44359 .01831-.70197.68328-2.24175.25898-2.86605-.1302-.19157-.43227-.16651-.64841-.24975-.34253.12606-.70683.20404-1.02759.3782-.80435.43673-4.33627,2.79949-4.83716,3.11098-2.9796,1.85292-6.0274,3.66387-9.40567,4.69537-.94558.09356-2.39998.62701-3.16779-.42454-.27888-.38193-.30378-.90704-.33327-1.37903-.11995-1.92038.7119-4.28023 1.19162-6.0966 1.25496-3.21093 2.7979-7.03991 5.7202-9.11582 .23849-.16942.52786-.25236.79179-.37854 .13797.11428.37044.16904.41392.34284 .19404.77563-.48031,2.3426-.68751,2.8362-1.02529,2.44249-2.39372,4.74013-3.79229,6.98071-1.35034,1.93096-1.76211,2.72782-3.48895,4.36137-2.71488,2.56822-6.09111,4.27964-9.70747,5.14487-.64409.08884-1.28213.25867-1.93226.26649-1.17854.01417-2.44091-.4966-3.18213-1.43493-.50237-.63598-.58159-1.1821-.80787-1.94215-.05293-.3839-.13437-.76494-.15879-1.1517-.13916-2.20435.43169-4.45388 1.11941-6.52303 1.03035-2.02874 2.27489-4.06184 4.38336-5.10802 .57248-.13626.93413-.34335 1.50161-.0507 1.32307.68231.95538,2.48812.6648,3.60895-1.08442,3.56518-2.36507,5.51268-5.69249,7.39865-2.03162,1.04125-4.94952,2.56305-7.30036,1.732-.30565-.10806-.56949-.30996-.85423-.46493-.21182-.21849-.46373-.40423-.63546-.65545-1.19077-1.74193-.32863-4.40903.1571-6.23045 .97709-2.72814 2.19162-5.37842 3.89093-7.741 .02496-.0347.37214-.18413.34702-.14953z" fill="none" stroke-linecap="round" stroke-linejoin="round"/>
  <path d="m265.68 740.32 75.634-1.6092" fill="none" stroke-dasharray="2.12409206, 2.12409206" stroke-width=".53102"/>
 </g>
</svg>
