<?xml version='1.0' encoding='utf-8'?>
<svg xmlns="http://www.w3.org/2000/svg" enable-background="new 0 0 53.85 53.5" version="1.1" viewBox="0 0 53.85 53.5">
<g clip-rule="evenodd" fill-rule="evenodd">
	<path d="m40.3 24l-0.3 0.25h-0.05l-0.25 0.2-0.75 0.45c-0.066 0.067-0.15 0.117-0.25 0.15-0.023 3e-3 -0.048 3e-3 -0.075 0-1.593 0.223-2.718-0.044-3.375-0.8-0.033-0.033-0.05-0.067-0.05-0.1-0.066-0.066-0.117-0.133-0.15-0.2-0.1-0.167-0.166-0.333-0.2-0.5-0.033-0.1-0.066-0.2-0.1-0.3v-0.05c0.033-0.033 0.05-0.067 0.05-0.1l0.2-0.1c0.066-0.033 0.15-0.066 0.25-0.1-0.1 0.233-0.033 0.5 0.2 0.8 0.2 0.233 0.533 0.417 1 0.55s0.983 0.184 1.55 0.15c0.6-0.033 1.15-0.15 1.65-0.35 0.566-0.2 1.033-0.5 1.399-0.9h0.05l-0.25 0.35c-0.1 0.1-0.216 0.217-0.35 0.35-0.065 0.067-0.133 0.15-0.199 0.25zm-10.8-24l0.1 0.35c0 0.1 0.017 0.2 0.051 0.3v0.1l0.049 0.35v0.3c0.033 0.333 0.05 0.667 0.05 1 0 0.1-0.017 0.2-0.05 0.3l-0.15 1.5c-0.017 0.066-0.033 0.133-0.05 0.2-1.033 1.7-2.1 2.434-3.2 2.2-0.033-0.033-0.083-0.05-0.149-0.05-0.068-0.033-0.151-0.067-0.251-0.1-0.2-0.067-0.383-0.184-0.55-0.35-0.092-0.062-0.184-0.136-0.275-0.225l-0.025-0.025v-0.05c-0.033-0.033-0.05-0.083-0.05-0.15v-0.1l0.05-0.25c0.034-0.1 0.067-0.183 0.1-0.25 0.1 0.367 0.367 0.6 0.8 0.7 0.333 0.067 0.733-0.033 1.2-0.3 0.433-0.3 0.833-0.7 1.199-1.2 0.434-0.567 0.75-1.2 0.95-1.9 0.233-0.767 0.3-1.533 0.2-2.3v-0.05zm-4.25 7.85c-0.033 0.066-0.067 0.133-0.1 0.2l-0.15 0.35c-0.1 0.033-0.217 0.05-0.35 0.05h-0.5c-0.267 0-0.517-0.067-0.75-0.2-0.033 0-0.066-0.017-0.1-0.05-0.933-0.5-1.316-1.684-1.15-3.55 0.025-0.083 0.059-0.167 0.1-0.25l0.85-1.45c0.033-0.034 0.066-0.083 0.1-0.15l0.55-0.75h0.05v-0.05l0.35-0.4c0.1-0.067 0.184-0.133 0.25-0.2l0.3-0.3h0.025l-0.025 0.05c-0.5 0.567-0.883 1.217-1.15 1.95-0.267 0.667-0.4 1.35-0.4 2.05 0 0.667 0.1 1.233 0.3 1.7 0.2 0.5 0.45 0.816 0.75 0.95 0.066 0.034 0.117 0.05 0.15 0.05 0.1 0.033 0.2 0.05 0.3 0.05 0.2 0.033 0.367 0 0.5-0.1 0.033-0.033 0.067-0.066 0.1-0.1v0.15zm-1.9 1.55l-0.2 0.25c-0.066-0.1-0.117-0.2-0.15-0.3 0.133 0.033 0.25 0.05 0.35 0.05zm3.9 0.85c-1.833 0.733-3.117 0.683-3.85-0.15v-0.05c0.033-0.066 0.067-0.117 0.1-0.15 0.133-0.167 0.267-0.333 0.4-0.5 0.2 0.133 0.483 0.217 0.85 0.25 0.533 0.067 1.1 0 1.7-0.2 0.7-0.2 1.333-0.5 1.899-0.9 0.634-0.466 1.15-1.033 1.551-1.7l0.05-0.05-0.15 0.3c-0.066 0.133-0.149 0.283-0.25 0.45l-0.25 0.4v0.05l-0.05 0.05-0.5 0.7c-0.033 0.033-0.066 0.067-0.1 0.1l-0.4 0.5-0.9 0.8c-0.034 0.033-0.067 0.067-0.1 0.1zm-1.9 3.65c-0.021 5e-3 -0.037 0.014-0.05 0.025-0.033 9e-3 -0.067 0.017-0.1 0.025-1.818 0.44-3.035 0.207-3.65-0.7-0.1-0.133-0.183-0.3-0.25-0.5l0.45-0.6c0.033 0.1 0.083 0.184 0.15 0.25 0.2 0.3 0.55 0.5 1.05 0.6 0.533 0.1 1.117 0.1 1.75 0 0.667-0.133 1.316-0.383 1.95-0.75 0.699-0.367 1.283-0.867 1.75-1.5h0.05l-0.351 0.5c-0.143 0.19-0.292 0.391-0.449 0.6-0.067 0.081-0.134 0.164-0.2 0.25l-0.4 0.35c-0.033 0.066-0.066 0.117-0.1 0.15l-1.45 1.2c-0.053 0.035-0.103 0.069-0.15 0.1zm-2.35 5l-0.4 0.35c-0.133 0.133-0.267 0.25-0.4 0.35l-1.1 0.75c-0.032 0.021-0.065 0.038-0.1 0.05l-0.05 0.05h-0.05c-1.904 0.392-3.138 0.109-3.7-0.85-0.167-0.3-0.267-0.633-0.3-1l0.55-0.7c-0.1 0.267-0.05 0.55 0.15 0.85 0.167 0.3 0.5 0.517 1 0.65s1.083 0.167 1.75 0.1 1.333-0.267 2-0.6c0.7-0.333 1.3-0.8 1.8-1.4h0.05l-0.35 0.5c-0.167 0.167-0.333 0.35-0.5 0.55l-0.35 0.35zm0.5-1.75c-0.1 0.067-0.183 0.117-0.25 0.15-1.933 0.4-3.183 0.117-3.75-0.85-0.167-0.233-0.267-0.517-0.3-0.85l0.5-0.7c-0.034 0.233 0.017 0.467 0.15 0.7 0.167 0.3 0.517 0.533 1.05 0.7 0.5 0.133 1.067 0.167 1.7 0.1 0.7-0.1 1.367-0.3 2-0.6 0.733-0.367 1.35-0.833 1.85-1.4l0.05-0.05-0.35 0.5c-0.167 0.167-0.333 0.35-0.5 0.55-0.1 0.1-0.183 0.2-0.25 0.3l-0.4 0.35c-0.067 0.034-0.133 0.083-0.2 0.15l-1.3 0.95zm0.8 8c0.434-0.1 0.867-0.183 1.3-0.25 0.133 0.033 0.283 0.067 0.45 0.1 0.367 0.033 0.7-0.05 1-0.25-0.1 0-0.2-0.017-0.3-0.05 0-0.034-0.017-0.05-0.05-0.05h-0.05v-0.05c-0.334-0.133-0.601-0.317-0.8-0.55-0.623-0.72-0.506-1.712 0.35-2.975 0.018-0.027 0.034-0.053 0.05-0.075 0.1-0.067 0.217-0.133 0.35-0.2l0.301-0.2 0.75-0.35c0.066-0.033 0.133-0.067 0.199-0.1l0.4-0.1c0.101-0.033 0.2-0.066 0.3-0.1 0.201-0.056 0.4-0.106 0.601-0.15l0.5-0.05c-0.634 0.133-1.2 0.4-1.7 0.8-0.467 0.333-0.834 0.733-1.101 1.2s-0.416 0.917-0.449 1.35c-0.034 0.4 0.05 0.717 0.25 0.95 0.267 0.267 0.55 0.383 0.85 0.35-0.033 0.033-0.066 0.067-0.1 0.1l-0.101 0.1c0.233-0.033 0.467-0.067 0.7-0.1 0.1-0.033 0.217-0.05 0.35-0.05 0.134-0.034 0.267-0.05 0.4-0.05 0.134 0.067 0.3 0.117 0.5 0.15-0.167 0.034-0.384 0.067-0.65 0.1-0.3 0.067-0.633 0.133-1 0.2-0.333 0.067-0.7 0.15-1.1 0.25-0.134 0.033-0.267 0.066-0.4 0.1-0.1 0.033-0.2 0.05-0.3 0.05-0.367 0.1-0.716 0.2-1.05 0.3-1.3 0.333-2.567 0.717-3.8 1.15-1.867 0.666-3.833 1.5-5.9 2.5-0.1 0.033-0.2 0.083-0.3 0.149 0.067-0.066 0.117-0.116 0.15-0.149h-0.4l-0.2-0.05c-0.033 0-0.05-0.017-0.05-0.051l-0.2-0.05-0.05-0.049c-0.033 0-0.067-0.017-0.1-0.05l-0.05-0.05-0.85 0.4-0.15 0.05c-0.025 0.018-0.051 0.034-0.075 0.051h-0.025c-1.433 0.066-2.383-0.217-2.85-0.851 0.167-0.233 0.333-0.483 0.5-0.75v0.05c0.1 0.134 0.283 0.267 0.55 0.4 0.4 0.167 0.867 0.267 1.4 0.3h0.45c0.233 0 0.467-0.033 0.7-0.1 0.2-0.033 0.417-0.084 0.65-0.15h0.1c0.4-0.133 0.783-0.333 1.15-0.6 0.067-0.033 0.133-0.066 0.2-0.101 0.1-0.066 0.183-0.133 0.25-0.199l0.05-0.051-0.2 0.25c-0.034 0.034-0.067 0.051-0.1 0.051-0.061 0.061-0.119 0.118-0.175 0.175l-0.025 0.025c-0.1 0.101-0.217 0.2-0.35 0.301-0.1 0.066-0.2 0.133-0.3 0.199l-0.35 0.25c0.033 0.034 0.067 0.051 0.1 0.051 0.1 0.1 0.217 0.149 0.35 0.149 0.133 0.033 0.25 0.017 0.35-0.05 0-0.033 0.017-0.083 0.05-0.15 0.3-0.133 0.6-0.267 0.9-0.399 0.267 0.1 0.55 0.116 0.85 0.05 0.333-0.1 0.617-0.267 0.85-0.5-0.1 0-0.233-0.017-0.4-0.05-0.067 0-0.133-0.017-0.2-0.05-0.133-0.034-0.25-0.067-0.35-0.101-0.066-0.033-0.133-0.083-0.2-0.149-0.3-0.2-0.483-0.5-0.55-0.9l-0.5 0.2c-0.069 0.033-0.119 0.05-0.15 0.05h-0.15c-0.4 0.033-0.767 0.017-1.1-0.05-0.267-0.034-0.5-0.083-0.7-0.15h-0.1c-0.633-0.233-1.05-0.617-1.25-1.15 0-0.028-8e-3 -0.07-0.025-0.125 0.155-0.256 0.313-0.498 0.475-0.725 0 0.034 0.017 0.067 0.05 0.1 0.1 0.333 0.367 0.6 0.8 0.8 0.167 0.066 0.35 0.133 0.55 0.2 0.167 0.033 0.333 0.067 0.5 0.1s0.35 0.05 0.55 0.05h1.05c0.267-0.066 0.55-0.133 0.85-0.2h0.05c0.467-0.133 0.9-0.317 1.3-0.55 0.2-0.133 0.383-0.267 0.55-0.4 0.032-0.032 0.066-0.049 0.1-0.05h-0.1c0.033-0.367 0.167-0.8 0.4-1.3l-0.35 0.2-0.3 0.2c-0.055 0.036-0.113 0.069-0.175 0.1-0.02 0.013-0.045 0.03-0.075 0.05h-0.05c-0.3 0.033-0.6 0.066-0.9 0.1-0.233 0.033-0.467 0.033-0.7 0-0.233 0-0.45-0.034-0.65-0.1-0.667-0.133-1.133-0.45-1.4-0.95-0.133-0.267-0.217-0.55-0.25-0.85-0.084 0.103-0.168 0.211-0.25 0.325 0.25-0.363 0.5-0.722 0.75-1.075-0.034 0.233 0.017 0.483 0.15 0.75 0.167 0.3 0.5 0.534 1 0.7 0.5 0.133 1.083 0.183 1.75 0.15v-0.05h0.4c0.167-0.033 0.333-0.067 0.5-0.1 0.367-0.1 0.733-0.233 1.1-0.4 0.733-0.333 1.35-0.783 1.85-1.35l0.05-0.05c0 0.033-0.017 0.066-0.05 0.1l-0.35 0.45c-0.033 0-0.05 0.017-0.05 0.05l0.25-0.15c0.068-0.034 0.135-0.067 0.2-0.1 0.193-0.083 0.376-0.15 0.55-0.2l0.5-0.15h0.05c-0.633 0.233-1.184 0.583-1.65 1.05-0.434 0.433-0.767 0.917-1 1.45-0.233 0.5-0.367 0.966-0.4 1.4 0 0.433 0.1 0.767 0.3 1 0.167 0.167 0.35 0.267 0.55 0.3 0.1 0 0.2-0.017 0.3-0.05l-0.05 0.05c0.467-0.167 0.934-0.316 1.4-0.45 0.167 0.066 0.35 0.1 0.55 0.1 0.367 0 0.7-0.1 1-0.3-0.133 0-0.267-0.033-0.4-0.1-0.034 0-0.05-0.017-0.05-0.05-0.3-0.133-0.55-0.3-0.75-0.5-0.591-0.723-0.474-1.756 0.35-3.1-0.135 0.12-0.268 0.237-0.4 0.35 0.133-0.133 0.283-0.267 0.45-0.4 0.1-0.067 0.2-0.133 0.3-0.2l0.25-0.2 0.65-0.35c0.133-0.067 0.267-0.133 0.4-0.2l0.4-0.15h0.025c0.086-0.035 0.161-0.068 0.225-0.1 0.233-0.067 0.434-0.117 0.6-0.15l0.45-0.1c-0.61 0.176-1.16 0.476-1.649 0.9-0.434 0.367-0.784 0.8-1.05 1.3-0.267 0.466-0.417 0.917-0.45 1.35-0.034 0.434 0.05 0.767 0.25 1 0.266 0.266 0.549 0.382 0.849 0.349zm7.6-5.2h0.25c0.199-0.034 0.399-0.067 0.6-0.1h0.5c-0.647 0.075-1.247 0.275-1.8 0.6-0.467 0.267-0.851 0.617-1.15 1.05-0.3 0.4-0.483 0.817-0.55 1.25-0.066 0.4 0 0.717 0.2 0.95 0.133 0.2 0.3 0.333 0.5 0.4 0.1 0.033 0.2 0.05 0.3 0.05-0.033 0.033-0.083 0.067-0.15 0.1l-0.2 0.15c-0.034 0-0.084 0.017-0.15 0.05-0.066-0.034-0.15-0.067-0.25-0.1-0.033-0.033-0.083-0.067-0.15-0.1h-0.05v-0.05l-0.649-0.5c0-0.034-0.017-0.067-0.051-0.1-0.033-0.033-0.066-0.083-0.1-0.15l0.75-2.725v-0.025c0.1-0.067 0.217-0.117 0.35-0.15l0.351-0.2 0.649-0.2c0.134-0.033 0.267-0.066 0.4-0.1l0.4-0.1zm2 4.3c-0.032 0.032-0.066 0.049-0.101 0.05-0.033 0.034-0.066 0.05-0.1 0.05l-0.2 0.1h-0.15c-0.033 0-0.066-0.017-0.1-0.05-0.1-0.033-0.2-0.1-0.3-0.2-0.066-0.034-0.134-0.083-0.2-0.15-0.2-0.167-0.35-0.35-0.45-0.55-0.033-0.033-0.05-0.067-0.05-0.1-0.4-0.8-0.05-1.65 1.05-2.55 0.113-0.04 0.23-0.074 0.351-0.1l0.35-0.1 0.75-0.1c0.134-0.033 0.283-0.05 0.45-0.05l0.45-0.05h0.199c0.228 7e-3 0.443 0.024 0.65 0.05l0.55 0.05h0.05l-0.05 0.05c-0.7-0.067-1.35 0.017-1.95 0.25-0.5 0.2-0.949 0.483-1.35 0.85-0.333 0.333-0.566 0.683-0.7 1.05-0.1 0.367-0.083 0.683 0.05 0.95 0.034 0.033 0.067 0.066 0.101 0.1 0.033 0.067 0.083 0.133 0.149 0.2 0.168 0.133 0.351 0.217 0.551 0.25zm-12.55-20.5l0.05-0.1v0.05c-0.014 0.018-0.031 0.035-0.05 0.05zm-0.75 0.9c-0.032 0.032-0.049 0.066-0.05 0.1v-0.05c0-0.033 0.017-0.05 0.05-0.05zm-2.175 1.925c-0.418 0.626-0.693 1.334-0.825 2.125-0.133 0.7-0.133 1.4 0 2.1 0.1 0.633 0.283 1.167 0.55 1.6 0.267 0.467 0.567 0.733 0.9 0.8 0.434 0.1 0.784 0.017 1.05-0.25 0 0.1-0.017 0.2-0.05 0.3 0.167-0.2 0.333-0.4 0.5-0.6 0.1-0.1 0.184-0.2 0.25-0.3 0.1-0.133 0.2-0.25 0.3-0.35 0.2-0.033 0.383-0.117 0.55-0.25h0.05c-0.133 0.167-0.3 0.367-0.5 0.6-0.2 0.267-0.45 0.6-0.75 1s-0.65 0.867-1.05 1.4c-0.066 0.1-0.133 0.217-0.2 0.35-0.233 0.3-0.483 0.633-0.75 1-0.434 0.533-0.883 1.133-1.35 1.8-0.067 0.1-0.133 0.2-0.2 0.3-0.233 0.333-0.483 0.683-0.75 1.05-0.167 0.2-0.316 0.4-0.45 0.6-1.8 2.467-3.35 4.6-4.65 6.4l0.05-0.15v-0.05c-0.1 0.1-0.233 0.184-0.4 0.25-0.133 0.034-0.25 0.067-0.35 0.1h-0.15c-0.034 0.033-0.067 0.05-0.1 0.05h-0.3c-0.933-0.1-1.6-0.95-2-2.55v-0.15l0.25-1.5c0.034-0.067 0.067-0.133 0.1-0.2l0.2-0.6c0-0.034 0.017-0.067 0.05-0.1 0-0.067 0.017-0.117 0.05-0.15v-0.1h0.05l0.1-0.25c0.033-0.1 0.066-0.2 0.1-0.3l0.15-0.3v0.05c-0.233 0.6-0.367 1.25-0.4 1.95 0 0.6 0.1 1.183 0.3 1.75 0.167 0.533 0.4 0.967 0.7 1.3 0.267 0.333 0.55 0.517 0.85 0.55 0.2 0 0.367-0.033 0.5-0.1s0.233-0.167 0.3-0.3v-0.15c0.233-0.333 0.45-0.633 0.65-0.9l0.05-0.05c0.333-0.033 0.633-0.184 0.9-0.45 0.267-0.3 0.45-0.65 0.55-1.05-0.133 0.1-0.283 0.183-0.45 0.25-0.066 0.033-0.15 0.066-0.25 0.1-0.133 0.033-0.283 0.066-0.45 0.1h-0.3c-1.029-0.1-1.779-1.024-2.25-2.775v-0.025c0.012-0.095 0.029-0.195 0.05-0.3l0.25-1.55c0.033-0.033 0.05-0.066 0.05-0.1l0.25-0.8v-0.05c0.022-0.051 0.047-0.101 0.075-0.15 0.031-0.107 0.064-0.207 0.1-0.3l0.075-0.15v-0.05c0.033-0.066 0.083-0.15 0.15-0.25l0.15-0.3v0.05c-0.3 0.667-0.434 1.383-0.4 2.15 0 0.667 0.1 1.316 0.3 1.95 0.2 0.567 0.467 1.033 0.8 1.4s0.65 0.55 0.95 0.55h0.3c0.233-0.033 0.417-0.15 0.55-0.35 0.033 0 0.05-0.017 0.05-0.05 0.233-0.333 0.467-0.667 0.7-1 0.133-0.034 0.283-0.1 0.45-0.2 0.333-0.267 0.567-0.6 0.7-1-0.1 0.067-0.25 0.117-0.45 0.15h-0.05c-0.033 0.033-0.067 0.05-0.1 0.05-0.367 0.066-0.7 0.066-1 0-1.067-0.267-1.7-1.367-1.9-3.3v-0.15l0.6-1.75c0-0.033 0.017-0.067 0.05-0.1l0.4-0.85 0.05-0.05v-0.05l0.2-0.3c0.133-0.2 0.25-0.383 0.35-0.55l0.15-0.2v0.05c-0.4 0.633-0.65 1.35-0.75 2.15-0.133 0.7-0.133 1.4 0 2.1 0.133 0.633 0.35 1.167 0.65 1.6 0.267 0.434 0.567 0.7 0.9 0.8 0.333 0.066 0.617 0.017 0.85-0.15 0.067-0.034 0.133-0.083 0.2-0.15v0.05c0.367-0.5 0.7-0.967 1-1.4 0.2-0.034 0.4-0.117 0.6-0.25 0.333-0.267 0.583-0.6 0.75-1-0.133 0.066-0.3 0.133-0.5 0.2h-0.05c-0.367 0.067-0.716 0.067-1.05 0-1.1-0.3-1.717-1.433-1.85-3.4 0.017-0.05 0.033-0.1 0.05-0.15l0.35-1.15 0.25-0.55c0-0.033 0.017-0.066 0.05-0.1l0.4-0.8 0.05-0.05v-0.025c0.017-0.017 0.034-0.042 0.05-0.075l0.25-0.4c0.066-0.1 0.133-0.184 0.2-0.25l0.25-0.4h0.05l-0.05 0.05c-0.4 0.667-0.667 1.383-0.8 2.15-0.133 0.7-0.15 1.4-0.05 2.1 0.133 0.633 0.333 1.183 0.6 1.65 0.267 0.433 0.567 0.7 0.9 0.8 0.433 0.1 0.783 0 1.05-0.3v0.05c0.3-0.4 0.617-0.8 0.95-1.2 0.167-0.033 0.333-0.117 0.5-0.25 0.333-0.233 0.583-0.55 0.75-0.95-0.034 0-0.05 0.017-0.05 0.05h-0.05l-0.2 0.1h-0.2c-0.4 0.1-0.767 0.1-1.1 0-1.067-0.267-1.684-1.383-1.85-3.35 0.014-0.083 0.031-0.167 0.05-0.25l0.55-1.55c0.066-0.1 0.117-0.2 0.15-0.3l0.35-0.65c0.02-0.04 0.036-0.073 0.05-0.1l0.05-0.05 0.25-0.4c0.066-0.1 0.133-0.183 0.2-0.25l0.3-0.4v0.05l-0.025 0.025zm-12.225 27.525c0.2-0.133 0.433-0.3 0.7-0.5 1.767-1.199 3.267-2.149 4.5-2.85 0.633-0.4 1.267-0.767 1.9-1.1h0.1c0.167 0.1 0.35 0.133 0.55 0.1-1.267 0.634-2.333 1.233-3.2 1.8-0.767 0.467-1.633 1.05-2.6 1.75-0.5 0.4-1.2 0.934-2.1 1.601-0.267 0.199-0.5 0.383-0.7 0.55 0.267-0.468 0.55-0.918 0.85-1.351zm8-7.15c-0.067 0.233-0.083 0.467-0.05 0.7-0.267-0.034-0.517-0.084-0.75-0.15 0-0.134 0.017-0.283 0.05-0.45l0.75-0.1zm3.2-2.8c-0.1 0.233-0.183 0.467-0.25 0.7-0.3-0.033-0.566-0.067-0.8-0.1 0.033-0.133 0.066-0.25 0.1-0.35l0.95-0.25zm14 0c0-0.1 0.017-0.2 0.05-0.3 0.066 0.1 0.149 0.183 0.25 0.25l-0.3 0.05zm6.3 2.35h0.05l-0.2 0.05c-0.166 0.034-0.35 0.067-0.55 0.1l-0.35 0.05c-0.034 0-0.051 0.017-0.051 0.05l-0.699 0.05c-0.034 2e-3 -0.067 2e-3 -0.101 0-0.202 0.01-0.402 0.019-0.6 0.025l-0.599-0.025c-0.206-0.012-0.406-0.028-0.6-0.05-1.566-0.567-2.434-1.25-2.6-2.05l0.75-0.15c0.1 0.167 0.233 0.317 0.399 0.45 0.334 0.333 0.767 0.633 1.3 0.9 0.601 0.267 1.217 0.45 1.851 0.55 0.7 0.133 1.366 0.15 2 0.05zm-36.05 11.2c0.1-0.167 0.217-0.384 0.35-0.65 0.1-0.133 0.2-0.283 0.3-0.45 0.167-0.4 0.333-0.867 0.5-1.4 0.067-0.3 0.15-0.584 0.25-0.851 0.3-1.033 0.5-1.949 0.6-2.75 0.2-1.233 0.283-2.533 0.25-3.899-0.033-1.467-0.183-2.35-0.45-2.65-0.233-0.233-0.55-0.433-0.95-0.6-0.133-0.067-0.267-0.117-0.4-0.15 0.167-0.033 0.316-0.033 0.45 0 0.5 0.034 0.867 0.133 1.1 0.3 0.167 0.167 0.35 0.467 0.55 0.9 0.233 0.6 0.383 1.333 0.45 2.2 0.133 1.833-0.1 4.05-0.7 6.649l0.05-0.049c-0.333 0.4-0.65 0.8-0.95 1.2-0.233 0.3-0.466 0.634-0.7 1 0.033 0.167 0.167 0.233 0.4 0.2 0.167 0 0.767-0.7 1.8-2.101 0.833-1.1 2.034-2.783 3.6-5.05 0.533-0.767 1.033-1.483 1.5-2.149h0.1c0.233-0.034 0.45-0.117 0.65-0.25-0.967 1.366-1.8 2.533-2.5 3.5-0.5 0.733-1.15 1.716-1.95 2.949 0 0.034-0.017 0.051-0.05 0.051-0.233 0.4-0.45 0.75-0.65 1.05-0.367 0.566-0.65 1-0.85 1.3-0.066 0.1-0.133 0.184-0.2 0.25-0.1 0.134-0.2 0.283-0.3 0.45-0.233 0.3-0.45 0.566-0.65 0.8-0.167 0.167-0.317 0.316-0.45 0.45-0.066 0.066-0.15 0.133-0.25 0.2-0.287 0.19-0.545 0.241-0.775 0.149-0.023-0.045-0.048-0.095-0.075-0.149-0.033-0.1-0.05-0.216-0.05-0.35v-0.1zm16.7-12.5c-0.1 0.066-0.2 0.133-0.3 0.2s-0.183 0.133-0.25 0.2l-0.5 0.3c-0.033 0.033-0.083 0.067-0.15 0.1l-0.2 0.1c0 0.066 0.017 0.133 0.05 0.2 0.033 0.4 0.15 0.684 0.35 0.851 0.066 0.033 0.133 0.066 0.2 0.1 0.2 0.1 0.383 0.116 0.55 0.05 0.033-0.033 0.066-0.05 0.1-0.05 0.3-0.134 0.6-0.267 0.9-0.4 0.133 0.033 0.283 0.05 0.45 0.05 0.333-0.033 0.65-0.15 0.95-0.35-0.1-0.033-0.233-0.066-0.4-0.1-0.067-0.034-0.133-0.067-0.2-0.1-0.233-0.1-0.433-0.233-0.6-0.4-0.3-0.333-0.433-0.75-0.4-1.25l-0.3 0.299c-0.1 0.067-0.183 0.133-0.25 0.2zm1.4 2.2c-0.133 0.133-0.217 0.333-0.25 0.6-0.033 0.3 0.083 0.616 0.35 0.95 0.3 0.333 0.683 0.633 1.15 0.899 0.5 0.267 1.05 0.45 1.65 0.551 0.667 0.133 1.317 0.133 1.95 0h0.05c-0.233 0.066-0.517 0.133-0.85 0.199l-1.05 0.15c-0.633 0.066-1.233 0.083-1.8 0.05-1.5-0.633-2.2-1.434-2.1-2.399 0-0.233 0.066-0.467 0.2-0.7 0.233-0.1 0.467-0.2 0.7-0.3zm3.45-1.2c-0.2 0.133-0.317 0.35-0.35 0.65s0.083 0.617 0.35 0.95c0.3 0.334 0.7 0.634 1.2 0.9 0.5 0.3 1.05 0.5 1.65 0.6 0.7 0.134 1.367 0.15 2 0.05h0.05c-0.3 0.101-0.683 0.184-1.149 0.25l-0.751 0.1c-0.033 2e-3 -0.066 2e-3 -0.101 0-0.057 3e-3 -0.115 3e-3 -0.175 0h-0.6c-0.329 2e-3 -0.653-0.015-0.975-0.05-0.031-0.014-0.064-0.03-0.1-0.051-1.465-0.651-2.166-1.436-2.1-2.35 0.033-0.267 0.133-0.533 0.3-0.8 0.133-0.034 0.267-0.067 0.4-0.1 0.101-0.066 0.218-0.116 0.351-0.149zm3.05-0.75c-0.134 0.133-0.217 0.3-0.25 0.5-0.033 0.3 0.1 0.617 0.4 0.95 0.267 0.333 0.649 0.65 1.149 0.95 0.533 0.301 1.101 0.534 1.7 0.7 0.7 0.134 1.366 0.167 2 0.101h0.1c-0.267 0.066-0.566 0.116-0.899 0.149l-0.3 0.05-0.75 0.05h-0.249l-1.65-0.15c-1.533-0.7-2.267-1.517-2.2-2.45 0.034-0.267 0.133-0.517 0.3-0.75h0.05l0.599-0.1zm7.2 2.4c-0.934 0.067-1.834 0.034-2.7-0.1-1.6-0.7-2.384-1.483-2.35-2.35 0-0.1 0.017-0.2 0.05-0.3l0.65-0.1v0.05c-0.033 0.267 0.101 0.567 0.4 0.9 0.333 0.333 0.75 0.65 1.25 0.95 0.566 0.3 1.15 0.517 1.75 0.65 0.7 0.167 1.384 0.2 2.05 0.101l0.05 0.05c-0.233 0.033-0.5 0.066-0.8 0.1l-0.3 0.05h-0.05zm-12.5 3.75h0.05c-0.3 0.067-0.65 0.117-1.05 0.15h-0.1l-0.7 0.05-1.55-0.15h-0.05c-1.267-0.767-1.8-1.601-1.6-2.5 0.033-0.034 0.05-0.067 0.05-0.1h-0.05c0.233-0.1 0.466-0.217 0.7-0.35v0.149c-0.066 0.267 0 0.567 0.2 0.9 0.2 0.366 0.5 0.7 0.9 1s0.867 0.533 1.4 0.7c0.6 0.167 1.2 0.218 1.8 0.151zm-3.45 0.65h0.05c-0.2 0.066-0.433 0.134-0.7 0.2h-0.25c-0.377 0.065-0.736 0.099-1.075 0.1-0.362 0.018-0.704 1e-3 -1.025-0.05-0.026-0.015-0.052-0.031-0.075-0.05-0.95-0.552-1.425-1.169-1.425-1.85 0.2-0.1 0.4-0.216 0.6-0.35 0.033 0.2 0.1 0.384 0.2 0.55 0.2 0.334 0.483 0.617 0.85 0.851 0.367 0.267 0.783 0.449 1.25 0.55 0.533 0.132 1.067 0.149 1.6 0.049zm-0.95 7.6c0.167-0.267 0.317-0.6 0.45-1 0.333-0.8 0.467-1.5 0.4-2.1-0.066-0.833-0.417-1.517-1.05-2.05-0.733-0.634-1.8-0.934-3.2-0.9-0.867 0-2.033 0.217-3.5 0.65-0.896 0.256-1.98 0.623-3.25 1.1 2.03-1.097 3.83-1.746 5.4-1.95 1-0.133 1.917-0.116 2.75 0.051 0.767 0.166 1.417 0.449 1.95 0.85 0.467 0.366 0.833 0.8 1.1 1.3 0.233 0.467 0.35 0.917 0.35 1.351-0.034 0.699-0.284 1.366-0.75 2-0.2 0.298-0.417 0.532-0.65 0.698z" fill="#E7D06B"/>
	<path d="m40.85 23.4c-0.166 0.2-0.35 0.4-0.55 0.6 0.066-0.1 0.134-0.183 0.2-0.25 0.134-0.133 0.25-0.25 0.35-0.35zm-5.6-0.6c0.333-0.1 0.75-0.117 1.25-0.05 0.233 0.067 0.566 0.15 1 0.25 0.434 0.133 0.75 0.217 0.95 0.25 0.633 0.1 1.267 0.1 1.899 0 0.301-0.067 0.534-0.133 0.7-0.2-0.366 0.4-0.833 0.7-1.399 0.9-0.5 0.2-1.051 0.316-1.65 0.35-0.566 0.034-1.083-0.017-1.55-0.15s-0.8-0.316-1-0.55c-0.233-0.3-0.3-0.567-0.2-0.8zm-0.5 0.3c-0.033 0.133-0.066 0.25-0.1 0.35-0.101 0.2-0.217 0.367-0.351 0.5h-0.05c-0.1 0.133-0.217 0.233-0.35 0.3-0.2-0.033-0.384-0.117-0.551-0.25-0.066-0.067-0.116-0.133-0.149-0.2-0.033-0.033-0.066-0.066-0.101-0.1-0.133-0.267-0.149-0.583-0.05-0.95 0.134-0.367 0.367-0.717 0.7-1.05 0.4-0.367 0.85-0.65 1.35-0.85 0.601-0.233 1.25-0.317 1.95-0.25-0.233 0.033-0.467 0.117-0.7 0.25-0.533 0.3-0.916 0.667-1.149 1.1-0.066 0.167-0.167 0.417-0.3 0.75-0.034 0.1-0.067 0.2-0.101 0.3 2e-3 0.033-0.015 0.067-0.048 0.1zm-9.6-18.05c0.2-0.4 0.517-0.783 0.95-1.15 0.167-0.133 0.467-0.333 0.9-0.6 0.4-0.267 0.684-0.466 0.85-0.6 0.534-0.434 0.967-1.017 1.301-1.75 0.133-0.233 0.233-0.45 0.3-0.65l0.049-0.3v0.05c0.1 0.767 0.033 1.534-0.2 2.3-0.2 0.7-0.517 1.333-0.95 1.9-0.366 0.5-0.767 0.9-1.199 1.2-0.467 0.267-0.867 0.367-1.2 0.3-0.434-0.1-0.701-0.333-0.801-0.7zm0.15 2.05v0.55l-0.05 0.05c-0.033 0.033-0.067 0.066-0.1 0.1-0.133 0.1-0.3 0.133-0.5 0.1-0.1 0-0.2-0.017-0.3-0.05-0.033 0-0.083-0.017-0.15-0.05-0.3-0.133-0.55-0.45-0.75-0.95-0.2-0.467-0.3-1.033-0.3-1.7 0-0.7 0.133-1.383 0.4-2.05 0.267-0.733 0.65-1.383 1.15-1.95l0.025-0.05 0.025-0.05v0.05l-0.1 0.25c-0.1 0.233-0.167 0.467-0.2 0.7-0.167 0.767-0.15 1.5 0.05 2.2 0.033 0.2 0.133 0.533 0.3 1 0.067 0.133 0.133 0.267 0.2 0.4 0 0.067 0.017 0.117 0.05 0.15v0.05l0.025 0.025c0.054 0.163 0.096 0.288 0.125 0.375 0.067 0.3 0.1 0.583 0.1 0.85zm4.6-0.25c-0.4 0.667-0.917 1.233-1.551 1.7-0.566 0.4-1.199 0.7-1.899 0.9-0.6 0.2-1.167 0.267-1.7 0.2-0.367-0.033-0.65-0.117-0.85-0.25 0.033-0.066 0.067-0.117 0.1-0.15 0.033 0 0.067-0.017 0.1-0.05 0.367-0.167 0.667-0.434 0.9-0.8l0.15-0.35c0.033-0.066 0.067-0.133 0.1-0.2 0.2 0 0.433 0.017 0.7 0.05 0.467 0.033 0.816 0.05 1.05 0.05 0.7-0.034 1.4-0.233 2.1-0.6 0.334-0.167 0.6-0.333 0.8-0.5zm-7.15 4.3c0.167 0 0.333 0.017 0.5 0.05 0.233 0 0.6 0.05 1.1 0.15 0.233 0.066 0.45 0.117 0.65 0.15 0.133 0 0.267 0.017 0.4 0.05 0.667 0.034 1.383-0.083 2.15-0.35 0.334-0.133 0.617-0.284 0.851-0.45-0.467 0.633-1.051 1.133-1.75 1.5-0.634 0.367-1.284 0.617-1.95 0.75-0.633 0.1-1.217 0.1-1.75 0-0.5-0.1-0.85-0.3-1.05-0.6-0.066-0.066-0.117-0.15-0.15-0.25l0.75-1h0.249zm-2.75 3.35c0.3-0.067 0.633-0.083 1-0.05 0.1 0 0.2 0.017 0.3 0.05 0.233 0.033 0.583 0.117 1.05 0.25 0.167 0.033 0.333 0.067 0.5 0.1 0.233 0.066 0.417 0.1 0.55 0.1 0.667 0.133 1.383 0.066 2.15-0.2 0.367-0.1 0.667-0.217 0.9-0.35-0.5 0.567-1.117 1.033-1.85 1.4-0.633 0.3-1.3 0.5-2 0.6-0.633 0.067-1.2 0.033-1.7-0.1-0.533-0.167-0.883-0.4-1.05-0.7-0.133-0.233-0.184-0.467-0.15-0.7l0.3-0.4zm5.4 1.2c0.067-0.1 0.15-0.2 0.25-0.3 0.167-0.2 0.333-0.383 0.5-0.55-0.233 0.267-0.483 0.55-0.75 0.85zm-1.9 1.45c-0.133 0.1-0.283 0.184-0.45 0.25 0.067-0.033 0.133-0.066 0.2-0.1 0.067-0.033 0.15-0.083 0.25-0.15zm-0.5 1.75l0.35-0.35c0.167-0.2 0.333-0.383 0.5-0.55-0.233 0.3-0.517 0.6-0.85 0.9zm-5.4-1.25c0.367-0.1 0.767-0.117 1.2-0.05h0.2c0.233 0.033 0.6 0.117 1.1 0.25 0.333 0.1 0.6 0.167 0.8 0.2 0.067 0 0.133 0.017 0.2 0.05 0.7 0.1 1.433 0.017 2.2-0.25 0.333-0.1 0.617-0.217 0.85-0.35-0.5 0.6-1.1 1.067-1.8 1.4-0.667 0.333-1.333 0.533-2 0.6s-1.25 0.033-1.75-0.1-0.833-0.35-1-0.65c-0.2-0.3-0.25-0.583-0.15-0.85l0.15-0.25zm-1.75 6.9c0.066 0.034 0.133 0.067 0.2 0.1s0.133 0.05 0.2 0.05c0.033 0 0.067 0.017 0.1 0.05 0.233 0.033 0.5 0.067 0.8 0.1 0.067-0.233 0.15-0.467 0.25-0.7l0.85-0.25c0.033 0 0.067-0.017 0.1-0.05-0.033 0.2-0.05 0.383-0.05 0.55v0.35c0.233-0.033 0.434-0.083 0.6-0.15h0.1c-0.034 1e-3 -0.068 0.018-0.1 0.05-0.167 0.133-0.35 0.267-0.55 0.4-0.4 0.233-0.833 0.417-1.3 0.55h-0.05c-0.3 0.066-0.583 0.133-0.85 0.2h-1.05c-0.2 0-0.383-0.017-0.55-0.05s-0.333-0.067-0.5-0.1c-0.2-0.066-0.383-0.133-0.55-0.2-0.433-0.2-0.7-0.467-0.8-0.8-0.034-0.033-0.05-0.066-0.05-0.1l0.6-0.85c0.2 0 0.383 0.017 0.55 0.05 0.133 0.033 0.267 0.067 0.4 0.1 0.233 0.066 0.55 0.2 0.95 0.4 0.067 0.033 0.133 0.067 0.2 0.1 0.033 0.033 0.083 0.05 0.15 0.05 0.067 0.033 0.133 0.067 0.2 0.1s0.117 0.05 0.15 0.05zm-0.65-3.6c0.4-0.1 0.85-0.1 1.35 0 0.133 0.033 0.284 0.066 0.45 0.1 0.2 0.067 0.4 0.133 0.6 0.2h0.1c0.433 0.133 0.75 0.217 0.95 0.25 0.667 0.1 1.383 0.05 2.15-0.15 0.367-0.133 0.667-0.25 0.9-0.35-0.5 0.567-1.117 1.017-1.85 1.35-0.367 0.167-0.733 0.3-1.1 0.4-0.167 0.033-0.333 0.067-0.5 0.1h-0.4v0.05c-0.667 0.033-1.25-0.017-1.75-0.15-0.5-0.167-0.833-0.4-1-0.7-0.133-0.267-0.184-0.517-0.15-0.75 0.1-0.1 0.183-0.217 0.25-0.35zm7.65 0c-0.2 0.167-0.383 0.367-0.55 0.6-0.4 0.534-0.65 1.083-0.75 1.65-0.033 0.167-0.066 0.433-0.1 0.8v0.05c0 0.2-0.017 0.367-0.05 0.5v0.4c-0.066 0.433-0.2 0.783-0.4 1.05l1-0.25c0.067-0.033 0.15-0.067 0.25-0.1l0.05 0.05c-0.466 0.133-0.933 0.283-1.4 0.45l0.05-0.05c-0.1 0.033-0.2 0.05-0.3 0.05-0.2-0.033-0.383-0.133-0.55-0.3-0.2-0.233-0.3-0.567-0.3-1 0.034-0.434 0.167-0.9 0.4-1.4 0.233-0.534 0.566-1.017 1-1.45 0.467-0.467 1.017-0.817 1.65-1.05zm-1.15 7.7c0.233 0.267 0.417 0.466 0.55 0.6 0.4 0.4 0.917 0.717 1.55 0.95 0.3 0.1 0.567 0.166 0.8 0.2-0.633 0.133-1.283 0.133-1.95 0-0.6-0.1-1.15-0.284-1.65-0.55-0.467-0.267-0.85-0.566-1.15-0.899-0.267-0.334-0.383-0.65-0.35-0.95 0.033-0.267 0.117-0.467 0.25-0.6 0.133-0.034 0.25-0.084 0.35-0.15 0.333 0.134 0.65 0.35 0.95 0.65 0.067 0.066 0.15 0.166 0.25 0.3 0.1 0.1 0.217 0.233 0.35 0.399l0.05 0.05zm2.6-3.5c-0.3 0.033-0.583-0.083-0.85-0.35-0.2-0.233-0.284-0.566-0.25-1 0.033-0.433 0.183-0.883 0.45-1.35 0.267-0.5 0.617-0.934 1.05-1.3 0.489-0.424 1.04-0.724 1.649-0.9-0.177 0.146-0.36 0.33-0.55 0.55-0.4 0.467-0.667 0.967-0.8 1.5v0.05c-0.033 0.2-0.067 0.467-0.1 0.8-0.033 0.4-0.066 0.7-0.1 0.9-0.033 0.067-0.05 0.117-0.05 0.15-0.099 0.367-0.249 0.683-0.449 0.95zm3.85-3v0.4c-0.067 0.367-0.117 0.65-0.15 0.85 0 0.067-0.017 0.133-0.05 0.2-0.101 0.333-0.25 0.6-0.45 0.8-0.3 0.033-0.583-0.083-0.85-0.35-0.2-0.233-0.284-0.55-0.25-0.95 0.033-0.434 0.183-0.883 0.449-1.35s0.634-0.867 1.101-1.2c0.5-0.4 1.066-0.667 1.7-0.8-0.167 0.133-0.351 0.3-0.551 0.5-0.433 0.433-0.716 0.917-0.85 1.45-0.032 0.1-0.065 0.25-0.099 0.45zm4.6-2.3c-0.2 0.033-0.4 0.066-0.6 0.1h-0.25c0.3-0.033 0.583-0.067 0.85-0.1zm-1.15 2.05c-0.033 0.133-0.066 0.3-0.1 0.5-0.066 0.367-0.116 0.633-0.15 0.8-0.033 0.1-0.066 0.183-0.1 0.25 0 0.033-0.017 0.066-0.05 0.1-0.101 0.233-0.25 0.434-0.45 0.6-0.1 0-0.2-0.017-0.3-0.05-0.2-0.067-0.367-0.2-0.5-0.4-0.2-0.233-0.267-0.55-0.2-0.95 0.066-0.433 0.25-0.85 0.55-1.25 0.3-0.433 0.684-0.783 1.15-1.05 0.553-0.325 1.152-0.525 1.8-0.6h0.05c-0.2 0.1-0.416 0.25-0.649 0.45-0.467 0.367-0.784 0.8-0.95 1.3-0.034 0.067-0.067 0.167-0.101 0.3zm-7.8-19.9v0.05h-0.05c0.032-1e-3 0.049-0.017 0.05-0.05zm-2.15 5.2c0.067 0.167 0.167 0.35 0.3 0.55 0.2 0.433 0.35 0.767 0.45 1 0.033 0.1 0.067 0.2 0.1 0.3 0.033 0.067 0.05 0.117 0.05 0.15 0.1 0.333 0.133 0.65 0.1 0.95-0.1 0.1-0.2 0.167-0.3 0.2-0.2 0.1-0.45 0.1-0.75 0-0.333-0.1-0.617-0.383-0.85-0.85-0.267-0.433-0.433-0.983-0.5-1.65-0.067-0.7-0.017-1.4 0.15-2.1 0.194-0.744 0.511-1.41 0.95-2l-0.05 0.15c-0.033 0.233-0.066 0.467-0.1 0.7-0.067 0.8 0.033 1.533 0.3 2.2 0.033 0.1 0.083 0.233 0.15 0.4zm-1.55 5.75c-0.267 0.267-0.617 0.35-1.05 0.25-0.333-0.067-0.633-0.333-0.9-0.8-0.267-0.433-0.45-0.967-0.55-1.6-0.133-0.7-0.133-1.4 0-2.1 0.132-0.792 0.407-1.5 0.825-2.125l-0.025 0.175c-0.033 0.267-0.066 0.517-0.1 0.75 0 0.8 0.133 1.517 0.4 2.15 0.066 0.133 0.167 0.3 0.3 0.5 0.067 0.133 0.15 0.267 0.25 0.4 0.233 0.434 0.4 0.767 0.5 1 0.067 0.067 0.117 0.15 0.15 0.25 0.133 0.4 0.2 0.783 0.2 1.15zm-6.8 16.7c-0.633 0.333-1.267 0.699-1.9 1.1-1.233 0.7-2.733 1.65-4.5 2.85-0.267 0.2-0.5 0.367-0.7 0.5 0.267-0.399 0.517-0.783 0.75-1.149 0.733-0.5 1.5-0.983 2.3-1.45 0.1-0.066 0.2-0.116 0.3-0.15l3.1-1.75h0.05v-0.05l0.1-0.024 0.25-0.125c0.067 0.098 0.15 0.181 0.25 0.248zm-0.55-0.25h0.025c-0.084 0.041-0.176 0.075-0.275 0.1 0.1-0.033 0.183-0.066 0.25-0.1zm-1.6-2.7c0.133 0.033 0.267 0.066 0.4 0.1 0.2 0.067 0.483 0.184 0.85 0.351 0.3 0.133 0.533 0.216 0.7 0.25 0.033 0.033 0.083 0.05 0.15 0.05 0.033 0.033 0.083 0.05 0.15 0.05 0.233 0.066 0.483 0.116 0.75 0.15-0.033-0.233-0.017-0.467 0.05-0.7l1.15-0.15c0.035-1e-3 0.085-0.018 0.15-0.05 0.031 0 0.081-0.017 0.15-0.05-0.069 0.035-0.119 0.068-0.15 0.1h-0.15v0.05c0.033 0.266 0.05 0.483 0.05 0.65h0.15c0.1-0.033 0.2-0.066 0.3-0.1-0.067 0.066-0.15 0.133-0.25 0.199-0.067 0.034-0.133 0.067-0.2 0.101-0.367 0.267-0.75 0.467-1.15 0.6h-0.1c-0.233 0.066-0.45 0.117-0.65 0.15-0.233 0.066-0.467 0.1-0.7 0.1h-0.45c-0.533-0.033-1-0.133-1.4-0.3-0.267-0.134-0.45-0.267-0.55-0.4v-0.051l0.75-1.1zm5.15-2.1c0.036-0.071 0.069-0.138 0.1-0.2h0.05c-0.062 0.062-0.113 0.129-0.15 0.2zm17.05-0.15h0.15l0.2-0.1c0.033 0 0.066-0.017 0.1-0.05h0.05c0.134 0.133 0.284 0.284 0.45 0.45 0.334 0.267 0.584 0.467 0.75 0.6 0.5 0.4 1.101 0.717 1.8 0.95 0.334 0.1 0.617 0.167 0.851 0.2-0.634 0.1-1.3 0.083-2-0.05-0.634-0.1-1.25-0.284-1.851-0.55-0.533-0.267-0.966-0.566-1.3-0.9-0.166-0.133-0.3-0.283-0.399-0.45l0.5-0.05c0.233 0.033 0.465 0.017 0.699-0.05zm-2.65 3.3h0.05c0.866 0.134 1.767 0.167 2.7 0.1-0.285 0.034-0.585 0.051-0.9 0.051-0.633-1e-3 -1.25-0.051-1.85-0.151zm1.05-1.55c0.1 0.1 0.184 0.167 0.25 0.2 0.467 0.434 1.033 0.767 1.7 1 0.333 0.133 0.616 0.216 0.85 0.25-0.666 0.1-1.35 0.066-2.05-0.101-0.6-0.133-1.184-0.35-1.75-0.65-0.5-0.3-0.917-0.617-1.25-0.95-0.3-0.333-0.434-0.633-0.4-0.9v-0.049l1.301-0.15c0.1 0.066 0.183 0.133 0.25 0.2 0.166 0.133 0.399 0.367 0.699 0.7 0.167 0.167 0.3 0.317 0.4 0.45zm2.85 0.6c-0.241-8e-3 -0.475-0.025-0.699-0.05h0.1c0.192 0.021 0.393 0.038 0.599 0.05zm-18.4-8.85h0.05c-0.3 0.433-0.633 0.9-1 1.4v-0.05c-0.067 0.067-0.133 0.117-0.2 0.15-0.233 0.167-0.517 0.216-0.85 0.15-0.333-0.1-0.633-0.367-0.9-0.8-0.3-0.433-0.517-0.966-0.65-1.6-0.133-0.7-0.133-1.4 0-2.1 0.1-0.8 0.35-1.517 0.75-2.15v0.2c-0.033 0.233-0.05 0.483-0.05 0.75-0.033 0.8 0.1 1.5 0.4 2.1 0.1 0.2 0.267 0.483 0.5 0.85 0.033 0.033 0.05 0.066 0.05 0.1 0.133 0.2 0.25 0.367 0.35 0.5 0.1 0.167 0.167 0.316 0.2 0.45 0.233 0.467 0.367 0.917 0.4 1.35l0.95-1.3zm-3.55-3.9c0.033-0.034 0.049-0.068 0.05-0.1v0.05l-0.05 0.05zm-1.05 2.7v0.15l-0.05 0.05c0.032-0.063 0.049-0.13 0.05-0.2zm-0.9-0.2v0.25c0 0.2 0.017 0.417 0.05 0.65 0.1 0.767 0.333 1.417 0.7 1.95 0.033 0.033 0.066 0.083 0.1 0.15 0.133 0.133 0.317 0.333 0.55 0.6 0.267 0.333 0.467 0.6 0.6 0.8 0.1 0.1 0.183 0.216 0.25 0.35 0.1 0.2 0.183 0.4 0.25 0.6l0.45-0.6c0.1-0.033 0.2-0.066 0.3-0.1-0.233 0.333-0.467 0.667-0.7 1 0 0.033-0.017 0.05-0.05 0.05-0.133 0.2-0.317 0.317-0.55 0.35h-0.3c-0.3 0-0.617-0.184-0.95-0.55-0.333-0.367-0.6-0.833-0.8-1.4-0.2-0.633-0.3-1.283-0.3-1.95-0.033-0.767 0.1-1.483 0.4-2.15zm1.05 7.85c-0.2 0.267-0.417 0.567-0.65 0.9v0.15c-0.067 0.133-0.167 0.233-0.3 0.3s-0.3 0.1-0.5 0.1c-0.3-0.033-0.583-0.217-0.85-0.55-0.3-0.333-0.534-0.767-0.7-1.3-0.2-0.567-0.3-1.15-0.3-1.75 0.033-0.7 0.167-1.35 0.4-1.95v0.2c0 0.2 0.017 0.417 0.05 0.65 0.1 0.667 0.317 1.25 0.65 1.75 0.1 0.133 0.284 0.367 0.55 0.7 0.267 0.3 0.45 0.533 0.55 0.7 0.133 0.2 0.233 0.4 0.3 0.6 0.133-0.167 0.267-0.333 0.4-0.5h0.4zm4.6-11.7v0.05c0.1 0.2 0.267 0.5 0.5 0.9 0.267 0.4 0.45 0.717 0.55 0.95 0.033 0.066 0.067 0.133 0.1 0.2 0.167 0.434 0.25 0.833 0.25 1.2-0.267 0.3-0.617 0.4-1.05 0.3-0.333-0.1-0.633-0.367-0.9-0.8-0.267-0.467-0.466-1.017-0.6-1.65-0.1-0.7-0.083-1.4 0.05-2.1 0.133-0.767 0.4-1.483 0.8-2.15l-0.05 0.25c-0.033 0.233-0.05 0.467-0.05 0.7-0.033 0.8 0.1 1.517 0.4 2.15zm-1.1-1.95c0.018-0.019 0.035-0.044 0.05-0.075v0.025l-0.05 0.05zm-5.6 16.65c-0.467 0.666-0.967 1.383-1.5 2.149-1.566 2.267-2.767 3.95-3.6 5.05-1.033 1.401-1.633 2.101-1.8 2.101-0.233 0.033-0.367-0.033-0.4-0.2 0.233-0.366 0.467-0.7 0.7-1 0.3-0.4 0.617-0.8 0.95-1.2l2.15-2.85c0.934-1.233 1.85-2.467 2.75-3.7 0.093-0.124 0.185-0.249 0.275-0.375 0.148 0.045 0.306 0.053 0.475 0.025zm8.75-0.95c-0.033 0.167-0.066 0.333-0.1 0.5l0.5-0.2c0.1 0.033 0.2 0.067 0.3 0.1-0.3 0.133-0.6 0.266-0.9 0.4-0.034 0-0.067 0.017-0.1 0.05-0.167 0.066-0.35 0.05-0.55-0.05-0.066-0.033-0.133-0.066-0.2-0.1-0.2-0.167-0.317-0.45-0.35-0.851-0.033-0.066-0.05-0.133-0.05-0.2l0.2-0.1c0.067-0.033 0.117-0.067 0.15-0.1l0.5-0.3c0.067-0.067 0.15-0.133 0.25-0.2 0.1-0.066 0.2-0.133 0.3-0.2v0.05c0.033 0.367 0.05 0.65 0.05 0.85v0.351zm4.35 4.3c-0.033 0.033-0.067 0.05-0.1 0.05-0.667 0.066-1.283 0.066-1.85 0h0.15c0.567 0.033 1.167 0.016 1.8-0.05zm0.65-4.6c0.3 0.1 0.583 0.283 0.85 0.55 0.067 0.033 0.117 0.066 0.15 0.1 0.133 0.133 0.35 0.367 0.65 0.7 0.233 0.3 0.417 0.517 0.55 0.65h0.05c0.015 0.016 0.031 0.032 0.05 0.05 0.391 0.408 0.908 0.725 1.55 0.95 0.3 0.1 0.566 0.166 0.8 0.199-0.633 0.101-1.3 0.084-2-0.05-0.6-0.1-1.15-0.3-1.65-0.6-0.5-0.267-0.9-0.566-1.2-0.9-0.267-0.333-0.383-0.649-0.35-0.95s0.15-0.516 0.35-0.649c0.067 0 0.133-0.017 0.2-0.05zm7.85 2.5c-0.634 0.066-1.3 0.033-2-0.101-0.6-0.166-1.167-0.399-1.7-0.7-0.5-0.3-0.883-0.616-1.149-0.95-0.301-0.333-0.434-0.65-0.4-0.95 0.033-0.2 0.116-0.367 0.25-0.5l0.5-0.1c0.2 0.133 0.417 0.283 0.65 0.45 0.066 0.067 0.133 0.133 0.199 0.2 0.134 0.133 0.334 0.367 0.601 0.7 0.1 0.1 0.184 0.2 0.25 0.3 0.166 0.167 0.283 0.3 0.35 0.4 0.434 0.399 0.983 0.733 1.65 1 0.299 0.134 0.566 0.217 0.799 0.251zm-15.825-0.825c0.056-0.057 0.115-0.114 0.175-0.175 0.033 0 0.066-0.017 0.1-0.051l0.2-0.25c-0.066 0.134-0.167 0.25-0.3 0.351-0.06 0.03-0.119 0.071-0.175 0.125zm2.075 0.525c0.1 0.067 0.217 0.167 0.35 0.301 0.066 0.066 0.133 0.149 0.2 0.25 0.1 0.133 0.25 0.366 0.45 0.699 0.133 0.233 0.25 0.434 0.35 0.601l0.1 0.1c0.3 0.434 0.733 0.783 1.3 1.05 0.267 0.101 0.5 0.184 0.7 0.25-0.6 0.067-1.2 0.017-1.8-0.149-0.533-0.167-1-0.4-1.4-0.7s-0.7-0.634-0.9-1c-0.2-0.333-0.267-0.634-0.2-0.9v-0.149c0.3-0.103 0.583-0.22 0.85-0.353zm-1.65-0.35c0.066 0.066 0.167 0.134 0.3 0.2-0.3 0.133-0.6 0.267-0.9 0.399-0.033 0.067-0.05 0.117-0.05 0.15-0.1 0.066-0.217 0.083-0.35 0.05-0.133 0-0.25-0.05-0.35-0.149-0.033 0-0.067-0.017-0.1-0.051l0.35-0.25c0.1-0.066 0.2-0.133 0.3-0.199 0.133-0.101 0.25-0.2 0.35-0.301 0 0.134-0.017 0.267-0.05 0.4 0.167-0.065 0.333-0.149 0.5-0.249zm-2.25 2.25c0.367-0.167 0.717-0.35 1.05-0.55 0.1 0.066 0.184 0.149 0.25 0.25 0.1 0.133 0.233 0.333 0.4 0.6 0.167 0.3 0.3 0.517 0.4 0.65 0.3 0.366 0.7 0.649 1.2 0.85 0.233 0.101 0.434 0.167 0.6 0.2-0.533 0.1-1.067 0.083-1.6-0.05-0.467-0.101-0.883-0.283-1.25-0.55-0.367-0.233-0.65-0.516-0.85-0.85-0.1-0.166-0.167-0.35-0.2-0.55zm3.05 2.2c-0.233 0.066-0.483 0.1-0.75 0.1-0.131 8e-3 -0.256 8e-3 -0.375 0 0.339-1e-3 0.698-0.034 1.075-0.1h0.05z" fill="#F6E181"/>
	<path d="m38.7 25.05c-0.066 0.034-0.117 0.05-0.15 0.05l-1.15 0.35c-0.267 0.066-0.551 0.117-0.851 0.15-0.5 0.033-0.934-0.05-1.3-0.25-0.366-0.167-0.634-0.4-0.8-0.7-0.066-0.133-0.117-0.267-0.15-0.4l-0.45 0.05h-0.049c0.034-1e-3 0.068-0.018 0.101-0.05 0.133-0.067 0.25-0.167 0.35-0.3h0.05c0.134-0.133 0.25-0.3 0.351-0.5 0.033-0.1 0.066-0.217 0.1-0.35v0.05c0.033 0.1 0.066 0.2 0.1 0.3 0.034 0.167 0.101 0.333 0.2 0.5 0.033 0.066 0.084 0.133 0.15 0.2 0 0.033 0.017 0.067 0.05 0.1 0.657 0.756 1.782 1.022 3.375 0.8 0.025 3e-3 0.05 3e-3 0.073 0zm-13.4-17.4v-0.5l0.05-0.05h-0.05c0-0.267-0.033-0.55-0.1-0.85-0.029-0.087-0.071-0.212-0.125-0.375 0.091 0.089 0.183 0.164 0.275 0.225 0.167 0.167 0.35 0.283 0.55 0.35 0.1 0.033 0.183 0.066 0.25 0.1 0.066 0 0.116 0.017 0.149 0.05 1.101 0.233 2.167-0.5 3.2-2.2-0.017 0.067-0.033 0.133-0.05 0.2l-1.149 2.3c-0.333 0.467-0.717 0.767-1.149 0.9-0.4 0.1-0.784 0.067-1.15-0.1-0.167-0.1-0.333-0.217-0.5-0.35-0.068 0.1-0.134 0.2-0.201 0.3zm1.95 2.6c-0.1 0.092-0.2 0.175-0.3 0.25l-1.95 1c-0.2-0.033-0.417-0.083-0.65-0.15-0.5-0.1-0.867-0.15-1.1-0.15-0.167-0.034-0.333-0.05-0.5-0.05-0.033-0.033-0.067-0.083-0.1-0.15l-0.15 0.15-0.75 1-0.45 0.6c0.067 0.2 0.15 0.367 0.25 0.5 0.616 0.907 1.832 1.14 3.65 0.7 0.033-8e-3 0.066-0.017 0.1-0.025 0.013-0.011 0.03-0.02 0.05-0.025-0.033 0.033-0.083 0.05-0.15 0.05l-2.25 0.9h-0.1c-0.167-0.033-0.333-0.067-0.5-0.1-0.467-0.133-0.817-0.217-1.05-0.25-0.1-0.033-0.2-0.05-0.3-0.05-0.2-0.167-0.333-0.367-0.4-0.6-0.033-0.033-0.05-0.067-0.05-0.1l-0.55 0.75-0.3 0.4-0.5 0.7c0.033 0.333 0.133 0.617 0.3 0.85 0.567 0.966 1.817 1.25 3.75 0.85-0.067 0.034-0.133 0.067-0.2 0.1l-2.15 0.65c-0.2-0.033-0.467-0.1-0.8-0.2-0.5-0.133-0.867-0.217-1.1-0.25h-0.2c-0.167-0.167-0.283-0.367-0.35-0.6-0.034-0.133-0.05-0.25-0.05-0.35l-0.8 1-0.15 0.25-0.55 0.7c0.033 0.367 0.133 0.7 0.3 1 0.562 0.959 1.795 1.242 3.7 0.85h0.05c-0.067 0.033-0.117 0.05-0.15 0.05l-2.45 0.75h-0.05c-0.2 0.033-0.4 0.033-0.6 0h-0.1c-0.2-0.067-0.4-0.133-0.6-0.2l-0.1-0.05c-0.367-0.2-0.6-0.5-0.7-0.9h-0.05c-0.033-0.133-0.05-0.267-0.05-0.4l-0.9 1.25c-0.067 0.133-0.15 0.25-0.25 0.35-0.25 0.354-0.5 0.712-0.75 1.075 0.082-0.114 0.166-0.222 0.25-0.325 0.033 0.3 0.117 0.583 0.25 0.85 0.267 0.5 0.733 0.817 1.4 0.95 0.2 0.066 0.417 0.1 0.65 0.1 0.233 0.033 0.467 0.033 0.7 0 0.3-0.034 0.6-0.067 0.9-0.1-0.033 0.033-0.067 0.05-0.1 0.05l-0.85 0.25-0.95 0.25h-0.05l-0.55 0.15c-0.033 0-0.083-0.017-0.15-0.05s-0.133-0.067-0.2-0.1c-0.067 0-0.117-0.017-0.15-0.05-0.067-0.033-0.133-0.067-0.2-0.1-0.4-0.2-0.717-0.333-0.95-0.4-0.133-0.033-0.267-0.067-0.4-0.1-0.066-0.1-0.117-0.217-0.15-0.35 0-0.066-0.017-0.133-0.05-0.2-0.116 0.167-0.232 0.334-0.35 0.5l-0.6 0.85c-0.162 0.227-0.32 0.469-0.475 0.725 0.017 0.055 0.025 0.097 0.025 0.125 0.2 0.533 0.617 0.917 1.25 1.15h0.1c0.2 0.067 0.434 0.117 0.7 0.15 0.333 0.066 0.7 0.083 1.1 0.05h0.15c-0.065 0.032-0.115 0.049-0.15 0.05l-1.15 0.15-0.75 0.1c-0.034 0.167-0.05 0.316-0.05 0.45-0.066 0-0.117-0.017-0.15-0.05-0.067 0-0.117-0.017-0.15-0.05l0.15-0.351-0.3 0.05c-0.534-0.033-0.967-0.2-1.3-0.5-0.1-0.067-0.183-0.15-0.25-0.25l-0.25 0.35-0.75 1.1c-0.167 0.267-0.333 0.517-0.5 0.75 0.467 0.634 1.417 0.917 2.85 0.851-0.067 0.033-0.15 0.066-0.25 0.1l-1.55 0.25h-0.5c-0.467-0.033-0.833-0.15-1.1-0.35-0.833 1.199-1.633 2.383-2.4 3.55-0.233 0.366-0.483 0.75-0.75 1.15-0.3 0.434-0.583 0.884-0.85 1.351 0.2-0.167 0.433-0.351 0.7-0.55 0.9-0.667 1.6-1.2 2.1-1.601 0.967-0.7 1.833-1.283 2.6-1.75 0.867-0.566 1.933-1.166 3.2-1.8-0.2 0.033-0.383 0-0.55-0.1h-0.1c-0.1-0.067-0.183-0.15-0.25-0.25l-0.25 0.125v-0.025c0.067-0.066 0.133-0.116 0.2-0.15v-0.05l0.85-0.399 0.05 0.05c0.033 0.032 0.067 0.049 0.1 0.049l0.05 0.05 0.2 0.05c0 0.034 0.017 0.051 0.05 0.051l0.2 0.05h0.4c-0.033 0.033-0.083 0.083-0.15 0.149 0.1-0.066 0.2-0.116 0.3-0.149 2.067-1 4.034-1.834 5.9-2.5 1.233-0.434 2.5-0.817 3.8-1.15 0.333-0.1 0.683-0.2 1.05-0.3 0.1 0 0.2-0.017 0.3-0.05 0.134-0.034 0.267-0.067 0.4-0.1 0.4-0.1 0.767-0.184 1.1-0.25 0.367-0.067 0.7-0.133 1-0.2 0.267-0.033 0.483-0.066 0.65-0.1-0.2-0.033-0.366-0.083-0.5-0.15-0.134 0-0.267 0.017-0.4 0.05-0.133 0-0.25 0.017-0.35 0.05 0.167-0.1 0.35-0.167 0.55-0.2l-0.2-0.2c-0.199-0.133-0.333-0.3-0.399-0.5 0.033-0.067 0.05-0.133 0.05-0.2 0.033-0.2 0.083-0.483 0.15-0.85v-0.4l1.1-1.15c0.055-0.034 0.113-0.067 0.175-0.1 0.105-0.066 0.214-0.133 0.325-0.2v0.025l-0.751 2.724c0.033 0.066 0.066 0.117 0.1 0.15s0.051 0.066 0.051 0.1l0.649 0.5v0.05h0.05c0.067 0.033 0.117 0.067 0.15 0.1 0.1 0.033 0.184 0.066 0.25 0.1 0.066-0.034 0.116-0.05 0.15-0.05l0.199-0.15c0.067-0.033 0.117-0.067 0.15-0.1 0.2-0.167 0.35-0.367 0.45-0.6 0.033-0.033 0.05-0.066 0.05-0.1 0.033-0.067 0.066-0.15 0.1-0.25 0.034-0.167 0.084-0.434 0.15-0.8 0.033-0.2 0.066-0.367 0.1-0.5l1.2-0.85c0.16-0.08 0.327-0.146 0.5-0.2-1.1 0.9-1.45 1.75-1.05 2.55 0 0.033 0.017 0.067 0.05 0.1 0.101 0.2 0.25 0.383 0.45 0.55 0.066 0.067 0.134 0.117 0.2 0.15 0.1 0.1 0.2 0.167 0.3 0.2 0.033 0.033 0.066 0.05 0.1 0.05-0.233 0.066-0.466 0.083-0.699 0.05l-0.5 0.05-0.75 0.15c0.166 0.8 1.033 1.483 2.6 2.05h-0.1l-0.5-0.05c-0.567-0.133-1.117-0.3-1.65-0.5-0.1-0.133-0.233-0.284-0.4-0.45-0.3-0.333-0.533-0.567-0.699-0.7-0.067-0.066-0.15-0.133-0.25-0.2l-1.301 0.15-0.649 0.1c-0.033 0.1-0.05 0.2-0.05 0.3-0.034 0.867 0.75 1.65 2.35 2.35h-0.051l-0.45-0.1c-0.634-0.134-1.233-0.351-1.8-0.65-0.066-0.1-0.15-0.2-0.25-0.3-0.267-0.333-0.467-0.567-0.601-0.7-0.066-0.067-0.133-0.133-0.199-0.2-0.034-0.167-0.034-0.35 0-0.55l-0.65 0.1-0.5 0.1-0.6 0.1h-0.05c-0.167 0.233-0.267 0.483-0.3 0.75-0.066 0.934 0.667 1.75 2.2 2.45l-0.25-0.05-1.45-0.45c-0.035-0.018-0.068-0.034-0.1-0.05-0.019-0.018-0.036-0.034-0.05-0.05h-0.05c-0.133-0.134-0.317-0.351-0.55-0.65-0.3-0.333-0.517-0.567-0.65-0.7-0.033-0.033-0.083-0.066-0.15-0.1v-0.05l0.05-0.45v-0.05h0.05c0.033-0.1 0.066-0.2 0.1-0.3-0.333 0.1-0.684 0.2-1.05 0.3-0.066 0.033-0.133 0.05-0.2 0.05-0.133 0.033-0.25 0.083-0.35 0.15-0.133 0.033-0.267 0.066-0.4 0.1-0.167 0.267-0.267 0.533-0.3 0.8-0.065 0.914 0.635 1.698 2.1 2.35 0.036 0.021 0.069 0.037 0.1 0.051-0.067 0-0.117-0.017-0.15-0.051h-0.15c-0.7-0.133-1.35-0.35-1.95-0.649-0.167-0.101-0.3-0.2-0.4-0.3l-0.05-0.051c-0.133-0.166-0.25-0.3-0.35-0.399 0-0.033-0.017-0.084-0.05-0.15-0.133-0.3-0.15-0.6-0.05-0.899 0.033-0.134 0.083-0.234 0.15-0.3h-0.1l-1.15 0.4c-0.1 0.066-0.217 0.116-0.35 0.15-0.233 0.1-0.467 0.199-0.7 0.3-0.133 0.233-0.2 0.467-0.2 0.7-0.1 0.966 0.6 1.767 2.1 2.399h-0.15l-0.35-0.1c-0.6-0.101-1.133-0.267-1.6-0.5-0.1-0.167-0.217-0.367-0.35-0.601-0.2-0.333-0.35-0.566-0.45-0.699-0.066-0.101-0.133-0.184-0.2-0.25 0-0.101 0.017-0.217 0.05-0.351 0-0.066 0.017-0.116 0.05-0.149l-0.45 0.199c-0.267 0.134-0.55 0.25-0.85 0.351-0.233 0.133-0.467 0.25-0.7 0.35h0.05c0 0.033-0.017 0.066-0.05 0.101-0.2 0.899 0.333 1.733 1.6 2.5-0.733-0.167-1.367-0.467-1.9-0.9-0.333-0.267-0.533-0.566-0.6-0.9-0.033-0.1-0.05-0.199-0.05-0.3-0.1 0.033-0.217 0.084-0.35 0.15-0.333 0.2-0.683 0.383-1.05 0.55-0.2 0.134-0.4 0.25-0.6 0.35 0 0.682 0.475 1.299 1.425 1.851 0.023 0.019 0.049 0.035 0.075 0.05-0.033 0-0.067-0.017-0.1-0.05l-0.4-0.053c-0.433-0.134-0.833-0.334-1.2-0.601-0.267-0.2-0.45-0.45-0.55-0.75-2 1.2-3.867 2.5-5.6 3.9-0.473 0.379-0.965 0.804-1.475 1.274l0.1-0.074c0.084-0.034 0.159-0.067 0.225-0.101 0.307-0.179 0.607-0.346 0.9-0.5 1.27-0.477 2.354-0.844 3.25-1.1 1.467-0.434 2.633-0.65 3.5-0.65 1.4-0.033 2.467 0.267 3.2 0.9 0.633 0.533 0.983 1.217 1.05 2.05 0.067 0.6-0.066 1.3-0.4 2.1-0.133 0.4-0.283 0.733-0.45 1 0.133-0.267 0.25-0.6 0.35-1 0.2-0.767 0.267-1.416 0.2-1.949-0.267-1.4-1.1-2.217-2.5-2.45-1.133-0.2-2.633 0-4.5 0.6-0.9 0.3-1.833 0.667-2.8 1.101 0.1 0 0.2-0.017 0.3-0.051 2.066-0.433 3.617-0.366 4.65 0.2 1.033 0.533 1.733 1.017 2.1 1.45 0.2 0.233 0.283 0.4 0.25 0.5-0.1-0.167-0.283-0.35-0.55-0.55-0.5-0.4-1.1-0.717-1.8-0.95-1.867-0.634-4.1-0.55-6.7 0.25-0.767 0.4-1.4 0.75-1.9 1.05-0.1 0.233-0.217 0.434-0.35 0.601-0.1 0.066-0.216 0.116-0.35 0.149-0.3 0.101-0.583 0.084-0.85-0.05l-0.3-0.4c-0.033 0-0.05-0.017-0.05-0.05h0.025c0.23 0.092 0.488 0.041 0.775-0.149 0.1-0.067 0.184-0.134 0.25-0.2 0.133-0.134 0.284-0.283 0.45-0.45 0.2-0.233 0.417-0.5 0.65-0.8 0.1-0.167 0.2-0.316 0.3-0.45 0.067-0.066 0.133-0.15 0.2-0.25 0.2-0.3 0.483-0.733 0.85-1.3 0.2-0.3 0.417-0.65 0.65-1.05 0.033 0 0.05-0.017 0.05-0.051 0.8-1.233 1.45-2.216 1.95-2.949 0.7-0.967 1.533-2.134 2.5-3.5-0.2 0.133-0.417 0.216-0.65 0.25h-0.1c-0.168 0.027-0.327 0.02-0.475-0.025-0.09 0.126-0.182 0.251-0.275 0.375 0.033-0.066 0.067-0.116 0.1-0.15 0.031-0.093 0.073-0.168 0.125-0.225l0.025-0.025h-0.05l-0.2-0.1-0.05-0.05c-0.333-0.2-0.583-0.534-0.75-1v-0.05l-0.3-2.1v-0.15c0.4 1.6 1.067 2.45 2 2.55h0.3c0.033 0 0.066-0.017 0.1-0.05h0.15c0.1-0.033 0.217-0.066 0.35-0.1 0.167-0.066 0.3-0.15 0.4-0.25v0.05l-0.05 0.15c1.3-1.8 2.85-3.933 4.65-6.4 0.133-0.2 0.283-0.4 0.45-0.6 0.267-0.367 0.517-0.717 0.75-1.05 0.067-0.1 0.133-0.2 0.2-0.3 0.467-0.667 0.917-1.267 1.35-1.8 0.267-0.367 0.517-0.7 0.75-1 0.066-0.133 0.133-0.25 0.2-0.35 0.4-0.533 0.75-1 1.05-1.4s0.55-0.733 0.75-1c0.2-0.233 0.367-0.434 0.5-0.6h-0.05c-0.167 0.133-0.35 0.217-0.55 0.25-0.1 0.1-0.2 0.217-0.3 0.35-0.066 0.1-0.15 0.2-0.25 0.3 0.067-0.233 0.184-0.433 0.35-0.6h-0.35c-0.233-0.033-0.45-0.117-0.65-0.25-0.033-0.1-0.083-0.183-0.15-0.25-0.1-0.233-0.267-0.566-0.5-1-0.1-0.133-0.183-0.267-0.25-0.4l0.2-2.55c0.061 1.875 0.611 2.975 1.65 3.3 0.333 0.133 0.7 0.167 1.1 0.1h0.05c0.033 0 0.083-0.017 0.15-0.05 0.133-0.034 0.233-0.067 0.3-0.1 0.033-0.033 0.066-0.083 0.1-0.15l0.05-0.25c0.033-0.1 0.05-0.2 0.05-0.3 0.033-0.3 0-0.617-0.1-0.95 0-0.034-0.017-0.083-0.05-0.15-0.033-0.1-0.067-0.2-0.1-0.3-0.1-0.233-0.25-0.567-0.45-1-0.133-0.2-0.233-0.383-0.3-0.55l0.45-2.4c0.012-0.05 0.029-0.1 0.05-0.15-0.167 1.867 0.217 3.05 1.15 3.55 0.034 0.033 0.067 0.05 0.1 0.05 0.233 0.133 0.483 0.2 0.75 0.2h0.5c0.133 0 0.25-0.017 0.35-0.05-0.233 0.367-0.533 0.633-0.9 0.8-0.033 0.033-0.067 0.05-0.1 0.05-0.033 0.033-0.067 0.083-0.1 0.15-0.133 0.167-0.267 0.333-0.4 0.5-0.033 0.033-0.067 0.083-0.1 0.15v0.05c0.733 0.833 2.017 0.883 3.85 0.15zm-4.65 11.85c0.132-0.113 0.265-0.23 0.4-0.35-0.824 1.344-0.941 2.377-0.35 3.1 0.2 0.2 0.45 0.367 0.75 0.5 0 0.033 0.017 0.05 0.05 0.05 0.133 0.067 0.267 0.1 0.4 0.1-0.3 0.2-0.633 0.3-1 0.3-0.2 0-0.383-0.033-0.55-0.1l-0.05-0.05c-0.1-0.033-0.2-0.083-0.3-0.15-0.267-0.2-0.434-0.467-0.5-0.8 0-0.034-0.017-0.083-0.05-0.15 0.033-0.133 0.05-0.3 0.05-0.5v-0.05c0.033-0.167 0.1-0.333 0.2-0.5l0.95-1.4zm3.65-1.1c-0.016 0.022-0.032 0.048-0.05 0.075-0.856 1.263-0.973 2.254-0.35 2.975 0.2 0.233 0.466 0.417 0.8 0.55v0.05h0.05c0.033 0 0.05 0.017 0.05 0.05 0.1 0.033 0.2 0.05 0.3 0.05-0.3 0.2-0.633 0.283-1 0.25-0.167-0.033-0.316-0.067-0.45-0.1-0.1-0.033-0.184-0.066-0.25-0.1h-0.05l-0.1-0.1-0.05-0.05c-0.167-0.133-0.3-0.283-0.4-0.45 0-0.034 0.017-0.083 0.05-0.15 0.034-0.2 0.067-0.5 0.1-0.9 0.033-0.333 0.067-0.6 0.1-0.8l0.375-0.525c0.243-0.294 0.534-0.57 0.875-0.825zm-2.9-11.6c-0.1 0-0.217-0.017-0.35-0.05 0.033 0.1 0.083 0.2 0.15 0.3l0.2-0.25zm-20.3 24.95c-0.1 0.266-0.183 0.55-0.25 0.85-0.167 0.533-0.333 1-0.5 1.399-0.1 0.167-0.2 0.317-0.3 0.45-0.133 0.267-0.25 0.483-0.35 0.65 0.1-0.4 0.2-0.867 0.3-1.4 0.2-1.1 0.3-2.017 0.3-2.75-0.033-0.934-0.183-1.866-0.45-2.8-0.3-0.966-0.6-1.549-0.9-1.749-0.267-0.167-0.5-0.217-0.7-0.15-0.067 0-0.117 0.017-0.15 0.051l-0.05 0.049c0.067-0.101 0.15-0.184 0.25-0.25 0.233-0.167 0.483-0.184 0.75-0.05 0.233 0.066 0.467 0.25 0.7 0.55 0.333 0.366 0.617 0.85 0.85 1.45 0.367 1 0.533 2.234 0.5 3.7zm28.35-10.2l0.3-0.05c-0.101-0.067-0.184-0.15-0.25-0.25-0.033 0.1-0.05 0.2-0.05 0.3zm-16.75-6.7c-0.1-0.133-0.217-0.3-0.35-0.5 0-0.034-0.017-0.067-0.05-0.1-0.067-0.167-0.117-0.367-0.15-0.6-0.033-0.2-0.067-0.383-0.1-0.55l0.1-2.05c0.017-0.05 0.033-0.1 0.05-0.15 0.133 1.967 0.75 3.1 1.85 3.4 0.333 0.067 0.683 0.067 1.05 0h0.05c0.2-0.066 0.367-0.133 0.5-0.2-0.167 0.4-0.417 0.733-0.75 1-0.2 0.133-0.4 0.216-0.6 0.25h-0.05c-0.133 0.033-0.267 0.05-0.4 0.05-0.4 0-0.75-0.133-1.05-0.4-0.033-0.067-0.067-0.117-0.1-0.15zm-3.1 2.1v-2.6l0.05-0.05c0.2 1.934 0.833 3.033 1.9 3.3 0.3 0.066 0.633 0.066 1 0 0.033 0 0.067-0.017 0.1-0.05h0.05c0.2-0.033 0.35-0.083 0.45-0.15-0.133 0.4-0.367 0.733-0.7 1-0.167 0.1-0.316 0.167-0.45 0.2-0.1 0.033-0.2 0.066-0.3 0.1s-0.217 0.05-0.35 0.05-0.25-0.017-0.35-0.05c-0.067-0.133-0.15-0.25-0.25-0.35-0.133-0.2-0.333-0.467-0.6-0.8-0.233-0.267-0.417-0.467-0.55-0.6zm-2 0.975c0.471 1.75 1.221 2.675 2.25 2.775h0.3c0.167-0.033 0.316-0.066 0.45-0.1 0.1-0.034 0.184-0.067 0.25-0.1 0.167-0.067 0.317-0.15 0.45-0.25-0.1 0.4-0.283 0.75-0.55 1.05-0.267 0.267-0.567 0.417-0.9 0.45l-0.05 0.05h-0.4c-0.2-0.033-0.4-0.117-0.6-0.25-0.333-0.233-0.6-0.6-0.8-1.1v-0.05l-0.05-0.05-0.35-2.3v-0.125zm9.15-5.675c-0.167 0.066-0.35 0.1-0.55 0.1-0.233 0-0.45-0.05-0.65-0.15-0.033-0.066-0.067-0.133-0.1-0.2-0.1-0.233-0.283-0.55-0.55-0.95-0.233-0.4-0.4-0.7-0.5-0.9v-0.05c-0.057-0.737-7e-3 -1.487 0.15-2.25 0.167 1.966 0.783 3.083 1.85 3.35 0.333 0.1 0.7 0.1 1.1 0h0.2l0.2-0.1h0.05c0-0.034 0.017-0.05 0.05-0.05-0.167 0.4-0.417 0.717-0.75 0.95-0.167 0.133-0.333 0.217-0.5 0.25zm-2.25 9.55c-0.034 0.1-0.067 0.217-0.1 0.35-0.033-0.033-0.067-0.05-0.1-0.05l0.05-0.1c0.037-0.071 0.088-0.138 0.15-0.2zm2.45 0.2c-0.167 0.066-0.367 0.117-0.6 0.15v-0.15l0.65-1.1 0.35-0.2c-0.233 0.5-0.367 0.933-0.4 1.3zm-0.55 0.6c0.066-0.067 0.15-0.133 0.25-0.2l0.3-0.3c-0.033 0.5 0.1 0.917 0.4 1.25 0.167 0.167 0.367 0.3 0.6 0.4 0.067 0.033 0.133 0.066 0.2 0.1 0.167 0.033 0.3 0.066 0.4 0.1-0.3 0.2-0.617 0.317-0.95 0.35-0.167 0-0.316-0.017-0.45-0.05-0.1-0.033-0.2-0.067-0.3-0.1-0.066-0.033-0.117-0.067-0.15-0.1-0.1-0.066-0.183-0.133-0.25-0.2v-0.35c0-0.2-0.017-0.483-0.05-0.85v-0.05zm-2.5 2.8c-0.1-0.1-0.184-0.2-0.25-0.3 0.133-0.101 0.233-0.217 0.3-0.351l-0.05 0.051c-0.1 0.033-0.2 0.066-0.3 0.1-0.066-0.233-0.083-0.467-0.05-0.7 0.031-0.031 0.081-0.064 0.15-0.1l0.5-0.2c0.067 0.4 0.25 0.7 0.55 0.9 0.066 0.066 0.133 0.116 0.2 0.149 0.1 0.033 0.217 0.066 0.35 0.101 0.067 0.033 0.133 0.05 0.2 0.05 0.167 0.033 0.3 0.05 0.4 0.05-0.233 0.233-0.517 0.4-0.85 0.5-0.3 0.066-0.583 0.05-0.85-0.05-0.133-0.066-0.233-0.134-0.3-0.2z" fill="#AA9740"/>
</g>
</svg>