<?xml version="1.0" encoding="UTF-8"?>
<svg width="265" height="264.58" enable-background="new 0 0 265.002 264.583" viewBox="0 0 265.002 264.583" xmlns="http://www.w3.org/2000/svg">
 <defs>
  <linearGradient id="w" x2="0" y1="31.038" y2="22.951" gradientUnits="userSpaceOnUse">
   <stop offset="0"/>
   <stop offset="1"/>
  </linearGradient>
  <linearGradient id="l" x2="0" y1="27.656" y2="18.3" gradientUnits="userSpaceOnUse">
   <stop stop-color="#a3a3a3" offset="0"/>
   <stop stop-color="#a59782" offset="1"/>
  </linearGradient>
  <linearGradient id="g" x2="0" y1="210.24" y2="162.44" gradientUnits="userSpaceOnUse">
   <stop stop-color="#fffae1" offset="0"/>
   <stop stop-color="#fafafa" offset="1"/>
  </linearGradient>
  <linearGradient id="f" x2="0" y1="247.98" y2="199.6" gradientUnits="userSpaceOnUse">
   <stop stop-color="#a3a3a3" offset="0"/>
   <stop stop-color="#a59782" offset="1"/>
  </linearGradient>
  <linearGradient id="e" x2="0" y1="254.54" y2="243.85" gradientUnits="userSpaceOnUse">
   <stop offset="0"/>
   <stop offset="1"/>
  </linearGradient>
  <linearGradient id="d" x2="0" y1="163.19" y2="201.18" gradientUnits="userSpaceOnUse">
   <stop stop-color="#e6e6e6" offset="0"/>
   <stop stop-color="#fee6a7" offset="1"/>
  </linearGradient>
  <linearGradient id="c" x2="0" y1="123.19" y2="80.04" gradientUnits="userSpaceOnUse">
   <stop stop-color="#fffae1" offset="0"/>
   <stop stop-color="#fafafa" offset="1"/>
  </linearGradient>
  <linearGradient id="b" x2="0" y1="122.98" y2="83.956" gradientUnits="userSpaceOnUse">
   <stop stop-color="#e6e6e6" offset="0"/>
   <stop stop-color="#fee6a7" offset="1"/>
  </linearGradient>
  <linearGradient id="a" x2="0" y1="200.76" y2="156.22" gradientUnits="userSpaceOnUse">
   <stop stop-color="#fffae1" offset="0"/>
   <stop stop-color="#fafafa" offset="1"/>
  </linearGradient>
  <linearGradient id="ag" x2="0" y1="257.34" y2="198.47" gradientUnits="userSpaceOnUse">
   <stop stop-color="#a3a3a3" offset="0"/>
   <stop stop-color="#a59782" offset="1"/>
  </linearGradient>
  <linearGradient id="af" x2="0" y1="249.61" y2="190.16" gradientUnits="userSpaceOnUse">
   <stop stop-color="#a3a3a3" offset="0"/>
   <stop stop-color="#a59782" offset="1"/>
  </linearGradient>
  <linearGradient id="ae" x2="0" y1="264.27" y2="252.03" gradientUnits="userSpaceOnUse">
   <stop offset="0"/>
   <stop offset="1"/>
  </linearGradient>
  <linearGradient id="ad" x2="0" y1="254.5" y2="243.43" gradientUnits="userSpaceOnUse">
   <stop offset="0"/>
   <stop offset="1"/>
  </linearGradient>
  <linearGradient id="ac" x2="0" y1="259.51" y2="205.15" gradientUnits="userSpaceOnUse">
   <stop stop-color="#a3a3a3" offset="0"/>
   <stop stop-color="#a59782" offset="1"/>
  </linearGradient>
  <linearGradient id="ab" x2="0" y1="263.51" y2="253.41" gradientUnits="userSpaceOnUse">
   <stop offset="0"/>
   <stop offset="1"/>
  </linearGradient>
  <linearGradient id="aa" x2="0" y1="160.52" y2="192.79" gradientUnits="userSpaceOnUse">
   <stop stop-color="#e6e6e6" offset="0"/>
   <stop stop-color="#fee6a7" offset="1"/>
  </linearGradient>
  <linearGradient id="z" x2="0" y1="211.91" y2=".38095" gradientUnits="userSpaceOnUse">
   <stop stop-color="#fffae1" offset="0"/>
   <stop stop-color="#fafafa" offset="1"/>
  </linearGradient>
  <linearGradient id="y" x2="0" y1="33.948" y2="19.937" gradientUnits="userSpaceOnUse">
   <stop stop-color="#fff" offset="0"/>
   <stop stop-color="#fff" offset="1"/>
  </linearGradient>
  <linearGradient id="x" x2="0" y1="37.33" y2="18.935" gradientUnits="userSpaceOnUse">
   <stop stop-color="#fff" offset="0"/>
   <stop stop-color="#fff" offset="1"/>
  </linearGradient>
  <linearGradient id="v" x2="0" y1="31.305" y2="15.92" gradientUnits="userSpaceOnUse">
   <stop stop-color="#e6e6e6" offset="0"/>
   <stop stop-color="#fee6a7" offset="1"/>
  </linearGradient>
  <linearGradient id="u" x2="0" y1="32.098" y2="48.431" gradientUnits="userSpaceOnUse">
   <stop stop-color="#e6e6e6" offset="0"/>
   <stop stop-color="#fee6a7" offset="1"/>
  </linearGradient>
  <linearGradient id="t" x2="0" y1="171.08" y2="131.67" gradientUnits="userSpaceOnUse">
   <stop stop-color="#e6e6e6" offset="0"/>
   <stop stop-color="#fee6a7" offset="1"/>
  </linearGradient>
  <linearGradient id="s" x2="0" y1="171.54" y2="150.62" gradientUnits="userSpaceOnUse">
   <stop stop-color="#e6e6e6" offset="0"/>
   <stop stop-color="#fee6a7" offset="1"/>
  </linearGradient>
  <linearGradient id="r" x2="0" y1="174.25" y2="150.29" gradientUnits="userSpaceOnUse">
   <stop stop-color="#e6e6e6" offset="0"/>
   <stop stop-color="#fee6a7" offset="1"/>
  </linearGradient>
  <linearGradient id="q" x2="0" y1="22.475" y2="12.38" gradientUnits="userSpaceOnUse">
   <stop stop-color="#e6e6e6" offset="0"/>
   <stop stop-color="#fee6a7" offset="1"/>
  </linearGradient>
  <linearGradient id="p" x2="0" y1="166.78" y2="144.28" gradientUnits="userSpaceOnUse">
   <stop stop-color="#e6e6e6" offset="0"/>
   <stop stop-color="#fee6a7" offset="1"/>
  </linearGradient>
  <linearGradient id="o" x2="0" y1="13.912" y2="60.221" gradientUnits="userSpaceOnUse">
   <stop stop-color="#e6e6e6" offset="0"/>
   <stop stop-color="#fee6a7" offset="1"/>
  </linearGradient>
  <linearGradient id="n" x2="0" y1="40.131" y2="21.577" gradientUnits="userSpaceOnUse">
   <stop offset="0"/>
   <stop offset="1"/>
  </linearGradient>
  <linearGradient id="m" x2="0" y1="39.868" y2="21.577" gradientUnits="userSpaceOnUse">
   <stop stop-color="#a3a3a3" offset="0"/>
   <stop stop-color="#a59782" offset="1"/>
  </linearGradient>
  <linearGradient id="k" x2="0" y1="64.818" y2="18.935" gradientUnits="userSpaceOnUse">
   <stop stop-color="#a3a3a3" offset="0"/>
   <stop stop-color="#a59782" offset="1"/>
  </linearGradient>
  <linearGradient id="j" x2="0" y1="32.837" y2="27.076" gradientUnits="userSpaceOnUse">
   <stop offset="0"/>
   <stop offset="1"/>
  </linearGradient>
  <linearGradient id="i" x2="0" y1="31.305" y2="29.243" gradientUnits="userSpaceOnUse">
   <stop stop-color="#fff" offset="0"/>
   <stop stop-color="#fff" offset="1"/>
  </linearGradient>
  <linearGradient id="h" x2="0" y1="59.691" y2="52.289" gradientUnits="userSpaceOnUse">
   <stop offset="0"/>
   <stop offset="1"/>
  </linearGradient>
 </defs>
 <path d="m247.37,22.931 11.997.476-2.801,3.963-5.549,3.648-3.65-8.087z" fill="url(#w)" fill-rule="evenodd" stroke="#000" stroke-linejoin="bevel" stroke-miterlimit="2.4142" stroke-width=".72"/>
 <path d="m258.52,22.613 .845.793-3.118.369-3.328,1.111-4.125,2.748-2.377-9.356 12.12,4.335z" fill="url(#l)" fill-rule="evenodd" stroke="#000" stroke-linejoin="bevel" stroke-miterlimit="2.4142" stroke-width=".72"/>
 <path d="m67.596,174.26-3.807,1.903 1.322,4.97-2.22,4.228-3.806,1.056 .792,4.441-2.484,5.233-4.229-.792 1.11,4.386-3.594,3.912-3.648-.529-3.753,7.135-7.822-2.694-5.709-10.89 24.58-34.199 14.588,2.43-1.32,9.41z" fill="url(#g)" fill-rule="evenodd" stroke="#000" stroke-linejoin="bevel" stroke-miterlimit="2.4142" stroke-width=".72"/>
 <path d="m46.717,203.12h-1.269l-1.268-2.116-1.744,1.429-2.802.951-3.224-1.691-1.427-2.114-1.48,1.903h-2.273l1.586,4.704 .898,7.718v5.55l-.846,11.893 .582,6.501 1.164,1.956 1.797,1.534 .264,4.281 1.058,2.325 14.167-1.745-2.062-3.33-2.167-5.761-1.586-8.511 .317-13.688 .529-11.577-.214-.21z" fill="url(#f)" fill-rule="evenodd" stroke="#000" stroke-linejoin="bevel" stroke-miterlimit="2.4142" stroke-width=".72"/>
 <path d="m37.202,246.2 2.749.582 4.652-1.374 3.119-1.48 .739,1.216 1.956-1.322 3.436,5.075-.476,1.798-.952.738 .529,1.165-1.48,1.109-5.338.793-4.651-.952-3.225-1.533-1.268-4.968 .21-.85z" fill="url(#e)" fill-rule="evenodd" stroke="#000" stroke-linejoin="bevel" stroke-miterlimit="2.4142" stroke-width=".72"/>
 <path d="m37.202,239.18-.105-5.499-.529-6.818" fill="none" stroke="#000" stroke-linejoin="bevel" stroke-miterlimit="2.4142" stroke-width=".72"/>
 <path d="m49.36 246.04-3.066-5.497" fill="none" stroke="#000" stroke-linejoin="bevel" stroke-miterlimit="2.4142" stroke-width=".72"/>
 <path d="m37.149 201.17 6.607-6.502 5.18-5.708 7.612-11.629 5.179-3.012 7.295-6.606-10.783-4.547-26.958 32.562 5.868 5.45z" fill="url(#d)" fill-rule="evenodd"/>
 <path d="m22.561,80.018-6.025,1.48-3.066,2.432-.899,3.276-3.119,1.903-2.431,3.225-.635,4.546-3.277,3.33-1.163,3.912 .528,3.911-1.956,3.065-.159,3.806 .846,1.322-.581,2.908 1.004,3.276 2.325.74 5.656-1.638 12.952-41.502z" fill="url(#c)" fill-rule="evenodd" stroke="#000" stroke-linejoin="bevel" stroke-miterlimit="2.4142" stroke-width=".72"/>
 <path d="m7.866,121.25-1.797-2.325-.423-5.339 1.797-4.124-.687-4.704 1.322-5.286 1.533-8.458 3.753-3.963 2.96-2.696 1.745-.422-6.661,39.009-3.542-1.69z" fill="url(#b)" fill-rule="evenodd"/>
 <path d="m169.61,193.66-4.175-.634-5.233-28.966 27.116-7.877 2.802,6.079 1.162,5.339-2.801,3.33 2.536,2.432-1.425,5.232-3.384,2.009 2.854,3.33-.582,3.859-2.272,4.439-7.981,8.511-8.63-7.08z" fill="url(#a)" fill-rule="evenodd" stroke="#000" stroke-linejoin="bevel" stroke-miterlimit="2.4142" stroke-width=".72"/>
 <path d="m164.06,198.42-1.903,7.24-2.009,13.164-.898,9.038 .265,11.099 1.268,4.548 1.48,4.757 2.907,4.439-3.065,4.599-10.994-.422-.794-3.49-2.219-.633-1.271-.74-.104-5.075 .528-8.298 .898-10.836-.052-9.516-.528-8.878-1.376-10.625 17.84-.38z" fill="url(#ag)" fill-rule="evenodd" stroke="#000" stroke-linejoin="bevel" stroke-miterlimit="2.4142" stroke-width=".72"/>
 <path d="m169.88,193.5 2.223-.793 .896-2.167 1.798,1.956 3.647,1.48 3.224-1.48 1.111-2.378 1.479,2.378 2.115-.158-1.48,11.999-.793,10.414v7.611l1.533,9.567 2.168,7.98 2.325,4.547-5.075,5.126-7.347-2.643-.687-3.541-.158-3.012-2.696-2.274-1.691-2.537 .369-8.353 .423-7.24v-9.621l-.952-6.608-1.373-6.395-1.06-3.88z" fill="url(#af)" fill-rule="evenodd" stroke="#000" stroke-linejoin="bevel" stroke-miterlimit="2.4142" stroke-width=".72"/>
 <path d="m151.06,256.35 4.123-.16 3.964-1.743 3.596-1.956 .527,1.322 1.691-1.798 2.854,5.128 1.164,1.532-.793,1.534-1.164.476 1.004,1.427-1.691,1.005-4.65,1.109-6.502-1.109-2.803-1.534-1.479-5.232h.16z" fill="url(#ae)" fill-rule="evenodd" stroke="#000" stroke-linejoin="bevel" stroke-miterlimit="2.4142" stroke-width=".72"/>
 <path d="m177.49,246.58 4.388.369 3.912-1.321 2.219-2.22 .793,1.32 .794-1.32 4.121,6.237-1.427,1.585 .582,1.269-.847,1.058-4.917.898-6.342-1.322-2.325-1.85-.951-4.177v-.54z" fill="url(#ad)" fill-rule="evenodd" stroke="#000" stroke-linejoin="bevel" stroke-miterlimit="2.4142" stroke-width=".72"/>
 <path d="m150.9,250.27 .37-5.813 .371-8.035" fill="none" stroke="#000" stroke-linejoin="bevel" stroke-miterlimit="2.4142" stroke-width=".72"/>
 <path d="m176.01,236.27-.16-7.031-.367-5.708" fill="none" stroke="#000" stroke-linejoin="bevel" stroke-miterlimit="2.4142" stroke-width=".72"/>
 <path d="m188.06,243.67-.952-1.798-.738-1.691" fill="none" stroke="#000" stroke-linejoin="bevel" stroke-miterlimit="2.4142" stroke-width=".72"/>
 <path d="m164.8 254.45-3.332-3.119-1.425-2.485" fill="none" stroke="#000" stroke-linejoin="bevel" stroke-miterlimit="2.4142" stroke-width=".72"/>
 <path d="m26.578,208.36-2.009,5.286-1.109,6.449-.423,13.215 2.008,11.207 1.903,6.289 1.798,4.334-13.32,4.334-.688-4.811-2.537-1.638-1.321-1.374-.37-12.263v-5.392l-1.375-11.577-.687-6.553-3.119-10.731 21.249,3.21z" fill="url(#ac)" fill-rule="evenodd" stroke="#000" stroke-linejoin="bevel" stroke-miterlimit="2.4142" stroke-width=".72"/>
 <path d="m15.266,257.78 .582,3.542 .846,1.004 3.383,1.163 7.03-.369 2.643-1.269-.476-1.427 1.534-.687 .581-.793-3.594-5.55-1.851,1.692-.634-1.374-2.908,2.801-2.695,1.692-4.229.264-.212-.67z" fill="url(#ab)" fill-rule="evenodd" stroke="#000" stroke-linejoin="bevel" stroke-miterlimit="2.4142" stroke-width=".72"/>
 <path d="m14.05,250.12v-.053l-.37-7.822-1.11-8.352" fill="none" stroke="#000" stroke-linejoin="bevel" stroke-miterlimit="2.4142" stroke-width=".72"/>
 <path d="m22.719 253.6-3.277-6.661" fill="none" stroke="#000" stroke-linejoin="bevel" stroke-miterlimit="2.4142" stroke-width=".72"/>
 <path d="m164.54,192.08 2.483-23.257 20.985-8.352 .476,5.021-2.272,3.595-1.851,3.752-4.281,2.325-3.647,3.859-3.964,6.924-1.163,6.132-2.38.687-4.39-.68z" fill="url(#aa)" fill-rule="evenodd"/>
 <path d="m7.813,211.42-2.326-1.743-2.801-3.49v-3.963l1.638-3.912 1.745-2.273-1.163-4.017 .581-2.273 3.437-2.325 .581-6.237 3.437-3.383-.582-2.854v-4.017l2.854-4.492-1.691-4.546-.581-2.907 1.691-3.965-2.273-2.325-.582-4.493 1.164-3.436-2.274-1.692-2.272-4.017v-5.604l-2.326-5.075 .582-4.017 2.273-3.383-.529-7.453 1.691-5.073-.582-3.436v-4.546l3.437-5.657-.582-3.435 1.163-2.274 2.22-2.272 1.163-3.385 1.692-3.435 5.128-1.692 1.109-3.436 3.806-3.224 4.176-1.322 5.18-3.436h3.33l2.854,1.164 2.854-1.745 2.854-.529h4.545l1.692,1.109 4.018-1.69h3.383l5.127,3.963 3.435-2.854 2.802-1.109h4.018l2.854,2.272 2.272-2.272 6.132-.106 5.232,2.378 3.965-3.437h3.436l3.437,1.165 5.603-.847 5.181,2.537 2.854-2.854 4.546-1.056 5.075,1.056 3.383-2.272 5.074-.582 5.18,1.798 3.383-1.216 5.709-1.109 6.766,1.743 1.745-2.325 3.435-2.274 3.965-.58 3.966-5.075 2.325-1.163v-2.854l2.219-4.017 3.965-2.856v-3.963l1.797-3.965 4.546-2.272-1.161-3.965 1.689-3.963 5.075-2.274 .582-3.435 2.325-3.383 3.964-2.327 5.128-5.708h7.347l3.436-3.91 3.966-1.163 6.289,1.163 2.854-1.745h3.966l5.126,3.383 2.854-1.111 3.965,1.111 2.273,2.907 .582,3.383 3.013.738 1.531,2.696-.633,5.657 1.216,3.437-2.856,4.544-14.218,37.583v3.383l-2.854,3.383-.6,4.531-1.903,4.281-4.228,10.043-2.433,3.33-2.801,1.745v4.599l-2.22,3.857-.636,4.019-1.161,3.383-3.383,2.272v5.708l-2.854,5.128-1.693,2.854-.58,4.492-2.273,2.803-1.268,5.815-2.854,3.752-1.005,4.704-2.22,2.803-4.07,1.743-1.109,4.545-1.903,2.327-4.069,2.589-2.59,1.692-4.6,1.163-2.854,2.59-3.86,1.586-2.272,6.291-2.271,1.69 .526,6.819-3.381,3.383 .58,7.453-1.744,3.435-2.802,2.221-3.436-.581-3.384,1.691-2.854-1.691-4.863,1.267-3.171-1.267-2.221-2.221-.528-4.017 2.749-5.128-2.749-2.274-1.743-3.963 1.161-4.599-2.906-2.854v-2.221l-5.604,1.692-3.383-1.692-1.163,1.692-3.964,1.164-3.965-2.327-2.326,2.327h-2.801l-3.383-1.64-1.744,2.167-2.802.529h-3.436l-2.273-1.691-3.436,1.691h-2.854l-2.802-1.691-1.797-1.691-3.383,1.691-4.018-.476-4.493-2.854-2.272,1.109-2.801.529-2.273-1.163-1.744-2.801h-2.927l-5.709-2.22-2.272-2.327v2.856l-3.383,2.272-2.855.529v4.017l-1.109,2.22-4.018,3.488v3.383l-1.691,2.274h-3.383v4.545l-2.326,2.272h-3.383v2.908l.053,3.436-1.745,1.745-3.435.476-1.058,5.286-3.436,1.956h-3.277l-1.903-1.004-.582,2.536-2.959,1.427-3.806-.476-1.745-1.743-1.585,1.056-2.96.66z" fill="url(#z)" fill-rule="evenodd" stroke="#000" stroke-linejoin="bevel" stroke-miterlimit="2.4142" stroke-width=".72"/>
 <path d="m214.75,21.397 .529,1.587-1.058,1.056-1.057,2.167 1.057,1.956-1.109,1.427-.21,1.956 1.161,2.167 1.798.211 1.32-11.206-1.796-2.803-.63,1.482z" fill="url(#y)" fill-rule="evenodd" stroke="#000" stroke-linejoin="bevel" stroke-miterlimit="2.4142" stroke-width=".72"/>
 <path d="m213.96,20.499 1.427,1.374 .738,2.961-2.325,11.365 3.014,1.109-.159-4.599 1.058-11.206-2.325-2.591-1.587,1.111 .17.476z" fill="url(#x)" fill-rule="evenodd"/>
 <path d="m247.84,24.78 1.902-1.585-.369-1.638-3.488.527-2.645-1.056-4.07.582-3.541-2.009-5.708-3.489-6.024-.211-11.472,3.012 6.344,1.322 15.805,11.047 13.26-6.502z" fill="url(#v)" fill-rule="evenodd"/>
 <path d="m208.25 44.443-4.279 3.965-8.14-1.322-2.381-7.771 4.283-7.24 16.067 3.17-5.55 9.198z" fill="url(#u)" fill-rule="evenodd"/>
 <path d="m10.826,134.94-.476,3.225 1.11,2.748 2.854,2.273-.423,7.4 4.123,4.704-2.96,3.701 .634,3.752 1.692,2.432-2.854,5.868 3.013-3.33 1.268-3.596 2.009-7.135-.529-6.342-2.749-7.4-4.388-3.807-2.325-7.769v3.3z" fill="url(#t)" fill-rule="evenodd"/>
 <path d="m60.302,162.9 3.277-1.745 1.004-5.339-.74-5.233 2.802,4.546 .898,5.866 2.959,3.119 7.401,2.856 10.359,3.119-2.061,1.427-4.176-.053-2.537-1.798-3.807.847-4.017-.634-2.167-3.596-3.383,1.64-3.964-.688-1.533-4.07-.315-.29z" fill="url(#s)" fill-rule="evenodd"/>
 <path d="m132.93,150.27 .265,4.229 3.646,3.012-2.221,3.065 .478,4.917 2.905,1.69-1.162,2.803-4.123,1.374-3.437-2.061-1.638,3.012-3.384,1.269-2.219-3.065-4.388,2.748-3.806.053-3.806-2.801-1.691,3.541-4.229.158 4.229-2.325 2.432-1.796 4.968-.582 6.185-.898 4.704-1.163 2.855-2.273 1.691-3.437 .951-5.444 .79-6.04z" fill="url(#r)" fill-rule="evenodd"/>
 <path d="m249.48,22.455-.792-3.543 .847-3.699-1.322-2.854-.634,4.123-1.322,4.439-2.643.847 5.85.687z" fill="url(#q)" fill-rule="evenodd"/>
 <path d="m174.95,165.17 1.689-6.502-.58-3.912 2.643-3.381 .263,2.641 1.216,3.543 2.592,1.163 4.597-1.374 2.961-2.432 8.246-10.678-.845,3.965-1.902,2.378-2.168,1.109-.741,1.005-.738,4.07-2.325,2.114-3.755.529-1.427,3.647-2.063.529-3.699-.635-2.061,3.807-2.273-.317-1.322-.265 1.69-1.01z" fill="url(#p)" fill-rule="evenodd"/>
 <path d="m137.84,173.37v-1.85l1.956-4.124-2.59-2.327-.37-2.43v-2.75l1.849-3.119-1.849-1.427-1.479-2.114-.424-2.854v-2.908l-.369-2.114" fill="none" stroke="#000" stroke-linejoin="bevel" stroke-miterlimit="2.4142" stroke-width=".72"/>
 <path d="m173.1,170.04v-2.009l-.634-1.956 .845-1.427 .634-2.219" fill="none" stroke="#000" stroke-linejoin="bevel" stroke-miterlimit="2.4142" stroke-width=".72"/>
 <path d="m197.15,14.579-2.327,2.272-.738,5.233-3.965.582-1.956,3.014 .741,4.175 .263,2.063-5.021,1.689-1.056,2.961 .845,5.286-5.656,1.745-1.48,2.801 .582,7.293-4.546-.685-2.379,2.272-1.162,4.917 4.123-3.965 5.549-.793 2.961-5.973 5.498-5.708 4.969-1.903 3.172-.793 1.48-7.504-1.745-5.921 .634-5.919 1.216-5.604 2.485-2.221-2.47.686z" fill="url(#o)" fill-rule="evenodd"/>
 <path d="m203.71 24.569-3.278 13.849 2.221 1.691 5.497-2.219 5.92-3.912 1.587-12.421-11.95 3.012z" fill="url(#n)" fill-rule="evenodd" stroke="#000" stroke-linejoin="bevel" stroke-miterlimit="2.4142" stroke-width=".72"/>
 <path d="m214.07,22.084-5.338,1.903-3.331,2.803 .265,3.594 1.957,2.22-3.014,2.008-1.427,3.278-.529,1.956-2.803-.531-1.374-2.272-.528-5.815 .847-3.594 2.696-4.228 3.91-1.85 8.934.263-.27.265z" fill="url(#m)" fill-rule="evenodd" stroke="#000" stroke-linejoin="bevel" stroke-miterlimit="2.4142" stroke-width=".72"/>
 <path d="m248.79,23.987 1.587,3.172 11.101,19.981 2.59,6.291 .264,1.056-1.322,2.907-3.065,3.965-1.373,1.638h-.529l-1.32.265h-.794l-1.587.74-3.435.792h-1.851l-3.435-.263-8.405-.74-2.378.211-3.966.316-3.699-.527-2.325-1.64-1.84-2.855-.529-5.604 .53-4.174-.529-3.965-1.585-2.588-.792-1.058-2.645-4.757-1.322-3.701-.263-3.963 .529-5.499 1.32-2.641 1.322-1.64 2.642-.476 5.022-.318 3.91,1.375 3.966,2.061 3.172,3.226 1.585,1.058 .74-.793 1.058-1.322 2.112-.792 1.904-.529h1.586l1.586.529 .48.262z" fill="url(#k)" fill-rule="evenodd" stroke="#000" stroke-linejoin="bevel" stroke-miterlimit="2.4142" stroke-width=".72"/>
 <path d="m259.52,60.037-1.85,1.956-1.956,1.004-4.439.053-13.109-4.757-2.59-1.587" fill="none" stroke="#000" stroke-linejoin="bevel" stroke-miterlimit="2.4142" stroke-width=".72"/>
 <path d="m233.52 35.828 12.369 11.418" fill="none" stroke="#000" stroke-linejoin="bevel" stroke-miterlimit="2.4142" stroke-width=".72"/>
 <path d="m229.87,32.444-.528-1.532-.371-1.851-1.639-1.532-2.483-.476-1.693.74-.209,2.219 1.32,1.534 3.437,1.163 2.325.106-.17-.371z" fill="url(#j)" fill-rule="evenodd" stroke="#000" stroke-linejoin="bevel" stroke-miterlimit="2.4142" stroke-width=".72"/>
 <path d="m228.81,30.277c0,.582-.476,1.004-1.058,1.004-.634,0-1.109-.422-1.109-1.004s.476-1.056 1.109-1.056c.59,0 1.06.476 1.06,1.056z" fill="url(#i)" fill-rule="evenodd" stroke="#000" stroke-linejoin="bevel" stroke-miterlimit="2.4142" stroke-width=".72"/>
 <path d="m264.65,54.75-.529,1.48-.951.951-.315-.74-1.48,1.956-1.797,1.269-.157-1.692 .738-2.009-1.216-.369-1.003.793-2.381-.742-1.531-1.163 .897-1.427 2.221-.792 3.384.316 1.744.74 1.479-.476 .74,1.162 .16.743z" fill="url(#h)" fill-rule="evenodd" stroke="#000" stroke-linejoin="bevel" stroke-miterlimit="2.4142" stroke-width=".72"/>
</svg>
