<?xml version='1.0' encoding='utf-8'?>
<svg xmlns="http://www.w3.org/2000/svg" version="1.1" id="Layer_1" x="0px" y="0px" viewBox="0 0 2000 1500" style="enable-background:new 0 0 2000 1500;"> <g> <path d="M874.5,437.1c22.9-0.1,45.3,2.9,66.4,12c16.2,7,31.9,15,44.5,27.9c2,2,3.7,2.6,6.1,1.1c4.9-3.2,8.7-1.4,12.3,2.4 c4.1,4.4,8.8,8.2,12.6,12.7c7.9,9.2,18,15.7,27.2,23.4c17.4,14.5,36,27.5,51.7,43.9c7.4,7.7,14.1,15.9,21.1,23.9 c2.4,2.7,5.1,5.3,7.5,8c0.4,0.4,0.3,1.2,0.5,1.8c-0.9,0-2.1,0.4-2.5,0c-4.2-3.8-8.5-7.5-12.1-11.8c-3.1-3.7-6.4-4.5-10.6-2.9 c-9,3.5-18,6.9-26.9,10.7c-19.6,8.4-39.1,16.9-58.5,25.7c-9.7,4.4-19,9.6-28.5,14.3c-10.7,5.3-21.6,10.4-32.3,15.6 c-5.7,2.7-11.6,5.2-17.1,8.3c-7,3.9-8.7,9.7-5.3,16.9c2.5,5.2,6.1,9.6,11.7,11.8c4.3,1.7,8.7,3.3,13.2,4.6c3.7,1.1,4.7,0.1,4.6-3.7 c0-0.7-0.3-1.3-0.4-2c-0.3-2.3,0.7-3.9,2.7-4.8c1.5-0.7,3.2-1.1,4.7-1.8c2-1,4-2.2,6-3.3c-2.4-2.1-4.7-0.6-7,0.2 c-3,1.1-5.8,1.2-8.6-0.5c-5.9-3.7-5.8-9.2,0.3-12.3c18.7-9.5,36.4-20.8,56-28.7c14.5-5.8,28.9-11.8,43.6-17.3 c13.1-4.9,26.4-9.3,39.6-13.9c0.6-0.2,1.2-0.5,1.9-0.7c4.1-1.7,7.8-1.6,10.5,2.6c1.7,2.7,3.9,3,6.8,1.6c6.3-2.9,12.9-5.5,19.3-8.2 c1.8-0.8,3.7-1.6,5.6-2.2c5.4-1.5,9.3,2.5,7.7,8c-0.6,2.2-1.8,4.3-2.7,6.4c-1,2.5-2.2,4.9-3,7.4c-1.6,5-1.2,6.4,3.1,9.3 c11.3,7.5,22.4,15.5,35.5,20.1c3.4,1.2,6.7,3,9.9,4.7c5,2.6,10.1,4.8,15.8,6c6.6,1.3,7.3,2.8,6.9,10.5c-0.1,1.7,0.7,2.4,2.3,2 c2.3-0.5,4.6-1,6.8-1.6c3-0.8,6-1.7,8.3,1.2c2,2.6,0.3,5.1-0.9,7.4c-3,6.3-6.2,12.5-9.2,18.9c-5.1,10.8-10.2,21.7-15.2,32.5 c-8.3,17.8-16.6,35.6-25,53.4c-4.9,10.6-9.8,21.2-14.8,31.7c-4.9,10.2-10.1,20.2-15,30.4c-3.3,6.9-6.5,13.9-9.6,20.9 c-4.8,10.6-9.6,21.2-14.3,31.8c-1.7,3.8-4.2,6.1-8.5,5.5c-4.5-0.6-7.6,0.9-10.1,4.7c-2.6,4-6.3,6.8-10.5,9c-2.2,1.2-2.6,3.1-1.3,5 c3.1,4.3,5.7,9.3,9.8,12.4c5.2,4,8.1,8.6,9,14.8c0.3,2,1,3.9,1.4,5.8c1.4,6.1,4.4,11,9.7,14.6c4.7,3.2,9.2,6.6,10.9,12.6 c0.3,1,1.8,2.5,2.7,2.4c6.1-0.2,6.9,5.6,10.1,8.6c0.6,0.6,0.9,2.1,0.6,2.8c-1.3,3.4-2.8,6.7-4.5,9.9c-1,1.9-2.9,2.6-5.1,2.4 c-3.6-0.2-4.8,3.1-6.9,5.1c-0.2,0.2,0.1,1,0.1,1.5c0.3-0.1,0.6-0.2,0.9-0.4c0.5-0.4,1-0.9,1.6-1.2c0.9-0.4,1.8-0.6,2.7-0.8 c-0.1,1.2,0,2.5-0.3,3.6c-0.3,0.9-0.9,1.8-1.6,2.5c-8.3,9.2-16.9,17.9-28,23.9c-6.7,3.6-13.7,4.8-21.2,3.6c-5.9-0.9-12-1-17.8-2.3 c-19.5-4.2-38.9-8.8-58.4-13.2c-9.4-2.1-18.8-4.1-28.3-6.1c-13.7-2.8-27.3-5.8-41.1-8.3c-22.9-4.3-45.6-9.2-67.9-16.1 c-18.1-5.6-36.6-10.2-54.6-15.8c-12.7-4-25.2-8.6-37.5-13.8c-9.2-3.9-17.1-10.4-24.3-17.3c-3.6-3.5-4.7-8.8-2.9-14 c1.2-3.5,2.6-6.8,4-10.2c0.5-1.2,1.7-2.3,1.8-3.5c0.5-6.5,3.4-11.3,9.1-14.4c4.6-8,11-15.1,11.5-25.1c0.1-3.3,1.2-6.5,2.2-9.7 c0.6-1.8,1.7-4.1,3.2-4.9c5.1-2.4,5.6-7,6.5-11.6c0.4-2.3,0.5-4.6,0.6-7c0.3-4.5,2.2-7.3,7.2-7.9c3.6-0.5,3.8-1.4,2.8-4.6 c-0.7-2.2-1.1-4.9-2.6-6.4c-5.7-5.8-8.5-13.6-13.6-19.6c-4.5-5.2-4.7-10.6-1.1-15.5c2.8-3.8,2.9-7,1.6-11.1c-0.8-2.5-1-5.2-1.6-7.8 c-0.8-3.4-2.9-5.6-6.2-7.3c-9.8-4.9-14.7-14.7-13.4-25.3c0.2-1.9,0.6-4.4-0.4-5.6c-4.9-5.8-6.8-13-9.9-19.5 c-5.3-11.1-9.8-22.6-14.7-33.8c-1.6-3.7-3-7.5-5.2-10.8c-4.1-6.2-6.7-13-8.9-20c-2-6.3-4.3-12.6-5.7-19.1 c-3.1-14.5-2.9-29-0.4-43.7c2.3-13.4,3.6-27.1,8.1-40c8.1-23.1,18.8-44.9,35-63.4c5.9-6.7,13.2-12.1,20.1-17.9 c16.7-14,36.3-21.8,57.2-27.2C853.5,439.2,863.9,437.5,874.5,437.1z M971.1,926.5c-1.7-0.8-3.5-1.7-5.2-2.5 c-2.9-1.4-4.2-0.2-4.8,2.6c-1.3-0.2-3,0.1-3.9-0.6c-3.1-2.3-6-3.7-10-2c-2,0.9-4.1-0.6-4.7-2.7c-1.6-4.9-5.1-7.5-9.9-8.7 c-0.8-0.2-2.2-1.1-2.1-1.6c0.3-4.3-3.2-4.6-5.8-5.5c-5-1.8-10.1-3.3-15.2-5c-0.5-0.2-0.9-0.9-1.3-1.4c0.8-0.3,1.6-0.7,2.4-1 c0.6-0.2,1.3-0.1,1.9-0.2c-0.4-0.7-0.7-1.8-1.3-2c-3.1-1.1-6.3-2-9.5-3.1c-8.5-2.9-17.2-5.3-25.4-8.7c-13.8-5.8-28-10.5-41.4-17.4 c-5.9-3.1-6.3-2.6-8,4.5c-0.2,0.6-0.3,1.3-0.5,1.9c-1.3,3.4-5,4.7-8.2,2.9c-0.9-0.5-1.7-1.1-2.4-1.8c-2.3-2.3-5.2-4.4-4.8-8.3 c0.4-4.1,3.4-5.4,6.9-5.8c0.3,0,0.6-0.3,0.9-0.5c-0.3-0.5-0.5-1.2-1-1.5c-1.7-1-3.5-1.8-5.3-2.8c-3.7-2.1-8-3.4-10.6-7.2 c-0.1-0.2-1.6,0-1.6,0.2c-1,4.9-1.8,9.8-2.7,14.7c-0.5,2.9-1,5.9-1.8,8.8c-1,3.6-0.4,6.5,2.5,9c0.9,0.8,2.1,2.1,0.5,3.3 c-0.6,0.4-1.9,0.2-2.8-0.1c-1.2-0.4-2.4-1.1-3.6-1.7c-0.1,0-0.5,0.4-0.6,0.7c-0.1,0.3,0,0.8,0.2,0.9c0.7,0.7,1.4,1.7,2.2,1.8 c6.8,0.7,12.5,4.2,18.4,7.3c8.2,4.3,16.5,8.6,24.8,12.6c6,2.9,12.1,5.6,18.3,7.9c19.1,6.8,38.3,13.2,57.4,20.2 c10,3.7,20.1,6.9,30.5,9.4c5.4,1.3,11.2,1.8,15.8,5.7c1.1,1,3.1,1,4.7,1.2c3.6,0.5,7.3,0.8,10.9,1.3c1.9,0.3,3.2-0.5,3.9-2.3 c0.6-1.5,0.9-3.2,1.6-4.7c0.1-0.3,1.1-0.3,1.7-0.4c0.2,0,0.5,0.5,0.5,0.7c-0.1,2,0.3,4.1-0.4,5.8c-2.8,6.8-4.1,14-5.4,21.2 c-0.3,1.6-0.9,3.2-1.7,4.6c-0.9,1.6-2.7,2.1-4.3,1.2c-1.6-0.9-2.2-2.6-1.3-4.3c1.4-2.6,3.2-5,4.6-7.7c0.9-1.9,0.8-3.9-0.9-5.5 c-2.9-2.6-8.3-2-10.7,1.2c-0.4,0.5,0,1.9,0.4,2.6c1.4,2.1,1,3-1.5,2.8c-2.6-0.2-5.3-0.7-7.9-1.1c-3.6-0.5-7.2-1-10.8-1.4 c0,0,0.2,0.2,0.2,0.2c-1.5-0.7-2.9-1.7-4.4-1.9c-8.6-1-17.2-1.7-25.7-2.7c-1-0.1-1.8-1.4-2.7-2.2c0.9-0.9,1.6-2.3,2.6-2.7 c1.5-0.6,3.3-0.5,4.9-0.6c3.3-0.2,6.7-0.2,9.9-0.7c2.2-0.3,4.4-1.4,6.5-2.1c-2-0.4-4-1.1-6.1-1.3c-4.9-0.3-9-4.3-14.3-3 c-0.4,0.1-1.4-0.7-1.4-1.2c-0.4-3.2-2.5-2.8-4.9-3.1c-5.2-0.8-10.4-2.2-15.5-3.5c-0.5-0.1-1-2.2-0.9-2.2c3-1.6,2.1-2.8-0.4-3.7 c-6.9-2.5-13.8-4.8-20.6-7.4c-6.2-2.4-12.1-5.6-18.4-7.6c-13.1-4.1-25.2-10.4-37.6-16c-2.1-0.9-4.1-2.3-6-3.5 c-5.9-3.7-11.8-7.4-17.8-11.1c-3.7-2.3-3.6-2.2-5.2,2.6c-1.1,3.1-2.6,6.1-4.2,9c-1.6,2.9-3.7,5.6-5.3,8.4c-2.5,4.3-2.4,5.5,1,8.7 c9.5,9,20.5,16,32.4,21.2c14,6.1,27.8,12.7,42.6,17c8,2.3,15.9,4.8,23.9,7c3.8,1.1,7.8,1.6,11.7,2.4c4.9,1,9.8,1.7,14.6,2.9 c2.1,0.5,1.9,2.3,0.4,3.7c-0.5,0.5-0.9,1-1.3,1.5l0.1-0.2c-6.8,0.5-13-1.3-19.3-3.5c-7.4-2.6-15.2-4.4-22.8-6.6l0.2,0.2 c-0.8-0.6-1.5-1.4-2.4-1.7c-15.8-5.3-31.6-10.3-47.3-15.9c-9.1-3.2-18.1-6.8-25.8-12.8c-2.9-2.2-5.7-4.5-8.6-6.7 c-7.9-6-8.3-5.8-12.1,3.6c-1.3,3.2-1.9,6.4-1.1,9.7c0.4,1.8,1.3,4,2.7,5c8.5,5.9,16.7,12.3,25.8,16.9c9.1,4.6,19.2,7.5,28.9,10.9 c12.6,4.4,25.2,8.5,37.9,12.7c18.6,6.3,37.5,11.5,57,14.3c17.1,2.5,34.2,5.3,51.3,8c1.9,0.3,4.3,1.4,5.7,0.7c2.6-1.4-0.8-3.3-0.5-5 c0.2-1.3,0.4-2.6,0.8-3.9c0.8-2.4,2.6-3.9,5.2-3.9c2.8,0,4.2,1.6,4.7,4.2c-0.9,0-2-0.2-2.8,0.1c-1.3,0.6-2.5,1.5-3.7,2.3 c0.2,0.2,0.4,0.7,0.6,0.7c1.4-0.2,2.9-0.4,4.2-1c0.7-0.3,1-1.5,1.5-2.3c7.6,1.5,8.6,2.4,6.5,8.6c-0.9,2.8,0,3.7,2.1,4.2 c15.8,3.7,31.1,9.6,47.6,10c0.5,0,1-0.4,1.5-0.7c-0.4-0.5-0.8-1.3-1.3-1.4c-4.2-0.9-8.5-1.2-12.5-2.5c-6.3-2-7-7-1.8-11 c1.2-0.9,3-1.2,4.5-1.6c0.9-0.3,1.9-0.4,2.8-0.5c-0.8-0.3-1.7-0.6-2.5-0.8c-14.9-3.4-29.8-6.8-44.6-10.2c-1.9-0.4-4.4-0.7-4.4-3.1 c0-1,2.3-2.1,3.7-2.9c0.8-0.5,2-0.3,2.9-0.7c6.1-3,11.3-6.3,11.8-14.4c0.7-10.9,2.5-21.7,3.8-32.6c0.1-1,0.2-2.1-0.1-3 c-0.5-1.1-1.3-2.7-2.2-2.8c-2.2-0.5-1.3,1.2-1.3,2.4c0,2-0.4,4-0.9,5.9c-0.7,2.5-3.4,3.7-6.6,2.5c-3.2-1.2-0.6-3.2,0-4.7 c1.1-2.3,2.5-4.6,3.8-6.8c0.7-1.2,1.5-2.2,2.3-3.4c-1.3-0.1-2.6-0.3-3.9-0.4c-2.7-0.2-4.4,1.2-5.4,3.5c-0.8,1.8-1.1,3.8-1.9,5.6 c-0.3,0.5-1.9,1.1-2.3,0.8c-1.3-0.9-3.1-2-3.2-3.3c-0.2-1.6-0.3-2.9-1.9-2.1c-3.9,1.8-8.8,0.3-12.2,3.5l0.2-0.1 c-4.2-0.6-8.4-1.1-12.6-1.8c-0.5-0.1-1-0.7-1.5-1c0.8-0.4,1.6-0.9,2.4-1.3c0.9-0.4,1.8-0.6,0.6-1.7c-0.7-0.6-1.3-1.2-1.9-1.9 c0.8-0.2,1.7-0.6,2.5-0.6c2.3,0.2,4.6,0.6,6.2-1.8c3.4,0,6.8,0,10.3,0c2.7,1.2,5.3,2.5,8,3.6c0.5,0.2,1.3-0.8,2-1.2 c-0.4-0.5-0.8-1.3-1.3-1.4C977,927,974,926.8,971.1,926.5z M1115,608.4c3.6-1.2,7.2-2.4,10.8-3.7c0.4-0.2,0.6-0.9,0.9-1.3 c-0.6-0.1-1.3-0.6-1.7-0.4c-3.6,1.3-7.4,2.3-9.9,5.6c-3.1,1-6.2,1.9-9.3,2.9c-0.4,0.2-0.6,1-1,1.5c0.6,0.1,1.3,0.5,1.7,0.3 C1109.5,611.7,1112.2,610.1,1115,608.4z M1106.8,992.4c2.8-1.2,4.9-3.2,5.8-6.2c0.2-0.5-0.2-1.4-0.6-1.7c-0.4-0.3-1.3-0.3-1.7,0 c-2.9,1.9-5.2,4.1-3.3,8c-2.6,2.3-1.9,5.3-1.8,8.2c-4-0.5-6.4,5.1-11,3c-0.3-0.1-1.1,1-1.6,1.5c0.5,0.3,1.1,0.8,1.6,0.8 c4.9,0.7,8.2-1.6,10.8-5.5C1110.4,996.5,1110.4,996.5,1106.8,992.4z M1093,952.5c1.8-0.7,3.7-1.4,5.5-2.3c0.6-0.3,0.8-1.5,1.2-2.3 c-0.9-0.3-1.8-0.9-2.6-0.9c-0.9,0.1-1.8,0.7-2.7,1.1c1.1-2.4,2.1-4.8,3.3-7.1c0.8-1.4,2-2.7,2.8-4.1c0.3-0.5,0.1-1.3-0.1-1.8 c-0.1-0.2-1-0.1-1.5,0c-1.9,0.6-3.7,1.3-5.6,1.8c-0.2,0-1.1-1.4-1-1.9c0.4-1.2,1.8-2.4,1.7-3.5c-0.2-2.5-2.6-0.8-3.9-1.6 c-5.1-3.3-10.5-2.7-16.3-1.6c-7.8,1.4-15.7,1.7-23.6,2.3c-3.3,0.3-6.6,0.1-10,0.2c-0.7,0-1.4,0.5-2.1,0.7c0.6,0.3,1.1,0.6,1.7,0.8 c2.2,0.7,4.5,1.2,6.7,1.9c0.6,0.2,1.3,0.2,1.9,0.5c0.3,0.1,0.4,0.5,0.6,0.8c-0.5,0.3-1.1,0.9-1.5,0.9c-4.6-0.5-9.2-1-13.8-1.5 c-0.6-0.1-1.2,0.3-1.9,0.5c0.4,0.3,0.8,0.8,1.3,0.9c1,0.2,2,0.2,3,0.4c7.8,1.2,15.7,2.8,23.5,3.5c6.9,0.6,14,1,19.8-4.3 c0.2-0.2,0.6-0.3,0.9-0.3c0.3,0,0.6,0.1,0.8,0.3c0.1,0.2,0.2,0.7,0,0.8c-4.5,4.1-4.5,8.4-0.9,13.1c0.1,0.2-0.9,1.6-1.6,2.1 c-1.1,0.7-2.5,0.9-3.6,1.6c-0.4,0.3-0.8,1.3-0.7,1.7c0.3,0.9,1,1.9,1.7,2.2c1.2,0.4,2.7,0.5,3.8,0.1c2.5-0.8,4.9-2,7.3-3.1 c-0.2,3.3,0.3,3.8,2.9,4.6c2.4,0.8,3.8-0.3,5-2C1096.8,954.6,1093.9,953.9,1093,952.5z M1017,932.5c0.5,0.4,1,1,1.6,1.2 c3.3,1,7,0.2,6-0.3c-1.7-0.7-3.8-0.7-5.8-0.9c-0.6-0.1-1.3,0.1-2,0.2c-1-0.9-1.3-2.8-0.6-4.6c0.1-0.3,0.6-0.7,0.6-0.7 c-1.1-1.4-6.7-1.1-7.8,0.4c-1.1,1.5-0.6,3.6,1.1,3.9C1012.4,932.1,1014.7,932.2,1017,932.5z M1015.1,972.5c-0.5-0.4-1-0.9-1.6-1.1 c-3.3-1-6.9-0.2-5.9,0.2c1.7,0.7,3.7,0.7,5.6,0.9c0.6,0.1,1.3-0.1,2-0.1c0.5,0.5,0.9,1,1.4,1.4c1.3,1,4.7,1.7,0.2,3 c-0.4,0.1-0.7,0.7-1,1.1c2,1,6.8,0.4,8.1-1.2c0.6-0.7,1.2-1.8,1.2-2.6c0-0.5-1.3-1.3-2.1-1.3 C1020.3,972.5,1017.7,972.6,1015.1,972.5z M1029,992.5c5,2.8,10.6,3,16.1,3.8c0.5,0.1,1.2-0.4,1.7-0.7c-0.4-0.4-0.9-1-1.3-1.1 c-5.6-0.7-11.1-1.3-16.7-1.9c-1.7-2-4-1.9-6.3-2c-5.2-0.4-10.4-0.9-15.5-1.4c-0.3,0-0.7-0.1-1,0c-0.3,0.1-0.7,0.3-0.7,0.6 c0,0.2,0.3,0.7,0.5,0.7c2.5,0.7,4.9,1.7,7.4,1.8C1018.5,992.7,1023.8,992.5,1029,992.5z M1037,1000.5c4.3,2.9,9.4,2.7,14.2,3.6 c1.3,0.2,4-0.7,4.1-1.4c0.3-2.4-2.1-2-3.5-2.1c-4.9-0.1-9.9,0-14.9,0c-0.5-2.1-1.6-3.6-3.9-3.9c-4.9-0.6-9.9-1.4-14.8-2 c-2.3-0.3-4.7-0.2-7-0.2c-0.5,0-1,0.6-1.5,0.9c0.6,0.2,1.2,0.7,1.8,0.7C1020.2,996.1,1028.5,999,1037,1000.5z M969.1,886.5 c-2.9-2.7-6.3-4-10.2-3.9c-1.9-1.3-3.6-3-5.6-3.8c-14.8-6.1-29.6-12-44.4-17.9c-7.1-2.8-14.4-5.3-21.6-7.8 c-0.5-0.2-1.2,0.3-1.8,0.4c0.4,0.4,0.7,1,1.2,1.2c7.7,3.2,15.4,6.4,23.1,9.5c10.8,4.4,21.8,8.3,32.3,13.2c5.5,2.6,11,4.5,17,5.1 c2.9,2.6,6.4,3.6,10.2,3.9c8.5,5.5,17.7,9.3,27.9,10c1.8,3.2,5.3,3.9,8.3,4.9c9,3,18.1,6.2,27.3,8.6c7.9,2.1,16.1,3.1,24.2,4.7 c2.5,0.4,5,0.9,7.5,1.3c0.6,0.1,1.2-0.3,1.8-0.4c-0.6-0.1-1.1-0.3-1.7-0.3c-2.6-0.1-5.1-0.2-7.7-0.4c-3-1.2-6-2.8-9.1-3.6 c-13.2-3.3-26.6-6-39.2-11.3c-3.6-1.5-7.6-2.2-11.4-3.2c-5-2.1-9.9-4.5-15-6.3C977.8,888.7,973.4,887.7,969.1,886.5z M1073,970.6 c-3.8,1.5-4.6-4-7-3.5c-2.4,0.5-3.6,4.5-7.2,3.4c-0.4-0.1-1.1,0.5-1.6,0.8c0.3,0.4,0.6,1.2,1,1.2c4.5,0.7,9.1,1.4,13.6,2 c3.5,0.4,7.1,0.7,10.6,1c-1.7-4.4-7.3-1.8-9.6-5.2c3.3-0.2,6.5-0.4,9.8-0.6c0.2,0,0.7-0.5,0.6-0.6c-0.2-0.5-0.5-1.2-0.8-1.2 c-2.3-0.1-4.6-0.4-6.8-0.1C1074.7,968.1,1073.9,969.6,1073,970.6z M1106.9,960.6c0.5-2.2,1.1-4.4,1.5-6.6c0.1-0.5-0.5-1-0.7-1.6 c-0.5,0.3-1.2,0.5-1.6,1c-0.7,1-1.5,2.2-1.9,3.3c-1.1,2.8,1,3.2,2.9,3.7c0.2,4.2-4.1,6-5.2,9.3c-1.6,4.8-6.6,5.3-9.6,8.3 c-1.6,1.6-4.8,1.7-7.3,2.5c-0.9-0.5-1.7-1.2-2.6-1.3c-9-1.4-18-2.8-27-4.1c-3-0.4-5,2.1-3.8,5c0.7,1.7,2.4,3,3.6,4.5 c-3.4,0-6.8-0.1-10.1-0.1c-2.7-2.7-6.2-1.6-9.5-1.8c-0.6,0-1.2,0.4-1.8,0.6c0.5,0.3,0.9,0.7,1.4,0.8c3.3,0.1,6.6,0.2,9.9,0.3 c4.1,3.9,9.4,3.9,14.5,4.2c3.8,0.2,7.9-1.1,11.1,2.1l0.1-0.2c-6,0.1-12,0.1-18,0.2c-0.4,0-0.8,0.6-1.1,1c0.3,0.2,0.5,0.5,0.8,0.5 c3.3,0.2,6.6,0.3,10,0.5c1.3,0.1,2.6,0.2,3.9,0.3c-0.8,0.9-2,1.8-2.3,2.8c-0.3,1.1,0,2.6,0.5,3.7c0.3,0.7,1.5,1.5,2.3,1.5 c0.7,0,2.2-1.2,2.1-1.5c-1.1-4.2,2.4-3.8,4.1-3.3c3.1,0.9,6.1,2.6,9.5,2.1c0.6-0.1,2.4,0.6,1.4-1.2c-0.2-0.4-1.3-0.3-1.8-0.7 c-0.3-0.3-0.4-0.9-0.5-1.4c1.6-0.2,3.2-0.5,4.9-0.6c1.7-0.1,3.7-0.1,3.4-2.4c-0.1-1-1.7-2-2.8-2.5c-1.2-0.5-2.6-0.6-3.9-0.7 c-7.9-0.8-15.8-1.4-23.7-2.3c-1.5-0.2-3-1.2-4.5-1.8c1-0.7,2.9-1.3,2.9-2.1c0.4-3.7,2.7-3.9,5.5-3.6c1.3,0.1,2.6,0.5,3.7,1.1 c0.6,0.3,0.9,1.3,1.4,1.9c-0.6,0.2-1.2,0.4-1.8,0.6c-1.1,0.4-2.2,0.9-3.2,1.4c0.9,0.2,1.9,0.5,2.8,0.5c4.2,0.1,8.5,0.1,12.7,0.1 c1.4,1.8,3.4,2.1,5.4,1.7c4.1-0.9,8.4-1.5,12.3-3.2c4.1-1.8,8.2-3.8,9.8-9c0.9-3,3.6-5.5,5.7-8.1c0.1-0.2,1.8,0.4,2,0.9 c0.4,1.2,0.3,2.5,0.7,3.7c0.1,0.3,1.1,0.4,1.7,0.5c0.2,0,0.8-0.3,0.8-0.5c-0.1-2.5,0.6-6.2-0.7-7.3 C1114.1,961.2,1110.8,958.6,1106.9,960.6z M797,756.6c-0.6-2.9-2.5-3.2-5.1-3.1c-4.1,0.1-5.3,1.3-4.2,5.2c0.6,2.4,2.8,3.2,4.3,1.4 c1.4-1.8,2.4-4,5.3-3.6c1.2,3.4,2.5,6.8,3.4,10.3c1.1,4.2-0.8,6.5-5.4,6.9c-3,0.2-3.7,0.9-2.9,3.4c3.2,11.5,6.4,23,9.7,34.4 c0.4,1.5,1.8,2.7,2.7,4.1c0.2,0.2,0.6,0.5,0.8,0.5c0.5-0.2,1.1-0.6,1.2-1c0.2-1,0.2-2,0.2-3c-0.4-5.5,1.2-9.8,7.1-11.5 c1.9-0.6,2.4-1.8,2-3.8c-2.3-10.7-8.5-20.1-9.9-31c-0.1-0.6-0.7-1.1-1.2-1.6C802.2,761.5,799.6,759.1,797,756.6z M1144.9,828.6 c5.7-10.9,11.6-21.7,17-32.7c5.5-11,10.3-22.3,15.8-33.4c7.2-14.6,15.4-28.8,21.1-44.1c1.7-4.6,4.3-8.9,6.7-13.3 c5.2-9.3,10.5-18.5,15.7-27.8c0.9-1.7,2.2-4.3,1.6-5.4c-1.2-2.2-3.5-0.2-5.3,0.3c-3.5,1-7,2.1-10.5,3.3 c-23.6,8.2-47.3,16.1-71.6,21.9c-10.3,2.4-20.7,4.7-31.2,6.7c-30.4,6-61,10.4-91.8,12.6c-17.2,1.2-34.5,1.3-51.7,0.5 c-5.7-0.3-11.2-1.5-16.4-3.9c-4.5-2.1-8.9-5.1-13.6-6c-9.2-1.9-17.6-6-26.2-9.2c-14-5.2-27.3-12.2-40.7-18.9 c-18.8-9.4-35.9-21.7-53.2-33.5c-7.4-5.1-14.4-10.7-20.1-17.7c-2.5-3.1-5.2-6-8.2-8.6c-4.3-3.7-8.9-7-14.4-8.7 c-2.9-0.9-5.7-1-8.8-0.4c-5.5,1-9.8,4.2-14.4,6.8c-9.7,5.4-14,18.2-9.8,28.4c2.6,6.3,6.3,11.5,11.7,15.8 c11.9,9.6,24.8,17.9,35.6,28.9c0.9,0.9,2.1,1.7,3.2,2.4c7.2,4.8,14.4,9.6,21.6,14.3c10.9,7.1,21.7,14.2,32.6,21.3 c8.9,5.8,17.9,11.6,26.9,17.1c3.7,2.3,7.8,3.8,11.5,6c8.9,5.2,17.7,10.6,26.6,15.8c5.5,3.2,11.1,6,16.7,9c7,3.8,14.4,7,21,11.5 c12.2,8.4,25.5,14.2,39,20c7.3,3.2,14.5,6.7,20.5,12.2c4.7,4.3,9.9,7.7,16.2,9.6c4.8,1.4,9.4,3.5,14,5.5 c18.1,7.8,34.6,18.4,51.5,28.4c1.4,0.8,2.7,1.9,4,2.9c8.4,6.6,16.7,13.2,25.1,19.8c0.8,0.6,1.6,1.1,2.5,1.6c1.8,1,4,0.4,5.2-1.5 c0.9-1.4,1.6-2.9,2.3-4.4c6.1-13.7,12.2-27.4,18.1-41.1c1.7-3.9,3-8,4.5-12L1144.9,828.6z M800.9,614.5c-3.3,0.4-6.6,0.7-9.8,1 c0.5,4.1,4.5,5.4,6.6,8.2c0.4,0.5,1,0.9,1.5,1.3c14.3,11.5,29.3,21.9,44.3,32.3c6.8,4.7,14.6,8.1,21.4,12.9 c11.8,8.4,24.7,14.3,38,19.7c12.9,5.2,26,10.1,38.9,15.7c11.9,5.1,24,7.8,36.9,6.9c5.9-0.4,12.4,2.1,17.6-1.8 c6.5-4.8,11.2,3.1,17,1.6c0.3-0.1,0.7,0,1,0c7.3-0.8,14.6-1.1,21.8-2.4c11.1-2,22.1-4.7,33.1-7.2c17.6-3.9,34.5-10.1,51.6-15.5 c25.7-8.1,50.9-17.5,76.2-26.9c1.1-0.4,1.9-1.6,2.8-2.5c-0.7-0.6-1.4-1.4-2.2-1.9c-1.5-0.8-3-1.4-4.6-2.1 c-19.1-8.6-38.2-17.3-54.6-30.8c-2.9-2.4-6-2.6-9.3-1.3c-4.9,2-9.8,4.4-14.8,5.9c-3,0.9-6.3,0.4-9.5,0.6c-0.9,4-4.5,4.3-7.6,5.6 c-21.4,9.1-42.8,18.3-64.3,27.3c-21.5,9-43,18-64.6,26.6c-13,5.2-13.1,4.9-25.5,0.4c-7.5-2.8-13-8.1-16.6-15.1 c-3.9-7.6-2.5-14,3.4-20c3.9-3.9,8.7-6.1,13.5-8.3c12.1-5.5,24.4-10.7,36.2-16.7c13-6.7,26-13.4,39.6-18.8 c4.6-1.8,9.2-3.9,13.7-5.9c18.6-8.1,36.8-17,56-23.8c3.1-1.1,6.1-2.7,9.1-4.2c2.4-1.2,2.6-2.5,0.6-4.6 c-14.2-15.1-30.4-27.8-46.1-41.3c-10.3-8.9-21.4-16.9-32.1-25.4c-1.8-1.4-3.3-3.2-4.9-4.9c-4.1-4.3-8-8.8-12.2-13.1 c-4.9-4.9-9.9-4.8-14.8,0.2c-1.6,1.6-2.9,3.7-4.3,5.5c-7.8,9.5-14.2,20-23.2,28.6c-3.6,3.5-7,7.2-10.6,10.6 c-6.7,6.4-13,13.4-20.4,19c-14.3,10.9-29,21.2-43.9,31.2c-19.7,13.3-40.8,23.8-63.8,30.1C815.1,613.1,808.4,616.3,800.9,614.5z M798.5,610.1c10.4,0.8,20-2,29.5-5c18.9-6,35.9-15.8,52.8-25.9c4.8-2.9,9.3-6.4,14.2-9.3c13.9-8.1,25.9-18.8,38.1-28.9 c10.9-9.1,20.8-19.7,30.5-30.2c6.3-6.8,11.6-14.6,17.1-22.1c2.2-2.9,1.3-4.9-2.3-5.8c-12.6-3.1-25.1-6.2-37.7-9.3 c-1.6-0.4-3.3-0.7-4.9-0.7c-14.6,0.2-29.2-1.2-43.8-0.5c-15.5,0.8-30.2,4.4-44.7,9.2c-8.2,2.7-16.2,6.1-24.3,9.2 c-4.7,1.8-8.9,4.2-13.1,7c-8.1,5.3-15.2,11.9-23,17.6c-10.4,7.6-18.5,17.2-25.6,27.8c-5.4,8-10.7,16-14.5,24.9 c-6.7,15.5-9.5,31.9-13.3,48c-0.2,0.6-0.3,1.3-0.2,2c0,0.6,0.2,1.4,0.6,1.8c0.2,0.2,1.2-0.1,1.6-0.4c1.4-1.4,2.7-2.9,4.2-4.3 c8.4-8.2,18.5-11.6,30.1-10.4c4.3,0.5,8.7,1.2,12.6,2.8C787.6,609.9,793,610.6,798.5,610.1z M984.9,860.5c0.2,0,0.3,0,0.5,0 c-0.9-7.9-1.7-15.8-2.6-23.7c-0.5-4.3-1.3-8.5-1.7-12.8c-0.4-3.3-1.8-5.4-4.9-6.9c-6.6-3.1-13.1-6.4-19.4-10.1 c-14.1-8.1-28.2-16.3-42.2-24.6c-9.4-5.6-18.9-11.2-28.2-17c-5.9-3.7-11.4-8-17.2-11.8c-13.4-8.6-26.8-17.2-40.3-25.7 c-6.5-4.1-12.6-9.5-19.7-11.6c-7.8-2.4-14-7.3-21.5-9.9c-1.8-0.6-4-2.9-5-2.4c-2.7,1.4-0.7,4-0.2,6.1c0.6,3,2.1,5.4,4,7.9 c9.3,12.6,16.7,26.4,22.5,41c5.3,13.3,10.2,26.7,15.5,40c3.6,9.1,6.2,18.3,3.6,28.2c-0.6,2.4,0.7,3.9,2.8,4.5 c1.6,0.5,3.3,0.6,4.9,0.9c4.3,0.8,8.9,0.6,12.7,2.5c7.3,3.6,15.1,5.2,22.6,7.7c2.1,0.7,4.1,2.5,6.5,0.7c-1.1-1.6-2.2-3.2-3.3-4.9 c-0.4-0.6-0.7-1.1-0.9-1.8c-1.5-4.1,0.6-8.3,4.9-9.3c4.9-1.1,10-0.2,12.5,4c2.9,4.9,6.4,10.3,3,16.7c-0.3,0.5,0.2,1.9,0.7,2.1 c10,4.4,20,8.9,30.2,12.9c10.2,4,20.6,7.4,30.5,12.5c5.9,3,12.2,5.4,18.4,7.8c3.9,1.5,6.4,1,7-1.1c0.8-3.2-1.2-5.1-3.4-6.6 c-12.4-8.4-25.1-16.2-38-23.8c-12.6-7.4-25.2-14.9-37.6-22.5c-9.1-5.5-17.2-12.6-27.6-15.9c-1.2-0.4-2.4-1.2-3.4-2.1 c-0.9-0.8-1.4-2.1-2.1-3.1c1.2-0.2,2.6-0.8,3.5-0.4c4.8,2.3,9.7,4.5,14.1,7.3c9.8,6.2,19.3,13,29.2,19.1 c12.2,7.5,24.8,14.3,37,21.7c9.1,5.5,17.9,11.5,27,17.1c3,1.9,5.4,0.8,5.6-2.5C985,867.2,984.9,863.9,984.9,860.5z M724.2,611.5 c1,7.6,1.9,15.1,2.9,22.7c0.1,0.6,0.6,1.1,1,1.6c0.2-0.5,0.5-1.1,0.5-1.6c-0.1-11.7,1.8-23.2,4.2-34.6 c4.1-19.7,10.4-38.3,21.8-55.3c8.1-12,17-22.9,28.6-31.6c2.9-2.2,5.5-4.8,8.4-7c5.6-4.2,11.3-8.2,17-12.3 c8.2-5.9,18.1-8.3,27.2-12.3c14.1-6.1,29-10.1,44.1-12c13.7-1.8,27.6-2.4,41.7-1.4c16.4,1.2,32.2,4.8,47.9,9.1 c2.6,0.7,5.1,1.4,7.7,2c0.8,0.2,1.7-0.3,2.5-0.5c-0.3-0.5-0.5-1.3-1-1.6c-6.2-4.5-12-9.9-18.7-13.1c-8.9-4.3-17.7-9-27.1-12.5 c-22.4-8.1-45.5-9.2-68.8-8.5c-2.3,0.1-4.6,0.5-6.9,1.1c-13.5,3.6-27,6.7-40,12.3c-7.7,3.3-14.9,7.3-21.4,12.5 c-2.1,1.7-4.3,3.2-6.3,4.9c-6,5.2-12.3,10.2-17.9,15.8c-7.6,7.5-13.2,16.5-18.5,25.8c-10,17.4-19.4,34.8-22.8,54.9 C727.9,583.7,724.4,597.3,724.2,611.5z M950.5,891.4c-0.8-0.5-1.3-1-1.9-1.2c-5.5-1.6-11.1-2-16.7-0.2c-1.1,0.3-3.3,0-3.5-0.6 c-1.4-3.6-5.1-4-7.6-6c-3.5-2.8-6.6-6.2-9.7-9.5c-0.3-0.3,0.8-1.9,1.2-2.9c-1.3,0.1-2.8-0.3-3.9,0.2c-3.8,1.8-6.2,1-8-2.9 c-2.1-4.3-5.3-7.2-10.4-8.2c-3.2-0.6-6.1-2.5-9.2-3.7c-4.6-1.9-9.2-4-14-5.4c-15.3-4.5-30.7-8.6-46.1-13c-2.2-0.6-4.3-1.7-6.4-2.7 c-2.1-0.9-2.7-2.4-2.8-4.7c0-2.2-2.1-3.6-2.9-2.6c-0.7,0.9-1.1,2.2-1.4,3.4c-0.1,0.6,0.1,1.4,0.4,1.9c2.6,4,3.8,8.4,3.9,13.2 c0,1.4,1.1,3.1,2.2,4.2c1.7,1.6,3.6,3,5.7,4c10.5,5.1,20.9,10.2,31.6,14.9c16.2,7,32.5,13.8,49.3,19.1c8.6,2.7,17,5.8,25.6,8.6 c1.1,0.4,3.3,0.4,3.6-0.1c1.8-3.6,4.9-2.6,7.8-2.9c3.9-0.4,7.9-1.2,11.8-1.9C949.7,892.2,950.1,891.7,950.5,891.4z M1050,884 c10.4,0.9,19.3,0.2,28.1-2c1.8-0.5,4.4-1.1,5.1-2.5c1.2-2.3-1-4.3-2.7-5.8c-1.2-1.1-2.8-1.8-4.2-2.7c-11.4-7.4-23.5-13.6-35.7-19.5 c-6.6-3.2-13.2-6.2-19.9-9.1c-6.1-2.7-7.5-1.8-7.6,5.2c-0.2,7.3-0.1,14.6,0,21.9c0,1.7,0,3.4,0.6,4.9c0.5,1.4,1.6,3,2.9,3.5 c8.6,3.6,17.4,6.3,26.9,6C1046.1,883.9,1048.8,884,1050,884z M795.8,742.7c-1-2-1.6-4.5-3.1-6c-3.4-3.3-5.5-7.2-7.6-11.3 c-2.5-4.7-5.6-9-6.8-14.3c-0.3-1.2-1.5-2.1-2.2-3.2c-2-3-4-6-5.8-9.1c-3.4-6.1-6.7-12.2-9.9-18.4c-3-5.9-8.8-8.9-13.8-12.6 c-0.9-0.7-3.1-0.1-4.5,0.4c-0.4,0.1-0.3,2.5,0.2,3.5c2,4.2,5,8,6.4,12.3c4.3,13,11,24.6,18.9,35.7c6.7,9.4,15.4,16.3,24.3,23.2 c0.5,0.4,1.2,0.6,1.8,0.6C794.2,743.7,794.8,743.2,795.8,742.7z M1004.3,863.9c0.5-8.6,1.2-17.3-1.8-25.6c-1-2.7-2.5-5.4-4.4-7.6 c-2.9-3.1-6.3-5.8-9.5-8.5c-0.4-0.4-1.3-0.5-1.8-0.3c-0.5,0.2-1,0.9-1,1.4c-0.1,1.3,0,2.6,0.1,4c1.1,13.9,2.4,27.7,3.2,41.6 c0.6,9.9,0.3,10,8.9,14.8c0.6,0.3,1.2,0.6,1.8,0.9c2,0.9,3.2,0,3.7-1.9c0.5-1.9,0.9-3.9,1-5.8 C1004.4,872.4,1004.3,868.1,1004.3,863.9z M1051.9,893.5c-1,0.9-1.4,1.2-1.7,1.7c-0.1,0.1,0.2,0.6,0.4,0.7c1.2,0.6,2.5,0.9,3.6,1.6 c1.4,0.9,1.5,1.9-0.2,2.8c-2.6,1.4-2.5,1.4-1.3,2.3c4.5,3.6,9.8,5,15.5,5.3c1.3,0.1,2.7-0.4,4-0.2c3.1,0.4,6.8-0.5,8.6,3.5 c0.2,0.4,3.2,0.1,4.3-0.7c1.4-1-0.1-2.1-0.8-3.2c-3-4.4-3-4.6-6.4-4.1c-1.7,0.3-2.7-0.4-4.2-1.1 C1066.4,898.8,1058.9,896.2,1051.9,893.5z M1023.4,944.9c0.2,0-0.8,0.2-1.7,0.4c0.9,0.7,1.6,1.7,2.6,1.9c2.9,0.6,5.9,0.8,8.8,1.3 c2.2,0.4,4.8,0.6,6.6,1.8c3.1,2,6,2.2,9.4,1.5c2.5-0.5,5.9-1,7.6,0.2c4.9,3.5,8.7,1.5,12.7-1.2c0.5-0.4,1-0.8,1.5-1.2 c-0.8-0.3-1.6-0.6-2.4-0.9c-2.5-0.9-5.9-1.1-7.1-2.9c-2.3-3.4-5.4-3.3-8.6-3.9c-2-0.3-3.9-0.9-5.8-1.2c-0.7-0.1-2.3,0.2-1,1.4 c1.3,1.1,3.1,2,1.5,3.8c-0.9,1-2.9,1.6-4.3,1.4C1037,946.8,1030.7,945.8,1023.4,944.9z M787.4,746.8c-0.6-0.7-1.1-1.6-1.7-2.3 c-5.3-5.4-11.4-10.1-15.8-16.3c-0.6-0.8-1.2-1.6-2-2.2c-0.6-0.5-1.4-0.6-2.2-0.9c0,0.6-0.2,1.4,0,1.9c0.8,1.8,1.5,3.8,2.8,5.2 c3.8,4.3,6.6,9,8.4,14.4c0.7,2.2,2.1,4.1,3.3,6.1c1.3,2,2.2,1.7,3.3-0.4c0.7-1.4,1.9-2.6,2.9-3.9C786.7,748,787,747.5,787.4,746.8z M962.3,901.7c0,0.1,0,0.1,0,0.2c1,0.1,2,0.3,2.9,0.1c0.8-0.2,1.4-0.9,2.1-1.4c-0.7-0.5-1.3-1.4-2.1-1.5c-4.1-0.9-8.6-0.2-12.5-2.6 c-0.7-0.5-2.3-0.7-2.8-0.3c-3.3,2.9-6.9,0.8-10.4,0.8c-1.2,0-2.5,0.7-3.7,1.2c-0.3,0.1-0.6,0.5-0.6,0.7c0.1,0.5,0.3,1.3,0.6,1.5 c2.2,0.8,4.3,1.6,6.6,2.1c5,1.2,10,3.5,15-0.6C958.5,901.1,960.7,901.7,962.3,901.7z M1042,990.2c-0.3,0,0.4,0.1,1,0 c0.5-0.1,0.9-0.5,1.4-0.8c-0.5-0.4-1-1-1.5-1.1c-2.6-0.5-5.2-1-7.8-1.3c-2.9-0.4-5.9-0.6-8.8-1c-3.3-0.4-6.5-1-9.7-1.5 c-3.2-0.5-6.5-1.1-9.7-1.7c-1.5-0.3-2.3-1.1-1.9-2.8c-1.1-0.3-2.3-0.9-3.3-0.7c-0.7,0.1-1.5,1.3-1.7,2.1c-0.5,2.6,0.9,4.4,3.7,4.7 C1016.1,987.5,1028.6,988.7,1042,990.2z M926,901.1c-0.3,0.2-0.6,0.4-0.8,0.6c0.5,0.4,0.9,1.1,1.4,1.3c8,3,15.9,6.3,24.1,8.7 c4.7,1.4,9.7,1.5,14.6,2.2c0.3,0,0.6-0.2,0.9-0.2c-0.1-0.4-0.2-1-0.5-1.2c-0.5-0.4-1.2-0.6-1.8-0.8c-12.3-3.5-24.7-7.1-37-10.6 C926.6,901.1,926.3,901.1,926,901.1z M1038.1,976.7c2.7-0.1,5-0.2,7.2-0.4c0.5,0,1.3-0.6,1.3-1c0-0.5-0.6-1-1-1.4 c-1.2-1.4-4.2-0.2-4.3-3c0-0.7,2.5-2-0.4-1.9c-1.4,0-3.2,0.8-4.2,1.9c-1.6,1.8-4.8,2-5,5C1034,976.2,1036.2,976.5,1038.1,976.7z M817.4,807.3c0-2.1-1.4-2.5-2.7-2.4c-3.5,0.3-5.3,2.3-5.2,5.9c0.1,1.4,1.1,3.3,2.2,3.9c1.7,0.9,4.1-1.4,5.3-4.8 C817.2,809,817.3,808,817.4,807.3z M1064.5,959.7c1.4-0.9,2.6-1.8,3.9-2.7c-1.3-0.2-2.6-0.6-3.8-0.5c-5,0.3-9.8-0.3-14.6-1.6 c-1.8-0.5-3.9,0.1-5.8,0.2c1.6,0.5,3.2,1.2,4.8,1.6C1054.1,957.7,1059.2,958.7,1064.5,959.7z M882.1,836.9c1.2-0.7,2.8-1.2,3.7-2.3 c1-1.2-1-3.4-3.4-3.7c-1.3-0.2-2.7-0.2-3.9,0c-0.8,0.2-2.1,1.1-2,1.6c0.2,1.1,0.7,2.5,1.6,3.2C878.9,836.4,880.4,836.4,882.1,836.9 z M994.8,651.5c-0.6-0.1-1.4-0.6-1.8-0.4c-4.6,2.3-9.2,4.8-13.8,7.2c-0.2,0.1-0.3,0.5-0.5,0.8c0.6,0.1,1.3,0.5,1.7,0.3 c4.4-2.1,8.8-4.3,13.1-6.5C994.1,652.6,994.4,652,994.8,651.5z M1045.6,966.5c-0.5,0,0.5,0.3,1.4-0.1c1.8-0.6,3.5-1.6,5.3-2.4 c-1.1-2.3-3.4-1.5-5-1.3c-2.9,0.3-5.8,1.3-8.7,2.1c-0.3,0.1-0.5,0.4-0.8,0.5c0.4,0.3,0.8,0.8,1.2,0.8 C1040.8,966.3,1042.4,966.3,1045.6,966.5z M1096.1,992.3c0.3,0,0.7,0,0.8-0.2c2.7-2.3,5.4-4.6,8.1-7c0.2-0.2-0.1-1.1-0.3-1.6 c0-0.1-0.7-0.1-0.9,0.1c-2.5,1.4-5,2.8-7.4,4.5c-0.6,0.4-0.9,1.6-1,2.5C1095.3,991.1,1095.8,991.7,1096.1,992.3z M792.9,798 c-0.4,0.4-1.1,0.8-1.1,1.3c0,1.6,0,3.3,0.6,4.7c0.4,1.1,1.9,2.7,2.6,2.5c2.6-0.6,0.8-2.4,0.6-3.7c-0.3-1.3-0.6-2.5-1.1-3.7 C794.1,798.6,793.4,798.4,792.9,798z M992,922.7c2-0.2,3.6-0.3,5.2-0.5c0.3,0,0.5-0.6,0.7-0.9c-3-0.7-6.1-1.4-9.1-1.9 c-0.2,0-0.8,1-0.8,1.5c0,0.5,0.4,1.5,0.7,1.6C989.8,922.7,991.1,922.7,992,922.7z M1048.8,1008.6c-1.1,0.1-3,0.3-4.9,0.4 c1.9,0.6,3.8,1.4,5.7,1.9c1.5,0.4,3.1,0.7,4.7,0.8c0.4,0,1.1-0.8,1.1-1.2c0-0.5-0.5-1.3-1-1.4 C1052.9,1008.8,1051.3,1008.8,1048.8,1008.6z M1067.5,1010.6c-1.5,0.2-2.7,0.4-4,0.5c1.2,0.5,2.4,1.3,3.7,1.5 c3.2,0.6,6.5,1.1,9.7,1.5c0.5,0.1,1.1-0.4,1.7-0.6c-0.6-0.3-1.1-0.7-1.7-0.8C1073.7,1011.9,1070.5,1011.2,1067.5,1010.6z M820.5,865.2c-0.5-0.5-1.1-1.5-1.8-1.6c-2.2-0.4-4.8,1.6-4.1,3c0.3,0.7,1.4,1.2,2.3,1.4C818.6,868.2,820.2,867.8,820.5,865.2z M962.5,916.3c-1.6,0.3-2.2,0.4-2.8,0.6c-0.2,0.1-0.5,0.4-0.5,0.7c0,0.3,0.2,0.7,0.4,0.8c3.1,2.1,8,2.8,8.9,1.4 c0.1-0.2,0.1-0.7,0-0.8C966.3,918,964,917,962.5,916.3z M1046.3,646.3c1.9-0.7,4.1-1.3,6.2-2.2c0.6-0.3,0.8-1.4,1.1-2.1 c-0.6-0.1-1.3-0.5-1.8-0.3c-2.1,0.9-4.1,1.9-6.2,3c-0.2,0.1-0.5,0.6-0.4,0.8C1045.3,645.7,1045.7,645.9,1046.3,646.3z M1079.1,1000.7c-1.2-0.1-1.5-0.2-1.9-0.2c-1.7-0.1-3.2,1.2-2.4,2c0.7,0.6,1.7,1.2,2.5,1.2c2-0.1,3.9-0.5,5.9-0.8 c0.2,0,0.5-0.5,0.5-0.7c0-0.3-0.3-0.7-0.5-0.8C1081.5,1001,1079.8,1000.8,1079.1,1000.7z M951.8,954.5c-1.1,0.4-2.9,1-4.6,1.7 c-0.2,0.1-0.3,0.6-0.3,0.9c0.1,0.3,0.4,0.7,0.6,0.7c2.8-0.5,5.6-1.1,8.4-1.6c0.2,0,0.3-0.5,0.5-0.7c-0.3-0.2-0.6-0.4-0.9-0.4 C954.5,954.8,953.6,954.7,951.8,954.5z M1102.8,1021.6c-1.4,1.8-2.7,2.8-2.5,3.4c0.3,1,1.5,1.8,2.5,2.3c0.2,0.1,1.7-1.1,1.7-1.7 C1104.5,1024.6,1103.7,1023.6,1102.8,1021.6z M1113.5,1001.9c1.4-1.3,2.7-2.3,3.7-3.6c0.4-0.5,0.2-1.6,0.3-2.4 c-0.6,0.3-1.3,0.4-1.7,0.8c-0.9,0.9-1.7,2-2.4,3.1C1113.1,1000.2,1113.4,1000.8,1113.5,1001.9z M1094.3,1032.9c0,0,0,0.1,0,0.1 c-0.6,0-1.3-0.1-1.9,0c-0.8,0.1-1.7,0.3-2.5,0.5c0.9,0.2,1.8,0.6,2.8,0.6c1.6,0.1,3.2,0.1,4.8,0.1c0.3,0,0.6-0.3,0.8-0.4 c-0.4-0.3-0.7-0.8-1.1-0.9C1096.3,1032.8,1095.3,1032.9,1094.3,1032.9z M1036.1,644.2c1.6-0.4,3.1-0.8,4.7-1.2 c0.2-0.1,0.6-0.7,0.6-0.7c-0.3-0.4-0.8-1-1.1-0.9c-1.6,0.4-3.1,0.9-4.6,1.4c-0.6,0.2-1.2,0.4-1.8,0.6 C1034.5,643.7,1035.3,643.9,1036.1,644.2z M973.3,896.3c0.8,0,1.4,0,2.1,0c0.3,0,0.6-0.2,0.9-0.3c-0.3-0.4-0.5-1-0.8-1.2 c-1.2-0.5-2.5-0.9-3.7-1.2c-0.4-0.1-0.9,0.6-1.4,1c0.4,0.5,0.7,1.1,1.2,1.4C972.1,896.2,972.8,896.2,973.3,896.3z M771.4,748.9 c0.1,0.8,0.2,1.8,0.6,2.7c0.2,0.5,0.9,0.8,1.4,1.3c0.3-0.5,0.8-1.1,0.7-1.6c-0.1-1-0.5-1.9-0.9-2.8c-0.3-0.6-0.7-1-1.1-1.6 C771.9,747.5,771.7,748.1,771.4,748.9z M815.8,822.8c-0.9-0.6-1.6-1.3-2.4-1.5c-0.8-0.2-1.7,0.1-2.6,0.2c0.6,0.7,1.1,1.4,1.8,1.9 c0.5,0.3,1.2,0.4,1.8,0.3C814.8,823.8,815.2,823.3,815.8,822.8z M981.1,907.9c-0.2-0.2-0.5-0.5-0.7-0.5c-1.5,0.4-3.1,0.9-4.6,1.4 c-0.3,0.1-0.5,0.4-0.6,0.7c0,0.2,0.3,0.5,0.6,0.6c2,0.5,3.8,0.3,5.2-1.3C981.2,908.6,981.1,908.2,981.1,907.9z M992.8,913 c-2.1-1-3.1-1.7-4.1-2c-0.5-0.1-1.1,0.3-1.7,0.5c0.7,0.8,1.3,1.8,2.1,2.3C989.7,914.1,990.7,913.5,992.8,913z M918,939.5 c-0.4,0.3-0.7,0.4-0.8,0.7c-0.1,0.2,0.1,0.8,0.2,0.8c1.2,0.3,2.4,0.7,3.7,0.9c0.4,0.1,0.8-0.4,1.3-0.6c-0.3-0.2-0.5-0.4-0.8-0.5 C920.3,940.2,919.1,939.8,918,939.5z M921.2,958.4c0.5-0.2,1.7-0.7,2.9-1.1c-1.2-0.2-2.4-0.4-3.7-0.6c-0.6-0.1-1.3-0.1-1.9,0.1 c-0.4,0.1-0.6,0.6-0.9,1c0.3,0.1,0.5,0.4,0.8,0.4C919.1,958.3,919.8,958.3,921.2,958.4z M1037,1008.3c0.7-0.7,1.5-1.6,2.3-2.5 c-0.6-0.3-1.3-0.9-1.7-0.8c-1.1,0.6-2,1.4-2.9,2.2C1035.2,1007.4,1035.8,1007.7,1037,1008.3z M1076.4,1018.6c-1.9-0.4-3-0.9-4-0.7 c-0.4,0-0.6,1.5-0.9,2.3c0.8,0.2,1.7,0.8,2.4,0.7C1074.6,1020.7,1075.1,1019.8,1076.4,1018.6z M928.6,882.3c0.3-0.1,1.2-0.4,2-0.7 c-0.9-0.3-1.7-0.6-2.6-0.8c-0.3-0.1-0.7-0.1-0.9,0c-0.6,0.2-1.1,0.5-1.6,0.7c0.5,0.3,1.1,0.6,1.6,0.8 C927.3,882.4,927.7,882.3,928.6,882.3z M964.2,905.2c-0.5,0.3-1,0.6-1.5,0.8c0.3,0.5,0.6,1.2,1,1.5c0.5,0.3,1.2,0.5,1.8,0.5 c0.6,0,1.1-0.4,1.6-0.7c-0.4-0.5-0.7-1-1.2-1.4C965.4,905.6,964.8,905.4,964.2,905.2z M1020.6,980.6c-0.8,0.2-2,0.6-3.1,0.9 c0.5,0.2,1.1,0.7,1.6,0.7c1.2-0.1,2.3-0.5,3.5-0.7C1022,981.3,1021.5,981,1020.6,980.6z M1139.9,987.2c-0.5,0.2-0.9,0.2-1,0.4 c-0.1,0.2-0.1,0.7,0,0.8c0.7,0.7,1.4,1.4,2.1,2c0.2,0.2,0.9,0.1,0.9,0.1c0.1-0.6,0.4-1.4,0.2-1.7 C1141.4,988.2,1140.5,987.7,1139.9,987.2z M1026,1008.7c-0.6,0.5-1,0.9-1.4,1.3c0.5,0.6,1.1,1.2,1.6,1.9c0.6-0.6,1.1-1.2,1.7-1.7 C1027.2,1009.6,1026.6,1009.1,1026,1008.7z"/> <path d="M987.2,752.4c-0.1,0.8-0.2,1.5-0.3,2.3c0,0,0.1-0.2,0.1-0.2c-8,0.9-15.6-1.8-23.4-2.4c-1-0.1-1.8-2.4-2.7-3.6 c1.4,0,2.7,0.1,4.1,0.1c0.5,0.3,1,0.9,1.6,1c1.9,0.4,3.9,1.9,5.8-0.2c-1.9-0.2-3.7-0.4-5.6-0.6c-0.6-0.1-1.3,0-1.9,0 c0.8-0.6,1.5-1.2,2.3-1.7c1-0.6,2.2-1.1,3.3-1.6c-0.9-0.1-1.9-0.3-2.8-0.4c-3-0.3-5.9-0.3-6.5,3.7c-2.7-1-5.5-2-8.2-2.9 c0.6-2.9-1.4-3-3.4-3.2c-3.4-0.3-7.6,0.3-6.8-5.4c0-0.1-1.2-0.3-1.8-0.6c-0.5-0.3-0.9-0.7-1.4-1.1c0.5-0.3,1.1-0.8,1.5-0.7 c2,0.2,3.9,0.5,5.8,0.8c1.9,0.3,3.9,0.7,5.8,0.9c0.6,0.1,1.2-0.3,1.8-0.5c-0.7-0.5-1.5-0.9-2.2-1.4c-1.1-0.7-2.2-1.4-3.2-2 l-0.1,0.2c6,0.6,12,1.3,18,1.9c2,2.4,4.6,2,7.2,1.7c0.4-0.1,0.7-0.9,1-1.4c-0.5-0.3-1-1-1.5-0.9c-2.3,0.2-4.5,0.5-6.8,0.8 c-7.4-4.1-21.7-7.8-32-8.2l0.2,0.2c-3.3-1.9-7-3.2-9.6-5.7c-2.6-2.5-2.2-2.8-6.7-4.6c-11.1-4.4-22.3-8.9-33.3-13.5 c-2.1-0.9-4-2.3-6-3.6c-0.3-0.2-0.2-1.1-0.2-1.6c0-0.1,0.6-0.3,0.8-0.2c1.3,0.4,2.5,0.8,3.7,1.3c20.6,9.4,41.9,17.2,63.5,23.9 c6,1.9,12.4,2.6,18.6,3.2c11.3,1,22.5,1.9,33.8,2.1c6.6,0.1,13.4-0.5,19.8-2c14-3.2,28.5-2.6,42.4-6.2c5.1-1.3,10.6-1.4,15.7-2.6 c20.4-4.9,40.9-9.2,60.9-15.4c7.6-2.4,15.5-3.9,23.2-5.9c6.1-1.6,12.2-3.5,18.3-5.1c5.8-1.5,11.6-3,17.5-4.1c3.7-0.7,5.9,2,4.9,5.4 c-0.5,1.9-1.5,3.7-2.5,5.4c-0.2,0.4-1.4,0.2-2.1,0.3c0.1-3.7-2.2-3.6-4.6-2.9c-6.7,2-13.6,3.6-20,6.2c-8.4,3.3-17.4,4.3-26,6.9 c-2.2,0.7-4.6,0.6-6.9,0.9c-4.6,0.6-9.3,0.6-13.8,1.8c-13.2,3.4-26.3,7.1-39.9,9.1c-3.9,0.6-7.8,1.9-11.7,2.7 c-11.1,2.1-22.2,4.4-33.4,6.1c-5,0.8-9.9,1.3-14.4,3.7c-1.4,0.7-3.2,0.7-4.8,1c-0.8,0.2-1.6,0.4-2.4,0.6c0.9,0.3,1.8,0.6,2.7,1 c0.8,0.5,1.6,1.2,2.3,1.8c0,0,0.2-0.1,0.2-0.1c-2,0.2-4,0.2-5.9,0.5c-2.2,0.4-4.4,1.7-6.1-1.2c-0.3-0.5-1.8-0.6-2.7-0.6 c-5.6-0.1-11.2-0.1-16.8,0c-1,0-2.7,0.2-2.8,0.6c-1.7,7.3-7.5,4.2-11.8,5c-0.5,0.1-0.9,0.6-1.4,0.9c0.6,0.2,1.2,0.7,1.8,0.7 c2.3,0.2,4.6,0.1,6.9,0.5c2.2,0.4,4.5,1,6.5,2c0.6,0.3,1,2.9,0.7,3.1c-4,2.7-0.5,2,1,2.5c0.8,0.2,1.5,0.9,2.2,1.4 c-0.6,0.2-1.2,0.6-1.8,0.6c-2.6,0.1-5.3,0.1-7.9,0.1c-1.8-0.7-3.5-1.5-5.4-1.9c-0.6-0.1-1.5,0.7-2.2,1.1c0.6,0.2,1.2,0.7,1.8,0.7 C983.2,752.5,985.2,752.4,987.2,752.4z M952.5,738.5c-1.1,0.1-1.7,0.2-2.3,0.3c-0.3,0.1-0.6,0.4-0.6,0.6c0,0.2,0.3,0.5,0.6,0.6 c0.6,0.1,1.3,0.3,1.9,0.2c0.9-0.2,1.7-0.5,2.6-0.8C953.9,739.1,953,738.8,952.5,738.5z"/> <path d="M857.7,700.7c-1.3-1-2.7-2-4-2.9c-2.4-1.7-6.8-2.1-4.8-6.9c-3-2.5-4.5-6.5-8.6-8.1c-3-1.2-5.9-2.9-6.7-6.8 c-0.2-1.3-2.1-2.4-3.4-3.3c-3.3-2.3-6.6-4.5-9.9-6.7c-7.5-5.1-14-11.1-19.9-18c-4.2-5-9.8-8.9-14.8-13.2c-2.8-2.4-5.6-4.7-8.3-7.1 c-0.4-0.4-0.1-1.6-0.2-2.5c0.9,0,2.2-0.3,2.8,0.1c4.5,3.4,9.2,6.6,13.3,10.5c7.1,6.5,13.5,13.7,20.7,20.1c5.2,4.6,11,8.6,16.9,12.3 c8.9,5.8,18.1,11.1,27.2,16.6c1.1,0.7,2.7,1.1,3.4,2c1.3,1.8,2.5,3.9,3.1,6c0.7,2.5-2.5,2.9-3.1,4.5c-0.5,1.3,2.8,3.4-0.6,4.7 C859.7,701.5,858.7,701.1,857.7,700.7z"/> <path d="M765.4,649.4c-8.5-0.9-14.8-2.6-19.9-7.3c-6.2-5.7-6.2-11.1-0.3-17c3.2-3.2,6.7-5.9,11.4-4.2c5.3,2,10.7,4.6,12.3,10.6 c1,3.5,1.9,6.9,4,9.9c0.9,1.3,1.7,3.3,1.2,4.6c-0.3,0.9-2.7,1-4.2,1.6C767.9,648.3,765.9,649.2,765.4,649.4z M758.9,631.1 c0-2.5-1-4.5-3.4-5.5c-2.4-1-4.6-0.3-6.2,1.6c-1.3,1.5-2.6,3-3.6,4.7c-1.3,2.3-0.5,5.3,1.6,7.1c2,1.8,5.1,2,7.3,0.5 C757.6,637.5,759,634.7,758.9,631.1z"/> <path d="M1086.7,741.7c-0.5,1.3-0.7,2.5-1.3,3c-1.4,1.3-3,2.6-4.7,3.5c-8.5,4.4-17.1,8.6-25.7,12.8c-1.1,0.5-2.6,0.6-3.8,0.3 c-2.6-0.7-3.8-4.5-2.1-6.5c1-1.3,2.3-2.5,3.7-3.2c8.2-4.2,16.5-8.4,24.8-12.4c1.6-0.8,3.9-0.9,5.7-0.5 C1084.5,738.9,1085.5,740.6,1086.7,741.7z"/> <path d="M1165,753.2c-0.4,0.9-0.5,2-1.1,2.7c-1.1,1.2-2.4,2.2-3.8,3.1c-6.5,4-13,7.9-19.5,11.8c-2,1.2-4.2,1.8-6.6,0.5 c-2.3-1.3-3.1-4.1-1.2-5.7c2.3-1.9,4.8-3.4,7.3-5.1c5.5-3.7,10.9-7.5,16.5-11c2.9-1.8,5.2-1.2,7,1 C1164.3,751.2,1164.6,752.2,1165,753.2z"/> <path d="M1090.8,785.8c0.6,0.5,2.2,1.2,3.1,2.5c2.1,2.9,3.7,6.3,5.9,9.2c3.4,4.5,5,10.1,10,13.4c1.7,1.1,1.8,3.5,0.7,5.4 c-1.2,1.9-4.1,2.7-6.1,1.5c-1.4-0.9-3.1-1.9-3.7-3.2c-2.9-6.9-8.7-11.6-12.6-17.8c-1.1-1.7-2.3-3.3-3-5.1 C1084.1,788.7,1086.9,785.4,1090.8,785.8z"/> <path d="M1098.7,764.5c-1-1.1-2.3-2.1-2.9-3.5c-0.4-1,0-2.6,0.5-3.7c0.4-0.8,1.4-1.4,2.3-1.8c8.4-3.7,16.9-7.5,25.4-11 c2-0.8,4.4-0.7,6.7-0.7c0.7,0,1.7,1.2,1.9,2c0.2,0.8-0.1,2.1-0.7,2.7c-0.9,0.9-2.1,1.5-3.3,2.1c-8.9,4.4-17.7,8.7-26.6,13 C1101.1,764.1,1100.1,764.2,1098.7,764.5z"/> <path d="M1046.6,778.8c0.8,0.5,2.7,1,3.4,2.2c4,7,9.2,12.9,14.8,18.6c1.9,1.9,1.8,3.9,0.3,5.3c-2.2,2.1-5.5,2.6-7.1,0.7 c-5.5-6.6-11.1-13.2-16.2-20C1039.6,782.6,1042.1,778.7,1046.6,778.8z"/> <path d="M1145.1,828.4c-2,0.3-3.9,0.9-5.9,0.8c-3-0.2-4.1-2.8-2.8-5.8c2.5-5.7,1.7-7.5-4.4-9.8c-0.9-0.3-2-0.7-2.4-1.4 c-1.9-3.8-3.7-7.7-5.4-11.7c-1-2.4-0.3-4.5,1.7-6.2c1.7-1.4,4.2-1.1,5,0.8c1.5,3.3,2.6,6.8,4.2,10.1c2.3,4.8,4.7,9.5,7.3,14.1 c1.6,2.9,3.6,5.6,2.5,9.3L1145.1,828.4z"/> <path d="M1171.9,724.9c-5.8,0.1-8.7-2.2-9.2-7.1c-0.4-4.6,1.7-7.5,6.3-8.5c1.6-0.3,2.7,1.2,2.2,3.1c-0.2,0.8-0.6,1.6-0.8,2.4 c0.6-0.1,1.3,0,1.8-0.2c0.9-0.4,1.7-1,2.6-1.4c3-1.4,3.7-1.2,5.6,1.5c1.8,2.7,1.7,3.9-0.3,6.1 C1177.9,723.3,1175.2,725,1171.9,724.9z"/> <path d="M1024.5,775.7c-3-0.5-5.7-1.5-6.9-4.7c-1.1-2.7-0.3-5.2,1.4-7.4c2-2.4,4.6-3.7,7.8-2.8c0.3,0.1,0.6,0.2,0.9,0.3 c4.8,1.5,6.9,3.6,6.5,6.2C1033.5,772,1028.8,776,1024.5,775.7z"/> <path d="M1146.3,794.8c-0.4-0.1-1.1-0.1-1.7-0.3c-2.3-0.7-4.4-1.7-4.6-4.5c-0.3-3.2,1.5-6.4,4-7.3c0.9-0.4,1.9-0.6,2.9-0.7 c2.7-0.3,5.3,0,7.1,2.4c1.4,1.9,1.1,5-0.5,7.5C1151.8,794.5,1149.3,795.2,1146.3,794.8z"/> <path d="M1073.7,770.5c3,0.1,5.5,2.7,5.6,5.8c0.1,4.1-3.4,7.7-7.4,7.6c-3.8,0-6.8-2.6-6.8-5.7 C1065.1,773.9,1069.1,770.4,1073.7,770.5z"/> <path d="M1123.1,786.1c-0.4,0.6-0.8,2.3-1.7,2.7c-2.6,1.2-5.5,2.3-8.3,2.7c-2.7,0.4-4.8-3.1-3.6-5.6c0.7-1.5,1.8-2.7,2.5-4.2 c1.2-2.6,3.3-3.2,5.8-2.6C1120.7,779.8,1123.1,782.8,1123.1,786.1z"/> <path d="M966.2,761.6c11.7,2.2,23.5,4.4,35.2,6.7c0.5,0.1,0.9,0.8,1.4,1.3c-0.5,0.3-1.1,0.8-1.6,0.8c-2.3-0.1-4.6-0.3-6.9-0.7 c-11.2-1.7-22.3-3.5-33.5-5.4c-0.6-0.1-1-0.6-1.6-0.9c0.6-0.5,1.2-1.5,1.9-1.5c1.6-0.1,3.3,0.2,5,0.4 C966.1,762,966.1,761.8,966.2,761.6z"/> <path d="M967.6,768.6c6.6,1,15.4,2.2,24.2,3.7c3.6,0.6,7.3,1.2,10.4,3.6c-3.7,1.4-7.1-0.6-10.7-1.1c-9.8-1.4-19.6-2.8-29.5-4.3 c-0.9-0.1-1.7-0.7-2.6-1.1c0.9-0.3,1.8-0.6,2.8-0.8C963.3,768.5,964.3,768.6,967.6,768.6z"/> <path d="M857.7,700.7c1,0.4,1.9,0.9,2.9,1.3c1.8,2.7,1.6,6.2,4.2,8.7c1.4,1.3,1.4,4.3,1.7,6.5c0.1,0.7-0.5,2-1.2,2.4 c-1.4,0.7-2.4-0.2-3.1-1.6c-0.7-1.4-1.1-3.3-2.2-4.2c-3.8-3.1-2.3-8.4-5.4-11.7C855.7,701.6,856.7,701.2,857.7,700.7z"/> <path d="M973.2,756.6c5.7,0.8,11.5,1.5,17.4,2.4c0.8,0.1,2.2,0.9,2.2,1.5c0.1,2.1-1.6,1.3-2.7,1.2c-3.9-0.4-7.8-0.8-11.7-1.3 c-2.6-0.4-5.1-0.8-7.7-1.4c-0.5-0.1-0.8-0.9-1.2-1.4c0.5-0.3,1-0.6,1.6-0.8C971.7,756.6,972.4,756.7,973.2,756.6z"/> <path d="M1001,784.5c-6.6-0.1-13.1-0.1-19.7-0.4c-1.9-0.1-3.7-1.1-5.5-1.7c-0.2-0.1-0.4-0.6-0.4-0.8c0-0.2,0.4-0.5,0.7-0.6 c0.3-0.1,0.6-0.3,0.9-0.2c7.2,0.8,14.3,1.5,21.5,2.4c0.9,0.1,1.6,1,2.4,1.6C1000.9,784.6,1001,784.5,1001,784.5z"/> <path d="M1015.1,800.6c2.3,2.6,5.4,1.6,8.2,2c1.9,0.3,3.8,0.6,5.7,1c0.2,0,0.4,0.6,0.4,0.8c-0.2,0.5-0.6,1.4-0.9,1.3 c-4.5-0.4-9-0.8-13.5-1.3c-1.7-0.2-4.3,0.4-4-2.5c0.1-0.6,2.8-0.8,4.3-1.2C1015.3,800.7,1015.1,800.6,1015.1,800.6z"/> <path d="M991,778.5c-7.3-0.1-14.6-0.2-21.9-0.4c-0.6,0-1.2-1.1-1.9-1.7c0.5-0.4,1-1.1,1.5-1.1c6.9,0.6,13.8,1.3,20.7,2.1 c0.5,0.1,1,0.8,1.5,1.2L991,778.5z"/> <path d="M990,790.6c-2.6-0.2-5.3-0.3-7.9-0.6c-0.5-0.1-0.9-0.8-1.3-1.2c0.6-0.5,1.3-1.5,1.9-1.5c4.9,0.4,9.9,0.9,14.8,1.6 c0.8,0.1,1.5,1,2.2,1.5c-0.9,0.2-1.8,0.5-2.8,0.5c-2.3-0.1-4.6-0.3-6.9-0.5C990,790.4,990,790.5,990,790.6z"/> <path d="M1188.9,718.5c-0.3-0.1-0.6,0-0.9-0.2c-0.2-0.2-0.6-0.6-0.5-0.8c1.1-3.8,1.4-7.9,4.7-10.7c0.4-0.3,1.4-0.5,1.7-0.2 c0.4,0.3,0.8,1.3,0.6,1.7c-1.5,3.3-3.2,6.5-4.8,9.8C1189.6,718.3,1189.1,718.3,1188.9,718.5z"/> <path d="M949.1,732.4c-6.4,1-12.1-1.6-18-3.7c-0.7-0.2-1.2-1-1.8-1.6c0.9-0.2,1.8-0.5,2.8-0.6c1-0.1,1.9,0,2.9,0l-0.2-0.2 c1.7,0.8,3.5,1.6,5.2,2.3c3,1.1,6.6,1,8.8,3.9L949.1,732.4z"/> <path d="M1019.5,794.4c-2.4-0.6-5.5-1.3-8.6-2.2c-0.5-0.1-0.9-0.8-1.4-1.1c0.6-0.2,1.2-0.6,1.8-0.5c3.5,0.4,7,0.9,10.5,1.5 c0.4,0.1,0.8,0.9,1.1,1.4c-0.5,0.3-1.1,0.6-1.6,0.9C1021,794.5,1020.7,794.4,1019.5,794.4z"/> <path d="M1049.2,824.2c3.6,0.3,6,0.2,8.2,0.7c1.3,0.3,2.5,1.4,3.7,2.1c-1.2-0.1-2.4-0.1-3.6-0.2c-2.3-0.1-4.6-0.1-6.8-0.4 c-2.3-0.2-4.9,0.9-6.7-1.4C1046.1,824.7,1048.3,824.4,1049.2,824.2z"/> <path d="M1033,819.6c-3.2-2-7.7,0.6-10.3-3.4c3.5,0.1,7,0,10.5,0.3c0.7,0,1.4,1,2.1,1.5C1034.6,818.4,1033.9,819,1033,819.6z"/> <path d="M1025,736.5c1.2,0.6,2.6,0.9,3.4,1.8c0.7,0.9,1,2.6,0.6,3.5c-0.5,1-2,1.7-3.2,2c-1.9,0.4-1.5-1.6-2.2-2.5 c-2.1-2.6,1.4-3.2,1.7-4.9C1025.2,736.4,1025,736.5,1025,736.5z"/> <path d="M1186.7,726.5c-1.2,2.4-2.7,5.3-4.2,8.1c-0.2,0.3-1,0.3-1.5,0.3c-0.1,0-0.4-0.6-0.3-0.8c1.3-2.9,2.7-5.9,4.1-8.7 c0.1-0.3,0.9-0.3,1.4-0.4C1186.3,725,1186.4,725.6,1186.7,726.5z"/> <path d="M990.9,778.6c5,0.2,9.9,0.5,14.9,0.8c0.5,0,0.9,0.9,1.3,1.4c0,0-0.5,0.7-0.6,0.6c-5-1.9-10.8,0.6-15.4-3L990.9,778.6z"/> <path d="M996,794.7c0.8,0.1,2.4,0.3,4,0.7c0.5,0.1,1,0.9,1.1,1.4c0,0.3-0.8,1.1-1.2,1c-2.2-0.4-4.4-0.8-6.6-1.4 c-0.6-0.1-1.1-0.6-1.6-0.9c0.6-0.3,1.1-0.6,1.7-0.8C993.9,794.6,994.5,794.7,996,794.7z"/> <path d="M986.8,754.6c2.6,0.1,5.3,0,7.9,0.3c2.9,0.3,5.2,2.5,4.2,2.7c-1.5,0.3-3.1-0.1-4.6-0.5c-2.5-0.7-4.9-1.8-7.4-2.7 C987,754.5,986.8,754.6,986.8,754.6z"/> <path d="M1175,747.6c-0.6-1.1-1.2-1.9-1-2.2c0.6-1.1,1.4-2.1,2.3-3c0.3-0.3,1.3-0.4,1.6-0.1c0.3,0.3,0.5,1.3,0.3,1.7 C1177.2,745.2,1176.2,746.3,1175,747.6z"/> <path d="M1015.3,800.7c-0.8-0.5-1.6-1.1-2.3-1.6c-1-0.8-3.4,0.4-3.1-1.9c0-0.3,3-0.5,4.4-0.2c2.2,0.5,1.8,2.1,0.8,3.7L1015.3,800.7 z"/> <path d="M1075.5,842.7c-0.7-0.2-1.9-0.5-3.1-0.9c-0.2-0.1-0.3-0.6-0.3-0.9c0-0.2,0.3-0.7,0.4-0.7c1.8,0.1,3.7,0.2,5.5,0.4 c0.3,0,0.5,0.8,0.6,1.3c0,0.1-0.4,0.4-0.7,0.5C1077.3,842.6,1076.7,842.6,1075.5,842.7z"/> <path d="M1033.3,744.6c0.9,0.4,1.5,0.7,2,1c-0.6,0.6-1.1,1.4-1.8,1.8c-0.3,0.2-1-0.5-1.6-0.8C1032.4,746,1032.9,745.3,1033.3,744.6 z"/> <path d="M1000.9,784.6c0.6,0,1.3-0.1,1.9-0.1c1.9,0.2,3.9,0.2,5.6,0.9c1,0.4-2.5,1.2-5.9,0.2c-0.6-0.2-1-0.7-1.5-1.1L1000.9,784.6z "/> <path d="M1067.1,834.4c-0.3-0.3-0.9-0.7-1.4-1.2c0.6-0.2,1.1-0.5,1.7-0.6c0.6-0.1,1.3-0.1,1.9,0c0.6,0.1,1.1,0.5,1.6,0.8 c-0.5,0.3-0.9,0.8-1.4,1C1068.8,834.5,1068.1,834.4,1067.1,834.4z"/> <path d="M975.9,525.1c-0.3,0.2-0.5,0.6-0.8,0.6c-2.4,0.4-5.1,0.3-7.2,1.4c-2,1-3.2,3.3-4.9,4.9c-7.9,7.1-15.8,14.2-23.7,21.2 c-1.4,1.3-3.3,2.1-5.1,3c-0.3,0.2-1.1-0.5-1.6-0.8c-0.2-0.1-0.1-0.7,0-0.9c2-2.2,3.8-4.7,6.1-6.4c11.7-8.3,21.8-18.4,31.9-28.4 c8.1-7.9,15.2-16.7,20-27.1c0.4-0.9,1.2-1.5,1.9-2.2c0.2-0.2,0.7-0.3,0.9-0.2c0.5,0.3,1.4,0.8,1.3,1.1c-0.4,3.2-0.9,6.4-1.5,9.6 c-0.3,1.4-2.4,2.8-0.3,4.1c0.4,0.3,2-1.3,2.9-2.1c1.5-1.3,3-1.2,4.4,0c1.5,1.3,2.9,2.7,4.2,4.2c1,1.1,1.4,2.4-0.8,2.8 c-6.1,1-11.4,5.1-18.1,4c-2.1-0.3-5.2,1.7-6.7,3.5c-1.3,1.5-1,4.4-1.4,6.7C977.1,524.5,976.5,524.8,975.9,525.1z"/> <path d="M859.2,618.4c-1.6,0.4-3.2,0.8-4.8,1.1c-0.5,0.1-1.1-0.3-1.6-0.6c0,0,0.2-0.6,0.3-0.9c0.7-2,4.7-1.4,3.8-4.7 c-2.1,0.8-4.3,1.4-6.3,2.5c-4,2.2-7.9,3.4-12.1,0.5c-2.3-1.6-4.8-1.4-7.6-0.8c-3.8,0.8-7.8,0.8-11.8,1c-0.6,0-1.2-0.4-1.8-0.7 c0.6-0.5,1.2-1.3,1.9-1.4c9.3-1.3,18-4.1,26.3-8.5c5.2-2.8,11.1-4.3,16.7-6.2c5.2-1.7,5.2-1.6,4.3,4.5c-0.1,0.9,0,2,0.5,2.7 c0.6,1.1,2.5,2.4,2.4,2.7c-0.8,1.3-2.1,2.4-3.3,3.4c-2.3,1.8-4.7,3.6-7.1,5.3C859,618.5,859.2,618.4,859.2,618.4z"/> <path d="M1129.8,641c-1.4-0.1-2.5-0.1-3.4-0.3c-2.4-0.5-4.4-1.6-4.9-4.3c-0.5-2.7,1.2-4.3,3.3-5.6c4-2.4,7.1-2.3,10,0.4 c3,2.8,2.2,7.5-1.5,8.9C1132,640.6,1130.7,640.8,1129.8,641z"/> <path d="M1099.5,649.3c-0.6,1.5-0.8,2.9-1.5,3.9c-2.4,3.3-6.7,4.6-10.6,3.4c-3.1-0.9-4.4-4.2-3-7.1c2-4,8-6,11.9-3.8 C1097.6,646.4,1098.4,648,1099.5,649.3z"/> <path d="M1165,660.9c-1.1-0.4-3-0.9-4.6-2c-3.9-2.6-3.7-6.7,0.5-8.5c2.3-1,5.1-1.6,7.6-1.4c3.8,0.3,5.4,4.1,3.6,7.4 C1170.8,659.1,1168.9,660.7,1165,660.9z"/> <path d="M901.7,586.1c-3.1,1.1-6.2,2.2-9.3,3.3c-0.5,0.2-1.4-0.1-1.7-0.5c-0.2-0.3,0-1.4,0.3-1.6c4.4-2.4,8.1-5.5,10.9-9.8 c1.6-2.5,4.2-3.1,7-2.3c0.9,0.2,1.9,0.9,2.2,1.6c0.3,0.7-0.1,1.9-0.7,2.5c-1.1,1.2-2.4,2.2-3.7,3.3 C905.1,583.8,903.4,584.9,901.7,586.1z"/> <path d="M1129,674.6c-4.9,0.2-7.2-3.3-5.8-6.2c1.6-3.3,6.3-6,9.9-5.2c2,0.4,3.9,1.6,4,3.8c0,1.5-0.7,3.5-1.7,4.3 C1133,673,1130.2,674,1129,674.6z"/> <path d="M1084.8,681.9c0.8,0.5,2.5,1.1,3.3,2.3c1.3,1.9,0.2,3.9-1.4,5.2c-2.9,2.2-6.3,3.5-10.1,2.9c-2.5-0.4-3.7-3.1-2.4-5.3 C1076.2,683.1,1079.9,682,1084.8,681.9z"/> <path d="M872,637.3c-4.3-1-8.5-1.9-12.5-3.1c-0.7-0.2-1.5-1.6-1.4-2.3c0.3-2.8,1.9-5.3,4.7-5.8c1.7-0.3,4.1,0.4,5.3,1.5 c2.2,2,3.8,4.6,5.5,7c0.3,0.4,0.2,1.4-0.1,1.8C873,636.9,872.2,637.1,872,637.3z"/> <path d="M1048.2,672.4c-0.8-0.4-2.3-0.9-3.6-1.7c-1.7-1.1-1.8-3.8-0.4-5.2c2.7-2.8,5.9-4,9.8-3.1c1.9,0.4,3.2,2.7,2.5,4.6 C1055.4,670.2,1052.6,672.2,1048.2,672.4z"/> <path d="M1011.9,676.1c0.4,0.1,1.4,0.2,2.4,0.5c1.9,0.6,2.9,3,2.1,4.9c-2.1,4.8-10.2,5.8-13.4,1.4c-0.5-0.7-0.2-2.7,0.4-3.5 C1005.3,676.8,1008.2,676,1011.9,676.1z"/> <path d="M1042.7,698.1c-0.1,1.2,0,1.9-0.3,2.5c-1.4,2.6-3.9,3.5-6.7,3.5c-2.4,0-4.7-0.8-5.9-3.1c-0.4-0.8-0.3-2.1,0.1-2.8 c2.1-3.3,7.2-4.6,10.6-2.6C1041.5,696.1,1042.1,697.4,1042.7,698.1z"/> <path d="M981.7,692.5c0,0.6,0.1,1,0,1.3c-1,2.7-3.1,4.2-5.7,4.8c-2.5,0.6-4.6-0.3-5.9-2.5c-0.6-1-0.8-2.7-0.3-3.6 c1.9-3.1,7.5-4.1,10.4-2C980.9,690.9,981.3,691.9,981.7,692.5z"/> <path d="M859,618.5c1.1,0.4,3.3,0.5,2.3,2.2c-1.5,2.5-3.6,4.7-5.7,6.7c-0.8,0.7-2.4,0.6-3.7,0.6c-0.5,0-1.2-0.7-1.3-1.2 c-0.2-0.5-0.1-1.4,0.3-1.8c2.5-2.6,6.9-2.8,8.3-6.7L859,618.5z"/> <path d="M901.7,586.1c1.7-1.2,3.4-2.3,5.1-3.5c3.6,0.2,4.9,2.5,5.4,5.6c0.2,1.2-1.6,2.6-2.6,1.9c-1.2-0.8-2-2.2-3.2-2.7 c-1-0.4-2.4,0.2-3.7,0.1C902.3,587.5,902,586.6,901.7,586.1z"/> <path d="M975.9,525.1c0.6-0.3,1.2-0.7,1.8-1c0.8,0.3,1.6,0.5,2.4,0.8c-0.4,0.8-0.6,2-1.3,2.4c-0.6,0.3-1.8,0-2.5-0.4 C975.9,526.7,976,525.8,975.9,525.1z"/> <path d="M900.9,972.6c5-0.5,9.9-0.1,14.7,1.5c10.7,3.6,21.7,4.7,33,3c1.4-0.2,3.5,0.5,4.4,1.5c4.6,5.3,10.2,8.2,17.2,8.5 c0.4,0,1.1,0.8,1.1,1.3c0,0.3-0.7,1.1-1.2,1.1c-1.3,0-2.6-0.1-3.9-0.4c-20.6-4.9-41.2-9.9-61.7-14.9c-1.2-0.3-2.3-1.2-3.4-1.8 C901,972.5,900.9,972.6,900.9,972.6z"/> <path d="M858.9,962.4c1.5,2.9,3.2,5.7,4.5,8.7c0.9,1.9,0.9,4.2-1,5.3c-1.5,0.9-3.8,1.5-5.4,1c-2.1-0.6-4-2.2-5.6-3.8 c-4.1-4.2-2.3-9.4,3.6-10.9c1.2-0.3,2.6-0.1,3.9-0.2L858.9,962.4z"/> <path d="M932.5,984.6c4.8,0.3,9.4,4.5,10.3,9.2c0.5,2.6-1.9,5.4-4.6,5.2c-4.4-0.4-8.2-2.5-11.2-5.7c-1.1-1.2-1.3-3.7-1-5.5 C926.4,985.5,929.4,984.3,932.5,984.6z M931.2,987c-0.9,0.6-2.1,1.1-2.2,1.7c-0.3,2,1.4,1.7,2.5,1.6c0.7-0.1,1.2-1,1.8-1.5 C932.6,988.2,932,987.6,931.2,987z"/> <path d="M806.9,950.6c3-2.9,6.1-2.3,8.6,0.3c1.5,1.6,2.5,3.8,3.3,5.9c1.1,3.1-1.3,5.9-4.6,5.9c-3.8-0.1-7-1.7-9.6-4.4 c-2.1-2.2-1.4-4.3,2.4-7.9c0.1,1-0.1,2.2,0.5,2.8c0.7,0.8,1.9,1.3,3,1.7c0.3,0.1,1.3-1,1.3-1.1c-0.6-1-1.2-2.1-2.1-2.7 C809,950.6,807.9,950.7,806.9,950.6z"/> <path d="M875.5,888.4c4-0.1,6,1.2,7,4c0.7,2.2,1.5,4.3,1.9,6.6c0.5,2.8-2.1,5.2-4.8,4.6c-4.5-0.9-9.7-6.6-9.7-11.1 c0-1,1-2.5,1.9-3.1C873.2,888.7,874.9,888.6,875.5,888.4z M877,890.2c-1.3,0.9-2.5,1.4-2.5,2c-0.3,2,1.4,2.8,3,3 c0.6,0.1,1.4-0.9,2.1-1.4C878.8,892.7,878,891.6,877,890.2z"/> <path d="M808.2,911.7c-1.6,0.9-3.2,2.4-4.7,2.4c-3.9-0.1-8.8-4.9-9.7-8.7c-0.7-3.1,3.4-7.4,6.8-6.5c2,0.5,4.4,1.9,5.4,3.6 C807.3,905,807.4,908.2,808.2,911.7z M802.5,904.5c-1.3-0.7-1.9-1.3-2.6-1.5c-0.4-0.1-1,0.5-1.5,0.8c0.5,0.6,0.9,1.7,1.5,1.8 C800.4,905.8,801.2,905.1,802.5,904.5z"/> <path d="M896.3,976.8c3,0.7,5.9,1.9,7.4,5.3c1.1,2.6-0.4,5.7-3.2,5.9c-2.2,0.1-4.5-0.3-6.6-0.9c-2.3-0.6-4.2-2.1-3.9-4.9 C890.2,979.4,893.4,976.7,896.3,976.8z"/> <path d="M775.8,944.9c-0.9-0.4-3.1-1.1-4.9-2.3c-0.5-0.3-0.4-2.6,0.2-3.3c0.8-0.9,2.4-0.9,3.5-1.5c2.2-1.2,2.2-2.4,0.4-4.7 c-0.5-0.6-1-1.3-1.4-1.9c0.9-0.1,1.9-0.5,2.8-0.3c3.3,0.7,4.7,3.3,5.9,6.1C784.4,941.6,782.2,944.8,775.8,944.9z"/> <path d="M860.9,930.6c5-2.4,7-2.1,8.6,1.6c0.9,2.1,1.4,4.3,1.6,6.6c0.2,2.3-2.5,4.2-4.7,3.6c-3.5-1-7-5.7-6.9-9.6 c0-0.8,1.1-1.5,1.6-2.3c0.5,2.5,0.4,5.4,4.2,5.1c0.2,0,0.6-0.4,0.7-0.7C866.3,931,863.3,931.2,860.9,930.6z"/> <path d="M951,972.5c-4.2-0.4-8.4-0.7-12.5-1.1c-3.9-0.3-7.7-0.7-11.6-1l0.2,0.1c1.1-0.6,2.1-1.6,3.2-1.9c1.9-0.4,4,0.1,5.7-0.5 c1.6-0.6,2.8-2.3,4.3-3.3c0.7-0.5,1.9-0.3,2.8-0.4l-0.2-0.2c0.2,0.9,0.9,2,0.6,2.7c-1,2.6,0.1,3.1,2.4,3.4c1.7,0.2,3.3,1.4,4.9,2.2 C950.9,972.6,951,972.5,951,972.5z"/> <path d="M965,936.6c3.5,0.5,7,0.9,10.5,1.4c0.5,0.1,0.9,0.8,1.4,1.3c-0.4,0.4-0.8,1-1.2,1.2c-2.2,0.7-4.3,1.5-6.6,1.7 c-1.5,0.1-3.7-0.3-4.3-1.2c-0.6-1,0.2-3,0.4-4.5C965.2,936.4,965,936.6,965,936.6z"/> <path d="M959.1,972.6c-1.1-0.7-2.2-1.3-3.2-2.1c-0.4-0.3-0.5-0.9-0.7-1.4c0,0,0.6-0.5,0.8-0.4c2.2,0.5,4.3,1.1,6.4,1.8 c0.2,0.1,0.4,1.2,0.2,1.4c-0.5,0.3-1.2,0.5-1.8,0.5c-0.6,0.1-1.3,0-1.9,0.1C958.9,972.4,959.1,972.6,959.1,972.6z"/> <path d="M914.2,952.7c-0.7-0.1-1.4,0-2-0.2c-0.4-0.2-0.7-0.7-0.9-1.2c0-0.1,0.4-0.6,0.7-0.6c1.6-0.1,3.2-0.2,4.8-0.1 c0.6,0,1.1,0.5,1.7,0.8c-0.5,0.3-0.9,0.9-1.5,1C916.1,952.6,915.1,952.6,914.2,952.7z"/> <path d="M920.5,968.5c-0.9-0.4-2-0.9-3.1-1.5c-0.2-0.1-0.4-0.6-0.4-0.8c0-0.2,0.4-0.7,0.6-0.6c1.3,0.2,2.6,0.5,3.8,0.9 c0.5,0.2,0.9,0.8,1.3,1.2C922.1,967.9,921.5,968.1,920.5,968.5z"/> <path d="M926.8,970.4c0.6,0.7,1.4,1.4,1.8,2.2c0.2,0.3-0.1,1.4-0.3,1.5c-1.6,0.4-3.4,0.6-3.9-1.4c-0.1-0.5,1.6-1.4,2.6-2.2 C927,970.5,926.8,970.4,926.8,970.4z"/> <path d="M950.9,972.6c2.7,0,5.5,0,8.2-0.1l-0.2-0.2c0.8,3.8,0.7,4-1.9,3c-2.1-0.8-4-1.9-6-2.9L950.9,972.6z"/> <path d="M844.6,769.2c0.1-0.6,0-1.6,0.4-1.9c4.1-2.6,0.9-3.4-1-4.3c-2.4-1.2-1.9-3.2-1.8-5.1c0.2-2.1,4.5-1,3.3-3.5 c-0.5-1.1-3.6-0.9-5.4-1.4c-0.5-0.2-1.4-1.1-1.3-1.3c1.1-2.3,0.2-3.7-2-4.6c-1.8-0.8-3.7-1.5-5.3-2.7c-1.4-1.1-0.5-3.2-1.7-5 c-3.3-5.2-7.5-9.1-12.8-12c-0.6-0.3-1.3-0.5-1.7-1c-0.4-0.7-0.5-1.6-0.8-2.4c0.9,0.1,2-0.2,2.7,0.2c8.4,5.4,16.5,11.2,25,16.3 c5.7,3.5,9.8,7.3,9.3,14.7c-0.2,2.9,0.5,5.8,1.1,8.7c0.3,1.5,1.2,2.9,2,4.3c1.1,2,1.5,3.6-1.1,4.9c-0.5,0.2-0.8,1.6-0.6,2.3 c0.5,1.7,0.2,2.8-1.7,2.3C846,776.1,844.8,774.5,844.6,769.2z"/> <path d="M849.4,821.5c0.7,0.4,1.9,0.7,2.2,1.4c0.5,1.1,0.4,2.4,0.3,3.6c0,0.3-1.1,0.8-1.6,0.7c-2-0.3-3.3-2.7-2.5-4.5 C848,822.3,848.7,822,849.4,821.5z"/> <path d="M854.6,782.9c-0.5,1-0.9,2-1,2c-1.4-0.5-2.9-1-4.2-1.8c-0.3-0.2-0.5-1.3-0.3-1.6c0.3-0.4,1.2-0.9,1.6-0.7 C852.1,781.3,853.3,782.2,854.6,782.9z"/> <path d="M1094.1,948.4c-0.3,1.4-0.7,2.8-1,4.2c-2.1,0.7-4.1,1.3-6.2,2C1088.4,951.5,1090.9,949.6,1094.1,948.4z"/> <path d="M1070.9,990.6c3.9,0,7.9-0.1,11.8,0c0.6,0,1.1,0.5,1.7,0.8c-0.7,0.4-1.4,1.2-2.1,1.2c-3.8-0.2-8,0.9-11.3-2.1L1070.9,990.6 z"/> <path d="M1078.9,984.6c0.6-3.5,3.2-4.1,6.2-4.2c0.7,2.2,0.5,3.8-2.3,3.9C1081.5,984.4,1080.2,984.5,1078.9,984.6z"/> </g> </svg>