<svg xmlns="http://www.w3.org/2000/svg"><svg style="position: absolute; top: 25px; left: 300px;" width="120px" height="150px"> <polygon points="60,0 120,50 120,100 60,150 0,100 0,50" style="fill:Limegreen;"/> <clipPath> <polygon points="60,0 120,50 120,100 60,150 0,100 0,50"/> </clipPath> <image href="ovce.svg" width="80%" height="80%" x="10%" y="10%"/> <circle cx="60" cy="75" r="15" fill="white" stroke="black" stroke-width="2"/> <text x="60" y="75" text-anchor="middle" alignment-baseline="middle" fill="black" font-weight="bold" font-size="20">9</text> </svg><svg style="position: absolute; top: 325px; left: 480px;" width="120px" height="150px"> <polygon points="60,0 120,50 120,100 60,150 0,100 0,50" style="fill:Sienna;"/> <clipPath> <polygon points="60,0 120,50 120,100 60,150 0,100 0,50"/> </clipPath> <image href="drevo.svg" width="80%" height="80%" x="10%" y="10%"/> <circle cx="60" cy="75" r="15" fill="white" stroke="black" stroke-width="2"/> <text x="60" y="75" text-anchor="middle" alignment-baseline="middle" fill="black" font-weight="bold" font-size="20">6</text> </svg><svg style="position: absolute; top: 225px; left: 540px;" width="120px" height="150px"> <polygon points="60,0 120,50 120,100 60,150 0,100 0,50" style="fill:Sienna;"/> <clipPath> <polygon points="60,0 120,50 120,100 60,150 0,100 0,50"/> </clipPath> <image href="drevo.svg" width="80%" height="80%" x="10%" y="10%"/> <circle cx="60" cy="75" r="15" fill="white" stroke="black" stroke-width="2"/> <text x="60" y="75" text-anchor="middle" alignment-baseline="middle" fill="black" font-weight="bold" font-size="20">10</text> </svg><svg style="position: absolute; top: 225px; left: 300px;" width="120px" height="150px" alt="Pou&#353;&#357;"> <polygon points="60,0 120,50 120,100 60,150 0,100 0,50" style="fill:Yellow;"/> <clipPath> <polygon points="60,0 120,50 120,100 60,150 0,100 0,50"/> </clipPath> <image href="poust.svg" width="80%" height="80%" x="10%" y="10%"/> <image style="pointer-events: none; display:block;"/> </svg><svg style="position: absolute; top: 125px; left: 360px;" width="120px" height="150px" alt="Cihla"> <polygon points="60,0 120,50 120,100 60,150 0,100 0,50" style="fill:Firebrick;"/> <clipPath> <polygon points="60,0 120,50 120,100 60,150 0,100 0,50"/> </clipPath> <image href="cihla.svg" width="80%" height="80%" x="10%" y="10%"/> <circle cx="60" cy="75" r="15" fill="white" stroke="black" stroke-width="2"/> <text x="60" y="75" text-anchor="middle" alignment-baseline="middle" fill="black" font-weight="bold" font-size="20">10</text> </svg><svg style="position: absolute; top: 425px; left: 180px;" width="120px" height="150px" alt="K&#225;men"> <polygon points="60,0 120,50 120,100 60,150 0,100 0,50" style="fill:Gray;"/> <clipPath> <polygon points="60,0 120,50 120,100 60,150 0,100 0,50"/> </clipPath> <image href="kamen.svg" width="80%" height="80%" x="10%" y="10%"/> <circle cx="60" cy="75" r="15" fill="white" stroke="black" stroke-width="2"/> <text x="60" y="75" text-anchor="middle" alignment-baseline="middle" fill="black" font-weight="bold" font-size="20">4</text> </svg><svg style="position: absolute; top: 325px; left: 120px;" width="120px" height="150px"> <polygon points="60,0 120,50 120,100 60,150 0,100 0,50" style="fill:Sienna;"/> <clipPath> <polygon points="60,0 120,50 120,100 60,150 0,100 0,50"/> </clipPath> <image href="drevo.svg" width="80%" height="80%" x="10%" y="10%"/> <circle cx="60" cy="75" r="15" fill="white" stroke="black" stroke-width="2"/> <text x="60" y="75" text-anchor="middle" alignment-baseline="middle" fill="black" font-weight="bold" font-size="20">3</text> </svg><svg style="position: absolute; top: 25px; left: 420px;" width="120px" height="150px" alt="K&#225;men"> <polygon points="60,0 120,50 120,100 60,150 0,100 0,50" style="fill:Gray;"/> <clipPath> <polygon points="60,0 120,50 120,100 60,150 0,100 0,50"/> </clipPath> <image href="kamen.svg" width="80%" height="80%" x="10%" y="10%"/> <circle cx="60" cy="75" r="15" fill="white" stroke="black" stroke-width="2"/> <text x="60" y="75" text-anchor="middle" alignment-baseline="middle" fill="black" font-weight="bold" font-size="20">9</text> </svg><svg style="position: absolute; top: 325px; left: 360px;" width="120px" height="150px" alt="Cihla"> <polygon points="60,0 120,50 120,100 60,150 0,100 0,50" style="fill:Firebrick;"/> <clipPath> <polygon points="60,0 120,50 120,100 60,150 0,100 0,50"/> </clipPath> <image href="cihla.svg" width="80%" height="80%" x="10%" y="10%"/> <circle cx="60" cy="75" r="15" fill="white" stroke="black" stroke-width="2"/> <text x="60" y="75" text-anchor="middle" alignment-baseline="middle" fill="black" font-weight="bold" font-size="20">5</text> </svg><svg style="position: absolute; top: 225px; left: 420px;" width="120px" height="150px" alt="Cihla"> <polygon points="60,0 120,50 120,100 60,150 0,100 0,50" style="fill:Firebrick;"/> <clipPath> <polygon points="60,0 120,50 120,100 60,150 0,100 0,50"/> </clipPath> <image href="cihla.svg" width="80%" height="80%" x="10%" y="10%"/> <circle cx="60" cy="75" r="15" fill="white" stroke="black" stroke-width="2"/> <text x="60" y="75" text-anchor="middle" alignment-baseline="middle" fill="black" font-weight="bold" font-size="20">8</text> </svg><svg style="position: absolute; top: 125px; left: 120px;" width="120px" height="150px" alt="K&#225;men"> <polygon points="60,0 120,50 120,100 60,150 0,100 0,50" style="fill:Gray;"/> <clipPath> <polygon points="60,0 120,50 120,100 60,150 0,100 0,50"/> </clipPath> <image href="kamen.svg" width="80%" height="80%" x="10%" y="10%"/> <circle cx="60" cy="75" r="15" fill="white" stroke="black" stroke-width="2"/> <text x="60" y="75" text-anchor="middle" alignment-baseline="middle" fill="black" font-weight="bold" font-size="20">12</text> </svg><svg style="position: absolute; top: 125px; left: 480px;" width="120px" height="150px"> <polygon points="60,0 120,50 120,100 60,150 0,100 0,50" style="fill:Gold;"/> <clipPath> <polygon points="60,0 120,50 120,100 60,150 0,100 0,50"/> </clipPath> <image href="obili.svg" width="80%" height="80%" x="10%" y="10%"/> <circle cx="60" cy="75" r="15" fill="white" stroke="black" stroke-width="2"/> <text x="60" y="75" text-anchor="middle" alignment-baseline="middle" fill="black" font-weight="bold" font-size="20">11</text> </svg><svg style="position: absolute; top: 25px; left: 180px;" width="120px" height="150px"> <polygon points="60,0 120,50 120,100 60,150 0,100 0,50" style="fill:Gold;"/> <clipPath> <polygon points="60,0 120,50 120,100 60,150 0,100 0,50"/> </clipPath> <image href="obili.svg" width="80%" height="80%" x="10%" y="10%"/> <circle cx="60" cy="75" r="15" fill="white" stroke="black" stroke-width="2"/> <text x="60" y="75" text-anchor="middle" alignment-baseline="middle" fill="black" font-weight="bold" font-size="20">5</text> </svg><svg style="position: absolute; top: 425px; left: 300px;" width="120px" height="150px"> <polygon points="60,0 120,50 120,100 60,150 0,100 0,50" style="fill:Limegreen;"/> <clipPath> <polygon points="60,0 120,50 120,100 60,150 0,100 0,50"/> </clipPath> <image href="ovce.svg" width="80%" height="80%" x="10%" y="10%"/> <circle cx="60" cy="75" r="15" fill="white" stroke="black" stroke-width="2"/> <text x="60" y="75" text-anchor="middle" alignment-baseline="middle" fill="black" font-weight="bold" font-size="20">2</text> </svg><svg style="position: absolute; top: 225px; left: 60px;" width="120px" height="150px"> <polygon points="60,0 120,50 120,100 60,150 0,100 0,50" style="fill:Limegreen;"/> <clipPath> <polygon points="60,0 120,50 120,100 60,150 0,100 0,50"/> </clipPath> <image href="ovce.svg" width="80%" height="80%" x="10%" y="10%"/> <circle cx="60" cy="75" r="15" fill="white" stroke="black" stroke-width="2"/> <text x="60" y="75" text-anchor="middle" alignment-baseline="middle" fill="black" font-weight="bold" font-size="20">6</text> </svg><svg style="position: absolute; top: 425px; left: 420px;" width="120px" height="150px"> <polygon points="60,0 120,50 120,100 60,150 0,100 0,50" style="fill:Gold;"/> <clipPath> <polygon points="60,0 120,50 120,100 60,150 0,100 0,50"/> </clipPath> <image href="obili.svg" width="80%" height="80%" x="10%" y="10%"/> <circle cx="60" cy="75" r="15" fill="white" stroke="black" stroke-width="2"/> <text x="60" y="75" text-anchor="middle" alignment-baseline="middle" fill="black" font-weight="bold" font-size="20">8</text> </svg><svg style="position: absolute; top: 325px; left: 240px;" width="120px" height="150px"> <polygon style="fill:Sienna;"/> <clipPath> <polygon points="60,0 120,50 120,100 60,150 0,100 0,50"/> </clipPath> <image href="drevo.svg" width="80%" height="80%" x="10%" y="10%"/> <image style="pointer-events: none; display:none;"/> <circle cx="60" cy="75" r="15" fill="white" stroke="black" stroke-width="2"/> <text x="60" y="75" text-anchor="middle" alignment-baseline="middle" fill="black" font-weight="bold" font-size="20">4</text> </svg><svg style="position: absolute; top: 125px; left: 240px;" width="120px" height="150px"> <polygon style="fill:Gold;"/> <clipPath> <polygon points="60,0 120,50 120,100 60,150 0,100 0,50"/> </clipPath> <image href="obili.svg" width="80%" height="80%" x="10%" y="10%"/> <image style="pointer-events: none; display:none;"/> <circle cx="60" cy="75" r="15" fill="white" stroke="black" stroke-width="2"/> <text x="60" y="75" text-anchor="middle" alignment-baseline="middle" fill="black" font-weight="bold" font-size="20">11</text> </svg><svg style="position: absolute; top: 425px; left: 120px;" width="60px" height="50px" alt="cesta"> <polygon onclick="klik_cesta(event)"/> </svg><svg style="position: absolute; top: 475px; left: 150px;" width="60px" height="50px" alt="cesta"> <polygon onclick="klik_cesta(event)"/> </svg><svg style="position: absolute; top: 275px; left: 510px;" width="60px" height="50px" alt="cesta"> <polygon onclick="klik_cesta(event)"/> </svg><svg style="position: absolute; top: 225px; left: 300px;" width="60px" height="50px" alt="cesta"> <polygon onclick="klik_cesta(event)"/> </svg><svg style="position: absolute; top: 125px; left: 240px;" width="60px" height="50px" alt="cesta"> <polygon onclick="klik_cesta(event)"/> </svg><svg style="position: absolute; top: 25px; left: 240px;" width="60px" height="50px" alt="cesta"> <polygon onclick="klik_cesta(event)"/> </svg><svg style="position: absolute; top: 25px; left: 480px;" width="60px" height="50px" alt="cesta"> <polygon onclick="klik_cesta(event)"/> </svg><svg style="position: absolute; top: 425px; left: 360px;" width="60px" height="50px" alt="cesta"> <polygon onclick="klik_cesta(event)"/> </svg><svg style="position: absolute; top: 525px; left: 480px;" width="60px" height="50px" alt="cesta"> <polygon onclick="klik_cesta(event)"/> </svg><svg style="position: absolute; top: 75px; left: 270px;" width="60px" height="50px" alt="cesta"> <polygon onclick="klik_cesta(event)"/> </svg><svg style="position: absolute; top: 325px; left: 120px;" width="60px" height="50px" alt="cesta"> <polygon onclick="klik_cesta(event)"/> </svg><svg style="position: absolute; top: 275px; left: 150px;" width="60px" height="50px" alt="cesta"> <polygon onclick="klik_cesta(event)"/> </svg><svg style="position: absolute; top: 225px; left: 540px;" width="60px" height="50px" alt="cesta"> <polygon onclick="klik_cesta(event)"/> </svg><svg style="position: absolute; top: 25px; left: 300px;" width="60px" height="50px" alt="cesta"> <polygon onclick="klik_cesta(event)"/> </svg><svg style="position: absolute; top: 375px; left: 570px;" width="60px" height="50px" alt="cesta"> <polygon onclick="klik_cesta(event)"/> </svg><svg style="position: absolute; top: 325px; left: 180px;" width="60px" height="50px" alt="cesta"> <polygon onclick="klik_cesta(event)"/> </svg><svg style="position: absolute; top: 525px; left: 300px;" width="60px" height="50px" alt="cesta"> <polygon onclick="klik_cesta(event)"/> </svg><svg style="position: absolute; top: 375px; left: 330px;" width="60px" height="50px" alt="cesta"> <polygon onclick="klik_cesta(event)"/> </svg><svg style="position: absolute; top: 25px; left: 180px;" width="60px" height="50px" alt="cesta"> <polygon onclick="klik_cesta(event)"/> </svg><svg style="position: absolute; top: 525px; left: 180px;" width="60px" height="50px" alt="cesta"> <polygon onclick="klik_cesta(event)"/> </svg><svg style="position: absolute; top: 125px; left: 300px;" width="60px" height="50px" alt="cesta"> <polygon onclick="klik_cesta(event)"/> </svg><svg style="position: absolute; top: 225px; left: 600px;" width="60px" height="50px" alt="cesta"> <polygon onclick="klik_cesta(event)"/> </svg><svg style="position: absolute; top: 175px; left: 210px;" width="60px" height="50px" alt="cesta"> <polygon onclick="klik_cesta(event)"/> </svg><svg style="position: absolute; top: 425px; left: 420px;" width="60px" height="50px" alt="cesta"> <polygon onclick="klik_cesta(event)"/> </svg><svg style="position: absolute; top: 125px; left: 480px;" width="60px" height="50px" alt="cesta"> <polygon onclick="klik_cesta(event)"/> </svg><svg style="position: absolute; top: 275px; left: 630px;" width="60px" height="50px" alt="cesta"> <polygon onclick="klik_cesta(event)"/> </svg><svg style="position: absolute; top: 325px; left: 240px;" width="60px" height="50px" alt="cesta"> <polygon onclick="klik_cesta(event)"/> </svg><svg style="position: absolute; top: 175px; left: 570px;" width="60px" height="50px" alt="cesta"> <polygon onclick="klik_cesta(event)"/> </svg><svg style="position: absolute; top: 525px; left: 240px;" width="60px" height="50px" alt="cesta"> <polygon onclick="klik_cesta(event)"/> </svg><svg style="position: absolute; top: 425px; left: 300px;" width="60px" height="50px" alt="cesta"> <polygon onclick="klik_cesta(event)"/> </svg><svg style="position: absolute; top: 225px; left: 240px;" width="60px" height="50px" alt="cesta"> <polygon onclick="klik_cesta(event)"/> </svg><svg style="position: absolute; top: 425px; left: 480px;" width="60px" height="50px" alt="cesta"> <polygon onclick="klik_cesta(event)"/> </svg><svg style="position: absolute; top: 225px; left: 480px;" width="60px" height="50px" alt="cesta"> <polygon onclick="klik_cesta(event)"/> </svg><svg style="position: absolute; top: 375px; left: 90px;" width="60px" height="50px" alt="cesta"> <polygon onclick="klik_cesta(event)"/> </svg><svg style="position: absolute; top: 125px; left: 420px;" width="60px" height="50px" alt="cesta"> <polygon onclick="klik_cesta(event)"/> </svg><svg style="position: absolute; top: 425px; left: 240px;" width="60px" height="50px" alt="cesta"> <polygon onclick="klik_cesta(event)"/> </svg><svg style="position: absolute; top: 75px; left: 150px;" width="60px" height="50px" alt="cesta"> <polygon onclick="klik_cesta(event)"/> </svg><svg style="position: absolute; top: 325px; left: 360px;" width="60px" height="50px" alt="cesta"> <polygon onclick="klik_cesta(event)"/> </svg><svg style="position: absolute; top: 225px; left: 120px;" width="60px" height="50px" alt="cesta"> <polygon onclick="klik_cesta(event)"/> </svg><svg style="position: absolute; top: 125px; left: 540px;" width="60px" height="50px" alt="cesta"> <polygon onclick="klik_cesta(event)"/> </svg><svg style="position: absolute; top: 325px; left: 480px;" width="60px" height="50px" alt="cesta"> <polygon onclick="klik_cesta(event)"/> </svg><svg style="position: absolute; top: 75px; left: 390px;" width="60px" height="50px" alt="cesta"> <polygon onclick="klik_cesta(event)"/> </svg><svg style="position: absolute; top: 475px; left: 510px;" width="60px" height="50px" alt="cesta"> <polygon onclick="klik_cesta(event)"/> </svg><svg style="position: absolute; top: 175px; left: 90px;" width="60px" height="50px" alt="cesta"> <polygon onclick="klik_cesta(event)"/> </svg><svg style="position: absolute; top: 25px; left: 360px;" width="60px" height="50px" alt="cesta"> <polygon onclick="klik_cesta(event)"/> </svg><svg style="position: absolute; top: 475px; left: 390px;" width="60px" height="50px" alt="cesta"> <polygon onclick="klik_cesta(event)"/> </svg><svg style="position: absolute; top: 425px; left: 540px;" width="60px" height="50px" alt="cesta"> <polygon onclick="klik_cesta(event)"/> </svg><svg style="position: absolute; top: 225px; left: 360px;" width="60px" height="50px" alt="cesta"> <polygon onclick="klik_cesta(event)"/> </svg><svg style="position: absolute; top: 275px; left: 270px;" width="60px" height="50px" alt="cesta"> <polygon onclick="klik_cesta(event)"/> </svg><svg style="position: absolute; top: 175px; left: 330px;" width="60px" height="50px" alt="cesta"> <polygon onclick="klik_cesta(event)"/> </svg><svg style="position: absolute; top: 325px; left: 60px;" width="60px" height="50px" alt="cesta"> <polygon onclick="klik_cesta(event)"/> </svg><svg style="position: absolute; top: 225px; left: 180px;" width="60px" height="50px" alt="cesta"> <polygon onclick="klik_cesta(event)"/> </svg><svg style="position: absolute; top: 275px; left: 390px;" width="60px" height="50px" alt="cesta"> <polygon onclick="klik_cesta(event)"/> </svg><svg style="position: absolute; top: 125px; left: 120px;" width="60px" height="50px" alt="cesta"> <polygon onclick="klik_cesta(event)"/> </svg><svg style="position: absolute; top: 425px; left: 180px;" width="60px" height="50px" alt="cesta"> <polygon onclick="klik_cesta(event)"/> </svg><svg style="position: absolute; top: 525px; left: 360px;" width="60px" height="50px" alt="cesta"> <polygon onclick="klik_cesta(event)"/> </svg><svg style="position: absolute; top: 175px; left: 450px;" width="60px" height="50px" alt="cesta"> <polygon onclick="klik_cesta(event)"/> </svg><svg style="position: absolute; top: 375px; left: 450px;" width="60px" height="50px" alt="cesta"> <polygon onclick="klik_cesta(event)"/> </svg><svg style="position: absolute; top: 325px; left: 300px;" width="60px" height="50px" alt="cesta"> <polygon onclick="klik_cesta(event)"/> </svg><svg style="position: absolute; top: 75px; left: 510px;" width="60px" height="50px" alt="cesta"> <polygon onclick="klik_cesta(event)"/> </svg><svg style="position: absolute; top: 475px; left: 270px;" width="60px" height="50px" alt="cesta"> <polygon onclick="klik_cesta(event)"/> </svg><svg style="position: absolute; top: 125px; left: 360px;" width="60px" height="50px" alt="cesta"> <polygon onclick="klik_cesta(event)"/> </svg><svg style="position: absolute; top: 125px; left: 180px;" width="60px" height="50px" alt="cesta"> <polygon onclick="klik_cesta(event)"/> </svg><svg style="position: absolute; top: 25px; left: 420px;" width="60px" height="50px" alt="cesta"> <polygon onclick="klik_cesta(event)"/> </svg><svg style="position: absolute; top: 225px; left: 420px;" width="60px" height="50px" alt="cesta"> <polygon onclick="klik_cesta(event)"/> </svg><svg style="position: absolute; top: 225px; left: 60px;" width="60px" height="50px" alt="cesta"> <polygon onclick="klik_cesta(event)"/> </svg><svg style="position: absolute; top: 325px; left: 600px;" width="60px" height="50px" alt="cesta"> <polygon onclick="klik_cesta(event)"/> </svg><svg style="position: absolute; top: 375px; left: 210px;" width="60px" height="50px" alt="cesta"> <polygon onclick="klik_cesta(event)"/> </svg><svg style="position: absolute; top: 325px; left: 540px;" width="60px" height="50px" alt="cesta"> <polygon onclick="klik_cesta(event)"/> </svg><svg style="position: absolute; top: 325px; left: 420px;" width="60px" height="50px" alt="cesta"> <polygon onclick="klik_cesta(event)"/> </svg><svg style="position: absolute; top: 525px; left: 420px;" width="60px" height="50px" alt="cesta"> <polygon onclick="klik_cesta(event)"/> </svg><svg style="position: absolute; top: 275px; left: 30px;" width="60px" height="50px" alt="cesta"> <polygon onclick="klik_cesta(event)"/> </svg><svg xmlns="http://www.w3.org/2000/svg" style="position: absolute; top: 300px; left: 150px;" width="60px" height="50px"> <circle fill="black"/> </svg><svg xmlns="http://www.w3.org/2000/svg" style="position: absolute; top: 400px; left: 90px;" width="60px" height="50px"> <circle fill="black"/> </svg><svg xmlns="http://www.w3.org/2000/svg" style="position: absolute; top: 450px; left: 150px;" width="60px" height="50px"> <circle fill="black"/> </svg><svg xmlns="http://www.w3.org/2000/svg" style="position: absolute; top: 500px; left: 150px;" width="60px" height="50px"> <circle fill="black"/> </svg><svg xmlns="http://www.w3.org/2000/svg" style="position: absolute; top: 250px; left: 510px;" width="60px" height="50px"> <circle fill="Red"/> <image href="vesnicka.svg" width="35" height="35" display="inline"/> </svg><svg xmlns="http://www.w3.org/2000/svg" style="position: absolute; top: 300px; left: 510px;" width="60px" height="50px"> <circle fill="Red"/> </svg><svg xmlns="http://www.w3.org/2000/svg" style="position: absolute; top: 250px; left: 270px;" width="60px" height="50px"> <circle fill="black"/> </svg><svg xmlns="http://www.w3.org/2000/svg" style="position: absolute; top: 200px; left: 330px;" width="60px" height="50px"> <circle fill="black"/> </svg><svg xmlns="http://www.w3.org/2000/svg" style="position: absolute; top: 150px; left: 210px;" width="60px" height="50px"> <circle fill="Blue"/> <image href="vesnicka.svg" width="35" height="35" display="inline"/> </svg><svg xmlns="http://www.w3.org/2000/svg" style="position: absolute; top: 100px; left: 270px;" width="60px" height="50px"> <circle fill="Blue"/> </svg><svg xmlns="http://www.w3.org/2000/svg" style="position: absolute; top: 50px; left: 270px;" width="60px" height="50px"> <circle fill="black"/> </svg><svg xmlns="http://www.w3.org/2000/svg" style="position: absolute; top: 0px; left: 210px;" width="60px" height="50px"> <circle fill="black"/> </svg><svg xmlns="http://www.w3.org/2000/svg" style="position: absolute; top: 50px; left: 510px;" width="60px" height="50px"> <circle fill="black"/> </svg><svg xmlns="http://www.w3.org/2000/svg" style="position: absolute; top: 0px; left: 450px;" width="60px" height="50px"> <circle fill="black"/> </svg><svg xmlns="http://www.w3.org/2000/svg" style="position: absolute; top: 450px; left: 390px;" width="60px" height="50px"> <circle fill="Red"/> <image href="vesnicka.svg" width="35" height="35" display="inline"/> </svg><svg xmlns="http://www.w3.org/2000/svg" style="position: absolute; top: 400px; left: 330px;" width="60px" height="50px"> <circle fill="black"/> </svg><svg xmlns="http://www.w3.org/2000/svg" style="position: absolute; top: 550px; left: 450px;" width="60px" height="50px"> <circle fill="black"/> </svg><svg xmlns="http://www.w3.org/2000/svg" style="position: absolute; top: 500px; left: 510px;" width="60px" height="50px"> <circle fill="black"/> </svg><svg xmlns="http://www.w3.org/2000/svg" style="position: absolute; top: 350px; left: 90px;" width="60px" height="50px"> <circle fill="black"/> </svg><svg xmlns="http://www.w3.org/2000/svg" style="position: absolute; top: 250px; left: 150px;" width="60px" height="50px"> <circle fill="Blue"/> <image href="vesnicka.svg" width="35" height="35" display="inline"/> </svg><svg xmlns="http://www.w3.org/2000/svg" style="position: absolute; top: 200px; left: 570px;" width="60px" height="50px"> <circle fill="black"/> </svg><svg xmlns="http://www.w3.org/2000/svg" style="position: absolute; top: 0px; left: 330px;" width="60px" height="50px"> <circle fill="black"/> </svg><svg xmlns="http://www.w3.org/2000/svg" style="position: absolute; top: 400px; left: 570px;" width="60px" height="50px"> <circle fill="black"/> </svg><svg xmlns="http://www.w3.org/2000/svg" style="position: absolute; top: 350px; left: 570px;" width="60px" height="50px"> <circle fill="black"/> </svg><svg xmlns="http://www.w3.org/2000/svg" style="position: absolute; top: 350px; left: 210px;" width="60px" height="50px"> <circle fill="Red"/> <image href="vesnicka.svg" width="35" height="35" display="inline"/> </svg><svg xmlns="http://www.w3.org/2000/svg" style="position: absolute; top: 550px; left: 330px;" width="60px" height="50px"> <circle fill="black"/> </svg><svg xmlns="http://www.w3.org/2000/svg" style="position: absolute; top: 500px; left: 270px;" width="60px" height="50px"> <circle fill="black"/> </svg><svg xmlns="http://www.w3.org/2000/svg" style="position: absolute; top: 350px; left: 330px;" width="60px" height="50px"> <circle fill="black"/> </svg><svg xmlns="http://www.w3.org/2000/svg" style="position: absolute; top: 50px; left: 150px;" width="60px" height="50px"> <circle fill="black"/> </svg><svg xmlns="http://www.w3.org/2000/svg" style="position: absolute; top: 550px; left: 210px;" width="60px" height="50px"> <circle fill="black"/> </svg><svg xmlns="http://www.w3.org/2000/svg" style="position: absolute; top: 150px; left: 330px;" width="60px" height="50px"> <circle fill="Blue"/> </svg><svg xmlns="http://www.w3.org/2000/svg" style="position: absolute; top: 250px; left: 630px;" width="60px" height="50px"> <circle fill="black"/> </svg><svg xmlns="http://www.w3.org/2000/svg" style="position: absolute; top: 200px; left: 210px;" width="60px" height="50px"> <circle fill="Blue"/> </svg><svg xmlns="http://www.w3.org/2000/svg" style="position: absolute; top: 400px; left: 450px;" width="60px" height="50px"> <circle fill="Red"/> </svg><svg xmlns="http://www.w3.org/2000/svg" style="position: absolute; top: 150px; left: 450px;" width="60px" height="50px"> <circle fill="Red"/> </svg><svg xmlns="http://www.w3.org/2000/svg" style="position: absolute; top: 100px; left: 510px;" width="60px" height="50px"> <circle fill="Red"/> <image href="mesto.svg" width="35" height="35" display="inline"/> </svg><svg xmlns="http://www.w3.org/2000/svg" style="position: absolute; top: 300px; left: 630px;" width="60px" height="50px"> <circle fill="black"/> </svg><svg xmlns="http://www.w3.org/2000/svg" style="position: absolute; top: 300px; left: 270px;" width="60px" height="50px"> <circle fill="black"/> </svg><svg xmlns="http://www.w3.org/2000/svg" style="position: absolute; top: 150px; left: 570px;" width="60px" height="50px"> <circle fill="black"/> </svg><svg xmlns="http://www.w3.org/2000/svg" style="position: absolute; top: 450px; left: 270px;" width="60px" height="50px"> <circle fill="black"/> </svg><svg xmlns="http://www.w3.org/2000/svg" style="position: absolute; top: 450px; left: 510px;" width="60px" height="50px"> <circle fill="Red"/> <image href="vesnicka.svg" width="35" height="35" display="inline"/> </svg><svg xmlns="http://www.w3.org/2000/svg" style="position: absolute; top: 200px; left: 450px;" width="60px" height="50px"> <circle fill="Red"/> </svg><svg xmlns="http://www.w3.org/2000/svg" style="position: absolute; top: 100px; left: 390px;" width="60px" height="50px"> <circle fill="Blue"/> <image href="mesto.svg" width="35" height="35" display="inline"/> </svg><svg xmlns="http://www.w3.org/2000/svg" style="position: absolute; top: 400px; left: 210px;" width="60px" height="50px"> <circle fill="black"/> </svg><svg xmlns="http://www.w3.org/2000/svg" style="position: absolute; top: 100px; left: 150px;" width="60px" height="50px"> <circle fill="black"/> </svg><svg xmlns="http://www.w3.org/2000/svg" style="position: absolute; top: 300px; left: 390px;" width="60px" height="50px"> <circle fill="black"/> </svg><svg xmlns="http://www.w3.org/2000/svg" style="position: absolute; top: 200px; left: 90px;" width="60px" height="50px"> <circle fill="black"/> </svg><svg xmlns="http://www.w3.org/2000/svg" style="position: absolute; top: 350px; left: 450px;" width="60px" height="50px"> <circle fill="Red"/> <image href="vesnicka.svg" width="35" height="35" display="inline"/> </svg><svg xmlns="http://www.w3.org/2000/svg" style="position: absolute; top: 50px; left: 390px;" width="60px" height="50px"> <circle fill="black"/> </svg><svg xmlns="http://www.w3.org/2000/svg" style="position: absolute; top: 150px; left: 90px;" width="60px" height="50px"> <circle fill="black"/> </svg><svg xmlns="http://www.w3.org/2000/svg" style="position: absolute; top: 500px; left: 390px;" width="60px" height="50px"> <circle fill="black"/> </svg><svg xmlns="http://www.w3.org/2000/svg" style="position: absolute; top: 250px; left: 390px;" width="60px" height="50px"> <circle fill="black"/> </svg><svg xmlns="http://www.w3.org/2000/svg" style="position: absolute; top: 300px; left: 30px;" width="60px" height="50px"> <circle fill="black"/> </svg></svg>