<?xml version="1.0" encoding="UTF-8"?>
<svg viewBox="0 0 180 180" xmlns="http://www.w3.org/2000/svg">
 <g stroke="#000">
  <g stroke-linejoin="round">
   <g transform="matrix(1.1984 -.78061 .69192 1.3521 -119.91 -2.1491)">
    <rect x="52.065" y="141.37" width="107.25" height="4" rx="3" ry="2" fill="#c87137"/>
    <path d="m49.839 136.44v0.039383c-4.2018 0.27675-7.5238 3.2489-7.5238 6.8934 0 3.6446 3.322 6.6167 7.5238 6.8934v0.039398h12.226v-13.866h-12.226z" fill="#c8beb7"/>
   </g>
   <g fill="#ff0">
    <path d="m107.46 46.326l-0.7736 1.4661c-1.2858 2.4366-0.58409 5.5693 1.5733 7.024-0.066925 0.004593 26.407 4.9856 27.666 6.729l16.781 23.242c2.1574 1.4548 4.9293 0.66427 6.215-1.7724l0.7736-1.4661c1.2858-2.4366 0.58408-5.5693-1.5733-7.024 0 0-9.9523-18.512-16.726-23.204-7.2545-5.0265-27.721-6.7661-27.721-6.7661-2.1574-1.4547-4.9293-0.66425-6.215 1.7724z"/>
    <path d="m131.79 103.44l0.9145-1.5903c1.5198-2.6429 4.6277-3.389 6.9683-1.6728-0.028778-0.077652 17.338 27.294 19.493 27.857l28.729 7.4999c2.3406 1.7161 3.0014 5.2254 1.4815 7.8684l-0.9145 1.5902c-1.5198 2.643-4.6277 3.3891-6.9683 1.6729 0 0-21.209-2.1296-28.669-7.456-7.9895-5.7048-19.553-27.901-19.553-27.901-2.3406-1.7162-3.0013-5.2255-1.4815-7.8684z"/>
    <path d="m121.74 107.89h1.6791c2.7908 0 5.0375 2.5369 5.0375 5.6882 0.041962-0.069511-10.831 31.284-10.075 33.631l10.075 31.292c0 3.1512-2.2467 5.6881-5.0375 5.6881h-1.6791c-2.7908 0-5.0375-2.5369-5.0375-5.6881 0 0-9.9687-21.246-10.075-31.211-0.11377-10.673 10.075-33.712 10.075-33.712 0-3.1512 2.2467-5.6882 5.0375-5.6882z"/>
    <path d="m87.02 21.206c-0.001717 10.104 7.2511 18.296 16.198 18.296 8.9474 0 16.2-8.1917 16.198-18.296 0.001724-10.104-7.2511-18.296-16.198-18.296-8.9474 0-16.2 8.1918-16.198 18.296z" stroke-width=".466"/>
    <rect transform="matrix(1.3052 -.51878 .45912 1.4728 -7.1439 -85.145)" x="41.443" y="104.56" width="22.784" height="46.881" rx="3" ry="3"/>
    <path d="m120.21 48.935l-1.4113-0.6128c-2.3456-1.0185-4.9612 0.29195-5.8647 2.9382-0.015335-0.073677 0.13356 30.223-1.1746 31.919l-17.439 22.6c-0.90346 2.6462 0.25748 5.5965 2.6031 6.615l1.4113 0.6128c2.3456 1.0185 4.9612-0.29199 5.8647-2.9382 0 0 14.47-14.203 17.416-22.532 3.1557-8.9213 1.1977-31.986 1.1977-31.986 0.90347-2.6463-0.25749-5.5965-2.603-6.615z"/>
   </g>
   <path d="m121.09 13.787c-2.3977-11.586-12.608-18.801-22.808-16.117-10.2 2.6842-16.526 14.252-14.133 25.839l18.47-4.8609 18.47-4.8609z" fill="#f60" stroke-width=".397"/>
  </g>
  <path d="m-7.3887 189.57c1.5038-2.0744 4.5707-12.676 5.766-18.07 0.87389-3.9436 2.4949-6.9222 3.2034-10.119 0.76299-3.4432 2.2965-5.9046 3.844-9.3963 1.6383-3.6967 4.5424-4.5973 5.766-10.119 0.9031-4.0754 3.543-4.794 7.0474-5.7823 4.1824-1.1796 6.538 7.3761 8.3287 9.3963 2.2741 2.5656 5.0597 3.5769 7.6881 5.0595 3.3686 1.9002 3.721 8.1184 4.4847 11.565 0.98015 4.4231 3.4202 6.394 4.4847 9.3963 1.1317 3.1919 4.9181 7.4831 6.4067 10.842 0.9971 2.2498 1.3813 4.7876 1.922 7.2279-19.645 0.14456-39.295-0.040848-58.942 0z" fill="#6c5d53" fill-rule="evenodd"/>
 </g>
</svg>
