<?xml version="1.0" encoding="UTF-8"?>
<svg width="328.75" height="230.34" viewBox="-0.736 -0.5 512 454" xmlns="http://www.w3.org/2000/svg">
 <path d="m197.76 0.0694c-0.67976 0-1.3522 0.07798-2.0231 0.18392-5.085 0.70625-10.199 2.002-15.143 3.5558-4.52 1.5537-8.7727 3.9427-12.445 7.0502s-6.0428 7.3121-7.1728 11.832c-0.98874 4.0962-0.98874 8.2263 0 12.323 0.98875 3.6725 3.1031 7.0212 6.0693 9.5638 1.5537 1.2712 2.6842 2.8657 3.2492 4.8432 0.8475 2.6837 1.6847 5.366 2.3909 7.9085 1.8362 6.9212 5.649 13.118 11.158 17.779 2.4012 2.1187 5.6593 2.852 8.7668 2.1457 0.2825-0.14125 0.5758-0.18392 0.85828-0.18392 0.98875 0 1.9486 0.43993 2.5136 1.2874s0.9809 1.8313 0.9809 2.8201c0 0.70625-0.08532 1.3968-0.36784 1.9618-0.70624 1.695-1.2928 3.4361-1.7166 5.2723-0.98874 4.52-1.4473 9.194-1.1648 13.855s1.7249 9.1645 3.9849 13.12l10.606 18.085 7.7859 16.675c0.84749 1.2712 1.2688 2.8073 1.41 6.6211 0 2.26 0.12261 4.3449 0.12261 5.3336v3.8623c0 6.3562-0.31732 12.403-1.1648 18.76-0.56499 4.8025-0.96226 9.6045-1.1035 14.407-0.28249 6.215-0.55715 12.305-0.98089 18.944-0.2825 4.52-1.1624 9.1513-2.5749 13.671-0.42375 1.5537-1.2423 3.1428-2.5136 4.414l-11.587 10.851-7.3567 6.4984c-12.571 5.65-24.583 12.59-35.741 20.783l-9.1346 6.6211-4.8432 5.211-8.7668 7.3567-7.1728-2.8201c-16.102 10.311-32.78 19.769-50.578 28.385l-3.9849 1.9618c-5.7912-5.2262-12.249-9.5883-19.311-13.12-3.8137-1.8362-7.9012-3.4067-12.139-4.5366-8.1925-2.1187-16.807 0.57137-22.315 6.9276-4.0962 4.6612-7.781 9.8791-10.606 15.388-1.2712 2.4012-3.1163 4.3929-5.5176 5.9467-1.9775 1.13-3.8412 2.719-5.3949 4.414-3.955 4.0962-7.2905 8.4823-10.116 13.426-2.825 4.6612-6.0938 9.1273-9.6251 13.365-1.8362 2.1187-3.516 4.4038-5.211 6.805-1.695 2.5425-3.388 5.3714-4.6593 8.3376l-5.2723 11.464-1.41 2.3909c-0.70625 0.42375-1.2502 0.80236-1.5326 1.2261-2.26 3.6725-4.5264 7.2027-6.9276 11.158-3.5312 5.7912-6.4828 12.177-8.4602 18.392-2.6837 7.6275-5.1154 15.533-7.2341 23.725l-1.41 5.6402h644.94v-11.832l-71.606-0.30653c-3.2487-0.565-6.5122-1.9888-9.1959-4.1075-14.125-11.582-25.27-26.271-32.615-43.221-1.13-2.5425-2.951-4.6382-5.211-6.1919-2.825-1.8362-6.0698-2.8201-9.3185-2.8201-2.5425-0.14125-5.0673 0.7146-6.6211 2.2683-0.98875 0.70624-1.9966 1.5248-3.1266 2.5136-4.2375 3.6725-8.9115 6.7574-13.855 9.4411l-5.6402 3.1266-5.211 2.2683c-1.2712 0.70624-2.2791 1.5434-3.1266 2.3909-1.13 1.2712-1.6739 2.8417-1.5326 4.5366 0 1.8362 0.26927 3.8225 0.55175 5.5176 0.14125 0.42375 0.1226 0.67976 0.12262 1.1035 0 1.5537-0.69058 3.1187-1.9618 4.1075l-8.3376 6.805-1.41 0.12261c-3.39 0-6.2346-2.6793-6.3758-6.0693l-0.24522-9.3185 0.55175-19.495 0.42915-21.028-0.30654-18.392c0-1.2712 0.18392-2.5111 0.18392-3.9236 0-4.52-0.45859-9.3538-1.1648-13.733-0.98875-6.9212-1.5326-13.843-1.5327-20.905 0-4.6612 0.29331-9.4392 0.85829-14.1l1.5326-15.265 0.85829-12.752-0.30653-13.978 0.55175-16.062-0.24522-33.657-1.8392-40.83c0.14125-0.98875 0.85046-1.6366 1.8392-1.7779 1.9775-0.2825 3.8225-0.89313 5.5176-2.0231 2.1187-1.2712 4.2144-2.799 6.1919-4.3527 2.1187-1.695 3.2492-4.3665 3.2492-7.0502 0-1.695-0.42132-3.4307-1.41-4.8432-2.1187-3.39-4.9476-6.1762-8.3376-8.1537-1.695-0.98875-3.2654-2.2659-4.5366-3.6784-4.9437-5.2262-8.0419-11.748-8.8894-17.963-1.4125-9.4637-2.5057-18.895-3.4944-29.488-0.42375-3.6725-1.3277-7.3812-2.8814-10.912-1.2712-3.1075-3.4895-5.6431-6.3145-7.4794-1.8362-1.2712-3.8466-2.3644-5.8241-3.4944-19.492-11.441-40.913-19.091-63.513-22.622-4.3787-0.70625-8.9193-0.45561-12.874 0.67437-7.2037 2.1187-14.253 4.0972-21.457 6.4984-3.5312 1.13-7.344 1.8632-11.158 2.1457-4.6612 0.42375-9.194 0.97305-13.855 1.9618-1.13 0.2825-2.2845 0.42912-3.5558 0.42914-1.5537 0-3.2468-0.25064-4.6593-0.67437-2.3483-0.74156-4.3792-2.1549-4.6593-2.207-1.6839-2.5282-3.2625-5.028-5.0884-8.3989-2.4012-4.0962-4.057-8.4583-4.9045-13.12-0.2825-1.9775-0.72243-4.0119-1.2874-6.1306-0.70624-3.2487-1.6901-6.4989-2.8201-9.7477-1.13-3.39-3.1403-6.3415-5.8241-8.4602-2.5425-2.26-5.4754-4.0678-8.5828-5.7628-1.8009-0.95343-3.8461-1.4714-5.8854-1.4714zm130.15 89.752 6.9276 0.12261 6.0693 0.73567 9.5024 1.8392c0.42373 0.14127 0.96226 0.4159 1.1035 0.9809l2.5749 5.5176 1.7779 4.0462 1.2874 3.5558 1.9618 4.6593 3.2492 6.4984 2.0231 3.5558 2.2683 5.4562 2.0844 6.3758 1.1648 4.7819 0.36784 1.8392c0.14127 0.28248 0.18392 0.6984 0.18392 0.9809-2e-5 1.9775-1.7009 3.6784-3.6784 3.6784h-0.12261c-0.70627 0-1.5621-0.25062-2.2683-0.67437l-4.5366-4.5366-4.7819-5.0884-2.8201-3.0653-2.2683-3.4331-1.7166-3.2492c-1.2712-2.6837-2.567-5.3287-3.5558-8.1537l-6.3145-7.2341-7.9085-8.7668-6.3758-6.1919c-0.42377-0.42375-0.44239-1.0049 0.12261-1.2874l1.8392-2.2683c0.42373-0.42375 1.1329-0.67437 1.8392-0.67437zm-67.927 59.712c1.13 0 2.0952 0.43993 2.9427 1.2874l4.2914 3.2492 3.4944 3.9849c0.98875 1.13 1.5327 2.5111 1.5327 3.9236 0 0.98875-0.08534 1.9912-0.36784 2.6975-0.42375 1.695-0.74109 3.412-1.1648 4.9658-0.42374 2.9662-1.3835 5.7711-2.5136 8.0311-1.695 3.2487-3.4361 6.3577-5.2723 9.7477-1.13 2.1187-2.3885 4.2144-3.801 6.1919s-2.6524 4.0918-3.9236 6.0693c-1.695 2.4012-3.2522 4.7902-5.0884 7.0502-2.4012 3.2487-4.9609 6.3763-7.7859 9.6251-0.42374 0.565-0.96765 0.73565-1.5326 0.73567-0.2825 0-0.47179-0.04265-0.61306-0.18392-0.565 0-0.9809-0.53851-0.9809-1.1035-0.14125-0.2825-0.12261-0.57576-0.12261-0.85828 0-1.13 0.31191-2.2604 0.73567-3.2492l1.9618-5.7628 1.6553-4.8432c2.26-6.9212 4.3984-14.262 6.3758-23.725 0.70625-3.6725 1.5567-7.3116 1.8392-8.5828 0.565-2.6837 0.85829-5.4087 0.85829-8.0924 0.14125-1.5537 0.53849-2.9402 1.1035-4.3527l2.8201-4.6593c0.70625-1.2712 2.1433-2.1457 3.5558-2.1457zm56.463 90.365c0.85627 0.04618 1.694 0.36342 2.3296 0.91959 1.8363 1.4125 3.0521 3.6254 3.6171 5.8854l0.73567 7.6633 0.85829 7.4793 2.0844 14.959c0.42373 3.6725 0.73568 7.1973 0.73568 10.729 0 3.39-0.31193 6.6829-0.73568 9.9316-0.14126 1.2713-0.12261 2.5297-0.12261 3.801 2e-5 3.6725 0.56794 7.3386 1.8392 10.729 0.98876 2.5425 2.1006 4.9128 3.3718 7.1728 3.2488 6.0737 5.6617 12.427 7.3567 19.066 1.13 4.6612 1.8205 9.3592 1.9618 14.162 0.2825 7.7687 1.309 15.546 3.004 23.174 0.98875 4.52 1.6661 8.1836 2.5136 12.139 0.14127 0.98877 1.4076 1.9618 2.8201 1.9618 0.28252 2e-5 0.57579 0.01864 0.85829-0.12261l3.3718 0.12261c0.70627 2e-5 1.4527 0.58118 1.594 1.2874 0.98877 3.39 1.41 6.7868 1.41 10.177 2e-5 3.2488-0.43993 6.4563-1.2874 9.5638-0.70626 3.1075-2.9804 5.5097-5.9467 6.4984-2.5425 0.84752-5.2248 1.5567-7.9085 1.8392-2.5425 0.42374-4.6647 2.258-5.0884 4.6593-0.2825 1.13-0.42915 2.1379-0.42915 3.1266v0.12261c2e-5 2.4012-1.5596 4.2782-3.6784 4.8432-2.1188 0.70622-4.3797 1.0849-6.4984 1.2261-3.2487 0.28252-6.4803 0.72243-9.8703 1.2874l-10.299 0.30653-12.016-0.55176-9.5638-1.594-6.1306-1.41-9.3185-1.8392-6.3145-1.2261-7.6633-1.4714 17.411-11.832 0.79698-0.55175 3.2492-0.9809 6.4984-1.594 12.629-7.4794-0.73567-2.5136c-0.98873-4.3787-3.079-8.65-5.7628-12.323-2.26-3.2488-4.4356-6.627-6.1306-10.299-1.4125-2.825-2.0658-5.6593-2.207-8.7668-0.56502-9.7462-2.3007-19.454-4.8432-29.059-2.9663-10.452-6.4857-21.206-10.299-31.94-1.9775-5.2262-2.9481-10.156-3.3718-14.959-0.14127-1.13-0.32516-2.3032-0.18392-3.4331-1e-5 -0.70623 0.31193-1.3968 0.73568-1.9618l3.801-3.5558 4.5366-3.4944 4.2301-3.801 5.211-4.6593 3.2492-3.4332 14.284-15.51 1.8392-2.3909 0.85829-1.2874c0.84747-1.2712 1.8313-2.5297 2.8201-3.801 0.56498-0.70622 1.1329-1.1702 1.8392-1.594l5.7628-3.4944 4.2301-1.5326c0.35312-0.14125 0.72832-0.25578 1.1035-0.30653 0.2814-0.03808 0.57286-0.0767 0.85828-0.0613zm-119.18 24.339 12.016 32.799 0.30653 1.2261 0.24522 1.2874 4.6593 15.572 3.9849 15.94 2.9427 10.177 1.9618 7.602 4.2301 19.25 1.1648 6.0693c0.70627 3.1075 2.0928 5.9364 4.3527 8.3376 0.84749 0.84752 1.8313 1.538 2.8201 1.9618 2.4012 1.2712 4.9795 1.8392 7.6633 1.8392 0.42373 2e-5 0.9863 0.01864 1.41-0.12261 1.8362-0.14125 3.6519 0.5493 4.7819 1.9618 2.5425 2.9662 4.0943 6.4857 4.6593 10.299v0.55176c0 0.70624-0.14664 1.3968-0.42914 1.9618l-5.211 8.3376-0.9809 1.594-11.709 6.6211c-0.8475 0.42373-1.41 1.4022-1.41 2.3909 2e-5 0.14123 0 0.2879 0 0.42914l0.98089 3.801-3.9849-0.85828c-5.085-1.2712-10.308-1.7779-15.817-1.7779-3.1075 0-6.3337 0.12801-9.4411 0.55176-6.0737 0.84751-12.281 1.9407-18.637 3.4944-6.4975 1.5537-13.126 2.4336-20.047 2.5749-4.6612 0.14125-9.3538-0.44533-13.733-1.7166-1.8362-0.42373-3.9692-0.98629-5.9467-1.41-4.0962-0.70623-7.7383-2.6739-10.422-5.6402-1.9775-1.9775-4.3851-4.649-6.9276-7.0502l-6.3758-9.0733-3.4944-5.6402-3.8623-5.5176-3.3718-4.9045-5.3336-8.215-2.5748-4.1075-3.6784-7.4794-2.6975-5.9467-1.8392-3.6784-1.5326-2.9427c-5.3675-9.7462-12.143-18.777-20.476-26.546l3.5558-0.73567 9.7477-2.0844c6.6387-1.4125 12.974-3.3856 19.189-6.0693 5.3675-2.26 9.4524-3.9452 13.549-5.6402 4.9437-1.9775 9.9056-5.2223 14.284-9.3185l6.9276-5.8241 5.8854-5.9467 3.8623-3.2492 4.3527-3.2492 4.1075-2.9427 5.0884-3.1266 3.6784-1.9618 3.9236-1.9618 4.1075-2.0231 4.414-2.207 3.2492-1.7166 2.9427-1.8392 2.8201-1.5326 6.0693-2.5749z"/>
 <path d="m155.37 109.39 0.43199 0.64798" fill="none" stroke="#000" stroke-width=".216"/>
</svg>
