<?xml version="1.0" encoding="UTF-8"?>
<svg enable-background="new 0 0 154.391 76.883" viewBox="0 0 154.391 76.883" xmlns="http://www.w3.org/2000/svg">
 <path d="m106.35 46.32c0 16.867-13.68 30.562-30.555 30.562s-30.555-13.694-30.555-30.562c0-16.875 13.672-30.57 30.555-30.57s30.555 13.695 30.555 30.57h-8.555c0-12.148-9.853-22-22-22s-22 9.852-22 22c0 12.141 9.852 21.992 22 21.992s22-9.853 22-21.992h8.555z"/>
 <path d="m152.703,0c-2.884,3.461-6.75,3.461-6.75,3.461l-101.609,2.219c-9.266.32-10.953,7.679-11.164,11.843-.883-1.312-2.383-2.164-4.07-2.164-2.719,0-4.914,2.195-4.914,4.922 0,2.711 2.195,4.891 4.914,4.891 1.898,0 3.539-1.086 4.353-2.656 .438,2.586 1.695,6.883 5.272,9.211l-16.821,27.343-9.478.945v-3.125l-12.436.891 1.32,16.907 29.484-3.617 16.055-26.484 8.32-12.492 4.586-.594 9.767,9.766c-.688.853-1.203,1.828-1.5,2.93h-17.509v3.103h17.289c.148,1.242.556,2.397 1.211,3.414l-12.078,12.07 2.188,2.188 12.031-12.04c1.016.711 2.203,1.164 3.477,1.359v17.102h3.086v-17.25c1.164-.281 2.228-.828 3.125-1.562l12.383,12.389 2.181-2.188-12.588-12.555c.516-.897.828-1.883.953-2.93h18.069v-3.102h-18.288c-.242-.906-.625-1.758-1.147-2.508l13-13-1.547-1.562 53.319-6.844c0,0 3.806-.578 7.203,2.805l-1.687-23.086zm-78.062,29.594v8.75c-.983.164-1.906.477-2.742.945l-8.266-8.281 11.008-1.414zm5.554,9.945c-.75-.477-1.586-.828-2.469-1.047v-9.305l14.695-1.875-12.226,12.227z"/>
</svg>
