<?xml version="1.0" encoding="UTF-8"?>
<svg viewBox="0 0 448 480" xmlns="http://www.w3.org/2000/svg">
 <g stroke="#000" stroke-width="5">
  <circle cx="223.6" cy="192.51" r="136.01" fill="#fff"/>
  <path d="m104.38 126.01c74.883 1.3675 165.77-0.26495 240.65 1.1026l14.066 77.872-271-2.9744 16.284-76z"/>
  <g fill="#fff">
   <path d="m2.4981 471.01c0-76.575 99.168-138.6 221.6-138.6s221.6 62.025 221.6 138.6-443.2 76.575-443.2 0z"/>
   <ellipse cx="164.6" cy="163.51" rx="42.5" ry="17.5"/>
  </g>
  <path d="m78.098 370.01h297l21 13-345 3 27-16z"/>
  <path d="m26.098 408.01h392l12 13h-414l10-13z"/>
  <path d="m9.0977 445.01l431-1 4 17-438-1 3-15z"/>
  <path d="m142.1 339.01h158l34 12-222 2 30-14z"/>
  <ellipse cx="280.6" cy="163.51" rx="42.5" ry="17.5" fill="#fff"/>
 </g>
</svg>
